<svg id="Layer_1" data-name="Layer 1" xmlns="http://www.w3.org/2000/svg" xmlns:xlink="http://www.w3.org/1999/xlink" viewBox="0 0 438.47 365.04"><defs><style>.cls-1{fill:none;}.cls-2{isolation:isolate;}.cls-3{clip-path:url(#clip-path);}.cls-17,.cls-26,.cls-4{fill:#fff;}.cls-5{clip-path:url(#clip-path-2);}.cls-15,.cls-6{fill:#da432f;}.cls-7{clip-path:url(#clip-path-3);}.cls-8{fill:#2aaae1;}.cls-9{clip-path:url(#clip-path-4);}.cls-10{fill:#34b98b;}.cls-11{clip-path:url(#clip-path-5);}.cls-12,.cls-13,.cls-15,.cls-17,.cls-25{font-size:7.67px;}.cls-12{fill:#33b88b;}.cls-12,.cls-13,.cls-14,.cls-15,.cls-17,.cls-25,.cls-26{font-family:FjallaOne-Regular, Fjalla One;}.cls-13{fill:#29aae1;}.cls-14{font-size:6.71px;}.cls-14,.cls-18{fill:#101924;}.cls-16{fill:#969696;}.cls-19,.cls-24{fill:#bcbec0;}.cls-20{fill:#919396;}.cls-21{fill:#e7e7e7;}.cls-22,.cls-25{fill:#231f20;}.cls-23{fill:#da432e;}.cls-24{stroke:#fff;stroke-miterlimit:10;stroke-width:1.11px;}.cls-26{font-size:8.75px;}</style><clipPath id="clip-path" transform="translate(-2.28 -32.77)"><polygon class="cls-1" points="94.43 423.56 -50.1 90.65 348.6 20.35 493.13 353.26 94.43 423.56"/></clipPath><clipPath id="clip-path-2" transform="translate(-2.28 -32.77)"><polygon class="cls-1" points="90.19 430.29 -59.16 86.27 352.84 13.62 502.2 357.64 90.19 430.29"/></clipPath><clipPath id="clip-path-3" transform="translate(-2.28 -32.77)"><polygon class="cls-1" points="159.91 315.6 79.04 129.33 302.31 89.96 383.18 276.24 159.91 315.6"/></clipPath><clipPath id="clip-path-4" transform="translate(-2.28 -32.77)"><polygon class="cls-1" points="207.2 238.72 174.56 163.55 264.6 147.67 297.24 222.85 207.2 238.72"/></clipPath><clipPath id="clip-path-5" transform="translate(-2.28 -32.77)"><polygon class="cls-1" points="129.88 365.27 20.25 112.75 322.74 59.42 432.37 311.94 129.88 365.27"/></clipPath></defs><title>circle of shame</title><g class="cls-2"><g class="cls-3"><path class="cls-4" d="M149.25,55.5C39.15,74.91-17.74,165.17,22.17,257.1S183.69,407.82,293.78,388.41s167-109.67,127.08-201.61S259.35,36.08,149.25,55.5" transform="translate(-2.28 -32.77)"/></g></g><g class="cls-2"><g class="cls-5"><path class="cls-6" d="M295.55,392.48C241,402.1,182,393.41,129.45,368S37.06,303.52,17.29,258,.17,165.85,24.75,126.84,92.93,61,147.48,51.42,261,50.5,313.58,75.91s92.39,64.48,112.17,110,17.12,92.11-7.47,131.13-68.17,65.79-122.73,75.41M146.84,49.94c-55,9.7-99,36.72-123.79,76.06s-27.48,86.32-7.53,132.28,60.13,85.36,113.15,111S241.18,403.67,296.2,394s99-36.72,123.8-76.07,27.48-86.32,7.53-132.27-60.13-85.37-113.14-111S201.87,40.24,146.84,49.94" transform="translate(-2.28 -32.77)"/></g></g><g class="cls-2"><g class="cls-7"><path class="cls-8" d="M270.89,294.44c-60.57,10.68-127.71-21.75-149.65-72.29s9.49-100.34,70.07-111S319,132.88,341,183.41s-9.5,100.35-70.07,111M190.67,109.65c-61.55,10.85-93.49,61.46-71.2,112.82S210,306.77,271.54,295.92s93.5-61.47,71.2-112.82-90.51-84.3-152.07-73.45" transform="translate(-2.28 -32.77)"/></g></g><g class="cls-2"><g class="cls-9"><path class="cls-10" d="M251.57,229.31c-23.85,4.2-50.28-8.58-58.92-28.49s3.72-39.52,27.57-43.73,50.27,8.57,58.92,28.48-3.72,39.53-27.57,43.74m-32-73.7c-24.83,4.38-37.7,24.8-28.7,45.52s36.51,34,61.34,29.65,37.7-24.8,28.7-45.53-36.51-34-61.33-29.65" transform="translate(-2.28 -32.77)"/></g></g><g class="cls-2"><g class="cls-11"><path class="cls-6" d="M182,84.55l.26.75c2.41-.28,4.82-.51,7.25-.7l-.22-.75q-3.66.29-7.3.71m-21.24,3.78q-3.46.83-6.81,1.8l.42.72q3.34-1,6.78-1.79l-.39-.73m35.91-4.91.18.76q3.69-.15,7.39-.14l-.13-.76q-3.71,0-7.43.14M147.28,92.2c-2.2.73-4.35,1.52-6.48,2.33l.5.69q3.17-1.22,6.45-2.32l-.47-.7m64.31-8.78.09.76q3.74.14,7.48.42l0-.75q-3.75-.28-7.52-.43M134.5,97.12q-3.11,1.37-6.09,2.85l.57.66q3-1.48,6.06-2.84l-.54-.68m92.18-12.56v.75q3.76.43,7.51,1l0-.74c-2.51-.38-5-.71-7.55-1M122.54,103.07q-2.89,1.61-5.63,3.34l.65.62c1.82-1.14,3.69-2.24,5.59-3.31l-.6-.64M241.76,86.84l-.09.74q3.75.71,7.46,1.54l.13-.73q-3.73-.85-7.5-1.55M111.51,110c-1.76,1.23-3.47,2.49-5.14,3.8l.7.57q2.5-1.93,5.12-3.77l-.67-.6m145.2-19.75-.18.72q3.69,1,7.33,2.08l.23-.7q-3.67-1.12-7.38-2.11M101.48,117.78c-1.58,1.38-3.12,2.78-4.61,4.22l.76.53q2.22-2.14,4.58-4.19l-.74-.56M271.37,94.69l-.26.69q3.59,1.24,7.15,2.6l.31-.68q-3.57-1.37-7.2-2.62M92.55,126.42c-1.39,1.5-2.74,3-4,4.6l.81.48q1.93-2.34,4-4.58l-.78-.5m193.09-26.24-.35.66c2.32,1,4.63,2,6.9,3.09l.39-.64q-3.43-1.62-6.94-3.12M84.78,135.8q-1.79,2.44-3.43,5l.85.42c1.08-1.67,2.21-3.31,3.41-4.92l-.83-.45m214.6-29.16-.43.62q3.33,1.73,6.59,3.56l.47-.6q-3.28-1.85-6.63-3.58M78.24,145.87c-1,1.73-1.91,3.48-2.79,5.26l.89.36q1.3-2.64,2.77-5.23l-.87-.39M312.48,114l-.51.58q3.17,1.94,6.24,4l.54-.56q-3.09-2.06-6.26-4M73,156.52q-1.14,2.73-2.12,5.52l.91.3q1-2.77,2.11-5.49l-.9-.33m251.82-34.23-.58.53c2,1.43,3.92,2.89,5.82,4.39l.61-.51q-2.88-2.26-5.85-4.42M69.09,167.66c-.54,1.89-1,3.8-1.44,5.73l.93.23c.42-1.91.89-3.82,1.43-5.69l-.92-.26m267.19-36.35-.64.47q2.72,2.34,5.34,4.76l.68-.45q-2.62-2.45-5.38-4.79M66.57,179.21q-.45,2.92-.74,5.89l.94.16q.28-3,.73-5.86l-.94-.19m280.22-38.16-.71.42q2.48,2.49,4.84,5.09l.74-.39c-1.58-1.74-3.21-3.44-4.87-5.12m-281.33,50q-.1,3,0,6l.94.09q-.08-3,0-6l-.94-.12m290.78-39.62-.77.35q2.21,2.64,4.28,5.37l.79-.33c-1.39-1.82-2.82-3.63-4.3-5.4M65.77,203.07c.16,2,.4,4,.69,6h.94c-.29-2-.52-4-.69-6l-.94-.06m298.77-40.72-.81.29c1.27,1.84,2.51,3.71,3.68,5.6l.84-.26q-1.78-2.85-3.7-5.64m-297,52.81c.41,2,.88,4,1.4,6l.93-.06c-.52-2-1-4-1.39-6l-.93,0m304.13-41.45-.85.23q1.61,2.86,3.06,5.78l.87-.19q-1.47-2.94-3.07-5.81m-301,53.51q.95,3,2.08,6l.9-.12c-.75-2-1.44-4-2.06-6l-.91.09m306.8-41.81-.88.16.12.27q1.29,3,2.39,5.91l.91-.12c-.74-2-1.55-4-2.41-5.95l-.12-.27M76,239l-.89.16q1.29,3,2.74,5.89l.87-.19Q77.31,242,76,239m305.11-41.3q1,3,1.72,6l.92,0q-.77-3-1.73-6l-.91.09M81.79,250.64l-.85.23q1.61,2.91,3.38,5.73l.83-.25q-1.75-2.82-3.36-5.7m302.44-40.93q.6,3,1,6h.94c-.29-2-.63-4-1-6h-.93M88.81,261.95l-.81.29q1.93,2.8,4,5.52l.79-.32q-2.07-2.71-4-5.5m297.13-40.21c.17,2,.28,4,.33,6l.94.1q-.06-3-.32-6l-.95-.05M97.06,272.81l-.77.35q2.24,2.68,4.58,5.27l.74-.38q-2.34-2.57-4.55-5.24m289.17-39.12c-.06,2-.19,4-.38,5.91l.94.16c.19-2,.32-4,.39-6l-1-.12M106.45,283.14l-.71.42q2.49,2.52,5.11,5l.68-.44q-2.6-2.43-5.08-4.93m278.66-37.68q-.46,2.91-1.09,5.78l.93.23q.63-2.88,1.09-5.81l-.94-.19M116.87,292.83l-.64.48q2.75,2.34,5.61,4.61l.61-.51q-2.84-2.24-5.59-4.58m265.71-35.9q-.8,2.83-1.77,5.6l.91.3c.65-1.86,1.25-3.73,1.79-5.63l-.92-.26M128.27,301.81l-.58.53c2,1.44,4,2.85,6.06,4.22l.54-.55q-3.05-2-6-4.2M378.69,268c-.76,1.8-1.58,3.59-2.45,5.36l.89.36c.87-1.78,1.7-3.57,2.47-5.39l-.9-.33M140.52,310l-.5.58q3.19,2,6.46,3.81l.47-.6q-3.26-1.84-6.42-3.79m232.94-31.44q-1.48,2.57-3.1,5.08l.85.43c1.09-1.68,2.13-3.39,3.12-5.11l-.86-.39M153.53,317.38l-.42.61q3.35,1.74,6.79,3.36l.39-.64q-3.42-1.61-6.76-3.34m213.41-28.8q-1.78,2.43-3.72,4.76l.81.47c1.3-1.56,2.55-3.16,3.74-4.78l-.83-.45M167.19,323.82l-.35.65q3.5,1.5,7.08,2.88l.31-.68q-3.55-1.36-7-2.85m192-25.91q-2.08,2.24-4.3,4.39l.76.53q2.24-2.16,4.33-4.41l-.78-.51M181.36,329.28l-.27.69q3.62,1.25,7.3,2.37l.22-.7q-3.65-1.12-7.25-2.36m169-22.8q-2.35,2-4.86,4l.71.58q2.51-2,4.89-4l-.74-.56M195.94,333.74l-.18.71c2.46.66,5,1.27,7.44,1.84l.14-.73c-2.49-.56-4.95-1.17-7.4-1.82m144.39-19.5q-2.61,1.82-5.37,3.54l.64.62q2.78-1.72,5.4-3.57l-.67-.6M210.8,337.12l-.09.74q3.75.71,7.53,1.28l0-.74q-3.76-.57-7.49-1.28m118.56-16q-2.85,1.6-5.84,3.08l.57.66q3-1.48,5.88-3.1l-.61-.64M225.79,339.39v.75c2.51.29,5,.53,7.56.73l0-.75q-3.76-.29-7.51-.72M317.45,327q-3.07,1.35-6.26,2.58l.5.69c2.14-.83,4.25-1.68,6.3-2.59l-.54-.68m-76.66,13.56.09.76c2.49.1,5,.15,7.49.15l-.13-.76c-2.48,0-5-.05-7.44-.15m64-8.67q-3.26,1.09-6.62,2.05l.42.72q3.39-1,6.66-2.07l-.46-.71m-49.11,8.69.17.76c2.46-.1,4.92-.23,7.38-.42l-.21-.76q-3.67.28-7.33.42m35.7-4.85q-3.41.83-6.92,1.51l.34.74q3.54-.7,7-1.53l-.39-.73m-21.13,3.73.26.75q3.61-.42,7.19-1l-.3-.74q-3.58.56-7.16,1M171.5,86.09c-1.27.22-2.53.46-3.79.71l.35.74c1.25-.25,2.5-.49,3.76-.71l3.29-.55-.3-.74c-1.11.17-2.2.36-3.3.55" transform="translate(-2.28 -32.77)"/></g></g><text class="cls-12" transform="translate(227.96 182.96)">HARDWARE</text><text class="cls-13" transform="translate(292.45 221.29)">CLOUD OS</text><text class="cls-14" transform="translate(94.13 103.98)">API ENDPOINTS</text><text class="cls-15" transform="translate(338.37 242.38)">DOMAIN</text><text class="cls-15" transform="translate(376.41 260.12)">APPLICATION</text><polygon class="cls-16" points="303.47 183.43 366.94 183.43 371.73 168.09 308.27 168.09 303.47 183.43"/><text class="cls-17" transform="translate(321.71 178.65)">Service Admin</text><polygon class="cls-16" points="303.47 183.43 311.17 183.43 301.08 191.1 303.47 183.43"/><circle class="cls-4" cx="314.04" cy="173.37" r="2.4"/><path class="cls-4" d="M320.16,211.24c0,1-1.72,2.09-3.83,2.09s-3.83-1.13-3.83-2.09,0-1.74,3.83-1.74S320.16,210.28,320.16,211.24Z" transform="translate(-2.28 -32.77)"/><polygon class="cls-16" points="190.86 234.71 273.98 234.71 278.77 219.38 195.65 219.38 190.86 234.71"/><text class="cls-17" transform="translate(209.1 229.93)">Automation Engineer</text><polygon class="cls-16" points="190.86 234.71 198.56 234.71 188.47 242.38 190.86 234.71"/><circle class="cls-4" cx="201.43" cy="224.66" r="2.4"/><path class="cls-4" d="M207.55,262.53c0,1-1.72,2.09-3.83,2.09s-3.83-1.13-3.83-2.09,0-1.74,3.83-1.74S207.55,261.57,207.55,262.53Z" transform="translate(-2.28 -32.77)"/><polygon class="cls-16" points="236.01 153.13 302.36 153.13 307.15 137.79 240.81 137.79 236.01 153.13"/><text class="cls-17" transform="translate(254.25 148.35)">Datacenter Ops</text><polygon class="cls-16" points="236.01 153.13 243.71 153.13 233.62 160.8 236.01 153.13"/><circle class="cls-4" cx="246.58" cy="143.07" r="2.4"/><path class="cls-4" d="M252.7,180.95c0,1-1.72,2.09-3.83,2.09s-3.83-1.13-3.83-2.09,0-1.74,3.83-1.74S252.7,180,252.7,180.95Z" transform="translate(-2.28 -32.77)"/><circle class="cls-18" cx="137.22" cy="101.17" r="2.4"/><path class="cls-19" d="M223,59.29a13,13,0,0,1,.09-26h.1a13,13,0,0,1-.09,26Z" transform="translate(-2.28 -32.77)"/><path class="cls-4" d="M223.2,33.88a12.43,12.43,0,0,1-.09,24.85H223a12.43,12.43,0,0,1,.09-24.85h.1m0-1.11h-.1a13.53,13.53,0,0,0-.1,27.07h.11a13.53,13.53,0,0,0,.1-27.07Z" transform="translate(-2.28 -32.77)"/><path class="cls-20" d="M222.94,58.57A12.47,12.47,0,0,0,235.21,48l-3.26-3.27-2.57-2.57c-.86-.85-1.7-1.73-2.57-2.57-.41-.43-.83-.85-1.26-1.26a3.66,3.66,0,0,0-5.5,4.78,6.43,6.43,0,0,0,.69.76l1.61,1.61a4,4,0,0,1-.85-.25l-.19-.09a.32.32,0,0,0-.2,0l-.43.05a9.45,9.45,0,0,0-1.44.32,5,5,0,0,0-1.95,1.06A4.44,4.44,0,0,0,216,49.85c0,.46,0,.93,0,1.39v1h0l.05,0s0,0,0,0l6.18,6.17.54,0Z" transform="translate(-2.28 -32.77)"/><path class="cls-4" d="M223,44.69A3.66,3.66,0,1,0,219.35,41,3.66,3.66,0,0,0,223,44.69" transform="translate(-2.28 -32.77)"/><path class="cls-4" d="M224.63,45.15a3.09,3.09,0,0,1-1.62.43,3.9,3.9,0,0,1-1.78-.43c-4.4.44-5.2,2.6-5.2,4.94V52.3a8.15,8.15,0,0,0,2.4,1.14V49.61l1.08,4.1a12,12,0,0,0,3.52.36,15,15,0,0,0,3.93-.5l.48-2.93v2.79a8.15,8.15,0,0,0,2.4-1.14V50.09c0-2.34-.8-4.49-5.2-4.94" transform="translate(-2.28 -32.77)"/><path class="cls-21" d="M225.61,47.79v11c0,2.09,2.12,4.06,3.9,5.35a26.44,26.44,0,0,0,3.77,2.24,26.4,26.4,0,0,0,3.79-2.26c1.77-1.28,3.88-3.25,3.88-5.33v-11a16.24,16.24,0,0,0-15.34,0" transform="translate(-2.28 -32.77)"/><path class="cls-22" d="M225.81,48V58.67c0,2,2.06,4,3.8,5.21a25.75,25.75,0,0,0,3.67,2.19,25.76,25.76,0,0,0,3.69-2.2c1.72-1.25,3.78-3.17,3.78-5.19V48a15.81,15.81,0,0,0-14.93,0m7.47,19.56a.71.71,0,0,1-.29-.06A26.42,26.42,0,0,1,228.77,65a14.65,14.65,0,0,1-3-2.74,5.91,5.91,0,0,1-1.43-3.62V47.55a.71.71,0,0,1,.39-.64,17.45,17.45,0,0,1,17,0,.71.71,0,0,1,.39.64V58.67a5.91,5.91,0,0,1-1.43,3.62,14.65,14.65,0,0,1-3,2.74,26.42,26.42,0,0,1-4.22,2.47.71.71,0,0,1-.29.06" transform="translate(-2.28 -32.77)"/><path class="cls-23" d="M232.63,60.11h-.06a.45.45,0,0,1-.38-.51l1.31-9.14a.45.45,0,0,1,.51-.38.45.45,0,0,1,.38.51l-1.31,9.14a.45.45,0,0,1-.45.39" transform="translate(-2.28 -32.77)"/><path class="cls-23" d="M230.88,58.81a.45.45,0,0,1-.34-.15l-2.74-3a.78.78,0,0,1,0-1l2.74-3a.45.45,0,1,1,.67.61l-2.67,3,2.67,3a.45.45,0,0,1-.34.76" transform="translate(-2.28 -32.77)"/><path class="cls-23" d="M235.68,58.81a.45.45,0,0,1-.34-.76l2.67-3-2.67-3a.45.45,0,1,1,.67-.61l2.74,3a.78.78,0,0,1,0,1l-2.74,3a.45.45,0,0,1-.34.15" transform="translate(-2.28 -32.77)"/><path class="cls-19" d="M34.87,225.58A12.43,12.43,0,0,1,35,200.72h.1A12.43,12.43,0,0,1,35,225.58Z" transform="translate(-2.28 -32.77)"/><path class="cls-20" d="M35,225.58a12.47,12.47,0,0,0,12.27-10.52L44,211.79l-2.57-2.57c-.86-.85-1.7-1.73-2.57-2.57-.41-.43-.83-.85-1.26-1.26a3.66,3.66,0,0,0-5.5,4.78,6.43,6.43,0,0,0,.69.76l1.61,1.61a4,4,0,0,1-.85-.25l-.19-.09a.32.32,0,0,0-.2,0l-.43.06a9.45,9.45,0,0,0-1.44.32,5,5,0,0,0-1.95,1.06,4.44,4.44,0,0,0-1.24,3.25c0,.46,0,.93,0,1.39v1h0l.05,0s0,0,0,0l6.18,6.17.54,0Z" transform="translate(-2.28 -32.77)"/><path class="cls-4" d="M35,211.7A3.66,3.66,0,1,0,31.38,208,3.66,3.66,0,0,0,35,211.7" transform="translate(-2.28 -32.77)"/><path class="cls-4" d="M36.66,212.16a3.09,3.09,0,0,1-1.62.43,3.9,3.9,0,0,1-1.78-.43c-4.4.44-5.2,2.6-5.2,4.94v2.21a8.15,8.15,0,0,0,2.4,1.14v-3.82l1.08,4.1a12,12,0,0,0,3.52.36,15,15,0,0,0,3.93-.5l.48-2.93v2.79a8.15,8.15,0,0,0,2.4-1.14V217.1c0-2.34-.8-4.49-5.2-4.94" transform="translate(-2.28 -32.77)"/><path class="cls-21" d="M37.64,214.8v11c0,2.09,2.12,4.06,3.9,5.35a26.44,26.44,0,0,0,3.77,2.24,26.39,26.39,0,0,0,3.79-2.26c1.77-1.28,3.88-3.25,3.88-5.33v-11a20.69,20.69,0,0,0-7.67-1.92,20.63,20.63,0,0,0-7.67,1.92" transform="translate(-2.28 -32.77)"/><path class="cls-22" d="M37.84,215v10.67c0,2,2.06,4,3.8,5.21a25.75,25.75,0,0,0,3.67,2.19,25.76,25.76,0,0,0,3.69-2.2c1.72-1.25,3.78-3.17,3.78-5.19V215a20.14,20.14,0,0,0-7.47-1.87A20.08,20.08,0,0,0,37.84,215m7.47,19.56a.71.71,0,0,1-.29-.06A26.42,26.42,0,0,1,40.8,232a14.65,14.65,0,0,1-3-2.74,5.91,5.91,0,0,1-1.43-3.62V214.56a.71.71,0,0,1,.39-.64,21.91,21.91,0,0,1,8.5-2.21,21.91,21.91,0,0,1,8.5,2.21.71.71,0,0,1,.39.64v11.12a5.91,5.91,0,0,1-1.43,3.62,14.65,14.65,0,0,1-3,2.74,26.42,26.42,0,0,1-4.22,2.47.71.71,0,0,1-.29.06" transform="translate(-2.28 -32.77)"/><path class="cls-4" d="M43.8,218l-.42-.93a.58.58,0,0,0-.49-.31H41a.58.58,0,0,0-.49.31l-.42.93" transform="translate(-2.28 -32.77)"/><path class="cls-19" d="M43.8,218.26a.25.25,0,0,1-.22-.14l-.42-.93a.35.35,0,0,0-.27-.17H41a.34.34,0,0,0-.26.17l-.42.93a.25.25,0,0,1-.45-.2l.42-.93a.82.82,0,0,1,.71-.46H42.9a.83.83,0,0,1,.71.46l.42.93a.25.25,0,0,1-.12.32l-.1,0" transform="translate(-2.28 -32.77)"/><path class="cls-4" d="M47.93,224.36H40.12a.75.75,0,0,1-.75-.75v-4.92a.75.75,0,0,1,.75-.75h7.82a.75.75,0,0,1,.75.75v4.92a.75.75,0,0,1-.75.75" transform="translate(-2.28 -32.77)"/><path class="cls-19" d="M40.12,218.19a.5.5,0,0,0-.5.5v4.92a.5.5,0,0,0,.5.5h7.82a.5.5,0,0,0,.5-.5v-4.92a.5.5,0,0,0-.5-.5Zm7.82,6.42H40.12a1,1,0,0,1-1-1v-4.92a1,1,0,0,1,1-1h7.82a1,1,0,0,1,1,1v4.92a1,1,0,0,1-1,1" transform="translate(-2.28 -32.77)"/><path class="cls-4" d="M47.72,223.82a4.93,4.93,0,0,0-2.12.38,2.28,2.28,0,0,0-1.47,2,4.52,4.52,0,0,0,7.18,0,2.28,2.28,0,0,0-1.47-2,4.93,4.93,0,0,0-2.12-.38" transform="translate(-2.28 -32.77)"/><path class="cls-23" d="M44.35,226.11a4.31,4.31,0,0,0,6.74,0,2.09,2.09,0,0,0-1.35-1.72,5.93,5.93,0,0,0-4,0,2.09,2.09,0,0,0-1.35,1.72m3.37,2.06a4.68,4.68,0,0,1-3.77-1.87l0-.06v-.07a2.48,2.48,0,0,1,1.6-2.18,6.34,6.34,0,0,1,4.42,0,2.48,2.48,0,0,1,1.6,2.18v.07l0,.06a4.69,4.69,0,0,1-3.77,1.87" transform="translate(-2.28 -32.77)"/><path class="cls-23" d="M45.37,227.38a.22.22,0,0,1-.22-.22v-1.7a.22.22,0,1,1,.44,0v1.7a.22.22,0,0,1-.22.22" transform="translate(-2.28 -32.77)"/><path class="cls-4" d="M49.18,222.42c0,1.07-.65,1.94-1.46,1.94s-1.46-.87-1.46-1.94a1.47,1.47,0,1,1,2.92,0" transform="translate(-2.28 -32.77)"/><path class="cls-23" d="M47.72,221c-.75,0-1.24.56-1.24,1.44s.56,1.72,1.24,1.72,1.24-.77,1.24-1.72S48.47,221,47.72,221m0,3.59A2,2,0,0,1,46,222.42a1.69,1.69,0,1,1,3.36,0,2,2,0,0,1-1.68,2.16" transform="translate(-2.28 -32.77)"/><path class="cls-23" d="M50.06,227.47a.22.22,0,0,1-.22-.22v-1.7a.22.22,0,0,1,.44,0v1.7a.22.22,0,0,1-.22.22" transform="translate(-2.28 -32.77)"/><path class="cls-24" d="M326.16,153.43a12.43,12.43,0,0,1,.09-24.85h.1a12.43,12.43,0,0,1-.09,24.85Z" transform="translate(-2.28 -32.77)"/><path class="cls-20" d="M326.26,153.43a12.47,12.47,0,0,0,12.27-10.52l-3.26-3.27-2.57-2.57c-.86-.85-1.7-1.73-2.57-2.57-.41-.43-.83-.85-1.26-1.26a3.66,3.66,0,0,0-5.5,4.78,6.43,6.43,0,0,0,.69.76l1.61,1.61a4,4,0,0,1-.85-.25l-.19-.09a.32.32,0,0,0-.2,0l-.43.06a9.45,9.45,0,0,0-1.44.32,5,5,0,0,0-1.95,1.06,4.44,4.44,0,0,0-1.24,3.25c0,.46,0,.93,0,1.39v1h0l.05,0s0,0,0,0l6.18,6.17.54,0Z" transform="translate(-2.28 -32.77)"/><path class="cls-4" d="M326.34,139.56a3.66,3.66,0,1,0-3.66-3.66,3.66,3.66,0,0,0,3.66,3.66" transform="translate(-2.28 -32.77)"/><path class="cls-4" d="M328,140a3.09,3.09,0,0,1-1.62.43,3.9,3.9,0,0,1-1.78-.43c-4.4.44-5.2,2.6-5.2,4.94v2.21a8.15,8.15,0,0,0,2.4,1.14v-3.82l1.08,4.1a12,12,0,0,0,3.52.36,15,15,0,0,0,3.93-.5l.48-2.93v2.79a8.15,8.15,0,0,0,2.4-1.14V145c0-2.34-.8-4.49-5.2-4.94" transform="translate(-2.28 -32.77)"/><path class="cls-21" d="M328.94,142.69v11c0,2.09,2.12,4.06,3.9,5.35a26.44,26.44,0,0,0,3.77,2.24A26.39,26.39,0,0,0,340.4,159c1.77-1.28,3.88-3.25,3.88-5.33v-11a16.24,16.24,0,0,0-15.34,0" transform="translate(-2.28 -32.77)"/><path class="cls-22" d="M329.14,142.87v10.67c0,2,2.06,4,3.8,5.21a25.75,25.75,0,0,0,3.67,2.19,25.76,25.76,0,0,0,3.69-2.2c1.72-1.25,3.78-3.17,3.78-5.19V142.87a15.81,15.81,0,0,0-14.93,0m7.47,19.56a.71.71,0,0,1-.29-.06,26.42,26.42,0,0,1-4.22-2.47,14.65,14.65,0,0,1-3-2.74,5.91,5.91,0,0,1-1.43-3.62V142.42a.71.71,0,0,1,.39-.64,17.45,17.45,0,0,1,17,0,.71.71,0,0,1,.39.64v11.12a5.91,5.91,0,0,1-1.43,3.62,14.65,14.65,0,0,1-3,2.74,26.42,26.42,0,0,1-4.22,2.47.71.71,0,0,1-.29.06" transform="translate(-2.28 -32.77)"/><path class="cls-19" d="M341.62,148.59a4.37,4.37,0,0,0-.73-.28,3.27,3.27,0,0,0-3.24-2.69,3.34,3.34,0,0,0-2.91,1.67h-.16a2.9,2.9,0,0,0-2.7,1.92,2.59,2.59,0,0,0-1.91,2.51,2.55,2.55,0,0,0,2.39,2.56h8.21a2.93,2.93,0,0,0,2.74-3.07,2.83,2.83,0,0,0-1.69-2.63" transform="translate(-2.28 -32.77)"/><path class="cls-4" d="M340.58,153.57h-8.21a1.84,1.84,0,0,1-1.68-1.85,1.82,1.82,0,0,1,1.67-1.85h.09a2.16,2.16,0,0,1,2.13-1.87,1.87,1.87,0,0,1,.57.08,2.66,2.66,0,0,1,2.5-1.75,2.63,2.63,0,0,1,2.6,2.56,3.83,3.83,0,0,1,1,.33,2.12,2.12,0,0,1,1.29,2,2.22,2.22,0,0,1-2,2.35" transform="translate(-2.28 -32.77)"/><path class="cls-6" d="M335.52,147.44a2.61,2.61,0,0,1,2.14-1.09,2.56,2.56,0,0,1,2.46,1.84h0l.78.14a3.27,3.27,0,0,0-3.24-2.69,3.34,3.34,0,0,0-2.91,1.67l.77.13h0" transform="translate(-2.28 -32.77)"/><path class="cls-6" d="M335.51,147.43l-.77-.13.42.78a2.94,2.94,0,0,1,.36-.64Z" transform="translate(-2.28 -32.77)"/><path class="cls-6" d="M340.12,148.2v0l0,0h0" transform="translate(-2.28 -32.77)"/><path class="cls-6" d="M340.26,148.92h0l-.75-.12-2.06,2L336,148.22c-.41-.06-.73-.15-.82-.16l2.09,3.87,3.66-3.6-.77-.12a3.08,3.08,0,0,1,.14.71" transform="translate(-2.28 -32.77)"/><path class="cls-6" d="M340.12,148.18h0v0l.77.12h0Z" transform="translate(-2.28 -32.77)"/><path class="cls-6" d="M335.44,147.3a3.05,3.05,0,0,0-.32.67l.08.18a6.24,6.24,0,0,1,.76.07Z" transform="translate(-2.28 -32.77)"/><path class="cls-6" d="M339.51,148.79l.75.12a3.08,3.08,0,0,0-.14-.71h0Z" transform="translate(-2.28 -32.77)"/><path class="cls-6" d="M334.74,147.3l.77.13Z" transform="translate(-2.28 -32.77)"/><path class="cls-19" d="M144.66,216.47a12.43,12.43,0,0,1,.09-24.85h.1a12.43,12.43,0,0,1-.09,24.85Z" transform="translate(-2.28 -32.77)"/><path class="cls-20" d="M144.76,216.47A12.47,12.47,0,0,0,157,205.94l-3.26-3.27-2.57-2.57c-.86-.85-1.7-1.73-2.57-2.57-.41-.43-.83-.85-1.26-1.26a3.66,3.66,0,0,0-5.5,4.78,6.43,6.43,0,0,0,.69.76l1.61,1.61a4,4,0,0,1-.85-.25l-.19-.09a.32.32,0,0,0-.2,0l-.43.05a9.45,9.45,0,0,0-1.44.32,5,5,0,0,0-1.95,1.06,4.44,4.44,0,0,0-1.24,3.25c0,.46,0,.93,0,1.39v1h0l.05,0s0,0,0,0l6.18,6.17.54,0Z" transform="translate(-2.28 -32.77)"/><path class="cls-4" d="M144.83,202.59a3.66,3.66,0,1,0-3.66-3.66,3.66,3.66,0,0,0,3.66,3.66" transform="translate(-2.28 -32.77)"/><path class="cls-4" d="M146.45,203.05a3.09,3.09,0,0,1-1.62.43,3.9,3.9,0,0,1-1.78-.43c-4.4.44-5.2,2.6-5.2,4.94v2.21a8.15,8.15,0,0,0,2.4,1.14v-3.82l1.08,4.1a12,12,0,0,0,3.52.36,15,15,0,0,0,3.93-.5l.48-2.93v2.79a8.15,8.15,0,0,0,2.4-1.14V208c0-2.34-.8-4.49-5.2-4.94" transform="translate(-2.28 -32.77)"/><path class="cls-21" d="M147.43,205.69v11c0,2.09,2.12,4.06,3.9,5.35a26.44,26.44,0,0,0,3.77,2.24,26.4,26.4,0,0,0,3.79-2.26c1.77-1.28,3.88-3.25,3.88-5.33v-11a20.69,20.69,0,0,0-7.67-1.92,20.63,20.63,0,0,0-7.67,1.92" transform="translate(-2.28 -32.77)"/><path class="cls-22" d="M147.63,205.91v10.67c0,2,2.06,4,3.8,5.21A25.75,25.75,0,0,0,155.1,224a25.76,25.76,0,0,0,3.69-2.2c1.72-1.25,3.78-3.17,3.78-5.19V205.91A20.14,20.14,0,0,0,155.1,204a20.08,20.08,0,0,0-7.47,1.87m7.47,19.56a.71.71,0,0,1-.29-.06,26.42,26.42,0,0,1-4.22-2.47,14.65,14.65,0,0,1-3-2.74,5.91,5.91,0,0,1-1.43-3.62V205.46a.71.71,0,0,1,.39-.64,21.91,21.91,0,0,1,8.5-2.21,21.91,21.91,0,0,1,8.5,2.21.71.71,0,0,1,.39.64v11.12a5.91,5.91,0,0,1-1.43,3.62,14.65,14.65,0,0,1-3,2.74,26.42,26.42,0,0,1-4.22,2.47.71.71,0,0,1-.29.06" transform="translate(-2.28 -32.77)"/><path class="cls-19" d="M157.41,210.69a3.39,3.39,0,0,0-.56-.21,2.51,2.51,0,0,0-2.49-2.06,2.57,2.57,0,0,0-2.24,1.28H152a2.23,2.23,0,0,0-2.07,1.47,2,2,0,0,0-1.47,1.93,2,2,0,0,0,1.84,2h6.3a2.25,2.25,0,0,0,2.1-2.36,2.17,2.17,0,0,0-1.3-2" transform="translate(-2.28 -32.77)"/><path class="cls-4" d="M156.61,214.51h-6.3A1.41,1.41,0,0,1,149,213.1a1.4,1.4,0,0,1,1.28-1.42h.07a1.66,1.66,0,0,1,1.64-1.44,1.44,1.44,0,0,1,.43.06,2,2,0,0,1,1.92-1.34,2,2,0,0,1,2,2,3,3,0,0,1,.81.25,1.63,1.63,0,0,1,1,1.52,1.7,1.7,0,0,1-1.55,1.81" transform="translate(-2.28 -32.77)"/><path class="cls-4" d="M154.64,218.24h0a.77.77,0,0,1-.54.23.74.74,0,0,1-.75-.75.77.77,0,0,1,.23-.53h0l3.36-3.36a2.16,2.16,0,0,0,1.06,1.06Z" transform="translate(-2.28 -32.77)"/><path class="cls-4" d="M160.47,214.2a2,2,0,1,1-1-3.39l-1.13,1.13a.17.17,0,0,0,0,.24l1.3,1.3a.17.17,0,0,0,.12.05.17.17,0,0,0,.12-.05l1.13-1.13a2,2,0,0,1-.54,1.84" transform="translate(-2.28 -32.77)"/><path class="cls-23" d="M160.47,214.2a2,2,0,1,1-1-3.39l-1.13,1.13a.17.17,0,0,0-.05.12.17.17,0,0,0,.05.12l1.3,1.3a.17.17,0,0,0,.12.05.17.17,0,0,0,.12-.05l1.13-1.13a2,2,0,0,1-.54,1.84m-5.83,4h0a.77.77,0,0,1-.54.23.74.74,0,0,1-.75-.75.77.77,0,0,1,.23-.53h0l3.36-3.36a2.32,2.32,0,0,0,.43.62,2.34,2.34,0,0,0,.62.43Zm6.66-6.14a.72.72,0,0,1-.08-.2.17.17,0,0,0-.24,0l-1.22,1.22-1.06-1.06,1.22-1.22a.17.17,0,0,0,0-.24.17.17,0,0,0-.1,0h0a2.35,2.35,0,0,0-3,2.95l-.06,0-3.39,3.39h0a1.1,1.1,0,0,0-.33.77,1,1,0,0,0,1.08,1.06h0a1.09,1.09,0,0,0,.69-.24.17.17,0,0,0,.09,0l3.41-3.41a.17.17,0,0,0,0-.06,2.38,2.38,0,0,0,.71.12,2.35,2.35,0,0,0,2.26-3" transform="translate(-2.28 -32.77)"/><rect class="cls-4" x="343.52" y="108.24" width="17.79" height="17.79"/><text class="cls-25" transform="translate(345.77 116.49)">Taylor<tspan x="0" y="9.2">Domain Operator</tspan></text><path class="cls-19" d="M181.18,146.12a12.43,12.43,0,0,1,.09-24.85h.1a12.43,12.43,0,0,1-.09,24.85Z" transform="translate(-2.28 -32.77)"/><path class="cls-20" d="M181.28,146.12a12.47,12.47,0,0,0,12.27-10.52l-3.26-3.27-2.57-2.57c-.86-.85-1.7-1.73-2.57-2.57-.41-.43-.83-.85-1.26-1.26a3.66,3.66,0,0,0-5.5,4.78,6.43,6.43,0,0,0,.69.76l1.61,1.61a4,4,0,0,1-.85-.25l-.19-.09a.32.32,0,0,0-.2,0l-.43.05a9.55,9.55,0,0,0-1.44.32,5,5,0,0,0-1.95,1.06,4.44,4.44,0,0,0-1.24,3.25c0,.46,0,.93,0,1.39v1h0l.05,0s0,0,0,0l6.18,6.17.54,0Z" transform="translate(-2.28 -32.77)"/><path class="cls-4" d="M181.36,132.24a3.66,3.66,0,1,0-3.66-3.66,3.66,3.66,0,0,0,3.66,3.66" transform="translate(-2.28 -32.77)"/><path class="cls-4" d="M183,132.71a3.09,3.09,0,0,1-1.62.43,3.9,3.9,0,0,1-1.78-.43c-4.4.44-5.2,2.6-5.2,4.94v2.21a8.15,8.15,0,0,0,2.4,1.14v-3.82l1.08,4.1a12,12,0,0,0,3.52.36,15,15,0,0,0,3.93-.5l.48-2.93V141a8.15,8.15,0,0,0,2.4-1.14v-2.21c0-2.34-.8-4.49-5.2-4.94" transform="translate(-2.28 -32.77)"/><path class="cls-21" d="M184,135.34v11c0,2.09,2.12,4.06,3.9,5.35a26.44,26.44,0,0,0,3.77,2.24,26.4,26.4,0,0,0,3.79-2.26c1.77-1.28,3.88-3.25,3.88-5.33v-11a20.67,20.67,0,0,0-7.67-1.92,20.63,20.63,0,0,0-7.67,1.92" transform="translate(-2.28 -32.77)"/><path class="cls-19" d="M193.93,140.58a3.38,3.38,0,0,0-.56-.21,2.51,2.51,0,0,0-2.49-2.06,2.57,2.57,0,0,0-2.24,1.28h-.12a2.23,2.23,0,0,0-2.07,1.47A2,2,0,0,0,185,143a2,2,0,0,0,1.84,2h6.3a2.25,2.25,0,0,0,2.1-2.36,2.17,2.17,0,0,0-1.3-2" transform="translate(-2.28 -32.77)"/><path class="cls-4" d="M193.13,144.4h-6.3a1.41,1.41,0,0,1-1.29-1.42,1.4,1.4,0,0,1,1.28-1.42h.07a1.66,1.66,0,0,1,1.64-1.44,1.44,1.44,0,0,1,.43.06,2,2,0,0,1,1.92-1.34,2,2,0,0,1,2,2,3,3,0,0,1,.81.25,1.63,1.63,0,0,1,1,1.52,1.7,1.7,0,0,1-1.55,1.81" transform="translate(-2.28 -32.77)"/><path class="cls-22" d="M184.15,135.56v10.67c0,2,2.06,4,3.8,5.21a25.75,25.75,0,0,0,3.67,2.19,25.76,25.76,0,0,0,3.69-2.2c1.72-1.25,3.78-3.17,3.78-5.19V135.56a20.14,20.14,0,0,0-7.47-1.87,20.08,20.08,0,0,0-7.47,1.87m7.47,19.56a.71.71,0,0,1-.29-.06,26.42,26.42,0,0,1-4.22-2.47,14.65,14.65,0,0,1-3-2.74,5.91,5.91,0,0,1-1.43-3.62V135.11a.71.71,0,0,1,.39-.64,21.91,21.91,0,0,1,8.5-2.21,21.91,21.91,0,0,1,8.5,2.21.71.71,0,0,1,.39.64v11.12a5.91,5.91,0,0,1-1.43,3.62,14.65,14.65,0,0,1-3,2.74,26.42,26.42,0,0,1-4.22,2.47.71.71,0,0,1-.29.06" transform="translate(-2.28 -32.77)"/><polygon class="cls-21" points="192.18 108.64 190.71 112.41 194.08 113.35 194.75 109.22 192.18 108.64"/><path class="cls-23" d="M197.3,147.65a.22.22,0,0,1-.21-.14l-2.42-5.82-2.42,5.82a.22.22,0,1,1-.41-.17l2.62-6.31a.23.23,0,0,1,.41,0l2.62,6.31a.22.22,0,0,1-.12.29l-.09,0" transform="translate(-2.28 -32.77)"/><path class="cls-23" d="M194.68,141.34a.22.22,0,0,1-.22-.22v-2.26a.22.22,0,1,1,.44,0v2.26a.22.22,0,0,1-.22.22" transform="translate(-2.28 -32.77)"/><path class="cls-4" d="M195.51,141.11a.83.83,0,1,1-.83-.88.86.86,0,0,1,.83.88" transform="translate(-2.28 -32.77)"/><path class="cls-23" d="M194.68,140.46a.66.66,0,1,0,.61.66.64.64,0,0,0-.61-.66m0,1.76a1.1,1.1,0,1,1,1.06-1.1,1.08,1.08,0,0,1-1.06,1.1" transform="translate(-2.28 -32.77)"/><rect class="cls-23" x="191.17" y="111.07" width="2.56" height="0.44"/><path class="cls-23" d="M194.73,145.21a.22.22,0,0,1-.22-.22v-1.84a.22.22,0,1,1,.44,0V145a.22.22,0,0,1-.22.22" transform="translate(-2.28 -32.77)"/><rect class="cls-4" x="243.49" y="105.37" width="13.34" height="10.97"/><text class="cls-25" transform="translate(200.07 108.85)">Adrian<tspan x="0" y="9.2">Infrastructure Architect</tspan></text><rect class="cls-4" x="61.07" y="178.59" width="12.43" height="22.26"/><text class="cls-25" transform="translate(54.33 188.74)">Wei<tspan x="0" y="9.2">Project Owner</tspan></text><rect class="cls-4" x="239.89" y="12.64" width="45.03" height="22.26"/><text class="cls-25" transform="translate(242.75 20.7)">Quinn<tspan x="0" y="9.2">App Developer</tspan></text><polygon class="cls-16" points="237.42 340.18 318.56 340.18 324.03 322.69 242.89 322.69 237.42 340.18"/><text class="cls-26" transform="translate(258.23 334.72)">App Architecture</text><polygon class="cls-16" points="237.42 340.18 246.2 340.18 234.69 348.93 237.42 340.18"/><circle class="cls-4" cx="249.48" cy="328.71" r="2.73"/><path class="cls-4" d="M256.13,367.3c0,1.1-2,2.39-4.37,2.39s-4.37-1.29-4.37-2.39.05-2,4.37-2S256.13,366.2,256.13,367.3Z" transform="translate(-2.28 -32.77)"/><rect class="cls-4" x="199.27" y="177.6" width="12.43" height="22.26"/><text class="cls-25" transform="translate(163.33 180.03)">Rey<tspan x="0" y="9.2">Cloud Operator</tspan></text></svg>