<?xml version="1.0" encoding="utf-8"?>
<!-- Generator: Adobe Illustrator 20.0.0, SVG Export Plug-In . SVG Version: 6.00 Build 0)  -->
<svg version="1.1" id="Layer_1" xmlns="http://www.w3.org/2000/svg" xmlns:xlink="http://www.w3.org/1999/xlink" x="0px" y="0px"
	 viewBox="0 0 1439.9 792" style="enable-background:new 0 0 1439.9 792;" xml:space="preserve">
<style type="text/css">
	.st0{enable-background:new    ;}
	.st1{clip-path:url(#SVGID_2_);}
	.st2{fill:#FFFFFF;}
	.st3{clip-path:url(#SVGID_4_);}
	.st4{fill:#DA432F;}
	.st5{clip-path:url(#SVGID_6_);}
	.st6{fill:#2AAAE1;}
	.st7{clip-path:url(#SVGID_8_);}
	.st8{fill:#34B98B;}
	.st9{clip-path:url(#SVGID_10_);}
	.st10{fill:#33B88B;}
	.st11{font-family:'FjallaOne-Regular';}
	.st12{font-size:16px;}
	.st13{fill:#29AAE1;}
	.st14{fill:#101924;}
	.st15{font-size:14px;}
	.st16{fill:#969696;}
	.st17{font-family:'OpenSans';}
	.st18{font-size:18px;}
	.st19{font-family:'OpenSans-Bold';}
</style>
<g>
	<g>
		<g class="st0">
			<defs>
				<polygon id="SVGID_1_" class="st0" points="238.7,817.6 -62.8,123 769,-23.6 1070.6,671 				"/>
			</defs>
			<clipPath id="SVGID_2_">
				<use xlink:href="#SVGID_1_"  style="overflow:visible;"/>
			</clipPath>
			<g class="st1">
				<g>
					<g>
						<g>
							<path class="st2" d="M353.1,49.7C123.4,90.2,4.7,278.5,87.9,470.3c83.3,191.8,337,314.5,566.7,274s348.4-228.8,265.1-420.6
								C836.5,131.9,582.8,9.2,353.1,49.7"/>
						</g>
					</g>
				</g>
			</g>
		</g>
	</g>
</g>
<g>
	<g>
		<g class="st0">
			<defs>
				<polygon id="SVGID_3_" class="st0" points="229.9,831.7 -81.7,113.9 777.9,-37.7 1089.5,680.1 				"/>
			</defs>
			<clipPath id="SVGID_4_">
				<use xlink:href="#SVGID_3_"  style="overflow:visible;"/>
			</clipPath>
			<g class="st3">
				<g>
					<g>
						<g>
							<path class="st4" d="M658.3,752.8c-57.5,10.1-117.4,10.6-178,1.3c-58.5-9-115.2-26.6-168.5-52.4
								c-53.3-25.8-100.6-58.4-140.4-97c-41.3-39.9-72.8-84.6-93.6-132.6c-20.9-48-29.8-96.6-26.6-144.4
								c3.1-46.2,17.3-89.6,42.2-129.2c24.9-39.6,59.4-73.3,102.3-100.1c44.5-27.8,96.2-47.1,153.7-57.2s117.4-10.6,178-1.3
								c58.5,9,115.2,26.6,168.5,52.4c53.3,25.8,100.6,58.4,140.4,97c41.3,39.9,72.8,84.6,93.6,132.6c20.9,48,29.8,96.6,26.6,144.4
								c-3.1,46.2-17.3,89.6-42.2,129.2C889.5,635,855,668.7,812.1,695.6C767.6,723.4,715.9,742.7,658.3,752.8 M348.1,38.1
								C290,48.3,237.9,67.8,193,95.8c-43.3,27.1-78.1,61.1-103.2,101c-25.2,39.9-39.5,83.8-42.6,130.3
								C44,375.3,53,424.3,74.1,472.8s52.8,93.5,94.4,133.7c40.2,38.9,87.9,71.8,141.6,97.8c53.8,26,111,43.8,170,52.8
								c61.1,9.4,121.5,8.9,179.5-1.3c58-10.2,110.2-29.6,155.1-57.7c43.3-27.1,78.1-61.1,103.2-101c25.2-39.9,39.5-83.8,42.6-130.3
								c3.2-48.2-5.8-97.2-26.9-145.7c-21-48.4-52.8-93.4-94.4-133.7c-40.2-38.9-87.9-71.8-141.6-97.8c-53.8-26-111-43.8-170-52.8
								C466.5,27.4,406.1,27.9,348.1,38.1"/>
						</g>
					</g>
				</g>
			</g>
		</g>
	</g>
</g>
<g>
	<g>
		<g class="st0">
			<defs>
				<polygon id="SVGID_5_" class="st0" points="375.3,592.4 206.6,203.7 672.4,121.6 841.1,510.2 				"/>
			</defs>
			<clipPath id="SVGID_6_">
				<use xlink:href="#SVGID_5_"  style="overflow:visible;"/>
			</clipPath>
			<g class="st5">
				<g>
					<g>
						<g>
							<path class="st6" d="M606.9,548.2c-61.2,10.8-127.4,1.1-186.4-27.4c-59-28.5-103.7-72.3-125.8-123.4
								c-22.2-51.1-19.2-103.3,8.4-147.1s76.5-73.8,137.8-84.6c61.2-10.8,127.4-1.1,186.4,27.4s103.7,72.3,125.8,123.4
								c22.2,51.1,19.2,103.3-8.4,147.1S668.1,537.4,606.9,548.2 M439.5,162.7c-62.2,11-111.9,41.5-140,86s-31.1,97.5-8.6,149.4
								c22.5,51.9,67.9,96.4,127.9,125.4c59.9,28.9,127.2,38.8,189.4,27.9s111.9-41.5,140-86c28.1-44.5,31.1-97.5,8.6-149.4
								c-22.5-51.9-67.9-96.4-127.9-125.4S501.7,151.7,439.5,162.7"/>
						</g>
					</g>
				</g>
			</g>
		</g>
	</g>
</g>
<g>
	<g>
		<g class="st0">
			<defs>
				<polygon id="SVGID_7_" class="st0" points="474,432 405.9,275.1 593.8,242 661.8,398.9 				"/>
			</defs>
			<clipPath id="SVGID_8_">
				<use xlink:href="#SVGID_7_"  style="overflow:visible;"/>
			</clipPath>
			<g class="st7">
				<g>
					<g>
						<g>
							<path class="st8" d="M566.6,412.3c-49.7,8.8-104.9-17.9-122.9-59.4c-18-41.5,7.8-82.5,57.5-91.2
								c49.8-8.8,104.9,17.9,122.9,59.4C642.1,362.6,616.3,403.6,566.6,412.3 M499.8,258.6c-51.8,9.1-78.7,51.7-59.9,95
								c18.8,43.2,76.2,71,128,61.9c51.8-9.1,78.7-51.7,59.9-95C609,277.2,551.6,249.4,499.8,258.6"/>
						</g>
					</g>
				</g>
			</g>
		</g>
	</g>
</g>
<g>
	<g>
		<g class="st0">
			<defs>
				<polygon id="SVGID_9_" class="st0" points="312.7,696 83.9,169.2 715.1,57.9 943.8,584.7 				"/>
			</defs>
			<clipPath id="SVGID_10_">
				<use xlink:href="#SVGID_9_"  style="overflow:visible;"/>
			</clipPath>
			<g class="st9">
				<g>
					<g>
						<g>
							<path class="st4" d="M421.4,110.3l0.5,1.6c5-0.6,10.1-1.1,15.1-1.5l-0.5-1.6C431.5,109.2,426.5,109.7,421.4,110.3
								 M377.1,118.2c-4.8,1.2-9.6,2.4-14.2,3.8l0.9,1.5c4.6-1.3,9.4-2.6,14.1-3.7L377.1,118.2 M392.3,116.5
								C392.3,116.5,392.3,116.5,392.3,116.5L392.3,116.5L392.3,116.5 M452,108l0.4,1.6c5.1-0.2,10.3-0.3,15.4-0.3l-0.3-1.6
								C462.4,107.7,457.2,107.8,452,108 M349,126.3c-4.6,1.5-9.1,3.2-13.5,4.9l1,1.4c4.4-1.7,8.9-3.3,13.4-4.8L349,126.3
								 M483.2,108l0.2,1.6c5.2,0.2,10.4,0.5,15.6,0.9l-0.1-1.6C493.6,108.4,488.4,108.2,483.2,108 M322.3,136.6
								c-4.3,1.9-8.6,3.9-12.7,5.9l1.2,1.4c4.1-2.1,8.3-4,12.6-5.9L322.3,136.6 M514.6,110.3l0,1.6c5.2,0.6,10.5,1.3,15.7,2.1
								l0.1-1.6C525.2,111.6,519.9,110.9,514.6,110.3 M297.3,149c-4,2.2-7.9,4.6-11.7,7l1.3,1.3c3.8-2.4,7.7-4.7,11.7-6.9L297.3,149
								 M546.1,115.1l-0.2,1.5c5.2,1,10.4,2.1,15.6,3.2l0.3-1.5C556.6,117.2,551.3,116.1,546.1,115.1 M274.3,163.4
								c-3.7,2.6-7.3,5.2-10.7,7.9l1.5,1.2c3.5-2.7,7-5.3,10.7-7.9L274.3,163.4 M577.3,122.2l-0.4,1.5c5.1,1.4,10.2,2.8,15.3,4.4
								l0.5-1.5C587.6,125,582.5,123.5,577.3,122.2 M253.4,179.6c-3.3,2.9-6.5,5.8-9.6,8.8l1.6,1.1c3.1-3,6.3-5.9,9.6-8.8
								L253.4,179.6 M607.9,131.5l-0.6,1.4c5,1.7,10,3.5,14.9,5.4l0.6-1.4C617.9,135,612.9,133.2,607.9,131.5 M234.8,197.7
								c-2.9,3.1-5.7,6.3-8.4,9.6l1.7,1c2.7-3.3,5.5-6.4,8.4-9.6L234.8,197.7 M637.7,142.9l-0.7,1.4c4.9,2.1,9.7,4.2,14.4,6.5
								l0.8-1.3C647.4,147.2,642.5,145,637.7,142.9 M218.6,217.3c-2.5,3.4-4.9,6.8-7.2,10.3l1.8,0.9c2.3-3.5,4.6-6.9,7.1-10.3
								L218.6,217.3 M666.3,156.4l-0.9,1.3c4.6,2.4,9.2,4.9,13.8,7.4l1-1.2C675.6,161.3,671,158.8,666.3,156.4 M204.9,238.3
								c-2.1,3.6-4,7.3-5.8,11l1.9,0.8c1.8-3.7,3.7-7.3,5.8-10.9L204.9,238.3 M693.7,171.8l-1.1,1.2c4.4,2.7,8.7,5.5,13,8.3l1.1-1.2
								C702.4,177.4,698.1,174.6,693.7,171.8 M194,260.5c-1.6,3.8-3.1,7.6-4.4,11.5l1.9,0.6c1.4-3.9,2.8-7.7,4.4-11.4L194,260.5
								 M719.4,189l-1.2,1.1c4.1,3,8.2,6,12.1,9.2l1.3-1C727.6,195.1,723.5,192.1,719.4,189 M185.8,283.7c-1.1,3.9-2.1,7.9-3,12
								l1.9,0.5c0.9-4,1.9-8,3-11.9L185.8,283.7 M743.3,207.9l-1.3,1c3.8,3.2,7.5,6.6,11.1,9.9l1.4-0.9
								C750.9,214.5,747.1,211.1,743.3,207.9 M180.6,307.8c-0.6,4.1-1.1,8.2-1.5,12.3l2,0.3c0.4-4.1,0.9-8.2,1.5-12.2L180.6,307.8
								 M765.2,228.2l-1.5,0.9c3.5,3.5,6.8,7,10.1,10.6l1.5-0.8C772.1,235.3,768.7,231.7,765.2,228.2 M178.3,332.5
								c-0.1,4.2-0.2,8.3,0,12.5l2,0.2c-0.1-4.2-0.1-8.3,0-12.4L178.3,332.5 M785,249.9l-1.6,0.7c3.1,3.7,6,7.4,8.9,11.2l1.6-0.7
								C791,257.3,788,253.6,785,249.9 M178.9,357.6c0.4,4.2,0.8,8.4,1.4,12.6l2,0c-0.6-4.2-1.1-8.4-1.4-12.5L178.9,357.6
								 M802.3,272.7l-1.7,0.6c2.7,3.8,5.2,7.7,7.7,11.7l1.7-0.5C807.5,280.4,805,276.5,802.3,272.7 M182.5,382.8
								c0.8,4.2,1.8,8.4,2.9,12.6l1.9-0.1c-1.1-4.2-2.1-8.4-2.9-12.5L182.5,382.8 M817.1,296.4l-1.8,0.5c2.2,4,4.3,8,6.4,12.1
								l1.8-0.4C821.4,304.4,819.3,300.4,817.1,296.4 M189.1,408c1.3,4.2,2.8,8.3,4.3,12.5l1.9-0.3c-1.6-4.1-3-8.3-4.3-12.4
								L189.1,408 M829.2,320.8l-1.8,0.3c0.1,0.2,0.2,0.4,0.2,0.6c1.8,4.1,3.4,8.2,5,12.3l1.9-0.3c-1.6-4.1-3.2-8.3-5-12.4
								C829.4,321.2,829.3,321,829.2,320.8 M200.3,432.6l-1.8,0.3c1.8,4.1,3.7,8.2,5.7,12.3l1.8-0.4
								C204,440.8,202.1,436.7,200.3,432.6 M836.9,346.4c1.3,4.2,2.5,8.3,3.6,12.5l1.9-0.1c-1.1-4.2-2.3-8.4-3.6-12.6L836.9,346.4
								 M212.3,456.9l-1.8,0.5c2.3,4,4.6,8,7,12l1.7-0.5C216.9,464.8,214.6,460.9,212.3,456.9 M843.4,371.5
								c0.8,4.2,1.6,8.4,2.2,12.5l2,0c-0.6-4.2-1.3-8.4-2.2-12.6L843.4,371.5 M227,480.4l-1.7,0.6c2.7,3.9,5.5,7.7,8.3,11.5l1.6-0.7
								C232.4,488.1,229.7,484.3,227,480.4 M846.9,396.5c0.3,4.2,0.6,8.4,0.7,12.5l2,0.2c-0.1-4.2-0.3-8.4-0.7-12.6L846.9,396.5
								 M244.2,503.1l-1.6,0.7c3.1,3.7,6.3,7.4,9.6,11l1.5-0.8C250.4,510.5,247.3,506.8,244.2,503.1 M847.5,421.5
								c-0.1,4.1-0.4,8.3-0.8,12.3l2,0.3c0.4-4.1,0.7-8.2,0.8-12.4L847.5,421.5 M263.8,524.7l-1.5,0.9c3.5,3.5,7,7,10.7,10.3
								l1.4-0.9C270.8,531.6,267.2,528.2,263.8,524.7 M845.2,446c-0.6,4-1.4,8.1-2.3,12.1l1.9,0.5c0.9-4,1.7-8.1,2.3-12.1L845.2,446
								 M285.5,544.9l-1.3,1c3.8,3.3,7.7,6.5,11.7,9.6l1.3-1C293.2,551.3,289.3,548.1,285.5,544.9 M839.9,470
								c-1.1,3.9-2.4,7.8-3.7,11.7l1.9,0.6c1.4-3.9,2.6-7.8,3.7-11.7L839.9,470 M309.3,563.6l-1.2,1.1c4.1,3,8.4,6,12.6,8.8l1.1-1.2
								C317.6,569.5,313.4,566.6,309.3,563.6 M831.8,493.1c-1.6,3.8-3.3,7.5-5.1,11.2l1.9,0.8c1.8-3.7,3.5-7.5,5.1-11.2L831.8,493.1
								 M334.9,580.7l-1.1,1.2c4.4,2.7,8.9,5.4,13.5,7.9l1-1.2C343.7,586.1,339.3,583.5,334.9,580.7 M820.9,515.2
								c-2,3.6-4.2,7.1-6.5,10.6l1.8,0.9c2.3-3.5,4.4-7,6.5-10.7L820.9,515.2 M362,596.1l-0.9,1.3c4.7,2.4,9.4,4.8,14.2,7l0.8-1.3
								C371.4,600.8,366.7,598.5,362,596.1 M807.3,536c-2.5,3.4-5.1,6.7-7.8,9.9l1.7,1c2.7-3.3,5.3-6.6,7.8-10L807.3,536
								 M390.5,609.5l-0.7,1.4c4.9,2.1,9.8,4.1,14.8,6l0.6-1.4C400.2,613.6,395.4,611.6,390.5,609.5 M791.1,555.5
								c-2.9,3.1-5.9,6.2-9,9.2l1.6,1.1c3.1-3,6.1-6.1,9-9.2L791.1,555.5 M420.1,620.9l-0.6,1.4c5,1.7,10.1,3.4,15.2,4.9l0.5-1.5
								C430.1,624.3,425.1,622.7,420.1,620.9 M772.6,573.4c-3.3,2.8-6.7,5.6-10.1,8.3l1.5,1.2c3.5-2.7,6.9-5.5,10.2-8.4L772.6,573.4
								 M450.5,630.2l-0.4,1.5c5.1,1.4,10.3,2.6,15.5,3.8l0.3-1.5C460.8,632.9,455.6,631.6,450.5,630.2 M751.8,589.5
								c-3.6,2.5-7.4,5-11.2,7.4l1.3,1.3c3.9-2.4,7.6-4.9,11.3-7.4L751.8,589.5 M481.5,637.3l-0.2,1.5c5.2,1,10.5,1.9,15.7,2.7
								l0.1-1.6C491.9,639.2,486.7,638.3,481.5,637.3 M728.9,603.8c-4,2.2-8.1,4.4-12.2,6.4l1.2,1.4c4.2-2.1,8.3-4.2,12.3-6.5
								L728.9,603.8 M512.8,642l0,1.6c5.2,0.6,10.5,1.1,15.8,1.5l-0.1-1.6C523.2,643.1,518,642.6,512.8,642 M704,616.1
								c-4.3,1.9-8.6,3.7-13.1,5.4l1,1.4c4.5-1.7,8.8-3.5,13.1-5.4L704,616.1 M544.1,644.4l0.2,1.6c5.2,0.2,10.4,0.3,15.6,0.3
								l-0.3-1.6C554.4,644.7,549.2,644.6,544.1,644.4 M677.5,626.3c-4.5,1.5-9.1,2.9-13.8,4.3l0.9,1.5c4.7-1.3,9.3-2.8,13.9-4.3
								L677.5,626.3 M575,644.5l0.4,1.6c5.1-0.2,10.3-0.5,15.4-0.9l-0.5-1.6C585.2,644,580.1,644.3,575,644.5 M649.6,634.3
								c-4.7,1.1-9.6,2.2-14.4,3.2l0.7,1.5c4.9-1,9.8-2,14.5-3.2L649.6,634.3 M605.5,642.1l0.5,1.6c5-0.6,10-1.3,15-2l-0.6-1.6
								C615.4,640.9,610.5,641.6,605.5,642.1 M399.5,113.5c-2.6,0.5-5.3,1-7.9,1.5l0.7,1.5c2.6-0.5,5.2-1,7.8-1.5
								c2.3-0.4,4.6-0.8,6.8-1.1l-0.6-1.6C404.1,112.7,401.8,113.1,399.5,113.5"/>
						</g>
					</g>
				</g>
			</g>
		</g>
	</g>
</g>
<text transform="matrix(1 0 0 1 522.0623 384.0207)" class="st10 st11 st12">HARDWARE</text>
<text transform="matrix(1 0 0 1 656.6316 463.9998)" class="st13 st11 st12">CLOUD OS</text>
<text transform="matrix(1 0 0 1 242.8477 219.2293)" class="st14 st11 st15">API ENDPOINTS</text>
<text transform="matrix(1 0 0 1 752.4342 507.9999)" class="st4 st11 st12">DOMAIN</text>
<text transform="matrix(1 0 0 1 831.7905 544.9995)" class="st4 st11 st12">APPLICATION</text>
<g>
	<polygon class="st16" points="679.6,385 812,385 822,353 689.6,353 	"/>
	<text transform="matrix(1 0 0 1 717.6761 375.0207)" class="st2 st11 st12">Service Admin</text>
	<polygon class="st16" points="679.6,385 695.7,385 674.6,401 	"/>
	<g>
		<circle class="st2" cx="701.7" cy="364" r="5"/>
		<path class="st2" d="M709.7,374.7c0,2-3.6,4.4-8,4.4c-4.4,0-8-2.4-8-4.4s0.1-3.6,8-3.6C709.7,371,709.7,372.6,709.7,374.7z"/>
	</g>
</g>
<g>
	<polygon class="st4" points="479.1,212.5 617.5,212.5 627.5,180.5 489.1,180.5 	"/>
	<text transform="matrix(1 0 0 1 517.1844 202.5207)" class="st2 st11 st12">Infra Architect</text>
	<polygon class="st4" points="479.1,212.5 495.2,212.5 474.1,228.5 	"/>
	<g>
		<circle class="st2" cx="501.2" cy="191.5" r="5"/>
		<path class="st2" d="M509.2,202.2c0,2-3.6,4.4-8,4.4s-8-2.4-8-4.4c0-2,0.1-3.6,8-3.6C509.2,198.5,509.2,200.1,509.2,202.2z"/>
	</g>
</g>
<g>
	<polygon class="st4" points="330,355.8 434.5,355.8 444.5,323.8 340,323.8 	"/>
	<text transform="matrix(1 0 0 1 368.0927 345.7817)" class="st2 st11 st12">Cloud Ops</text>
	<polygon class="st4" points="330,355.8 346.1,355.8 325,371.8 	"/>
	<g>
		<circle class="st2" cx="352.1" cy="334.8" r="5"/>
		<path class="st2" d="M360.1,345.4c0,2-3.6,4.4-8,4.4c-4.4,0-8-2.4-8-4.4s0.1-3.6,8-3.6C360.1,341.8,360.1,343.4,360.1,345.4z"/>
	</g>
</g>
<g>
	<polygon class="st16" points="444.7,492 618.1,492 628.1,460 454.7,460 	"/>
	<text transform="matrix(1 0 0 1 482.7178 482.0205)" class="st2 st11 st12">Automation Engineer</text>
	<polygon class="st16" points="444.7,492 460.7,492 439.7,508 	"/>
	<g>
		<circle class="st2" cx="466.7" cy="471" r="5"/>
		<path class="st2" d="M474.7,481.7c0,2-3.6,4.4-8,4.4c-4.4,0-8-2.4-8-4.4s0.1-3.6,8-3.6C474.7,478,474.7,479.6,474.7,481.7z"/>
	</g>
</g>
<g>
	<polygon class="st16" points="538.9,321.8 677.3,321.8 687.3,289.8 548.9,289.8 	"/>
	<text transform="matrix(1 0 0 1 576.9262 311.8026)" class="st2 st11 st12">Datacenter Ops</text>
	<polygon class="st16" points="538.9,321.8 554.9,321.8 533.9,337.8 	"/>
	<g>
		<circle class="st2" cx="560.9" cy="300.8" r="5"/>
		<path class="st2" d="M568.9,311.4c0,2-3.6,4.4-8,4.4c-4.4,0-8-2.4-8-4.4s0.1-3.6,8-3.6C568.9,307.8,568.9,309.4,568.9,311.4z"/>
	</g>
</g>
<g>
	<polygon class="st4" points="770.6,274 887,274 897,242 780.6,242 	"/>
	<text transform="matrix(1 0 0 1 808.6761 264.0415)" class="st2 st11 st12">Domain Ops</text>
	<polygon class="st4" points="770.6,274 786.7,274 765.6,290 	"/>
	<g>
		<circle class="st2" cx="792.7" cy="253" r="5"/>
		<path class="st2" d="M800.7,263.7c0,2-3.6,4.4-8,4.4c-4.4,0-8-2.4-8-4.4c0-2,0.1-3.6,8-3.6C800.7,260,800.7,261.7,800.7,263.7z"/>
	</g>
</g>
<g>
	<polygon class="st4" points="108,409 238.5,409 248.5,377 118,377 	"/>
	<text transform="matrix(1 0 0 1 146.0927 399.0207)" class="st2 st11 st12">Project Owner</text>
	<polygon class="st4" points="108,409 124.1,409 103,425 	"/>
	<g>
		<circle class="st2" cx="130.1" cy="388" r="5"/>
		<path class="st2" d="M138.1,398.7c0,2-3.6,4.4-8,4.4s-8-2.4-8-4.4c0-2,0.1-3.6,8-3.6C138.1,395,138.1,396.6,138.1,398.7z"/>
	</g>
</g>
<g>
	<polygon class="st4" points="489.1,59.5 620.5,59.5 630.5,27.5 499.1,27.5 	"/>
	<text transform="matrix(1 0 0 1 527.1841 49.5207)" class="st2 st11 st12">App Developer</text>
	<polygon class="st4" points="489.1,59.5 505.2,59.5 484.1,75.5 	"/>
	<g>
		<circle class="st2" cx="511.2" cy="38.5" r="5"/>
		<path class="st2" d="M519.2,49.2c0,2-3.6,4.4-8,4.4s-8-2.4-8-4.4s0.1-3.6,8-3.6C519.2,45.5,519.2,47.1,519.2,49.2z"/>
	</g>
</g>
<g>
	<polygon class="st16" points="543.9,705.5 692.3,705.5 702.3,673.5 553.9,673.5 	"/>
	<text transform="matrix(1 0 0 1 581.926 695.5206)" class="st2 st11 st12">App Architecture</text>
	<polygon class="st16" points="543.9,705.5 559.9,705.5 538.9,721.5 	"/>
	<g>
		<circle class="st2" cx="565.9" cy="684.5" r="5"/>
		<path class="st2" d="M573.9,695.2c0,2-3.6,4.4-8,4.4s-8-2.4-8-4.4s0.1-3.6,8-3.6C573.9,691.5,573.9,693.1,573.9,695.2z"/>
	</g>
</g>
<circle class="st14" cx="1070.4" cy="472.8" r="25"/>
<circle class="st14" cx="1070.4" cy="533.8" r="25"/>
<circle class="st14" cx="1070.4" cy="593.8" r="25"/>
<g>
	<circle class="st2" cx="1065.5" cy="466.7" r="9"/>
	<circle class="st14" cx="1063.6" cy="464.8" r="3.4"/>
	<polygon class="st2" points="1076.8,481.9 1077.5,485.4 1082.5,486.8 1083.5,483.3 1072.6,469.3 1066.1,473.8 1069.6,479 
		1072.4,478.5 1074.3,481.4 	"/>
</g>
<path class="st2" d="M1070.4,579l-12.8,7h25.5L1070.4,579z M1065.1,599.8h-3.5v-10.8h3.5V599.8z M1072.1,599.8h-3.5v-10.8h3.5V599.8
	z M1081.6,599.8h-22.5v3h22.5V599.8z M1083.8,602.8h-27v3h27V602.8z M1079.1,599.8h-3.5v-10.8h3.5V599.8z"/>
<g>
	<text transform="matrix(1 0 0 1 1104.5085 599.8239)" class="st14 st17 st18">Governance (Security and Compliance)</text>
</g>
<g>
	<text transform="matrix(1 0 0 1 1104.5088 539.9995)" class="st14 st17 st18">Business (Business Ops)</text>
</g>
<circle class="st16" cx="892.4" cy="745.8" r="12.5"/>
<g>
	<text transform="matrix(1 0 0 1 913.5086 751.8239)" class="st14 st17 st18">Persona candidates</text>
</g>
<g>
	<text transform="matrix(1 0 0 1 913.5088 716.9995)" class="st14 st17 st18">Personas</text>
</g>
<g>
	<text transform="matrix(1 0 0 1 1104.5088 478.9995)" class="st14 st17 st18">Identity and Access Managment</text>
</g>
<circle class="st4" cx="892.4" cy="710.8" r="12.5"/>
<circle class="st14" cx="332.8" cy="213.4" r="5"/>
<g>
	<path class="st2" d="M1070.9,521v13h-12.5c0,0,0-0.1,0-0.1c0.2,6.7,5.7,12.1,12.5,12.1c6.9,0,12.5-5.6,12.5-12.5
		S1077.8,521,1070.9,521z"/>
	<path class="st2" d="M1058.4,533.5C1058.4,533.5,1058.4,533.5,1058.4,533.5C1058.4,533.5,1058.4,533.5,1058.4,533.5
		C1058.4,533.5,1058.4,533.5,1058.4,533.5z"/>
</g>
<path class="st2" d="M1056.4,531.4c0,0.2,0,0.6,0,0.6h12.5v-13C1062,519,1056.4,524.5,1056.4,531.4z"/>
<g>
	<text transform="matrix(1 0 0 1 1045.373 425.5005)" class="st14 st19 st18">Other teams that impact ecosystem</text>
</g>
</svg>
