<?xml version="1.0" encoding="UTF-8" standalone="no"?>
<!-- Generator: Adobe Illustrator 9.0, SVG Export Plug-In  -->

<svg
   xmlns:osb="http://www.openswatchbook.org/uri/2009/osb"
   xmlns:dc="http://purl.org/dc/elements/1.1/"
   xmlns:cc="http://creativecommons.org/ns#"
   xmlns:rdf="http://www.w3.org/1999/02/22-rdf-syntax-ns#"
   xmlns:svg="http://www.w3.org/2000/svg"
   xmlns="http://www.w3.org/2000/svg"
   xmlns:sodipodi="http://sodipodi.sourceforge.net/DTD/sodipodi-0.dtd"
   xmlns:inkscape="http://www.inkscape.org/namespaces/inkscape"
   width="48pt"
   height="48pt"
   viewBox="0 0 48 48"
   xml:space="preserve"
   id="svg3862"
   version="1.1"
   inkscape:version="0.48.0 r9654"
   sodipodi:docname="note.svg"><metadata
   id="metadata3893"><rdf:RDF><cc:Work
       rdf:about=""><dc:format>image/svg+xml</dc:format><dc:type
         rdf:resource="http://purl.org/dc/dcmitype/StillImage" /></cc:Work></rdf:RDF></metadata><defs
   id="defs3891"><linearGradient
   id="linearGradient3770"
   osb:paint="solid"><stop
     style="stop-color:#000000;stop-opacity:1;"
     offset="0"
     id="stop3772" /></linearGradient>
		
		
		
		
		
	</defs><sodipodi:namedview
   pagecolor="#ffffff"
   bordercolor="#666666"
   borderopacity="1"
   objecttolerance="10"
   gridtolerance="10"
   guidetolerance="10"
   inkscape:pageopacity="0"
   inkscape:pageshadow="2"
   inkscape:window-width="1303"
   inkscape:window-height="777"
   id="namedview3889"
   showgrid="false"
   inkscape:zoom="9.9415124"
   inkscape:cx="16.370611"
   inkscape:cy="30"
   inkscape:window-x="127"
   inkscape:window-y="55"
   inkscape:window-maximized="0"
   inkscape:current-layer="svg3862" />
	<g
   id="Layer_x0020_1"
   style="fill-rule:nonzero;clip-rule:nonzero;stroke:#000000;stroke-miterlimit:4;">
		<path
   style="fill:none;stroke:#FFFFFF;stroke-width:12.1438;stroke-linejoin:round;"
   d="M35.7,19.8v18.9H11V8.8h13.9l10.8,11z"
   id="path3865" />
		<path
   style="fill:none;stroke:#FFFFFF;stroke-width:12.7649;stroke-linejoin:round;"
   d="M38.7,30.4L25,16.7l-7.7-3l2.7,8.7l13.3,13.4l5.4-5.4z"
   id="path3867" />
		<path
   style="fill:#FFFFFF;stroke:#FFFFFF;stroke-width:12.7649;stroke-linejoin:round;"
   d="M35.7,8.8H11v29.9h24.7V8.8z"
   id="path3869" />
		<path
   style="fill:#FFFFFF;stroke-width:6.3824;stroke-linejoin:round;"
   d="M35.7,8.8H11v29.9h24.7V8.8z"
   id="path3871" />
		<path
   style="fill:#FFFFFF;stroke:none;"
   d="M35.7,8.8H11v29.9h24.7V8.8z"
   id="path3873" />
	</g>
	<path
   inkscape:connector-curvature="0"
   id="path3878"
   d="M 38.7,30.4 25,16.7 l -7.7,-3 2.7,8.7 13.3,13.4 5.4,-5.4 z"
   style="fill:#c40022;fill-opacity:1;fill-rule:nonzero;stroke:#c40022;stroke-opacity:1" /><path
   inkscape:connector-curvature="0"
   id="path3876"
   d="M 38.7,30.4 25,16.7 l -7.7,-3 2.7,8.7 13.3,13.4 5.4,-5.4 z"
   style="fill:none;stroke:#000000;stroke-width:2.72;stroke-linejoin:round;stroke-miterlimit:4;stroke-opacity:1;fill-opacity:1;stroke-dasharray:none" /><path
   inkscape:connector-curvature="0"
   id="path3880"
   d="m 20.6,14.7 -2.5,2.5 -1.1,-3.8 3.6,1.3 z"
   style="fill-rule:nonzero;stroke:none;stroke-opacity:1;fill:none;fill-opacity:1;stroke-width:0.40000000000000002;stroke-miterlimit:4;stroke-dasharray:none" /><path
   inkscape:connector-curvature="0"
   id="path3884"
   d="m 20.4,14.9 -2.1,2.1 1.6,5.2 2.7,-0.3 2.4,-2.4 0.3,-2.4 -5,-2.2 z"
   style="fill:#ffffff;fill-rule:nonzero;stroke:none" /><path
   inkscape:connector-curvature="0"
   id="path3882"
   d="m 19.6,22.2 3,-0.3 2.4,-2.4 0.4,-2.8"
   style="fill:none;stroke:#000000;stroke-width:1.24290001000000006;stroke-miterlimit:4;fill-opacity:1;stroke-opacity:1" />
	<g
   id="crop"
   style="fill-rule:nonzero;clip-rule:nonzero;stroke:#000000;stroke-miterlimit:4;">
		<path
   style="fill:none;stroke:none;"
   d="M48,48H0V0h48v48z"
   id="path3887" />
	</g>
</svg>