<?xml version="1.0" encoding="UTF-8" standalone="no"?>
<!-- Generator: Adobe Illustrator 9.0, SVG Export Plug-In  -->

<svg
   xmlns:dc="http://purl.org/dc/elements/1.1/"
   xmlns:cc="http://creativecommons.org/ns#"
   xmlns:rdf="http://www.w3.org/1999/02/22-rdf-syntax-ns#"
   xmlns:svg="http://www.w3.org/2000/svg"
   xmlns="http://www.w3.org/2000/svg"
   xmlns:sodipodi="http://sodipodi.sourceforge.net/DTD/sodipodi-0.dtd"
   xmlns:inkscape="http://www.inkscape.org/namespaces/inkscape"
   width="48pt"
   height="48pt"
   viewBox="0 0 48 48"
   xml:space="preserve"
   id="svg4848"
   version="1.1"
   inkscape:version="0.48.0 r9654"
   sodipodi:docname="tip.svg"><metadata
   id="metadata4884"><rdf:RDF><cc:Work
       rdf:about=""><dc:format>image/svg+xml</dc:format><dc:type
         rdf:resource="http://purl.org/dc/dcmitype/StillImage" /></cc:Work></rdf:RDF></metadata><defs
   id="defs4882">
		
	
			
			
			
			
			
			
			
			
			
			
			
			
		</defs><sodipodi:namedview
   pagecolor="#ffffff"
   bordercolor="#666666"
   borderopacity="1"
   objecttolerance="10"
   gridtolerance="10"
   guidetolerance="10"
   inkscape:pageopacity="0"
   inkscape:pageshadow="2"
   inkscape:window-width="751"
   inkscape:window-height="480"
   id="namedview4880"
   showgrid="false"
   inkscape:zoom="3.9931624"
   inkscape:cx="30"
   inkscape:cy="30"
   inkscape:window-x="0"
   inkscape:window-y="22"
   inkscape:window-maximized="0"
   inkscape:current-layer="svg4848" />
	<path
   style="fill-rule:nonzero;stroke:#ffffff;stroke-width:5.61390018;stroke-miterlimit:4"
   d="m 9.5,18.6 c 0,8 6.5,14.4 14.4,14.4 8,0 14.4,-6.5 14.4,-14.4 0,-8 -6.5,-14.4 -14.4,-14.4 -8,0 -14.4,6.5 -14.4,14.4 z m 3.3,0 c 0,-6.2 5,-11.2 11.2,-11.2 6.2,0 11.2,5 11.2,11.2 0,6.2 -5,11.2 -11.2,11.2 -6.2,0 -11.2,-5 -11.2,-11.2 z"
   id="path4853"
   inkscape:connector-curvature="0" /><path
   style="fill-rule:nonzero;stroke:#ffffff;stroke-width:5.61390018;stroke-miterlimit:4"
   d="m 28.1,37.9 -7.6,0.8 c -0.9,0.1 -1.5,0.9 -1.4,1.8 0.1,0.9 0.9,1.5 1.8,1.4 l 7.6,-0.8 C 29.4,41 30,40.2 29.9,39.3 29.8,38.4 29,37.8 28.1,37.9 z"
   id="path4855"
   inkscape:connector-curvature="0" /><path
   style="fill-rule:nonzero;stroke:#ffffff;stroke-width:5.61390018;stroke-miterlimit:4"
   d="m 28.1,34.8 -7.6,0.8 c -0.9,0.1 -1.5,0.9 -1.4,1.8 0.1,0.9 0.9,1.5 1.8,1.4 L 28.5,38 C 29.4,37.9 30,37.1 29.9,36.2 29.8,35.3 29,34.7 28.1,34.8 z"
   id="path4857"
   inkscape:connector-curvature="0" /><path
   style="fill-rule:nonzero;stroke:#ffffff;stroke-width:5.61390018;stroke-miterlimit:4"
   d="m 28.1,31.6 -7.6,0.8 c -0.9,0.1 -1.5,0.9 -1.4,1.8 0.1,0.9 0.9,1.5 1.8,1.4 l 7.6,-0.8 C 29.4,34.7 30,33.9 29.9,33 29.8,32.1 29,31.5 28.1,31.6 z"
   id="path4859"
   inkscape:connector-curvature="0" /><path
   style="fill-rule:nonzero;stroke:#ffffff;stroke-width:5.61390018;stroke-miterlimit:4"
   d="m 23.1,41.3 v 0.9 c 0,0.9 0.7,1.6 1.6,1.6 0.9,0 1.6,-0.7 1.6,-1.6 V 41.3 H 23 z"
   id="path4861"
   inkscape:connector-curvature="0" /><path
   style="fill:#ffffff;fill-rule:nonzero;stroke:none"
   d="m 35.9,18.7 c 0,6.6 -5.4,12 -12,12 -6.6,0 -12,-5.4 -12,-12 0,-6.6 5.4,-12 12,-12 6.6,0 12,5.4 12,12 z"
   id="path4863"
   inkscape:connector-curvature="0" /><path
   style="fill-rule:nonzero;stroke:none"
   d="M 9.6,18.6 C 9.6,26.6 16.1,33 24,33 32,33 38.4,26.5 38.4,18.6 38.4,10.6 31.9,4.2 24,4.2 16,4.2 9.6,10.7 9.6,18.6 z m 3.3,0 c 0,-6.2 5,-11.2 11.2,-11.2 6.2,0 11.2,5 11.2,11.2 0,6.2 -5,11.2 -11.2,11.2 -6.2,0 -11.2,-5 -11.2,-11.2 z"
   id="path4865"
   inkscape:connector-curvature="0" /><path
   style="fill-rule:nonzero;stroke:none"
   d="m 28.2,37.9 -7.6,0.8 c -0.9,0.1 -1.5,0.9 -1.4,1.8 0.1,0.9 0.9,1.5 1.8,1.4 l 7.6,-0.8 C 29.5,41 30.1,40.2 30,39.3 29.9,38.4 29.1,37.8 28.2,37.9 z"
   id="path4867"
   inkscape:connector-curvature="0" /><path
   style="fill-rule:nonzero;stroke:none"
   d="m 28.2,34.7 -7.6,0.8 c -0.9,0.1 -1.5,0.9 -1.4,1.8 0.1,0.9 0.9,1.5 1.8,1.4 l 7.6,-0.8 C 29.5,37.8 30.1,37 30,36.1 29.9,35.2 29.1,34.6 28.2,34.7 z"
   id="path4869"
   inkscape:connector-curvature="0" /><path
   style="fill-rule:nonzero;stroke:none"
   d="m 28.2,31.6 -7.6,0.8 c -0.9,0.1 -1.5,0.9 -1.4,1.8 0.1,0.9 0.9,1.5 1.8,1.4 l 7.6,-0.8 C 29.5,34.7 30.1,33.9 30,33 29.9,32.1 29.1,31.5 28.2,31.6 z"
   id="path4871"
   inkscape:connector-curvature="0" /><path
   style="fill-rule:nonzero;stroke:none"
   d="m 23.1,41.3 v 0.9 c 0,0.9 0.7,1.6 1.6,1.6 0.9,0 1.6,-0.7 1.6,-1.6 V 41.3 H 23 z"
   id="path4873"
   inkscape:connector-curvature="0" /><path
   style="fill:none;stroke:#c40022;stroke-width:1.09440004999999996;stroke-miterlimit:4;stroke-opacity:1"
   d="M 22.3,28.3 18.8,17.6 c 0,0 6.6,3.9 10.5,0"
   id="path4875"
   inkscape:connector-curvature="0" />
	<g
   id="crop_x0020_marks"
   style="fill-rule:nonzero;clip-rule:nonzero;stroke:#000000;stroke-miterlimit:4;">
		<path
   style="fill:none;stroke:none;"
   d="M48,48H0V0h48v48z"
   id="path4878" />
	</g>
</svg>