<?xml version="1.0" encoding="UTF-8" standalone="no"?>
<!-- Created with Inkscape (http://www.inkscape.org/) -->

<svg
   xmlns:dc="http://purl.org/dc/elements/1.1/"
   xmlns:cc="http://creativecommons.org/ns#"
   xmlns:rdf="http://www.w3.org/1999/02/22-rdf-syntax-ns#"
   xmlns:svg="http://www.w3.org/2000/svg"
   xmlns="http://www.w3.org/2000/svg"
   xmlns:sodipodi="http://sodipodi.sourceforge.net/DTD/sodipodi-0.dtd"
   xmlns:inkscape="http://www.inkscape.org/namespaces/inkscape"
   width="700.80688"
   height="160.38583"
   id="svg2"
   version="1.1"
   inkscape:version="0.48.4 r9939"
   sodipodi:docname="basic-architecture-networking.svg">
  <defs
     id="defs4" />
  <sodipodi:namedview
     id="base"
     pagecolor="#ffffff"
     bordercolor="#666666"
     borderopacity="1.0"
     inkscape:pageopacity="0.0"
     inkscape:pageshadow="2"
     inkscape:zoom="0.98994949"
     inkscape:cx="402.00431"
     inkscape:cy="79.112115"
     inkscape:document-units="px"
     inkscape:current-layer="layer1"
     showgrid="false"
     inkscape:window-width="1280"
     inkscape:window-height="948"
     inkscape:window-x="0"
     inkscape:window-y="24"
     inkscape:window-maximized="1"
     fit-margin-top="10"
     fit-margin-left="10"
     fit-margin-right="10"
     fit-margin-bottom="10" />
  <metadata
     id="metadata7">
    <rdf:RDF>
      <cc:Work
         rdf:about="">
        <dc:format>image/svg+xml</dc:format>
        <dc:type
           rdf:resource="http://purl.org/dc/dcmitype/StillImage" />
        <dc:title />
      </cc:Work>
    </rdf:RDF>
  </metadata>
  <g
     inkscape:label="Layer 1"
     inkscape:groupmode="layer"
     id="layer1"
     transform="translate(-23.34687,-298.37717)">
    <path
       id="path5203"
       d="m 259.81617,339.02715 -29.25,19.5 24.09375,0 27.3125,-19.5 -22.15625,0 z m 23.84375,0 -28.34375,20.25 0,59.34375 29.5,-24.59375 0,-55 -1.15625,0 z m -2.46875,7.1875 c 0.11732,0.0305 0.1875,0.13348 0.1875,0.3125 0,0.35805 -0.2982,0.85993 -0.65625,1.125 -0.35804,0.26508 -0.65625,0.2018 -0.65625,-0.15625 0,-0.35805 0.29821,-0.85992 0.65625,-1.125 0.17903,-0.13254 0.35143,-0.18671 0.46875,-0.15625 z m -1.9375,1.4375 c 0.11732,0.0305 0.1875,0.13348 0.1875,0.3125 0,0.35805 -0.2982,0.85993 -0.65625,1.125 -0.35804,0.26508 -0.65625,0.2018 -0.65625,-0.15625 0,-0.35805 0.29821,-0.85992 0.65625,-1.125 0.17903,-0.13254 0.35143,-0.18671 0.46875,-0.15625 z m 1.9375,0.5 c 0.11732,0.0305 0.1875,0.13348 0.1875,0.3125 0,0.35805 -0.2982,0.89118 -0.65625,1.15625 -0.35804,0.26508 -0.65625,0.17055 -0.65625,-0.1875 0,-0.35805 0.29821,-0.85992 0.65625,-1.125 0.17903,-0.13254 0.35143,-0.18671 0.46875,-0.15625 z m -3.90625,0.9375 c 0.11732,0.0305 0.1875,0.13348 0.1875,0.3125 0,0.35805 -0.26695,0.89118 -0.625,1.15625 -0.35804,0.26508 -0.65625,0.17055 -0.65625,-0.1875 0,-0.35805 0.29821,-0.85992 0.65625,-1.125 0.17903,-0.13254 0.32018,-0.18671 0.4375,-0.15625 z m 1.96875,0.5 c 0.11732,0.0305 0.1875,0.16473 0.1875,0.34375 0,0.35805 -0.2982,0.85993 -0.65625,1.125 -0.35804,0.26508 -0.65625,0.17055 -0.65625,-0.1875 0,-0.35805 0.29821,-0.85992 0.65625,-1.125 0.17903,-0.13254 0.35143,-0.18671 0.46875,-0.15625 z m 1.875,0.5 c 0.14698,0.0146 0.25,0.14235 0.25,0.34375 0,0.35805 -0.2982,0.85993 -0.65625,1.125 -0.35804,0.26508 -0.65625,0.17055 -0.65625,-0.1875 0,-0.35805 0.29821,-0.85992 0.65625,-1.125 0.0895,-0.0663 0.17244,-0.10038 0.25,-0.125 0.0582,-0.0185 0.10726,-0.0361 0.15625,-0.0312 z m -5.78125,0.4375 c 0.11732,0.0305 0.1875,0.13348 0.1875,0.3125 0,0.35805 -0.2982,0.89118 -0.65625,1.15625 -0.35804,0.26508 -0.625,0.17055 -0.625,-0.1875 0,-0.35805 0.26696,-0.85992 0.625,-1.125 0.17903,-0.13254 0.35143,-0.18671 0.46875,-0.15625 z m 1.9375,0.5 c 0.11732,0.0305 0.1875,0.16473 0.1875,0.34375 0,0.35805 -0.26695,0.85993 -0.625,1.125 -0.35804,0.26508 -0.65625,0.17055 -0.65625,-0.1875 0,-0.35805 0.29821,-0.85992 0.65625,-1.125 0.17903,-0.13254 0.32018,-0.18671 0.4375,-0.15625 z m 1.90625,0.5 c 0.14698,0.0146 0.25,0.14235 0.25,0.34375 0,0.35805 -0.2982,0.85993 -0.65625,1.125 -0.35804,0.26508 -0.65625,0.2018 -0.65625,-0.15625 0,-0.35805 0.29821,-0.89117 0.65625,-1.15625 0.0895,-0.0663 0.17244,-0.10038 0.25,-0.125 0.0582,-0.0185 0.10726,-0.0361 0.15625,-0.0312 z m -5.78125,0.4375 c 0.11732,0.0305 0.1875,0.16473 0.1875,0.34375 0,0.35805 -0.2982,0.85993 -0.65625,1.125 -0.35804,0.26508 -0.65625,0.17055 -0.65625,-0.1875 0,-0.35805 0.29821,-0.85992 0.65625,-1.125 0.17903,-0.13254 0.35143,-0.18671 0.46875,-0.15625 z m 7.71875,0.0625 c 0.14698,0.0146 0.25,0.14235 0.25,0.34375 0,0.35805 -0.2982,0.85993 -0.65625,1.125 -0.35804,0.26508 -0.65625,0.2018 -0.65625,-0.15625 0,-0.35805 0.29821,-0.85992 0.65625,-1.125 0.0895,-0.0663 0.17244,-0.13163 0.25,-0.15625 0.0582,-0.0185 0.10726,-0.0361 0.15625,-0.0312 z m -5.8125,0.4375 c 0.13819,0.0146 0.21875,0.14235 0.21875,0.34375 0,0.35805 -0.2982,0.85993 -0.65625,1.125 -0.35804,0.26508 -0.625,0.17055 -0.625,-0.1875 0,-0.35805 0.26696,-0.85992 0.625,-1.125 0.0895,-0.0663 0.20369,-0.10038 0.28125,-0.125 0.0582,-0.0185 0.11019,-0.0361 0.15625,-0.0312 z m 1.9375,0.5 c 0.13819,0.0146 0.21875,0.14235 0.21875,0.34375 0,0.35805 -0.26695,0.85993 -0.625,1.125 -0.35804,0.26508 -0.65625,0.2018 -0.65625,-0.15625 0,-0.35805 0.29821,-0.89117 0.65625,-1.15625 0.0895,-0.0663 0.17244,-0.10038 0.25,-0.125 0.0582,-0.0185 0.11019,-0.0361 0.15625,-0.0312 z m -5.78125,0.4375 c 0.11732,0.0305 0.1875,0.16473 0.1875,0.34375 0,0.35805 -0.2982,0.85993 -0.65625,1.125 -0.35804,0.26508 -0.65625,0.17055 -0.65625,-0.1875 0,-0.35805 0.29821,-0.85992 0.65625,-1.125 0.17903,-0.13254 0.35143,-0.18671 0.46875,-0.15625 z m 7.71875,0.0625 c 0.14698,0.0146 0.25,0.14235 0.25,0.34375 0,0.35805 -0.2982,0.85993 -0.65625,1.125 -0.35804,0.26508 -0.65625,0.2018 -0.65625,-0.15625 0,-0.35805 0.29821,-0.85992 0.65625,-1.125 0.0895,-0.0663 0.17244,-0.13163 0.25,-0.15625 0.0582,-0.0185 0.10726,-0.0361 0.15625,-0.0312 z m -5.84375,0.4375 c 0.14698,0.0146 0.25,0.14235 0.25,0.34375 0,0.35805 -0.2982,0.85993 -0.65625,1.125 -0.35804,0.26508 -0.65625,0.2018 -0.65625,-0.15625 0,-0.35805 0.29821,-0.89117 0.65625,-1.15625 0.0895,-0.0663 0.17244,-0.10038 0.25,-0.125 0.0582,-0.0185 0.10726,-0.0361 0.15625,-0.0312 z m 7.78125,0.0625 c 0.14698,0.0146 0.25,0.14235 0.25,0.34375 0,0.35805 -0.2982,0.85993 -0.65625,1.125 -0.35804,0.26508 -0.65625,0.2018 -0.65625,-0.15625 0,-0.35805 0.29821,-0.85992 0.65625,-1.125 0.0895,-0.0663 0.17244,-0.13163 0.25,-0.15625 0.0582,-0.0185 0.10726,-0.0361 0.15625,-0.0312 z m -5.8125,0.4375 c 0.13819,0.0146 0.21875,0.14235 0.21875,0.34375 0,0.35805 -0.2982,0.85993 -0.65625,1.125 -0.35804,0.26508 -0.625,0.2018 -0.625,-0.15625 0,-0.35805 0.26696,-0.85992 0.625,-1.125 0.0895,-0.0663 0.20369,-0.13163 0.28125,-0.15625 0.0582,-0.0185 0.11019,-0.0361 0.15625,-0.0312 z m 1.9375,0.5 c 0.13819,0.0146 0.21875,0.14235 0.21875,0.34375 0,0.35805 -0.26695,0.85993 -0.625,1.125 -0.35804,0.26508 -0.65625,0.2018 -0.65625,-0.15625 0,-0.35805 0.29821,-0.85992 0.65625,-1.125 0.0895,-0.0663 0.17244,-0.13163 0.25,-0.15625 0.0582,-0.0185 0.11019,-0.0361 0.15625,-0.0312 z m -5.84375,0.4375 c 0.14698,0.0146 0.25,0.14235 0.25,0.34375 0,0.35805 -0.2982,0.85993 -0.65625,1.125 -0.35804,0.26508 -0.65625,0.2018 -0.65625,-0.15625 0,-0.35805 0.29821,-0.89117 0.65625,-1.15625 0.0895,-0.0663 0.17244,-0.10038 0.25,-0.125 0.0582,-0.0185 0.10726,-0.0361 0.15625,-0.0312 z m 7.84375,0.0937 c 0.11732,0.0305 0.1875,0.13348 0.1875,0.3125 0,0.35805 -0.2982,0.85993 -0.65625,1.125 -0.35804,0.26508 -0.65625,0.2018 -0.65625,-0.15625 0,-0.35805 0.29821,-0.85992 0.65625,-1.125 0.17903,-0.13254 0.35143,-0.18671 0.46875,-0.15625 z m -5.90625,0.40625 c 0.14698,0.0146 0.25,0.14235 0.25,0.34375 0,0.35805 -0.2982,0.85993 -0.65625,1.125 -0.35804,0.26508 -0.65625,0.2018 -0.65625,-0.15625 0,-0.35805 0.29821,-0.85992 0.65625,-1.125 0.0895,-0.0663 0.17244,-0.13163 0.25,-0.15625 0.0582,-0.0185 0.10726,-0.0361 0.15625,-0.0312 z m 1.96875,0.5 c 0.13819,0.0146 0.21875,0.14235 0.21875,0.34375 0,0.35805 -0.2982,0.85993 -0.65625,1.125 -0.35804,0.26508 -0.625,0.2018 -0.625,-0.15625 0,-0.35805 0.26696,-0.85992 0.625,-1.125 0.0895,-0.0663 0.20369,-0.13163 0.28125,-0.15625 0.0582,-0.0185 0.11019,-0.0361 0.15625,-0.0312 z m 1.96875,0.53125 c 0.11732,0.0305 0.1875,0.13348 0.1875,0.3125 0,0.35805 -0.26695,0.85993 -0.625,1.125 -0.35804,0.26508 -0.65625,0.2018 -0.65625,-0.15625 0,-0.35805 0.29821,-0.85992 0.65625,-1.125 0.17903,-0.13254 0.32018,-0.18671 0.4375,-0.15625 z m -5.875,0.40625 c 0.14698,0.0146 0.25,0.14235 0.25,0.34375 0,0.35805 -0.2982,0.85993 -0.65625,1.125 -0.35804,0.26508 -0.65625,0.2018 -0.65625,-0.15625 0,-0.35805 0.29821,-0.85992 0.65625,-1.125 0.0895,-0.0663 0.17244,-0.13163 0.25,-0.15625 0.0582,-0.0185 0.10726,-0.0361 0.15625,-0.0312 z m 2,0.53125 c 0.11732,0.0305 0.1875,0.13348 0.1875,0.3125 0,0.35805 -0.2982,0.85993 -0.65625,1.125 -0.35804,0.26508 -0.65625,0.2018 -0.65625,-0.15625 0,-0.35805 0.29821,-0.85992 0.65625,-1.125 0.17903,-0.13254 0.35143,-0.18671 0.46875,-0.15625 z m 1.9375,0.5 c 0.11732,0.0305 0.1875,0.13348 0.1875,0.3125 0,0.35805 -0.2982,0.89118 -0.65625,1.15625 -0.35804,0.26508 -0.625,0.17055 -0.625,-0.1875 0,-0.35805 0.26696,-0.85992 0.625,-1.125 0.17903,-0.13254 0.35143,-0.18671 0.46875,-0.15625 z m -3.875,0.9375 c 0.11732,0.0305 0.1875,0.13348 0.1875,0.3125 0,0.35805 -0.2982,0.85993 -0.65625,1.125 -0.35804,0.26508 -0.65625,0.2018 -0.65625,-0.15625 0,-0.35805 0.29821,-0.85992 0.65625,-1.125 0.17903,-0.13254 0.35143,-0.18671 0.46875,-0.15625 z m -41.65625,0.28125 0,59.5 24.5,0 0,-59.5 -24.5,0 z m 43.59375,0.21875 c 0.11732,0.0305 0.1875,0.16473 0.1875,0.34375 0,0.35805 -0.2982,0.85993 -0.65625,1.125 -0.35804,0.26508 -0.65625,0.17055 -0.65625,-0.1875 0,-0.35805 0.29821,-0.85992 0.65625,-1.125 0.17903,-0.13254 0.35143,-0.18671 0.46875,-0.15625 z m -1.9375,1.4375 c 0.11732,0.0305 0.1875,0.16473 0.1875,0.34375 0,0.35805 -0.2982,0.85993 -0.65625,1.125 -0.35804,0.26508 -0.65625,0.17055 -0.65625,-0.1875 0,-0.35805 0.29821,-0.85992 0.65625,-1.125 0.17903,-0.13254 0.35143,-0.18671 0.46875,-0.15625 z m -38.65625,2.84375 18,0 0,3 -18,0 0,-3 z m 0,4 18,0 0,3 -18,0 0,-3 z m 0,4 18,0 0,3 -18,0 0,-3 z m 0,4 18,0 0,3 -18,0 0,-3 z m 15.5,4 a 0.31325759,0.31325759 0 0 1 0.21875,0.0625 0.31325759,0.31325759 0 0 1 0.0312,0.0312 0.31325759,0.31325759 0 0 1 0.0312,0.0312 0.31325759,0.31325759 0 0 1 0.0625,0.21875 l 0,1.875 a 0.31325759,0.31325759 0 0 1 -0.0625,0.1875 0.31325759,0.31325759 0 0 1 -0.0312,0.0312 0.31325759,0.31325759 0 0 1 -0.0937,0.0625 0.31325759,0.31325759 0 0 1 -0.3125,-0.0312 0.31325759,0.31325759 0 0 1 -0.0312,-0.0312 0.31325759,0.31325759 0 0 1 -0.0312,-0.0312 0.31325759,0.31325759 0 0 1 -0.0625,-0.1875 l 0,-1.875 a 0.31325759,0.31325759 0 0 1 0.0625,-0.1875 0.31325759,0.31325759 0 0 1 0.0312,-0.0312 0.31325759,0.31325759 0 0 1 0.0312,-0.0312 0.31325759,0.31325759 0 0 1 0.125,-0.0625 0.31325759,0.31325759 0 0 1 0.0312,-0.0312 z m -0.8125,0.875 a 0.33402435,0.33402435 0 0 1 0.125,0.65625 c -0.0996,0.0742 -0.20767,0.1812 -0.28125,0.28125 -0.41214,0.56045 -0.27919,1.33786 0.28125,1.75 0.56045,0.41214 1.33786,0.2792 1.75,-0.28125 0.41215,-0.56044 0.2792,-1.33786 -0.28125,-1.75 a 0.31325759,0.31325759 0 0 1 -0.0312,-0.0312 0.31325759,0.31325759 0 0 1 -0.0625,-0.0937 0.31325759,0.31325759 0 0 1 0,-0.25 0.31325759,0.31325759 0 0 1 0.0625,-0.0937 0.31325759,0.31325759 0 0 1 0.0312,-0.0312 0.31325759,0.31325759 0 0 1 0.15625,-0.0625 0.31325759,0.31325759 0 0 1 0.21875,0.0625 c 0.8332,0.61272 1.01897,1.79181 0.40625,2.625 -0.61271,0.8332 -1.7918,1.01897 -2.625,0.40625 -0.83319,-0.61272 -1.01896,-1.7918 -0.40625,-2.625 0.11037,-0.15007 0.22557,-0.29501 0.375,-0.40625 a 0.31596724,0.31596724 0 0 1 0.0625,-0.0312 0.31596724,0.31596724 0 0 1 0.0312,-0.0312 0.32173844,0.32173844 0 0 1 0.0312,-0.0312 0.32849681,0.32849681 0 0 1 0.0625,-0.0312 0.33108781,0.33108781 0 0 1 0.0937,-0.0312 z m -12.6875,0.125 c 0.55229,0 1,0.44772 1,1 0,0.55229 -0.44771,1 -1,1 -0.55228,0 -1,-0.44771 -1,-1 0,-0.55228 0.44772,-1 1,-1 z m 2.9375,0 c 0.55229,0 1,0.44772 1,1 0,0.55229 -0.44771,1 -1,1 -0.55228,0 -1,-0.44771 -1,-1 0,-0.55228 0.44772,-1 1,-1 z m -6.3125,22.5 a 0.52871638,0.52871638 0 0 1 0.0312,0 0.52384546,0.52384546 0 0 1 0.0312,0 0.51939907,0.51939907 0 0 1 0.0312,0 0.5153882,0.5153882 0 0 1 0.0312,0 0.5118231,0.5118231 0 0 1 0.0312,0 0.50606671,0.50606671 0 0 1 0.0625,0 0.50219246,0.50219246 0 0 1 0.0625,0 0.50005,0.50005 0 0 1 0.0937,0 l 20,0 a 0.50005,0.50005 0 1 1 0,1 l -20,0 a 0.53400023,0.53400023 0 0 1 -0.375,-1 z m 0,2 a 0.52871638,0.52871638 0 0 1 0.0312,0 0.52384546,0.52384546 0 0 1 0.0312,0 0.51939907,0.51939907 0 0 1 0.0312,0 0.5153882,0.5153882 0 0 1 0.0312,0 0.5118231,0.5118231 0 0 1 0.0312,0 0.50606671,0.50606671 0 0 1 0.0625,0 0.50219246,0.50219246 0 0 1 0.0625,0 0.50005,0.50005 0 0 1 0.0937,0 l 20,0 a 0.50005,0.50005 0 1 1 0,1 l -20,0 a 0.53400023,0.53400023 0 0 1 -0.375,-1 z m 0,2 a 0.52871638,0.52871638 0 0 1 0.0312,0 0.52384546,0.52384546 0 0 1 0.0312,0 0.51939907,0.51939907 0 0 1 0.0312,0 0.5153882,0.5153882 0 0 1 0.0312,0 0.5118231,0.5118231 0 0 1 0.0312,0 0.50606671,0.50606671 0 0 1 0.0625,0 0.50219246,0.50219246 0 0 1 0.0625,0 0.50005,0.50005 0 0 1 0.0937,0 l 20,0 a 0.50005,0.50005 0 1 1 0,1 l -20,0 a 0.53400023,0.53400023 0 0 1 -0.375,-1 z m 0,2 a 0.52871638,0.52871638 0 0 1 0.0312,0 0.52384546,0.52384546 0 0 1 0.0312,0 0.51939907,0.51939907 0 0 1 0.0312,0 0.5153882,0.5153882 0 0 1 0.0312,0 0.5118231,0.5118231 0 0 1 0.0312,0 0.50606671,0.50606671 0 0 1 0.0625,0 0.50219246,0.50219246 0 0 1 0.0625,0 0.50005,0.50005 0 0 1 0.0937,0 l 20,0 a 0.50005,0.50005 0 1 1 0,1 l -20,0 a 0.53400023,0.53400023 0 0 1 -0.375,-1 z m 0,2 a 0.52871638,0.52871638 0 0 1 0.0312,0 0.52384546,0.52384546 0 0 1 0.0312,0 0.51939907,0.51939907 0 0 1 0.0312,0 0.5153882,0.5153882 0 0 1 0.0312,0 0.5118231,0.5118231 0 0 1 0.0312,0 0.50606671,0.50606671 0 0 1 0.0625,0 0.50219246,0.50219246 0 0 1 0.0625,0 0.50005,0.50005 0 0 1 0.0937,0 l 20,0 a 0.50005,0.50005 0 1 1 0,1 l -20,0 a 0.53400023,0.53400023 0 0 1 -0.375,-1 z m 0,2 a 0.52871638,0.52871638 0 0 1 0.0312,0 0.52384546,0.52384546 0 0 1 0.0312,0 0.51939907,0.51939907 0 0 1 0.0312,0 0.5153882,0.5153882 0 0 1 0.0312,0 0.5118231,0.5118231 0 0 1 0.0312,0 0.50606671,0.50606671 0 0 1 0.0625,0 0.50219246,0.50219246 0 0 1 0.0625,0 0.50005,0.50005 0 0 1 0.0937,0 l 20,0 a 0.50005,0.50005 0 1 1 0,1 l -20,0 a 0.53400023,0.53400023 0 0 1 -0.375,-1 z m 0,2 a 0.52871638,0.52871638 0 0 1 0.0312,0 0.52384546,0.52384546 0 0 1 0.0312,0 0.51939907,0.51939907 0 0 1 0.0312,0 0.5153882,0.5153882 0 0 1 0.0312,0 0.5118231,0.5118231 0 0 1 0.0312,0 0.50606671,0.50606671 0 0 1 0.0625,0 0.50219246,0.50219246 0 0 1 0.0625,0 0.50005,0.50005 0 0 1 0.0937,0 l 20,0 a 0.50005,0.50005 0 0 1 0.1875,0.0312 0.50005,0.50005 0 0 1 0.0312,0.0312 0.50005,0.50005 0 0 1 0.0625,0 0.50005,0.50005 0 0 1 0.125,0.15625 0.50005,0.50005 0 0 1 0.0312,0.0312 0.50005,0.50005 0 0 1 0.0312,0.0625 0.50005,0.50005 0 0 1 0,0.0312 0.50005,0.50005 0 0 1 0.0312,0.0625 0.50005,0.50005 0 0 1 0,0.0312 0.50005,0.50005 0 0 1 0,0.0625 0.50005,0.50005 0 0 1 0,0.0937 0.50005,0.50005 0 0 1 0,0.0312 0.50005,0.50005 0 0 1 -0.0312,0.0625 0.50005,0.50005 0 0 1 -0.0312,0.0937 0.50005,0.50005 0 0 1 -0.0312,0.0312 0.50005,0.50005 0 0 1 -0.21875,0.15625 0.50005,0.50005 0 0 1 -0.1875,0.0312 l -20,0 a 0.53400023,0.53400023 0 0 1 -0.375,-1 z"
       style="fill:#000000;stroke:none"
       inkscape:connector-curvature="0" />
    <path
       id="path5203-5"
       d="m 505.86731,334.61959 -29.25,19.5 24.09375,0 27.3125,-19.5 -22.15625,0 z m 23.84375,0 -28.34375,20.25 0,59.34375 29.5,-24.59375 0,-55 -1.15625,0 z m -2.46875,7.1875 c 0.11732,0.0305 0.1875,0.13348 0.1875,0.3125 0,0.35805 -0.2982,0.85993 -0.65625,1.125 -0.35805,0.26508 -0.65625,0.2018 -0.65625,-0.15625 0,-0.35804 0.2982,-0.85992 0.65625,-1.125 0.17903,-0.13253 0.35143,-0.18671 0.46875,-0.15625 z m -1.9375,1.4375 c 0.11732,0.0305 0.1875,0.13348 0.1875,0.3125 0,0.35805 -0.2982,0.85993 -0.65625,1.125 -0.35805,0.26508 -0.65625,0.2018 -0.65625,-0.15625 0,-0.35804 0.2982,-0.85992 0.65625,-1.125 0.17903,-0.13253 0.35143,-0.18671 0.46875,-0.15625 z m 1.9375,0.5 c 0.11732,0.0305 0.1875,0.13348 0.1875,0.3125 0,0.35805 -0.2982,0.89118 -0.65625,1.15625 -0.35805,0.26508 -0.65625,0.17055 -0.65625,-0.1875 0,-0.35804 0.2982,-0.85992 0.65625,-1.125 0.17903,-0.13253 0.35143,-0.18671 0.46875,-0.15625 z m -3.90625,0.9375 c 0.11732,0.0305 0.1875,0.13348 0.1875,0.3125 0,0.35805 -0.26695,0.89118 -0.625,1.15625 -0.35805,0.26508 -0.65625,0.17055 -0.65625,-0.1875 0,-0.35804 0.2982,-0.85992 0.65625,-1.125 0.17903,-0.13253 0.32018,-0.18671 0.4375,-0.15625 z m 1.96875,0.5 c 0.11732,0.0305 0.1875,0.16473 0.1875,0.34375 0,0.35805 -0.2982,0.85993 -0.65625,1.125 -0.35805,0.26508 -0.65625,0.17055 -0.65625,-0.1875 0,-0.35804 0.2982,-0.85992 0.65625,-1.125 0.17903,-0.13253 0.35143,-0.18671 0.46875,-0.15625 z m 1.875,0.5 c 0.14698,0.0146 0.25,0.14235 0.25,0.34375 0,0.35805 -0.2982,0.85993 -0.65625,1.125 -0.35805,0.26508 -0.65625,0.17055 -0.65625,-0.1875 0,-0.35804 0.2982,-0.85992 0.65625,-1.125 0.0895,-0.0663 0.17244,-0.10038 0.25,-0.125 0.0582,-0.0185 0.10726,-0.0361 0.15625,-0.0312 z m -5.78125,0.4375 c 0.11732,0.0305 0.1875,0.13348 0.1875,0.3125 0,0.35805 -0.2982,0.89118 -0.65625,1.15625 -0.35805,0.26508 -0.625,0.17055 -0.625,-0.1875 0,-0.35804 0.26695,-0.85992 0.625,-1.125 0.17903,-0.13253 0.35143,-0.18671 0.46875,-0.15625 z m 1.9375,0.5 c 0.11732,0.0305 0.1875,0.16473 0.1875,0.34375 0,0.35805 -0.26695,0.85993 -0.625,1.125 -0.35805,0.26508 -0.65625,0.17055 -0.65625,-0.1875 0,-0.35804 0.2982,-0.85992 0.65625,-1.125 0.17903,-0.13253 0.32018,-0.18671 0.4375,-0.15625 z m 1.90625,0.5 c 0.14698,0.0146 0.25,0.14235 0.25,0.34375 0,0.35805 -0.2982,0.85993 -0.65625,1.125 -0.35805,0.26508 -0.65625,0.2018 -0.65625,-0.15625 0,-0.35804 0.2982,-0.89117 0.65625,-1.15625 0.0895,-0.0663 0.17244,-0.10038 0.25,-0.125 0.0582,-0.0185 0.10726,-0.0361 0.15625,-0.0312 z m -5.78125,0.4375 c 0.11732,0.0305 0.1875,0.16473 0.1875,0.34375 0,0.35805 -0.2982,0.85993 -0.65625,1.125 -0.35805,0.26508 -0.65625,0.17055 -0.65625,-0.1875 0,-0.35804 0.2982,-0.85992 0.65625,-1.125 0.17903,-0.13253 0.35143,-0.18671 0.46875,-0.15625 z m 7.71875,0.0625 c 0.14698,0.0146 0.25,0.14235 0.25,0.34375 0,0.35805 -0.2982,0.85993 -0.65625,1.125 -0.35805,0.26508 -0.65625,0.2018 -0.65625,-0.15625 0,-0.35804 0.2982,-0.85992 0.65625,-1.125 0.0895,-0.0663 0.17244,-0.13163 0.25,-0.15625 0.0582,-0.0185 0.10726,-0.0361 0.15625,-0.0312 z m -5.8125,0.4375 c 0.13819,0.0146 0.21875,0.14235 0.21875,0.34375 0,0.35805 -0.2982,0.85993 -0.65625,1.125 -0.35805,0.26508 -0.625,0.17055 -0.625,-0.1875 0,-0.35804 0.26695,-0.85992 0.625,-1.125 0.0895,-0.0663 0.20369,-0.10038 0.28125,-0.125 0.0582,-0.0185 0.11019,-0.0361 0.15625,-0.0312 z m 1.9375,0.5 c 0.13819,0.0146 0.21875,0.14235 0.21875,0.34375 0,0.35805 -0.26695,0.85993 -0.625,1.125 -0.35805,0.26508 -0.65625,0.2018 -0.65625,-0.15625 0,-0.35804 0.2982,-0.89117 0.65625,-1.15625 0.0895,-0.0663 0.17244,-0.10038 0.25,-0.125 0.0582,-0.0185 0.11019,-0.0361 0.15625,-0.0312 z m -5.78125,0.4375 c 0.11732,0.0305 0.1875,0.16473 0.1875,0.34375 0,0.35805 -0.2982,0.85993 -0.65625,1.125 -0.35805,0.26508 -0.65625,0.17055 -0.65625,-0.1875 0,-0.35804 0.2982,-0.85992 0.65625,-1.125 0.17903,-0.13253 0.35143,-0.18671 0.46875,-0.15625 z m 7.71875,0.0625 c 0.14698,0.0146 0.25,0.14235 0.25,0.34375 0,0.35805 -0.2982,0.85993 -0.65625,1.125 -0.35805,0.26508 -0.65625,0.2018 -0.65625,-0.15625 0,-0.35804 0.2982,-0.85992 0.65625,-1.125 0.0895,-0.0663 0.17244,-0.13163 0.25,-0.15625 0.0582,-0.0185 0.10726,-0.0361 0.15625,-0.0312 z m -5.84375,0.4375 c 0.14698,0.0146 0.25,0.14235 0.25,0.34375 0,0.35805 -0.2982,0.85993 -0.65625,1.125 -0.35805,0.26508 -0.65625,0.2018 -0.65625,-0.15625 0,-0.35804 0.2982,-0.89117 0.65625,-1.15625 0.0895,-0.0663 0.17244,-0.10038 0.25,-0.125 0.0582,-0.0185 0.10726,-0.0361 0.15625,-0.0312 z m 7.78125,0.0625 c 0.14698,0.0146 0.25,0.14235 0.25,0.34375 0,0.35805 -0.2982,0.85993 -0.65625,1.125 -0.35805,0.26508 -0.65625,0.2018 -0.65625,-0.15625 0,-0.35804 0.2982,-0.85992 0.65625,-1.125 0.0895,-0.0663 0.17244,-0.13163 0.25,-0.15625 0.0582,-0.0185 0.10726,-0.0361 0.15625,-0.0312 z m -5.8125,0.4375 c 0.13819,0.0146 0.21875,0.14235 0.21875,0.34375 0,0.35805 -0.2982,0.85993 -0.65625,1.125 -0.35805,0.26508 -0.625,0.2018 -0.625,-0.15625 0,-0.35804 0.26695,-0.85992 0.625,-1.125 0.0895,-0.0663 0.20369,-0.13163 0.28125,-0.15625 0.0582,-0.0185 0.11019,-0.0361 0.15625,-0.0312 z m 1.9375,0.5 c 0.13819,0.0146 0.21875,0.14235 0.21875,0.34375 0,0.35805 -0.26695,0.85993 -0.625,1.125 -0.35805,0.26508 -0.65625,0.2018 -0.65625,-0.15625 0,-0.35804 0.2982,-0.85992 0.65625,-1.125 0.0895,-0.0663 0.17244,-0.13163 0.25,-0.15625 0.0582,-0.0185 0.11019,-0.0361 0.15625,-0.0312 z m -5.84375,0.4375 c 0.14698,0.0146 0.25,0.14235 0.25,0.34375 0,0.35805 -0.2982,0.85993 -0.65625,1.125 -0.35805,0.26508 -0.65625,0.2018 -0.65625,-0.15625 0,-0.35804 0.2982,-0.89117 0.65625,-1.15625 0.0895,-0.0663 0.17244,-0.10038 0.25,-0.125 0.0582,-0.0185 0.10726,-0.0361 0.15625,-0.0312 z m 7.84375,0.0937 c 0.11732,0.0305 0.1875,0.13348 0.1875,0.3125 0,0.35805 -0.2982,0.85993 -0.65625,1.125 -0.35805,0.26508 -0.65625,0.2018 -0.65625,-0.15625 0,-0.35804 0.2982,-0.85992 0.65625,-1.125 0.17903,-0.13253 0.35143,-0.18671 0.46875,-0.15625 z m -5.90625,0.40625 c 0.14698,0.0146 0.25,0.14235 0.25,0.34375 0,0.35805 -0.2982,0.85993 -0.65625,1.125 -0.35805,0.26508 -0.65625,0.2018 -0.65625,-0.15625 0,-0.35804 0.2982,-0.85992 0.65625,-1.125 0.0895,-0.0663 0.17244,-0.13163 0.25,-0.15625 0.0582,-0.0185 0.10726,-0.0361 0.15625,-0.0312 z m 1.96875,0.5 c 0.13819,0.0146 0.21875,0.14235 0.21875,0.34375 0,0.35805 -0.2982,0.85993 -0.65625,1.125 -0.35805,0.26508 -0.625,0.2018 -0.625,-0.15625 0,-0.35804 0.26695,-0.85992 0.625,-1.125 0.0895,-0.0663 0.20369,-0.13163 0.28125,-0.15625 0.0582,-0.0185 0.11019,-0.0361 0.15625,-0.0312 z m 1.96875,0.53125 c 0.11732,0.0305 0.1875,0.13348 0.1875,0.3125 0,0.35805 -0.26695,0.85993 -0.625,1.125 -0.35805,0.26508 -0.65625,0.2018 -0.65625,-0.15625 0,-0.35804 0.2982,-0.85992 0.65625,-1.125 0.17903,-0.13253 0.32018,-0.18671 0.4375,-0.15625 z m -5.875,0.40625 c 0.14698,0.0146 0.25,0.14235 0.25,0.34375 0,0.35805 -0.2982,0.85993 -0.65625,1.125 -0.35805,0.26508 -0.65625,0.2018 -0.65625,-0.15625 0,-0.35804 0.2982,-0.85992 0.65625,-1.125 0.0895,-0.0663 0.17244,-0.13163 0.25,-0.15625 0.0582,-0.0185 0.10726,-0.0361 0.15625,-0.0312 z m 2,0.53125 c 0.11732,0.0305 0.1875,0.13348 0.1875,0.3125 0,0.35805 -0.2982,0.85993 -0.65625,1.125 -0.35805,0.26508 -0.65625,0.2018 -0.65625,-0.15625 0,-0.35804 0.2982,-0.85992 0.65625,-1.125 0.17903,-0.13253 0.35143,-0.18671 0.46875,-0.15625 z m 1.9375,0.5 c 0.11732,0.0305 0.1875,0.13348 0.1875,0.3125 0,0.35805 -0.2982,0.89118 -0.65625,1.15625 -0.35805,0.26508 -0.625,0.17055 -0.625,-0.1875 0,-0.35804 0.26695,-0.85992 0.625,-1.125 0.17903,-0.13253 0.35143,-0.18671 0.46875,-0.15625 z m -3.875,0.9375 c 0.11732,0.0305 0.1875,0.13348 0.1875,0.3125 0,0.35805 -0.2982,0.85993 -0.65625,1.125 -0.35805,0.26508 -0.65625,0.2018 -0.65625,-0.15625 0,-0.35804 0.2982,-0.85992 0.65625,-1.125 0.17903,-0.13253 0.35143,-0.18671 0.46875,-0.15625 z m -41.65625,0.28125 0,59.5 24.5,0 0,-59.5 -24.5,0 z m 43.59375,0.21875 c 0.11732,0.0305 0.1875,0.16473 0.1875,0.34375 0,0.35805 -0.2982,0.85993 -0.65625,1.125 -0.35805,0.26508 -0.65625,0.17055 -0.65625,-0.1875 0,-0.35804 0.2982,-0.85992 0.65625,-1.125 0.17903,-0.13253 0.35143,-0.18671 0.46875,-0.15625 z m -1.9375,1.4375 c 0.11732,0.0305 0.1875,0.16473 0.1875,0.34375 0,0.35805 -0.2982,0.85993 -0.65625,1.125 -0.35805,0.26508 -0.65625,0.17055 -0.65625,-0.1875 0,-0.35804 0.2982,-0.85992 0.65625,-1.125 0.17903,-0.13253 0.35143,-0.18671 0.46875,-0.15625 z m -38.65625,2.84375 18,0 0,3 -18,0 0,-3 z m 0,4 18,0 0,3 -18,0 0,-3 z m 0,4 18,0 0,3 -18,0 0,-3 z m 0,4 18,0 0,3 -18,0 0,-3 z m 15.5,4 a 0.31325759,0.31325759 0 0 1 0.21875,0.0625 0.31325759,0.31325759 0 0 1 0.0312,0.0312 0.31325759,0.31325759 0 0 1 0.0312,0.0312 0.31325759,0.31325759 0 0 1 0.0625,0.21875 l 0,1.875 a 0.31325759,0.31325759 0 0 1 -0.0625,0.1875 0.31325759,0.31325759 0 0 1 -0.0312,0.0312 0.31325759,0.31325759 0 0 1 -0.0937,0.0625 0.31325759,0.31325759 0 0 1 -0.3125,-0.0312 0.31325759,0.31325759 0 0 1 -0.0312,-0.0312 0.31325759,0.31325759 0 0 1 -0.0312,-0.0312 0.31325759,0.31325759 0 0 1 -0.0625,-0.1875 l 0,-1.875 a 0.31325759,0.31325759 0 0 1 0.0625,-0.1875 0.31325759,0.31325759 0 0 1 0.0312,-0.0312 0.31325759,0.31325759 0 0 1 0.0312,-0.0312 0.31325759,0.31325759 0 0 1 0.125,-0.0625 0.31325759,0.31325759 0 0 1 0.0312,-0.0312 z m -0.8125,0.875 a 0.33402435,0.33402435 0 0 1 0.125,0.65625 c -0.0996,0.0742 -0.20767,0.1812 -0.28125,0.28125 -0.41214,0.56045 -0.27919,1.33786 0.28125,1.75 0.56044,0.41215 1.33786,0.2792 1.75,-0.28125 0.41214,-0.56044 0.2792,-1.33785 -0.28125,-1.75 a 0.31325759,0.31325759 0 0 1 -0.0312,-0.0312 0.31325759,0.31325759 0 0 1 -0.0625,-0.0937 0.31325759,0.31325759 0 0 1 0,-0.25 0.31325759,0.31325759 0 0 1 0.0625,-0.0937 0.31325759,0.31325759 0 0 1 0.0312,-0.0312 0.31325759,0.31325759 0 0 1 0.15625,-0.0625 0.31325759,0.31325759 0 0 1 0.21875,0.0625 c 0.8332,0.61272 1.01897,1.79181 0.40625,2.625 -0.61271,0.8332 -1.79181,1.01897 -2.625,0.40625 -0.83319,-0.61271 -1.01897,-1.7918 -0.40625,-2.625 0.11037,-0.15007 0.22557,-0.29501 0.375,-0.40625 a 0.31596724,0.31596724 0 0 1 0.0625,-0.0312 0.31596724,0.31596724 0 0 1 0.0312,-0.0312 0.32173844,0.32173844 0 0 1 0.0312,-0.0312 0.32849681,0.32849681 0 0 1 0.0625,-0.0312 0.33108781,0.33108781 0 0 1 0.0937,-0.0312 z m -12.6875,0.125 c 0.55229,0 1,0.44772 1,1 0,0.55229 -0.44771,1 -1,1 -0.55228,0 -1,-0.44771 -1,-1 0,-0.55228 0.44772,-1 1,-1 z m 2.9375,0 c 0.55229,0 1,0.44772 1,1 0,0.55229 -0.44771,1 -1,1 -0.55228,0 -1,-0.44771 -1,-1 0,-0.55228 0.44772,-1 1,-1 z m -6.3125,22.5 a 0.52871638,0.52871638 0 0 1 0.0312,0 0.52384546,0.52384546 0 0 1 0.0312,0 0.51939907,0.51939907 0 0 1 0.0312,0 0.5153882,0.5153882 0 0 1 0.0312,0 0.5118231,0.5118231 0 0 1 0.0312,0 0.50606671,0.50606671 0 0 1 0.0625,0 0.50219246,0.50219246 0 0 1 0.0625,0 0.50005,0.50005 0 0 1 0.0937,0 l 20,0 a 0.50005,0.50005 0 1 1 0,1 l -20,0 a 0.53400023,0.53400023 0 0 1 -0.375,-1 z m 0,2 a 0.52871638,0.52871638 0 0 1 0.0312,0 0.52384546,0.52384546 0 0 1 0.0312,0 0.51939907,0.51939907 0 0 1 0.0312,0 0.5153882,0.5153882 0 0 1 0.0312,0 0.5118231,0.5118231 0 0 1 0.0312,0 0.50606671,0.50606671 0 0 1 0.0625,0 0.50219246,0.50219246 0 0 1 0.0625,0 0.50005,0.50005 0 0 1 0.0937,0 l 20,0 a 0.50005,0.50005 0 1 1 0,1 l -20,0 a 0.53400023,0.53400023 0 0 1 -0.375,-1 z m 0,2 a 0.52871638,0.52871638 0 0 1 0.0312,0 0.52384546,0.52384546 0 0 1 0.0312,0 0.51939907,0.51939907 0 0 1 0.0312,0 0.5153882,0.5153882 0 0 1 0.0312,0 0.5118231,0.5118231 0 0 1 0.0312,0 0.50606671,0.50606671 0 0 1 0.0625,0 0.50219246,0.50219246 0 0 1 0.0625,0 0.50005,0.50005 0 0 1 0.0937,0 l 20,0 a 0.50005,0.50005 0 1 1 0,1 l -20,0 a 0.53400023,0.53400023 0 0 1 -0.375,-1 z m 0,2 a 0.52871638,0.52871638 0 0 1 0.0312,0 0.52384546,0.52384546 0 0 1 0.0312,0 0.51939907,0.51939907 0 0 1 0.0312,0 0.5153882,0.5153882 0 0 1 0.0312,0 0.5118231,0.5118231 0 0 1 0.0312,0 0.50606671,0.50606671 0 0 1 0.0625,0 0.50219246,0.50219246 0 0 1 0.0625,0 0.50005,0.50005 0 0 1 0.0937,0 l 20,0 a 0.50005,0.50005 0 1 1 0,1 l -20,0 a 0.53400023,0.53400023 0 0 1 -0.375,-1 z m 0,2 a 0.52871638,0.52871638 0 0 1 0.0312,0 0.52384546,0.52384546 0 0 1 0.0312,0 0.51939907,0.51939907 0 0 1 0.0312,0 0.5153882,0.5153882 0 0 1 0.0312,0 0.5118231,0.5118231 0 0 1 0.0312,0 0.50606671,0.50606671 0 0 1 0.0625,0 0.50219246,0.50219246 0 0 1 0.0625,0 0.50005,0.50005 0 0 1 0.0937,0 l 20,0 a 0.50005,0.50005 0 1 1 0,1 l -20,0 a 0.53400023,0.53400023 0 0 1 -0.375,-1 z m 0,2 a 0.52871638,0.52871638 0 0 1 0.0312,0 0.52384546,0.52384546 0 0 1 0.0312,0 0.51939907,0.51939907 0 0 1 0.0312,0 0.5153882,0.5153882 0 0 1 0.0312,0 0.5118231,0.5118231 0 0 1 0.0312,0 0.50606671,0.50606671 0 0 1 0.0625,0 0.50219246,0.50219246 0 0 1 0.0625,0 0.50005,0.50005 0 0 1 0.0937,0 l 20,0 a 0.50005,0.50005 0 1 1 0,1 l -20,0 a 0.53400023,0.53400023 0 0 1 -0.375,-1 z m 0,2 a 0.52871638,0.52871638 0 0 1 0.0312,0 0.52384546,0.52384546 0 0 1 0.0312,0 0.51939907,0.51939907 0 0 1 0.0312,0 0.5153882,0.5153882 0 0 1 0.0312,0 0.5118231,0.5118231 0 0 1 0.0312,0 0.50606671,0.50606671 0 0 1 0.0625,0 0.50219246,0.50219246 0 0 1 0.0625,0 0.50005,0.50005 0 0 1 0.0937,0 l 20,0 a 0.50005,0.50005 0 0 1 0.1875,0.0312 0.50005,0.50005 0 0 1 0.0312,0.0312 0.50005,0.50005 0 0 1 0.0625,0 0.50005,0.50005 0 0 1 0.125,0.15625 0.50005,0.50005 0 0 1 0.0312,0.0312 0.50005,0.50005 0 0 1 0.0312,0.0625 0.50005,0.50005 0 0 1 0,0.0312 0.50005,0.50005 0 0 1 0.0312,0.0625 0.50005,0.50005 0 0 1 0,0.0312 0.50005,0.50005 0 0 1 0,0.0625 0.50005,0.50005 0 0 1 0,0.0937 0.50005,0.50005 0 0 1 0,0.0312 0.50005,0.50005 0 0 1 -0.0312,0.0625 0.50005,0.50005 0 0 1 -0.0312,0.0937 0.50005,0.50005 0 0 1 -0.0312,0.0312 0.50005,0.50005 0 0 1 -0.21875,0.15625 0.50005,0.50005 0 0 1 -0.1875,0.0312 l -20,0 a 0.53400023,0.53400023 0 0 1 -0.375,-1 z"
       style="fill:#000000;stroke:none"
       inkscape:connector-curvature="0" />
    <text
       xml:space="preserve"
       style="font-size:40px;font-style:normal;font-weight:normal;line-height:125%;letter-spacing:0px;word-spacing:0px;fill:#000000;fill-opacity:1;stroke:none;font-family:Sans"
       x="185.86806"
       y="446.27066"
       id="text2999"
       sodipodi:linespacing="125%"><tspan
         sodipodi:role="line"
         id="tspan3001"
         x="185.86806"
         y="446.27066"
         style="font-size:20px">192.168.0.<tspan
   style="font-weight:bold"
   id="tspan3123">10</tspan></tspan></text>
    <text
       xml:space="preserve"
       style="font-size:40px;font-style:normal;font-weight:normal;line-height:125%;letter-spacing:0px;word-spacing:0px;fill:#000000;fill-opacity:1;stroke:none;font-family:Sans"
       x="429.76987"
       y="448.4798"
       id="text2999-5"
       sodipodi:linespacing="125%"><tspan
         sodipodi:role="line"
         id="tspan3001-8"
         x="429.76987"
         y="448.4798"
         style="font-size:20px">192.168.0.<tspan
   style="font-weight:bold"
   id="tspan3121">11</tspan></tspan></text>
    <text
       xml:space="preserve"
       style="font-size:40px;font-style:normal;font-weight:normal;line-height:125%;letter-spacing:0px;word-spacing:0px;fill:#000000;fill-opacity:1;stroke:none;font-family:Sans"
       x="208.54648"
       y="326.77679"
       id="text2999-9"
       sodipodi:linespacing="125%"><tspan
         sodipodi:role="line"
         id="tspan3001-3"
         x="208.54648"
         y="326.77679"
         style="font-size:20px">10.0.0.<tspan
   style="font-weight:bold"
   id="tspan3106">10</tspan></tspan></text>
    <text
       xml:space="preserve"
       style="font-size:40px;font-style:normal;font-weight:normal;line-height:125%;letter-spacing:0px;word-spacing:0px;fill:#000000;fill-opacity:1;stroke:none;font-family:Sans"
       x="461.49838"
       y="323.22092"
       id="text2999-9-3"
       sodipodi:linespacing="125%"><tspan
         sodipodi:role="line"
         id="tspan3001-3-8"
         x="461.49838"
         y="323.22092"
         style="font-size:20px">10.0.0.<tspan
   style="font-weight:bold"
   id="tspan3108">11</tspan></tspan></text>
    <text
       xml:space="preserve"
       style="font-size:40px;font-style:normal;font-weight:normal;text-align:center;line-height:125%;letter-spacing:0px;word-spacing:0px;text-anchor:middle;fill:#000000;fill-opacity:1;stroke:none;font-family:Sans"
       x="105.4831"
       y="366.4686"
       id="text3066"
       sodipodi:linespacing="125%"><tspan
         sodipodi:role="line"
         x="110.25849"
         y="366.4686"
         id="tspan3074"
         style="font-size:30px;text-align:center;text-anchor:middle">cloud</tspan><tspan
         sodipodi:role="line"
         x="105.4831"
         y="403.9686"
         id="tspan3080"
         style="font-size:30px;text-align:center;text-anchor:middle">controller</tspan></text>
    <text
       xml:space="preserve"
       style="font-size:40px;font-style:normal;font-weight:normal;text-align:center;line-height:125%;letter-spacing:0px;word-spacing:0px;text-anchor:middle;fill:#000000;fill-opacity:1;stroke:none;font-family:Sans"
       x="647.31293"
       y="370.42133"
       id="text3066-6"
       sodipodi:linespacing="125%"><tspan
         sodipodi:role="line"
         x="647.31293"
         y="370.42133"
         id="tspan3074-1"
         style="font-size:30px;text-align:center;text-anchor:middle">compute</tspan><tspan
         sodipodi:role="line"
         x="647.31293"
         y="407.92133"
         id="tspan3080-5"
         style="font-size:30px;text-align:center;text-anchor:middle">node</tspan></text>
    <text
       xml:space="preserve"
       style="font-size:40px;font-style:normal;font-weight:normal;line-height:125%;letter-spacing:0px;word-spacing:0px;fill:#000000;fill-opacity:1;stroke:none;font-family:Sans"
       x="593.44281"
       y="447.55722"
       id="text3186-2"
       sodipodi:linespacing="125%"><tspan
         sodipodi:role="line"
         id="tspan3188-0"
         x="593.44281"
         y="447.55722"
         style="font-size:20px;font-family:Courier New;-inkscape-font-specification:Courier New">compute1</tspan></text>
    <text
       xml:space="preserve"
       style="font-size:40px;font-style:normal;font-weight:normal;line-height:125%;letter-spacing:0px;word-spacing:0px;fill:#000000;fill-opacity:1;stroke:none;font-family:Sans"
       x="38.2859"
       y="444.90643"
       id="text3186-2-2"
       sodipodi:linespacing="125%"><tspan
         sodipodi:role="line"
         id="tspan3188-0-1"
         x="38.2859"
         y="444.90643"
         style="font-size:20px;font-family:Courier New;-inkscape-font-specification:Courier New">controller</tspan></text>
  </g>
</svg>
