<?xml version="1.0" encoding="utf-8"?>
<!-- Generator: Adobe Illustrator 16.0.4, SVG Export Plug-In . SVG Version: 6.00 Build 0)  -->
<!DOCTYPE svg PUBLIC "-//W3C//DTD SVG 1.1//EN" "http://www.w3.org/Graphics/SVG/1.1/DTD/svg11.dtd">
<svg version="1.1" id="Layer_1" xmlns="http://www.w3.org/2000/svg" xmlns:xlink="http://www.w3.org/1999/xlink" x="0px" y="0px"
	 width="136px" height="33px" viewBox="0 0 136 33" enable-background="new 0 0 136 33" xml:space="preserve">
<g>
	<path fill="#6D6D6D" d="M51.721,16.175c0,5.531-2.574,7.395-4.764,7.395c-2.574,0-4.645-2.336-4.645-7.365
		c0-5.237,2.336-7.427,4.792-7.427C49.649,8.779,51.721,11.175,51.721,16.175z M44.591,16.175c0,2.367,0.413,5.591,2.484,5.591
		c1.953,0,2.336-3.372,2.336-5.591c0-2.189-0.384-5.562-2.397-5.562C44.976,10.613,44.591,13.986,44.591,16.175z"/>
	<path fill="#6D6D6D" d="M54.235,13.484c0-2.19-0.09-3.462-0.118-4.468h2.041l0.118,1.834h0.059
		c0.768-1.538,1.893-2.071,3.018-2.071c2.483,0,4.143,2.663,4.143,7.367c0,5.295-2.19,7.425-4.439,7.425
		c-1.331,0-2.101-0.858-2.484-1.655h-0.058v7.1h-2.279V13.484z M56.514,18.069c0,0.443,0,0.857,0.087,1.183
		c0.443,2.041,1.479,2.426,2.101,2.426c1.894,0,2.484-2.604,2.484-5.502c0-2.958-0.71-5.444-2.514-5.444
		c-1.035,0-1.953,1.302-2.101,2.605c-0.058,0.354-0.058,0.708-0.058,1.093V18.069z"/>
	<path fill="#6D6D6D" d="M67.667,16.383c0.027,4.378,1.745,5.323,3.401,5.323c0.975,0,1.805-0.235,2.367-0.562l0.354,1.687
		c-0.798,0.443-2.011,0.682-3.136,0.682c-3.431,0-5.208-2.812-5.208-7.19c0-4.645,1.953-7.544,4.821-7.544
		c2.931,0,4.085,3.077,4.085,6.332c0,0.532,0,0.916-0.03,1.272H67.667z M72.162,14.696c0.061-2.869-1.037-4.141-2.13-4.141
		c-1.477,0-2.247,2.188-2.338,4.141H72.162z"/>
	<path fill="#6D6D6D" d="M76.805,12.714c0-1.687-0.087-2.544-0.118-3.698h1.985l0.117,1.715h0.059
		c0.623-1.153,1.774-1.952,3.285-1.952c1.981,0,3.461,1.48,3.461,4.941v9.615h-2.278v-9.23c0-1.687-0.326-3.402-1.982-3.402
		c-0.947,0-1.862,0.797-2.16,2.336c-0.058,0.354-0.089,0.8-0.089,1.272v9.024h-2.279V12.714z"/>
	<path fill="#CE3427" d="M88.403,20.967c0.503,0.326,1.392,0.739,2.309,0.739c1.3,0,2.101-0.797,2.101-2.07
		c0-1.094-0.387-1.834-1.836-2.81c-1.862-1.212-2.869-2.426-2.869-4.083c0-2.307,1.718-3.964,3.937-3.964
		c1.123,0,1.98,0.384,2.573,0.74l-0.623,1.716c-0.532-0.355-1.152-0.622-1.893-0.622c-1.243,0-1.863,0.887-1.863,1.805
		c0,0.976,0.354,1.509,1.773,2.484c1.658,1.065,2.958,2.367,2.958,4.35c0,2.869-1.952,4.261-4.287,4.261
		c-1.067,0-2.221-0.325-2.842-0.829L88.403,20.967z"/>
	<path fill="#CE3427" d="M100.117,5.23v3.786h2.751v1.746h-2.751v8.491c0,1.863,0.682,2.367,1.508,2.367
		c0.356,0,0.653-0.03,0.918-0.09l0.089,1.745c-0.414,0.147-0.946,0.238-1.685,0.238c-0.89,0-1.687-0.238-2.249-0.859
		c-0.562-0.651-0.859-1.627-0.859-3.607v-8.285h-1.744V9.016h1.744V5.88L100.117,5.23z"/>
	<path fill="#CE3427" d="M110.53,23.335l-0.146-1.51h-0.091c-0.62,1.095-1.626,1.745-2.838,1.745c-1.924,0-3.404-1.626-3.404-4.082
		c0-3.581,2.871-5.177,6.095-5.206v-0.443c0-1.924-0.473-3.255-2.278-3.255c-0.887,0-1.687,0.296-2.366,0.74l-0.503-1.598
		c0.593-0.443,1.924-0.947,3.344-0.947c2.868,0,4.112,1.894,4.112,5.118v6.183c0,1.097,0,2.337,0.148,3.256H110.53z M110.204,15.939
		c-1.181,0-3.935,0.207-3.935,3.313c0,1.863,0.947,2.544,1.747,2.544c1.007,0,1.862-0.739,2.129-2.16
		c0.059-0.266,0.059-0.562,0.059-0.798V15.939z"/>
	<path fill="#CE3427" d="M122.631,22.979c-0.505,0.296-1.361,0.534-2.367,0.534c-3.137,0-5.236-2.516-5.236-7.249
		c0-4.112,2.069-7.455,5.649-7.455c0.77,0,1.599,0.207,2.012,0.444l-0.443,1.863c-0.295-0.147-0.888-0.385-1.626-0.385
		c-2.279,0-3.312,2.722-3.312,5.533c0,3.344,1.271,5.355,3.37,5.355c0.623,0,1.124-0.148,1.656-0.385L122.631,22.979z"/>
	<path fill="#CE3427" d="M126.831,15.673h0.058c0.268-0.562,0.505-1.125,0.769-1.598l2.842-5.06h2.456l-3.787,6.036l4.112,8.283
		h-2.545l-3.106-6.746l-0.798,1.332v5.414h-2.28V2.863h2.28V15.673z"/>
</g>
<g>
	
		<linearGradient id="SVGID_1_" gradientUnits="userSpaceOnUse" x1="135.2939" y1="-289.2324" x2="150.7576" y2="-290.3611" gradientTransform="matrix(0.711 -0.7032 -0.7032 -0.711 -294.0409 -81.7453)">
		<stop  offset="0" style="stop-color:#000000;stop-opacity:0"/>
		<stop  offset="1" style="stop-color:#010201"/>
	</linearGradient>
	<path fill="url(#SVGID_1_)" d="M3.407,22.683c-0.546-0.552-0.542-0.74,0.011-1.286l6.262,0.35c0.552-0.546,1.489,0.218,2.035,0.771
		l3.739,2.75c0.547,0.553,2.563,1.941,2.011,2.487l-3.58,2.169c-0.552,0.547-2.675,0.635-3.221,0.083L3.407,22.683z"/>
	
		<linearGradient id="SVGID_2_" gradientUnits="userSpaceOnUse" x1="295.373" y1="-347.7021" x2="296.8124" y2="-346.4509" gradientTransform="matrix(1 0 0 -1 -268.5 -325.5)">
		<stop  offset="0" style="stop-color:#C33A28"/>
		<stop  offset="0.8825" style="stop-color:#8A241C"/>
	</linearGradient>
	<path fill="url(#SVGID_2_)" d="M25.441,20.554l3.321,3.294c0.795-0.128,0.926-0.529,0.833-1.422l-3.31-3.285l0,0
		C26.136,20.271,26.181,20.519,25.441,20.554L25.441,20.554z"/>
	
		<linearGradient id="SVGID_3_" gradientUnits="userSpaceOnUse" x1="277.2236" y1="-332.2896" x2="278.9883" y2="-329.2331" gradientTransform="matrix(1 0 0 -1 -268.5 -325.5)">
		<stop  offset="0" style="stop-color:#8A241C"/>
		<stop  offset="1" style="stop-color:#C33A28"/>
	</linearGradient>
	<path fill="url(#SVGID_3_)" d="M10.542,7.84L7.219,4.55c0-0.742,0.532-1.597,1.662-1.744l3.285,3.311l0,0
		C11.036,6.264,10.577,7.1,10.542,7.84L10.542,7.84z"/>
	<g>
		<g>
			<g>
				<g>
					<g>
						<g>
							<g enable-background="new    ">
								<g>
									<g>
										<polygon fill="#8A241C" points="29.603,21.781 26.278,18.487 31.301,18.046 34.624,21.341 										"/>
									</g>
									<g>
										<polygon fill="#8A241C" points="29.603,21.781 26.278,18.487 31.301,18.046 34.624,21.341 										"/>
									</g>
								</g>
								<g>
									<polygon fill="#8A241C" points="29.601,22.939 26.278,19.646 26.278,18.487 29.603,21.781 									"/>
								</g>
								<g>
									<polygon fill="#C33A28" points="16.385,24.936 13.065,21.641 25.441,20.554 28.762,23.848 									"/>
								</g>
								<g enable-background="new    ">
									<g>
										<defs>
											<path id="SVGID_4_" d="M15.777,24.723c-0.052-0.05-0.118-0.114-0.169-0.166c-1.05-1.043-2.104-2.084-3.156-3.129
												c0.152,0.151,0.368,0.233,0.612,0.213l3.32,3.295C16.143,24.957,15.929,24.87,15.777,24.723z"/>
										</defs>
										<clipPath id="SVGID_5_">
											<use xlink:href="#SVGID_4_"  overflow="visible"/>
										</clipPath>
										<g clip-path="url(#SVGID_5_)" enable-background="new    ">
											<path fill="#942820" d="M15.777,24.723l-3.325-3.295c0.011,0.013,0.023,0.021,0.034,0.03l3.323,3.296
												C15.796,24.741,15.788,24.733,15.777,24.723"/>
											<path fill="#972920" d="M15.81,24.754l-3.323-3.296c0.017,0.018,0.036,0.031,0.053,0.045l3.322,3.293
												C15.844,24.782,15.827,24.766,15.81,24.754"/>
											<path fill="#9A2C21" d="M15.862,24.796l-3.322-3.293c0.015,0.012,0.032,0.021,0.049,0.031l3.323,3.293
												C15.897,24.817,15.88,24.807,15.862,24.796"/>
											<path fill="#9E2D21" d="M15.912,24.827l-3.323-3.293c0.017,0.012,0.034,0.021,0.051,0.027l3.323,3.294
												C15.946,24.849,15.929,24.839,15.912,24.827"/>
											<path fill="#A22C23" d="M15.963,24.855l-3.323-3.294c0.016,0.009,0.032,0.017,0.047,0.026l3.322,3.29
												C15.996,24.87,15.98,24.863,15.963,24.855"/>
											<path fill="#A72D24" d="M16.01,24.878l-3.322-3.29c0.017,0.003,0.036,0.011,0.051,0.017l3.321,3.293
												C16.044,24.89,16.028,24.886,16.01,24.878"/>
											<path fill="#AB3125" d="M16.06,24.897l-3.321-3.293c0.017,0.005,0.034,0.012,0.051,0.016l3.323,3.292
												C16.094,24.908,16.077,24.901,16.06,24.897"/>
											<path fill="#AE3125" d="M16.113,24.912l-3.323-3.292c0.015,0.005,0.034,0.008,0.053,0.012l3.32,3.291
												C16.146,24.92,16.128,24.915,16.113,24.912"/>
											<path fill="#B13126" d="M16.164,24.923l-3.32-3.291c0.017,0.002,0.034,0.005,0.054,0.007l3.323,3.292
												C16.204,24.931,16.181,24.93,16.164,24.923"/>
											<path fill="#B63327" d="M16.221,24.931l-3.323-3.292c0.02,0.004,0.041,0.004,0.06,0.005l3.323,3.294
												C16.258,24.938,16.242,24.936,16.221,24.931"/>
											<path fill="#B63627" d="M16.28,24.938l-3.323-3.294c0.021,0.001,0.045,0.001,0.066,0.001l3.324,3.293
												C16.325,24.938,16.304,24.938,16.28,24.938"/>
											<path fill="#BB3727" d="M16.349,24.938l-3.324-3.293c0.013-0.002,0.027-0.002,0.041-0.004l3.32,3.295
												C16.372,24.938,16.359,24.938,16.349,24.938"/>
										</g>
									</g>
								</g>
								<g enable-background="new    ">
									<g>
										<defs>
											<path id="SVGID_6_" d="M10.944,29.924l-3.323-3.293c-0.265-0.261-0.425-0.629-0.425-1.044l3.324,3.289
												C10.521,29.296,10.679,29.658,10.944,29.924z"/>
										</defs>
										<clipPath id="SVGID_7_">
											<use xlink:href="#SVGID_6_"  overflow="visible"/>
										</clipPath>
										<g clip-path="url(#SVGID_7_)" enable-background="new    ">
											<path fill="#82211A" d="M10.944,29.924l-3.323-3.293c-0.237-0.235-0.392-0.557-0.419-0.921l3.322,3.294
												C10.553,29.369,10.707,29.688,10.944,29.924"/>
											<path fill="#87241B" d="M10.524,29.004L7.202,25.71c-0.004-0.039-0.004-0.083-0.006-0.123l3.324,3.289
												C10.521,28.92,10.523,28.96,10.524,29.004"/>
										</g>
									</g>
								</g>
								<g>
									<path fill="#D83E27" d="M34.624,21.341l-0.008,5.421c-0.002,0.879-0.716,1.656-1.601,1.734l-20.903,1.836
										c-0.881,0.078-1.596-0.576-1.592-1.456l0.011-5.421l5.024-0.443l-0.002,1.162c0,0.461,0.372,0.801,0.833,0.762l12.26-1.088
										c0.459-0.042,0.952-0.445,0.956-0.908l0.001-1.158L34.624,21.341z"/>
								</g>
								<g>
									<g>
										<polygon fill="#8A241C" points="10.531,23.455 7.209,20.163 12.234,19.72 15.555,23.012 										"/>
									</g>
									<g>
										<polygon fill="#8A241C" points="10.531,23.455 7.209,20.163 12.234,19.72 15.555,23.012 										"/>
									</g>
								</g>
								<g>
									<polygon fill="#8A241C" points="10.521,28.876 7.196,25.587 7.209,20.163 10.531,23.455 									"/>
								</g>
							</g>
							<g enable-background="new    ">
								<g>
									<g>
										<polygon fill="#E6584F" points="34.596,12.192 34.626,20.171 29.603,20.612 29.573,12.632 										"/>
									</g>
									<g>
										<polygon fill="#E2493C" points="34.596,12.192 34.626,20.171 29.603,20.612 29.573,12.632 										"/>
									</g>
								</g>
								<g>
									<polygon fill="#8A241C" points="29.603,20.612 26.284,17.318 26.25,9.337 29.573,12.632 									"/>
								</g>
								<g>
									<g>
										<polygon fill="#8A241C" points="29.573,12.632 26.25,9.337 31.274,8.898 34.596,12.192 										"/>
									</g>
									<g>
										<polygon fill="#8A241C" points="29.573,12.632 26.25,9.337 31.274,8.898 34.596,12.192 										"/>
									</g>
								</g>
							</g>
							<g enable-background="new    ">
								<g>
									<g>
										<polygon fill="#E6584F" points="15.526,13.863 15.559,21.845 10.533,22.285 10.499,14.306 										"/>
									</g>
									<g>
										<polygon fill="#E2493C" points="15.526,13.863 15.559,21.845 10.533,22.285 10.499,14.306 										"/>
									</g>
								</g>
								<g>
									<polygon fill="#8A241C" points="10.533,22.285 7.21,18.992 7.179,11.015 10.499,14.306 									"/>
								</g>
								<g>
									<polygon fill="#8A241C" points="10.499,14.306 7.179,11.015 12.204,10.573 15.526,13.863 									"/>
								</g>
							</g>
						</g>
						<g>
							<g enable-background="new    ">
								<g>
									<polygon fill="#8A241C" points="29.598,11.441 26.273,8.151 26.278,7.148 29.601,10.441 									"/>
								</g>
								<g enable-background="new    ">
									<g>
										<defs>
											<path id="SVGID_8_" d="M26.055,6.599c1.108,1.098,2.214,2.196,3.32,3.294c0.14,0.137,0.225,0.329,0.225,0.548
												l-3.323-3.293C26.278,6.928,26.192,6.737,26.055,6.599z"/>
										</defs>
										<clipPath id="SVGID_9_">
											<use xlink:href="#SVGID_8_"  overflow="visible"/>
										</clipPath>
										<g clip-path="url(#SVGID_9_)" enable-background="new    ">
											<path fill="#87241B" d="M29.601,10.441l-3.323-3.293c0-0.023-0.004-0.042-0.007-0.065l3.325,3.293
												C29.598,10.396,29.601,10.421,29.601,10.441"/>
											<path fill="#82211A" d="M29.596,10.376l-3.325-3.293c-0.012-0.193-0.091-0.362-0.216-0.484l3.32,3.293
												C29.5,10.016,29.581,10.184,29.596,10.376"/>
										</g>
									</g>
								</g>
								<g enable-background="new    ">
									<g>
										<g>
											<path id="SVGID_16_" fill="#C33A28" d="M30.891,1.404c0.223,0.216,0.445,0.437,0.663,0.655
												c0.888,0.879,1.774,1.757,2.66,2.634c-0.292-0.287-0.706-0.445-1.168-0.409l-3.323-3.291
												C30.185,0.953,30.602,1.112,30.891,1.404z"/>
										</g>
										<g>
											<defs>
												<path id="SVGID_10_" d="M30.891,1.404c0.223,0.216,0.445,0.437,0.663,0.655c0.888,0.879,1.774,1.757,2.66,2.634
													c-0.292-0.287-0.706-0.445-1.168-0.409l-3.323-3.291C30.185,0.953,30.602,1.112,30.891,1.404z"/>
											</defs>
											<clipPath id="SVGID_11_">
												<use xlink:href="#SVGID_10_"  overflow="visible"/>
											</clipPath>
											<g clip-path="url(#SVGID_11_)">
												<path fill="#C33A28" d="M29.722,0.993l3.323,3.292c0.021,0,0.044-0.003,0.068-0.003L29.791,0.99
													C29.769,0.99,29.746,0.991,29.722,0.993z"/>
												<path fill="#C33A28" d="M29.791,0.99l3.323,3.292c0.042-0.003,0.085-0.003,0.126-0.001l-3.32-3.291
													C29.878,0.986,29.833,0.986,29.791,0.99z"/>
												<path fill="#C33A28" d="M29.919,0.99l3.32,3.291c0.041,0.001,0.081,0.004,0.118,0.01l-3.323-3.293
													C29.996,0.992,29.96,0.99,29.919,0.99z"/>
												<path fill="#C33A28" d="M30.035,0.998l3.323,3.293c0.036,0.004,0.072,0.009,0.106,0.016l-3.323-3.295
													C30.107,1.007,30.071,1,30.035,0.998z"/>
												<path fill="#C33A28" d="M30.142,1.012l3.323,3.295c0.034,0.003,0.071,0.012,0.103,0.021l-3.323-3.29
													C30.21,1.028,30.178,1.021,30.142,1.012z"/>
												<path fill="#C33A28" d="M30.245,1.037l3.323,3.29c0.031,0.011,0.063,0.019,0.096,0.03l-3.322-3.292
													C30.308,1.055,30.278,1.043,30.245,1.037z"/>
												<path fill="#C33A28" d="M30.341,1.065l3.322,3.292c0.033,0.01,0.064,0.022,0.097,0.036l-3.322-3.292
													C30.405,1.088,30.373,1.075,30.341,1.065z"/>
												<path fill="#C33A28" d="M30.438,1.101l3.322,3.292c0.034,0.014,0.062,0.027,0.095,0.045l-3.323-3.295
													C30.501,1.129,30.469,1.112,30.438,1.101z"/>
												<path fill="#C33A28" d="M30.531,1.143l3.323,3.295c0.032,0.015,0.063,0.033,0.096,0.051l-3.325-3.294
													C30.595,1.18,30.563,1.162,30.531,1.143z"/>
												<path fill="#C33A28" d="M30.625,1.194l3.325,3.295c0.032,0.02,0.064,0.042,0.097,0.064l-3.324-3.292
													C30.694,1.238,30.659,1.217,30.625,1.194z"/>
												<path fill="#C33A28" d="M30.723,1.262l3.324,3.291c0.036,0.027,0.068,0.052,0.1,0.078l-3.32-3.289
													C30.792,1.312,30.761,1.284,30.723,1.262z"/>
												<path fill="#C33A28" d="M30.891,1.404c-0.021-0.024-0.043-0.044-0.064-0.061l3.32,3.289
													c0.026,0.024,0.045,0.042,0.067,0.062L30.891,1.404z"/>
											</g>
										</g>
									</g>
								</g>
								<g>
									<polygon fill="#8A241C" points="10.527,13.104 7.204,9.811 7.219,4.55 10.542,7.84 									"/>
								</g>
								<g>
									<polygon fill="#C33A28" points="12.14,6.109 8.817,2.816 29.722,0.993 33.045,4.285 									"/>
								</g>
								<g>
									<g>
										<path fill="#E6584F" d="M12.14,6.109l20.905-1.825c0.881-0.073,1.594,0.575,1.591,1.459l-0.016,5.261l-5.022,0.438
											l0.002-1c0-0.459-0.371-0.8-0.833-0.76l-12.379,1.077c-0.458,0.041-0.834,0.447-0.834,0.908l-0.002,0.998l-5.025,0.439
											l0.014-5.263C10.544,6.961,11.261,6.187,12.14,6.109z"/>
									</g>
									<g>
										<path fill="#E6584F" d="M12.14,6.109l20.905-1.825c0.881-0.073,1.594,0.575,1.591,1.459l-0.016,5.261l-5.022,0.438
											l0.002-1c0-0.459-0.371-0.8-0.833-0.76l-12.379,1.077c-0.458,0.041-0.834,0.447-0.834,0.908l-0.002,0.998l-5.025,0.439
											l0.014-5.263C10.544,6.961,11.261,6.187,12.14,6.109z"/>
									</g>
								</g>
							</g>
						</g>
					</g>
				</g>
			</g>
		</g>
	</g>
</g>
</svg>
