<?xml version="1.0" encoding="UTF-8" standalone="no"?>
<!-- Created with Inkscape (http://www.inkscape.org/) -->

<svg
   xmlns:dc="http://purl.org/dc/elements/1.1/"
   xmlns:cc="http://creativecommons.org/ns#"
   xmlns:rdf="http://www.w3.org/1999/02/22-rdf-syntax-ns#"
   xmlns:svg="http://www.w3.org/2000/svg"
   xmlns="http://www.w3.org/2000/svg"
   xmlns:sodipodi="http://sodipodi.sourceforge.net/DTD/sodipodi-0.dtd"
   xmlns:inkscape="http://www.inkscape.org/namespaces/inkscape"
   id="svg2"
   version="1.1"
   inkscape:version="0.91 r13725"
   xml:space="preserve"
   width="586.66248"
   height="283.08749"
   viewBox="0 0 586.66248 283.08749"
   sodipodi:docname="OpenStack_Logo_Vertical.svg"><metadata
     id="metadata8"><rdf:RDF><cc:Work
         rdf:about=""><dc:format>image/svg+xml</dc:format><dc:type
           rdf:resource="http://purl.org/dc/dcmitype/StillImage" /><dc:title></dc:title></cc:Work></rdf:RDF></metadata><defs
     id="defs6" /><sodipodi:namedview
     pagecolor="#ffffff"
     bordercolor="#666666"
     borderopacity="1"
     objecttolerance="10"
     gridtolerance="10"
     guidetolerance="10"
     inkscape:pageopacity="0"
     inkscape:pageshadow="2"
     inkscape:window-width="640"
     inkscape:window-height="480"
     id="namedview4"
     showgrid="false"
     inkscape:zoom="0.60852707"
     inkscape:cx="293.33124"
     inkscape:cy="141.54375"
     inkscape:window-x="0"
     inkscape:window-y="23"
     inkscape:window-maximized="0"
     inkscape:current-layer="g10" /><g
     id="g10"
     inkscape:groupmode="layer"
     inkscape:label="ink_ext_XXXXXX"
     transform="matrix(1.25,0,0,-1.25,0,283.0875)"><g
       id="g12"
       transform="scale(0.1,0.1)"><path
         d="m 4623.62,175.559 c -28.97,0 -52.53,23.562 -52.53,52.519 0,28.973 23.56,52.531 52.53,52.531 28.96,0 52.52,-23.558 52.52,-52.531 0,-28.957 -23.56,-52.519 -52.52,-52.519 z m 69.63,52.519 c 0,38.402 -31.24,69.641 -69.63,69.641 -38.4,0 -69.64,-31.239 -69.64,-69.641 0,-38.387 31.24,-69.629 69.64,-69.629 38.39,0 69.63,31.242 69.63,69.629"
         style="fill:#463b35;fill-opacity:1;fill-rule:nonzero;stroke:none"
         id="path14"
         inkscape:connector-curvature="0" /><path
         d="m 4635.5,240.32 c 0,-6.14 -3.9,-10.242 -11.12,-10.242 l -10.42,0 0,20.57 10.14,0 c 7.21,0 11.4,-3.418 11.4,-10.226 l 0,-0.102 z m 14.24,0.391 0,0.391 c 0,6.718 -2.05,12.078 -5.76,15.789 -4.29,4.289 -10.62,6.531 -18.51,6.531 l -25.64,0 0,-68.231 14.13,0 0,22.411 8.87,0 12.57,-22.411 16.19,0 -14.53,25.34 c 7.51,3.309 12.68,9.848 12.68,20.18"
         style="fill:#463b35;fill-opacity:1;fill-rule:nonzero;stroke:none"
         id="path16"
         inkscape:connector-curvature="0" /><path
         d="m 118.57,433.359 0,6.289 c 0,103.903 53.516,180.481 136.41,180.481 80.793,0 138.508,-77.641 138.508,-181.52 l 0,-6.289 c 0,-103.879 -53.515,-181.531 -136.41,-181.531 -80.801,0 -138.508,78.691 -138.508,182.57 z m 393.481,-2.089 0,9.449 C 512.051,605.461 403.98,725.07 257.078,725.07 109.125,725.07 0,603.352 0,439.648 l 0,-9.429 C 0,265.48 108.078,146.91 254.98,146.91 c 147.946,0 257.071,120.668 257.071,284.36"
         style="fill:#463b35;fill-opacity:1;fill-rule:nonzero;stroke:none"
         id="path18"
         inkscape:connector-curvature="0" /><path
         d="m 695.609,431.27 0,10.492 c 0,109.129 60.864,178.367 132.207,178.367 71.356,0 129.067,-68.199 129.067,-179.41 l 0,-9.449 c 0,-111.231 -56.664,-178.391 -129.067,-178.391 -71.343,0 -132.207,69.269 -132.207,178.391 z m 380.901,-2.11 0,14.692 c 0,187.839 -104.936,281.218 -216.158,281.218 -79.75,0 -128.02,-46.172 -162.641,-99.691 l 0,89.199 -118.57,0 0,-714.578 118.57,0 0,242.391 c 33.574,-49.309 81.848,-94.43 162.641,-94.43 112.265,0 216.158,94.43 216.158,281.199"
         style="fill:#463b35;fill-opacity:1;fill-rule:nonzero;stroke:none"
         id="path20"
         inkscape:connector-curvature="0" /><path
         d="m 1378.32,625.379 c 69.26,0 109.13,-64 115.43,-152.141 l -235.04,0 c 8.39,94.434 54.56,152.141 119.61,152.141 z m 211.96,-392.438 -61.91,73.469 c -36.72,-35.68 -75.55,-58.769 -128.01,-58.769 -72.4,0 -130.12,50.371 -140.61,143.75 l 348.37,0 c 1.04,16.789 1.04,33.589 1.04,40.929 0,166.828 -79.74,292.75 -230.84,292.75 -136.41,0 -237.14,-119.609 -237.14,-286.461 l 0,-8.39 c 0,-174.18 111.22,-283.309 253.94,-283.309 82.89,0 144.8,32.531 195.16,86.031"
         style="fill:#463b35;fill-opacity:1;fill-rule:nonzero;stroke:none"
         id="path22"
         inkscape:connector-curvature="0" /><path
         d="m 1957.34,725.07 c -75.55,0 -120.67,-43.031 -152.15,-92.34 l 0,81.848 -118.57,0 0,-556.129 118.57,0 0,336.821 c 0,76.601 43.02,122.769 104.93,122.769 62.96,0 99.68,-43.008 99.68,-120.66 l 0,-338.93 118.57,0 0,372.5 c 0,118.571 -64.01,194.121 -171.03,194.121"
         style="fill:#463b35;fill-opacity:1;fill-rule:nonzero;stroke:none"
         id="path24"
         inkscape:connector-curvature="0" /><path
         d="m 2606.33,316.898 0,1.051 c 0,87.09 -65.07,126.949 -151.11,165.781 -65.05,29.391 -109.12,48.258 -109.12,84.989 l 0,2.109 c 0,30.434 26.23,54.551 70.3,54.551 44.07,0 90.24,-20.988 132.21,-49.309 l 50.37,87.102 c -52.46,37.758 -118.57,59.789 -180.48,59.789 -103.88,0 -183.62,-62.949 -183.62,-162.629 l 0,-2.113 c 0,-91.27 69.25,-129.059 152.14,-164.719 66.1,-28.34 109.13,-46.168 109.13,-86.051 l 0,-1.039 c 0,-34.629 -28.33,-60.859 -77.65,-60.859 -49.31,0 -102.83,24.14 -153.19,65.039 l -55.62,-84.981 c 64.01,-53.507 140.61,-77.648 206.71,-77.648 107.03,0 189.93,59.82 189.93,168.937"
         style="fill:#463b35;fill-opacity:1;fill-rule:nonzero;stroke:none"
         id="path26"
         inkscape:connector-curvature="0" /><path
         d="m 2973.47,174.191 0,97.59 c -19.94,-10.5 -40.92,-15.742 -64.01,-15.742 -37.78,0 -59.81,17.832 -59.81,60.859 l 0,295.891 124.87,0 0,101.789 -124.87,0 0,150.051 -118.57,0 0,-150.051 -60.86,0 19.48,-101.789 41.38,0 0,-320.027 c 0,-108.082 61.91,-142.711 143.76,-142.711 39.87,0 71.35,9.449 98.63,24.14"
         style="fill:#463b35;fill-opacity:1;fill-rule:nonzero;stroke:none"
         id="path28"
         inkscape:connector-curvature="0" /><path
         d="m 3369.03,345.219 c 0,-62.949 -52.47,-109.117 -120.67,-108.078 -51.41,1.05 -90.23,32.55 -90.23,88.14 l 0,2.11 c 0,58.757 39.86,93.39 108.06,93.39 39.88,0 75.56,-8.402 102.84,-19.941 l 0,-55.621 z m 58.76,318.992 c -35.68,36.719 -91.29,56.66 -163.69,56.66 -74.5,0 -130.11,-17.851 -183.63,-44.082 l 33.58,-94.43 c 36.73,16.789 80.8,33.59 134.31,33.59 75.55,0 119.62,-38.828 119.62,-113.32 l 0,-23.098 c -37.78,12.598 -75.55,22.028 -128.02,22.028 -117.51,0 -197.26,-58.75 -197.26,-178.368 l 0,-5.242 c 0,-108.078 77.65,-169.988 169.99,-169.988 72.4,0 121.71,31.48 154.24,78.687 l 0,-68.199 116.47,0 0,345.223 c 0,69.25 -18.89,123.816 -55.61,160.539"
         style="fill:#463b35;fill-opacity:1;fill-rule:nonzero;stroke:none"
         id="path30"
         inkscape:connector-curvature="0" /><path
         d="m 3987.42,230.852 -64,78.687 c -32.53,-32.519 -65.07,-56.66 -113.33,-56.66 -80.8,0 -137.45,72.402 -137.45,180.48 l 0,5.25 c 0,104.942 56.65,179.43 134.31,179.43 50.36,0 82.89,-25.18 112.27,-55.617 l 66.11,87.098 c -46.17,46.171 -98.65,75.55 -178.38,75.55 -145.86,0 -253.94,-119.609 -253.94,-285.422 l 0,-10.488 c 0,-165.789 104.93,-282.25 249.74,-282.25 84.99,0 140.6,34.621 184.67,83.942"
         style="fill:#463b35;fill-opacity:1;fill-rule:nonzero;stroke:none"
         id="path32"
         inkscape:connector-curvature="0" /><path
         d="m 4350.33,447.102 -83.23,-89.473 111.64,-199.18 137.45,0 -165.86,288.653"
         style="fill:#463b35;fill-opacity:1;fill-rule:nonzero;stroke:none"
         id="path34"
         inkscape:connector-curvature="0" /><path
         d="m 4370.34,714.578 -189.92,-244.5 0,445.973 -118.57,0 0,-757.602 118.57,0 0,160.539 330.53,395.59 -140.61,0"
         style="fill:#463b35;fill-opacity:1;fill-rule:nonzero;stroke:none"
         id="path36"
         inkscape:connector-curvature="0" /><path
         d="m 2850.09,1902.24 -262.5,0 0,41.58 c 0,32.27 -26.15,58.42 -58.41,58.42 l -520.55,0 c -32.26,0 -58.41,-26.15 -58.41,-58.42 l 0,-41.58 -262.5,0 0,254.5 c 0,59.4 48.59,108 108,108 l 946.37,0 c 59.4,0 108,-48.6 108,-108 l 0,-254.5"
         style="fill:#ed1843;fill-opacity:1;fill-rule:nonzero;stroke:none"
         id="path38"
         inkscape:connector-curvature="0" /><path
         d="m 2742.09,1127.13 -946.37,0 c -59.4,0 -108,48.6 -108,108 l 0,254.5 262.5,0 0,-41.59 c 0,-32.26 26.15,-58.41 58.41,-58.41 l 520.55,0 c 32.26,0 58.41,26.15 58.41,58.41 l 0,41.59 262.5,0 0,-254.5 c 0,-59.4 -48.59,-108 -108,-108"
         style="fill:#ed1843;fill-opacity:1;fill-rule:nonzero;stroke:none"
         id="path40"
         inkscape:connector-curvature="0" /><path
         d="m 1687.72,1564.68 262.5,0 0,262.5 -262.5,0 0,-262.5 z"
         style="fill:#ed1843;fill-opacity:1;fill-rule:nonzero;stroke:none"
         id="path42"
         inkscape:connector-curvature="0" /><path
         d="m 2587.59,1564.68 262.5,0 0,262.5 -262.5,0 0,-262.5 z"
         style="fill:#ed1843;fill-opacity:1;fill-rule:nonzero;stroke:none"
         id="path44"
         inkscape:connector-curvature="0" /></g></g></svg>