<?xml version="1.0" encoding="utf-8"?>
<!-- Generator: Adobe Illustrator 16.0.4, SVG Export Plug-In . SVG Version: 6.00 Build 0)  -->
<!DOCTYPE svg PUBLIC "-//W3C//DTD SVG 1.1//EN" "http://www.w3.org/Graphics/SVG/1.1/DTD/svg11.dtd">
<svg version="1.1" id="Layer_1" xmlns="http://www.w3.org/2000/svg" xmlns:xlink="http://www.w3.org/1999/xlink" x="0px" y="0px"
	 width="59.37px" height="54.166px" viewBox="0 0 59.37 54.166" enable-background="new 0 0 59.37 54.166" xml:space="preserve">
<g>
	<path fill="#6D6D6D" d="M6.49,44.841c0,3.587-1.669,4.795-3.089,4.795c-1.668,0-3.011-1.515-3.011-4.774
		c0-3.396,1.515-4.815,3.107-4.815C5.146,40.046,6.49,41.6,6.49,44.841z M1.867,44.841c0,1.535,0.268,3.625,1.611,3.625
		c1.266,0,1.515-2.186,1.515-3.625c0-1.419-0.249-3.606-1.554-3.606C2.117,41.234,1.867,43.422,1.867,44.841z"/>
	<path fill="#6D6D6D" d="M8.12,43.096c0-1.419-0.058-2.244-0.076-2.896h1.322l0.077,1.189h0.038
		c0.499-0.997,1.228-1.343,1.957-1.343c1.611,0,2.686,1.727,2.686,4.776c0,3.433-1.42,4.813-2.878,4.813
		c-0.862,0-1.362-0.557-1.611-1.072H9.598v4.603H8.12V43.096z M9.598,46.069c0,0.288,0,0.556,0.057,0.767
		c0.288,1.324,0.959,1.573,1.362,1.573c1.228,0,1.611-1.688,1.611-3.568c0-1.917-0.46-3.529-1.63-3.529
		c-0.671,0-1.266,0.845-1.362,1.689c-0.038,0.229-0.038,0.459-0.038,0.708V46.069z"/>
	<path fill="#6D6D6D" d="M16.828,44.976c0.019,2.84,1.132,3.452,2.206,3.452c0.633,0,1.17-0.153,1.535-0.364l0.23,1.093
		c-0.518,0.288-1.305,0.441-2.034,0.441c-2.224,0-3.376-1.822-3.376-4.66c0-3.012,1.266-4.892,3.126-4.892
		c1.9,0,2.648,1.995,2.648,4.104c0,0.346,0,0.595-0.019,0.825H16.828z M19.744,43.882c0.039-1.859-0.672-2.685-1.381-2.685
		c-0.958,0-1.457,1.418-1.516,2.685H19.744z"/>
	<path fill="#6D6D6D" d="M22.754,42.598c0-1.095-0.057-1.649-0.077-2.398h1.287l0.076,1.112h0.038
		c0.403-0.748,1.15-1.266,2.13-1.266c1.285,0,2.244,0.96,2.244,3.204v6.232h-1.478v-5.984c0-1.093-0.21-2.206-1.285-2.206
		c-0.615,0-1.208,0.518-1.401,1.516c-0.037,0.23-0.057,0.519-0.057,0.824v5.851h-1.478V42.598z"/>
	<path fill="#CE3427" d="M30.273,47.948c0.326,0.212,0.902,0.479,1.497,0.479c0.844,0,1.361-0.518,1.361-1.343
		c0-0.709-0.25-1.188-1.189-1.821c-1.208-0.786-1.86-1.573-1.86-2.648c0-1.495,1.113-2.569,2.552-2.569
		c0.729,0,1.284,0.249,1.669,0.48l-0.404,1.111c-0.346-0.229-0.747-0.403-1.228-0.403c-0.806,0-1.207,0.575-1.207,1.171
		c0,0.633,0.229,0.979,1.15,1.611c1.073,0.69,1.917,1.535,1.917,2.819c0,1.861-1.266,2.762-2.781,2.762
		c-0.69,0-1.438-0.21-1.841-0.536L30.273,47.948z"/>
	<path fill="#CE3427" d="M37.869,37.744v2.455h1.782v1.132h-1.782v5.505c0,1.208,0.441,1.535,0.977,1.535
		c0.231,0,0.424-0.021,0.597-0.06l0.057,1.133c-0.268,0.096-0.613,0.153-1.092,0.153c-0.578,0-1.094-0.153-1.459-0.556
		c-0.364-0.422-0.557-1.057-0.557-2.34v-5.371H35.26v-1.132h1.132v-2.033L37.869,37.744z"/>
	<path fill="#CE3427" d="M44.619,49.482l-0.094-0.978h-0.061c-0.401,0.709-1.054,1.131-1.839,1.131
		c-1.248,0-2.207-1.054-2.207-2.646c0-2.322,1.861-3.358,3.952-3.376v-0.288c0-1.247-0.308-2.109-1.479-2.109
		c-0.574,0-1.094,0.191-1.533,0.479l-0.327-1.036c0.386-0.288,1.248-0.614,2.169-0.614c1.86,0,2.666,1.229,2.666,3.317v4.01
		c0,0.711,0,1.515,0.097,2.109H44.619z M44.409,44.688c-0.766,0-2.553,0.134-2.553,2.147c0,1.208,0.616,1.65,1.134,1.65
		c0.653,0,1.207-0.479,1.381-1.401c0.038-0.172,0.038-0.363,0.038-0.518V44.688z"/>
	<path fill="#CE3427" d="M52.465,49.253c-0.327,0.191-0.882,0.345-1.534,0.345c-2.033,0-3.395-1.631-3.395-4.699
		c0-2.665,1.341-4.833,3.663-4.833c0.498,0,1.037,0.134,1.304,0.287l-0.288,1.209c-0.19-0.096-0.575-0.25-1.055-0.25
		c-1.477,0-2.146,1.765-2.146,3.587c0,2.169,0.824,3.473,2.186,3.473c0.403,0,0.729-0.097,1.073-0.25L52.465,49.253z"/>
	<path fill="#CE3427" d="M55.189,44.516h0.037c0.173-0.365,0.326-0.729,0.498-1.036l1.843-3.28h1.592l-2.455,3.914l2.666,5.369
		h-1.649l-2.014-4.373l-0.518,0.864v3.509H53.71V36.21h1.479V44.516z"/>
</g>
<g>
	
		<linearGradient id="SVGID_1_" gradientUnits="userSpaceOnUse" x1="133.168" y1="-304.7446" x2="150.967" y2="-306.0438" gradientTransform="matrix(0.711 -0.7032 -0.7032 -0.711 -297.5767 -90.3491)">
		<stop  offset="0" style="stop-color:#000000;stop-opacity:0"/>
		<stop  offset="1" style="stop-color:#010201"/>
	</linearGradient>
	<path fill="url(#SVGID_1_)" d="M8.945,25.686c-0.629-0.635-0.624-0.852,0.013-1.481l7.208,0.403
		c0.635-0.628,1.713,0.25,2.342,0.888l4.304,3.166c0.629,0.637,2.95,2.234,2.314,2.863l-4.121,2.496
		c-0.636,0.63-3.079,0.73-3.708,0.096L8.945,25.686z"/>
	
		<linearGradient id="SVGID_2_" gradientUnits="userSpaceOnUse" x1="304.4561" y1="-328.6318" x2="306.1114" y2="-327.1929" gradientTransform="matrix(1 0 0 -1 -268.5 -303.5)">
		<stop  offset="0" style="stop-color:#C33A28"/>
		<stop  offset="0.8825" style="stop-color:#8A241C"/>
	</linearGradient>
	<path fill="url(#SVGID_2_)" d="M34.308,23.235l3.821,3.792c0.916-0.147,1.066-0.609,0.958-1.636l-3.81-3.782l0,0
		C35.108,22.911,35.16,23.195,34.308,23.235L34.308,23.235z"/>
	
		<linearGradient id="SVGID_3_" gradientUnits="userSpaceOnUse" x1="283.5645" y1="-310.8936" x2="285.5962" y2="-307.3745" gradientTransform="matrix(1 0 0 -1 -268.5 -303.5)">
		<stop  offset="0" style="stop-color:#8A241C"/>
		<stop  offset="1" style="stop-color:#C33A28"/>
	</linearGradient>
	<path fill="url(#SVGID_3_)" d="M17.157,8.602l-3.824-3.788c0-0.854,0.612-1.837,1.913-2.007l3.781,3.812l0,0
		C17.726,6.788,17.198,7.75,17.157,8.602L17.157,8.602z"/>
	<g>
		<g>
			<g>
				<g>
					<g>
						<g>
							<g enable-background="new    ">
								<g>
									<g>
										<polygon fill="#8A241C" points="39.098,24.648 35.271,20.857 41.053,20.349 44.878,24.142 										"/>
									</g>
									<g>
										<polygon fill="#8A241C" points="39.098,24.648 35.271,20.857 41.053,20.349 44.878,24.142 										"/>
									</g>
								</g>
								<g>
									<polygon fill="#8A241C" points="39.096,25.981 35.271,22.19 35.271,20.857 39.098,24.648 									"/>
								</g>
								<g>
									<polygon fill="#C33A28" points="23.883,28.279 20.062,24.486 34.308,23.235 38.129,27.027 									"/>
								</g>
								<g enable-background="new    ">
									<g>
										<defs>
											<path id="SVGID_4_" d="M23.184,28.034c-0.059-0.058-0.135-0.131-0.194-0.191c-1.209-1.201-2.421-2.399-3.632-3.602
												c0.175,0.174,0.424,0.269,0.705,0.245l3.821,3.793C23.605,28.305,23.358,28.204,23.184,28.034z"/>
										</defs>
										<clipPath id="SVGID_5_">
											<use xlink:href="#SVGID_4_"  overflow="visible"/>
										</clipPath>
										<g clip-path="url(#SVGID_5_)" enable-background="new    ">
											<path fill="#942820" d="M23.184,28.034l-3.827-3.792c0.012,0.014,0.027,0.023,0.04,0.034l3.825,3.793
												C23.206,28.056,23.196,28.047,23.184,28.034"/>
											<path fill="#972920" d="M23.221,28.069l-3.825-3.793c0.02,0.021,0.042,0.037,0.061,0.053l3.824,3.79
												C23.26,28.104,23.241,28.084,23.221,28.069"/>
											<path fill="#9A2C21" d="M23.282,28.118l-3.824-3.79c0.017,0.013,0.037,0.024,0.057,0.035l3.825,3.791
												C23.322,28.144,23.302,28.131,23.282,28.118"/>
											<path fill="#9E2D21" d="M23.339,28.154l-3.825-3.791c0.02,0.014,0.04,0.024,0.059,0.032l3.825,3.792
												C23.378,28.179,23.358,28.168,23.339,28.154"/>
											<path fill="#A22C23" d="M23.398,28.188l-3.825-3.792c0.018,0.01,0.037,0.019,0.055,0.03l3.824,3.788
												C23.435,28.204,23.418,28.196,23.398,28.188"/>
											<path fill="#A72D24" d="M23.452,28.214l-3.824-3.788c0.02,0.004,0.042,0.013,0.059,0.019l3.823,3.791
												C23.491,28.227,23.472,28.222,23.452,28.214"/>
											<path fill="#AB3125" d="M23.509,28.235l-3.823-3.791c0.02,0.006,0.04,0.014,0.059,0.018l3.825,3.789
												C23.549,28.248,23.529,28.239,23.509,28.235"/>
											<path fill="#AE3125" d="M23.57,28.252l-3.825-3.789c0.017,0.006,0.04,0.009,0.062,0.013l3.822,3.789
												C23.607,28.261,23.587,28.256,23.57,28.252"/>
											<path fill="#B13126" d="M23.629,28.265l-3.822-3.789c0.02,0.003,0.04,0.006,0.062,0.008l3.826,3.79
												C23.675,28.274,23.648,28.272,23.629,28.265"/>
											<path fill="#B63327" d="M23.694,28.274l-3.826-3.79c0.023,0.005,0.047,0.005,0.069,0.006l3.825,3.791
												C23.737,28.281,23.718,28.279,23.694,28.274"/>
											<path fill="#B63627" d="M23.763,28.281l-3.825-3.791c0.025,0.001,0.052,0.001,0.076,0.001l3.827,3.79
												C23.814,28.281,23.79,28.281,23.763,28.281"/>
											<path fill="#BB3727" d="M23.841,28.281l-3.827-3.79c0.015-0.002,0.032-0.002,0.047-0.005l3.821,3.793
												C23.868,28.281,23.853,28.281,23.841,28.281"/>
										</g>
									</g>
								</g>
								<g enable-background="new    ">
									<g>
										<defs>
											<path id="SVGID_6_" d="M17.621,34.021l-3.825-3.79c-0.305-0.3-0.489-0.724-0.489-1.202l3.826,3.786
												C17.133,33.298,17.315,33.716,17.621,34.021z"/>
										</defs>
										<clipPath id="SVGID_7_">
											<use xlink:href="#SVGID_6_"  overflow="visible"/>
										</clipPath>
										<g clip-path="url(#SVGID_7_)" enable-background="new    ">
											<path fill="#82211A" d="M17.621,34.021l-3.825-3.79c-0.273-0.271-0.45-0.641-0.483-1.061l3.824,3.792
												C17.17,33.383,17.347,33.749,17.621,34.021"/>
											<path fill="#87241B" d="M17.137,32.962l-3.824-3.792c-0.004-0.044-0.004-0.095-0.006-0.142l3.826,3.786
												C17.133,32.866,17.136,32.911,17.137,32.962"/>
										</g>
									</g>
								</g>
								<g>
									<path fill="#D83E27" d="M44.878,24.142l-0.011,6.239c-0.003,1.013-0.824,1.906-1.842,1.996l-24.061,2.114
										c-1.014,0.089-1.837-0.663-1.832-1.677l0.013-6.24l5.783-0.51l-0.003,1.337c0,0.531,0.428,0.922,0.958,0.877l14.112-1.252
										c0.527-0.048,1.095-0.513,1.102-1.046l0.001-1.333L44.878,24.142z"/>
								</g>
								<g>
									<g>
										<polygon fill="#8A241C" points="17.146,26.575 13.321,22.786 19.105,22.275 22.928,26.065 										"/>
									</g>
									<g>
										<polygon fill="#8A241C" points="17.146,26.575 13.321,22.786 19.105,22.275 22.928,26.065 										"/>
									</g>
								</g>
								<g>
									<polygon fill="#8A241C" points="17.133,32.814 13.307,29.028 13.321,22.786 17.146,26.575 									"/>
								</g>
							</g>
							<g enable-background="new    ">
								<g>
									<g>
										<polygon fill="#E6584F" points="44.844,13.61 44.881,22.795 39.098,23.303 39.063,14.118 										"/>
									</g>
									<g>
										<polygon fill="#E2493C" points="44.844,13.61 44.881,22.795 39.098,23.303 39.063,14.118 										"/>
									</g>
								</g>
								<g>
									<polygon fill="#8A241C" points="39.098,23.303 35.277,19.512 35.238,10.324 39.063,14.118 									"/>
								</g>
								<g>
									<g>
										<polygon fill="#8A241C" points="39.063,14.118 35.238,10.324 41.021,9.82 44.844,13.61 										"/>
									</g>
									<g>
										<polygon fill="#8A241C" points="39.063,14.118 35.238,10.324 41.021,9.82 44.844,13.61 										"/>
									</g>
								</g>
							</g>
							<g enable-background="new    ">
								<g>
									<g>
										<polygon fill="#E6584F" points="22.895,15.535 22.933,24.722 17.147,25.229 17.108,16.044 										"/>
									</g>
									<g>
										<polygon fill="#E2493C" points="22.895,15.535 22.933,24.722 17.147,25.229 17.108,16.044 										"/>
									</g>
								</g>
								<g>
									<polygon fill="#8A241C" points="17.147,25.229 13.323,21.438 13.286,12.256 17.108,16.044 									"/>
								</g>
								<g>
									<polygon fill="#8A241C" points="17.108,16.044 13.286,12.256 19.071,11.747 22.895,15.535 									"/>
								</g>
							</g>
						</g>
						<g>
							<g enable-background="new    ">
								<g>
									<polygon fill="#8A241C" points="39.091,12.747 35.265,8.959 35.271,7.805 39.096,11.595 									"/>
								</g>
								<g enable-background="new    ">
									<g>
										<defs>
											<path id="SVGID_8_" d="M35.014,7.173c1.277,1.264,2.549,2.527,3.821,3.792c0.162,0.157,0.261,0.378,0.261,0.631
												l-3.825-3.79C35.271,7.552,35.172,7.332,35.014,7.173z"/>
										</defs>
										<clipPath id="SVGID_9_">
											<use xlink:href="#SVGID_8_"  overflow="visible"/>
										</clipPath>
										<g clip-path="url(#SVGID_9_)" enable-background="new    ">
											<path fill="#87241B" d="M39.096,11.595l-3.825-3.79c0-0.026-0.006-0.048-0.008-0.075l3.826,3.791
												C39.091,11.543,39.096,11.572,39.096,11.595"/>
											<path fill="#82211A" d="M39.089,11.521L35.263,7.73c-0.014-0.222-0.104-0.416-0.249-0.557l3.821,3.791
												C38.979,11.106,39.072,11.299,39.089,11.521"/>
										</g>
									</g>
								</g>
								<g enable-background="new    ">
									<g>
										<g>
											<path id="SVGID_16_" fill="#C33A28" d="M40.58,1.193c0.256,0.249,0.513,0.502,0.763,0.753
												c1.022,1.012,2.043,2.023,3.062,3.032c-0.336-0.33-0.813-0.513-1.345-0.47l-3.824-3.788
												C39.767,0.674,40.247,0.857,40.58,1.193z"/>
										</g>
										<g>
											<defs>
												<path id="SVGID_10_" d="M40.58,1.193c0.256,0.249,0.513,0.502,0.763,0.753c1.022,1.012,2.043,2.023,3.062,3.032
													c-0.336-0.33-0.813-0.513-1.345-0.47l-3.824-3.788C39.767,0.674,40.247,0.857,40.58,1.193z"/>
											</defs>
											<clipPath id="SVGID_11_">
												<use xlink:href="#SVGID_10_"  overflow="visible"/>
											</clipPath>
											<g clip-path="url(#SVGID_11_)">
												<path fill="#C33A28" d="M39.236,0.721l3.824,3.789c0.023,0,0.051-0.004,0.077-0.004l-3.824-3.789
													C39.289,0.716,39.262,0.718,39.236,0.721z"/>
												<path fill="#C33A28" d="M39.313,0.716l3.824,3.789c0.05-0.004,0.1-0.004,0.146-0.001l-3.821-3.788
													C39.415,0.713,39.363,0.713,39.313,0.716z"/>
												<path fill="#C33A28" d="M39.463,0.716l3.821,3.788c0.046,0.001,0.093,0.004,0.135,0.011l-3.824-3.79
													C39.551,0.719,39.509,0.716,39.463,0.716z"/>
												<path fill="#C33A28" d="M39.595,0.726l3.824,3.79c0.043,0.005,0.083,0.01,0.124,0.019l-3.825-3.793
													C39.679,0.736,39.637,0.729,39.595,0.726z"/>
												<path fill="#C33A28" d="M39.718,0.742l3.825,3.793c0.038,0.004,0.08,0.014,0.118,0.023l-3.825-3.787
													C39.797,0.761,39.76,0.752,39.718,0.742z"/>
												<path fill="#C33A28" d="M39.836,0.771l3.825,3.787c0.036,0.012,0.072,0.021,0.11,0.034l-3.824-3.789
													C39.909,0.792,39.875,0.778,39.836,0.771z"/>
												<path fill="#C33A28" d="M39.947,0.804l3.824,3.789c0.037,0.012,0.073,0.026,0.111,0.041l-3.824-3.789
													C40.02,0.83,39.984,0.815,39.947,0.804z"/>
												<path fill="#C33A28" d="M40.059,0.844l3.824,3.789c0.039,0.016,0.071,0.031,0.108,0.052l-3.825-3.792
													C40.131,0.877,40.095,0.857,40.059,0.844z"/>
												<path fill="#C33A28" d="M40.166,0.893l3.824,3.792c0.039,0.017,0.074,0.038,0.111,0.058l-3.827-3.791
													C40.239,0.936,40.202,0.914,40.166,0.893z"/>
												<path fill="#C33A28" d="M40.274,0.952l3.827,3.792c0.037,0.022,0.073,0.048,0.111,0.074L40.387,1.03
													C40.353,1.002,40.313,0.979,40.274,0.952z"/>
												<path fill="#C33A28" d="M40.387,1.03l3.826,3.789c0.041,0.031,0.079,0.06,0.114,0.09l-3.822-3.785
													C40.467,1.087,40.431,1.055,40.387,1.03z"/>
												<path fill="#C33A28" d="M40.58,1.193c-0.025-0.028-0.05-0.051-0.075-0.07l3.822,3.785
													c0.029,0.027,0.052,0.048,0.077,0.071L40.58,1.193z"/>
											</g>
										</g>
									</g>
								</g>
								<g>
									<polygon fill="#8A241C" points="17.141,14.66 13.316,10.87 13.333,4.814 17.157,8.602 									"/>
								</g>
								<g>
									<polygon fill="#C33A28" points="18.998,6.609 15.173,2.819 39.236,0.721 43.061,4.509 									"/>
								</g>
								<g>
									<g>
										<path fill="#E6584F" d="M18.998,6.609l24.063-2.1c1.014-0.084,1.833,0.662,1.831,1.679l-0.02,6.055l-5.781,0.503
											l0.005-1.151c0-0.529-0.427-0.921-0.959-0.875l-14.249,1.24c-0.527,0.047-0.96,0.515-0.96,1.045l-0.003,1.149
											l-5.784,0.505l0.016-6.058C17.16,7.59,17.985,6.699,18.998,6.609z"/>
									</g>
									<g>
										<path fill="#E6584F" d="M18.998,6.609l24.063-2.1c1.014-0.084,1.833,0.662,1.831,1.679l-0.02,6.055l-5.781,0.503
											l0.005-1.151c0-0.529-0.427-0.921-0.959-0.875l-14.249,1.24c-0.527,0.047-0.96,0.515-0.96,1.045l-0.003,1.149
											l-5.784,0.505l0.016-6.058C17.16,7.59,17.985,6.699,18.998,6.609z"/>
									</g>
								</g>
							</g>
						</g>
					</g>
				</g>
			</g>
		</g>
	</g>
</g>
</svg>
