<?xml version="1.0" encoding="UTF-8" standalone="no"?>
<!-- Created with Inkscape (http://www.inkscape.org/) -->

<svg
   xmlns:dc="http://purl.org/dc/elements/1.1/"
   xmlns:cc="http://creativecommons.org/ns#"
   xmlns:rdf="http://www.w3.org/1999/02/22-rdf-syntax-ns#"
   xmlns:svg="http://www.w3.org/2000/svg"
   xmlns="http://www.w3.org/2000/svg"
   xmlns:sodipodi="http://sodipodi.sourceforge.net/DTD/sodipodi-0.dtd"
   xmlns:inkscape="http://www.inkscape.org/namespaces/inkscape"
   id="svg2"
   version="1.1"
   inkscape:version="0.91 r13725"
   xml:space="preserve"
   width="600.77502"
   height="106.7375"
   viewBox="0 0 600.77502 106.7375"
   sodipodi:docname="OpenStack_Logo_Horizontal.svg"><metadata
     id="metadata8"><rdf:RDF><cc:Work
         rdf:about=""><dc:format>image/svg+xml</dc:format><dc:type
           rdf:resource="http://purl.org/dc/dcmitype/StillImage" /><dc:title></dc:title></cc:Work></rdf:RDF></metadata><defs
     id="defs6" /><sodipodi:namedview
     pagecolor="#ffffff"
     bordercolor="#666666"
     borderopacity="1"
     objecttolerance="10"
     gridtolerance="10"
     guidetolerance="10"
     inkscape:pageopacity="0"
     inkscape:pageshadow="2"
     inkscape:window-width="640"
     inkscape:window-height="480"
     id="namedview4"
     showgrid="false"
     inkscape:zoom="0.59423243"
     inkscape:cx="300.38751"
     inkscape:cy="53.368752"
     inkscape:window-x="0"
     inkscape:window-y="23"
     inkscape:window-maximized="0"
     inkscape:current-layer="g10" /><g
     id="g10"
     inkscape:groupmode="layer"
     inkscape:label="ink_ext_XXXXXX"
     transform="matrix(1.25,0,0,-1.25,0,106.7375)"><g
       id="g12"
       transform="scale(0.1,0.1)"><path
         d="m 791.422,853.898 -710.3556,0 C 36.4766,853.898 0,817.422 0,772.832 l 0,-191.027 197.031,0 0,31.215 c 0,24.214 19.633,43.847 43.848,43.847 l 390.726,0 c 24.215,0 43.848,-19.633 43.848,-43.847 l 0,-31.215 197.035,0 0,191.027 c 0,44.59 -36.48,81.066 -81.066,81.066"
         style="fill:#ed1441;fill-opacity:1;fill-rule:nonzero;stroke:none"
         id="path14"
         inkscape:connector-curvature="0" /><path
         d="m 675.453,240.879 c 0,-24.215 -19.629,-43.848 -43.844,-43.848 l -390.73,0 c -24.215,0 -43.848,19.633 -43.848,43.848 l 0,31.215 L 0,272.094 0,81.0664 C 0,36.4766 36.4805,0 81.0664,0 L 791.422,0 c 44.586,0 81.066,36.4766 81.066,81.0664 l 0,191.0276 -197.035,0 0,-31.215"
         style="fill:#ed1441;fill-opacity:1;fill-rule:nonzero;stroke:none"
         id="path16"
         inkscape:connector-curvature="0" /><path
         d="m 0,328.434 197.031,0 0,197.035 -197.031,0 0,-197.035 z"
         style="fill:#ed1441;fill-opacity:1;fill-rule:nonzero;stroke:none"
         id="path18"
         inkscape:connector-curvature="0" /><path
         d="m 675.453,328.434 197.035,0 0,197.035 -197.035,0 0,-197.035 z"
         style="fill:#ed1441;fill-opacity:1;fill-rule:nonzero;stroke:none"
         id="path20"
         inkscape:connector-curvature="0" /><path
         d="m 4750.78,219.652 c -23.05,0 -41.81,18.75 -41.81,41.805 0,23.055 18.76,41.809 41.81,41.809 23.05,0 41.81,-18.754 41.81,-41.809 0,-23.055 -18.76,-41.805 -41.81,-41.805 z m 55.43,41.805 c 0,30.566 -24.87,55.43 -55.43,55.43 -30.56,0 -55.43,-24.864 -55.43,-55.43 0,-30.562 24.87,-55.426 55.43,-55.426 30.56,0 55.43,24.864 55.43,55.426"
         style="fill:#463b35;fill-opacity:1;fill-rule:nonzero;stroke:none"
         id="path22"
         inkscape:connector-curvature="0" /><path
         d="m 4760.24,271.195 c 0,-4.886 -3.1,-8.148 -8.85,-8.148 l -8.3,0 0,16.375 8.07,0 c 5.75,0 9.08,-2.723 9.08,-8.149 l 0,-0.078 z m 11.33,0.309 0,0.312 c 0,5.356 -1.63,9.618 -4.58,12.571 -3.42,3.414 -8.45,5.199 -14.74,5.199 l -20.4,0 0,-54.313 11.24,0 0,17.84 7.06,0 10.01,-17.84 12.88,0 -11.56,20.172 c 5.98,2.633 10.09,7.84 10.09,16.059"
         style="fill:#463b35;fill-opacity:1;fill-rule:nonzero;stroke:none"
         id="path24"
         inkscape:connector-curvature="0" /><path
         d="m 1163.9,424.855 0,5.008 c 0,82.7 42.6,143.657 108.58,143.657 64.31,0 110.25,-61.805 110.25,-144.489 l 0,-5.008 c 0,-82.683 -42.6,-144.492 -108.58,-144.492 -64.32,0 -110.25,62.641 -110.25,145.324 z m 313.2,-1.664 0,7.52 c 0,131.129 -86.02,226.34 -202.95,226.34 -117.77,0 -204.63,-96.891 -204.63,-227.188 l 0,-7.504 c 0,-131.132 86.03,-225.511 202.96,-225.511 117.76,0 204.62,96.043 204.62,226.343"
         style="fill:#463b35;fill-opacity:1;fill-rule:nonzero;stroke:none"
         id="path26"
         inkscape:connector-curvature="0" /><path
         d="m 1623.21,423.191 0,8.348 c 0,86.863 48.45,141.981 105.23,141.981 56.8,0 102.74,-54.286 102.74,-142.809 l 0,-7.52 c 0,-88.543 -45.11,-141.996 -102.74,-141.996 -56.78,0 -105.23,55.133 -105.23,141.996 z m 303.19,-1.679 0,11.695 c 0,149.512 -83.53,223.844 -172.06,223.844 -63.48,0 -101.9,-36.75 -129.46,-79.356 l 0,71.004 -94.38,0 0,-568.7888 94.38,0 0,192.9338 c 26.73,-39.246 65.15,-75.164 129.46,-75.164 89.36,0 172.06,75.164 172.06,223.832"
         style="fill:#463b35;fill-opacity:1;fill-rule:nonzero;stroke:none"
         id="path28"
         inkscape:connector-curvature="0" /><path
         d="m 2166.63,577.695 c 55.13,0 86.86,-50.941 91.88,-121.097 l -187.09,0 c 6.68,75.164 43.43,121.097 95.21,121.097 z m 168.72,-312.371 -49.28,58.477 c -29.23,-28.399 -60.13,-46.781 -101.89,-46.781 -57.63,0 -103.57,40.093 -111.93,114.425 l 277.3,0 c 0.83,13.364 0.83,26.739 0.83,32.578 0,132.793 -63.47,233.028 -183.75,233.028 -108.58,0 -188.76,-95.211 -188.76,-228.02 l 0,-6.672 c 0,-138.652 88.54,-225.511 202.13,-225.511 65.98,0 115.26,25.886 155.35,68.476"
         style="fill:#463b35;fill-opacity:1;fill-rule:nonzero;stroke:none"
         id="path30"
         inkscape:connector-curvature="0" /><path
         d="m 2627.52,657.051 c -60.14,0 -96.05,-34.254 -121.11,-73.5 l 0,65.148 -94.38,0 0,-442.668 94.38,0 0,268.102 c 0,60.972 34.25,97.722 83.52,97.722 50.11,0 79.35,-34.238 79.35,-96.042 l 0,-269.782 94.38,0 0,296.5 c 0,94.379 -50.95,154.52 -136.14,154.52"
         style="fill:#463b35;fill-opacity:1;fill-rule:nonzero;stroke:none"
         id="path32"
         inkscape:connector-curvature="0" /><path
         d="m 3144.1,332.152 0,0.832 c 0,69.329 -51.79,101.055 -120.28,131.965 -51.78,23.391 -86.86,38.414 -86.86,67.645 l 0,1.679 c 0,24.223 20.88,43.422 55.96,43.422 35.08,0 71.83,-16.703 105.24,-39.246 l 40.09,69.324 c -41.76,30.063 -94.38,47.598 -143.66,47.598 -82.68,0 -146.16,-50.109 -146.16,-129.449 l 0,-1.68 c 0,-72.652 55.13,-102.73 121.11,-131.113 52.61,-22.563 86.86,-36.75 86.86,-68.496 l 0,-0.832 c 0,-27.567 -22.55,-48.446 -61.81,-48.446 -39.25,0 -81.85,19.215 -121.93,51.778 l -44.27,-67.649 c 50.95,-42.589 111.92,-61.804 164.53,-61.804 85.2,0 151.18,47.613 151.18,134.472"
         style="fill:#463b35;fill-opacity:1;fill-rule:nonzero;stroke:none"
         id="path34"
         inkscape:connector-curvature="0" /><path
         d="m 3436.34,218.559 0,77.675 c -15.87,-8.351 -32.58,-12.527 -50.95,-12.527 -30.07,0 -47.61,14.191 -47.61,48.445 l 0,235.528 99.39,0 0,81.019 -99.39,0 0,119.434 -94.38,0 0,-119.434 -48.44,0 15.5,-81.019 32.94,0 0,-254.742 c 0,-86.028 49.28,-113.594 114.43,-113.594 31.73,0 56.79,7.519 78.51,19.215"
         style="fill:#463b35;fill-opacity:1;fill-rule:nonzero;stroke:none"
         id="path36"
         inkscape:connector-curvature="0" /><path
         d="m 3751.19,354.695 c 0,-50.105 -41.76,-86.859 -96.05,-86.027 -40.92,0.832 -71.82,25.902 -71.82,70.156 l 0,1.684 c 0,46.765 31.73,74.332 86.02,74.332 31.74,0 60.14,-6.688 81.85,-15.871 l 0,-44.274 z m 46.78,253.91 c -28.4,29.231 -72.66,45.102 -130.29,45.102 -59.31,0 -103.58,-14.207 -146.17,-35.086 l 26.72,-75.164 c 29.24,13.359 64.32,26.734 106.91,26.734 60.14,0 95.22,-30.91 95.22,-90.203 l 0,-18.383 c -30.07,10.032 -60.13,17.536 -101.9,17.536 -93.54,0 -157.02,-46.77 -157.02,-141.981 l 0,-4.176 c 0,-86.027 61.81,-135.304 135.31,-135.304 57.63,0 96.88,25.054 122.77,62.636 l 0,-54.285 92.71,0 0,274.789 c 0,55.118 -15.03,98.555 -44.26,127.785"
         style="fill:#463b35;fill-opacity:1;fill-rule:nonzero;stroke:none"
         id="path38"
         inkscape:connector-curvature="0" /><path
         d="m 4243.42,263.66 -50.95,62.641 c -25.89,-25.891 -51.78,-45.106 -90.2,-45.106 -64.32,0 -109.41,57.629 -109.41,143.66 l 0,4.176 c 0,83.532 45.09,142.824 106.91,142.824 40.08,0 65.98,-20.046 89.36,-44.269 l 52.62,69.324 c -36.75,36.75 -78.51,60.141 -141.98,60.141 -116.1,0 -202.13,-95.211 -202.13,-227.188 l 0,-8.351 c 0,-131.965 83.52,-224.664 198.78,-224.664 67.66,0 111.92,27.55 147,66.812"
         style="fill:#463b35;fill-opacity:1;fill-rule:nonzero;stroke:none"
         id="path40"
         inkscape:connector-curvature="0" /><path
         d="m 4532.29,435.785 -66.25,-71.207 88.86,-158.547 109.41,0 -132.02,229.754"
         style="fill:#463b35;fill-opacity:1;fill-rule:nonzero;stroke:none"
         id="path42"
         inkscape:connector-curvature="0" /><path
         d="m 4548.21,648.699 -151.17,-194.613 0,354.973 -94.37,0 0,-603.028 94.37,0 0,127.789 263.1,314.879 -111.93,0"
         style="fill:#463b35;fill-opacity:1;fill-rule:nonzero;stroke:none"
         id="path44"
         inkscape:connector-curvature="0" /></g></g></svg>