<?xml version="1.0" encoding="UTF-8" standalone="no"?>
<!DOCTYPE svg PUBLIC "-//W3C//DTD SVG 1.0//EN" "http://www.w3.org/TR/2001/REC-SVG-20010904/DTD/svg10.dtd">
<!-- Generated by Microsoft Visio 11.0, SVG Export, v1.0 SCH_5002_V04_NUAC-Keystone.svg Page-1 -->
<svg xmlns="http://www.w3.org/2000/svg" xmlns:xlink="http://www.w3.org/1999/xlink" xmlns:ev="http://www.w3.org/2001/xml-events"
		xmlns:v="http://schemas.microsoft.com/visio/2003/SVGExtensions/" width="11.6929in" height="8.26772in"
		viewBox="0 0 841.89 595.276" xml:space="preserve" color-interpolation-filters="sRGB" class="st20">
	<title>Schéma Réseau</title>
	<v:documentProperties v:langID="1033" v:metric="true" v:viewMarkup="false">
		<v:userDefs>
			<v:ud v:nameU="msvNoAutoConnect" v:val="VT0(0):26"/>
		</v:userDefs>
	</v:documentProperties>

	<style type="text/css">
	<![CDATA[
		.st1 {fill:#ffffff;stroke:none;stroke-linecap:round;stroke-linejoin:round;stroke-width:0.75}
		.st2 {fill:none;stroke:none;stroke-linecap:round;stroke-linejoin:round;stroke-width:0.75}
		.st3 {fill:url(#grad30-8)}
		.st4 {stroke:none;stroke-linecap:round;stroke-linejoin:round;stroke-width:0.75;visibility:hidden}
		.st5 {fill:#ffffff;font-family:Calibri;font-size:0.666664em}
		.st6 {marker-end:url(#mrkr13-51);stroke:#595959;stroke-linecap:round;stroke-linejoin:round;stroke-width:1.5}
		.st7 {fill:#595959;fill-opacity:1;stroke:#595959;stroke-opacity:1;stroke-width:0.37313432835821}
		.st8 {fill:#ffffff;stroke:#595959;stroke-linecap:round;stroke-linejoin:round;stroke-width:0.25}
		.st9 {fill:#3f3f3f;font-family:Calibri;font-size:0.666664em}
		.st10 {fill:#ff00ff;fill-opacity:0}
		.st11 {stroke:#595959;stroke-linecap:round;stroke-linejoin:round;stroke-opacity:0;stroke-width:0.72}
		.st12 {fill:url(#grad32-73);stroke:#595959;stroke-linecap:round;stroke-linejoin:round;stroke-width:0.72}
		.st13 {fill:url(#grad32-73);visibility:hidden}
		.st14 {stroke:#595959;stroke-linecap:round;stroke-linejoin:round;stroke-width:0.72}
		.st15 {fill:#595959;stroke:none;stroke-linecap:butt;stroke-width:0.75}
		.st16 {stroke:#000000;stroke-linecap:round;stroke-linejoin:round;stroke-width:0.25}
		.st17 {fill:#3f3f3f;font-family:Calibri;font-size:1.99999em}
		.st18 {font-size:0.500006em}
		.st19 {fill:#ffffff;stroke:#595959;stroke-linecap:round;stroke-linejoin:round;stroke-width:0.75}
		.st20 {fill:none;fill-rule:evenodd;font-size:12px;overflow:visible;stroke-linecap:square;stroke-miterlimit:3}
	]]>
	</style>

	<defs id="Patterns_And_Gradients">
		<linearGradient id="grad30-8" v:fillPattern="30" v:foreground="#419cc9" v:background="#2e7ca1" x1="0" y1="1" x2="0" y2="0">
			<stop offset="0" style="stop-color:#419cc9;stop-opacity:1"/>
			<stop offset="1" style="stop-color:#2e7ca1;stop-opacity:1"/>
		</linearGradient>
		<pattern id="grad32-73" v:fillPattern="32" v:foreground="#ffffff" v:background="#ffffff" x="0" y="0" width="1" height="1"
				patternContentUnits="objectBoundingBox">
			<path d="M 0 1 L 0 0 L 1 0 z" style="fill:url(#grad27-74)"/>
			<path d="M 0 1 L 1 1 L 1 0 z" style="fill:url(#grad28-75)"/>
		</pattern>
		<linearGradient id="grad27-74" v:fillPattern="32" v:foreground="#ffffff" v:background="#ffffff" x1="1" y1="0" x2="0" y2="0">
			<stop offset="0" style="stop-color:#ffffff;stop-opacity:1"/>
			<stop offset="1" style="stop-color:#ffffff;stop-opacity:1"/>
		</linearGradient>
		<linearGradient id="grad28-75" v:fillPattern="32" v:foreground="#ffffff" v:background="#ffffff" x1="0" y1="0" x2="0" y2="1">
			<stop offset="0" style="stop-color:#ffffff;stop-opacity:1"/>
			<stop offset="1" style="stop-color:#ffffff;stop-opacity:1"/>
		</linearGradient>
	</defs>
	<defs id="Markers">
		<g id="lend13">
			<path d="M 3 1 L 0 0 L 3 -1 L 3 1 " style="stroke:none"/>
		</g>
		<marker id="mrkr13-51" class="st7" v:arrowType="13" v:arrowSize="2" v:setback="8.04" refX="-8.04" orient="auto"
				markerUnits="strokeWidth" overflow="visible">
			<use xlink:href="#lend13" transform="scale(-2.68,-2.68) "/>
		</marker>
	</defs>
	<g v:mID="4" v:index="1" v:groupContext="backgroundPage">
		<v:userDefs>
			<v:ud v:nameU="msvVisioCreated" v:prompt="" v:val="VT0(0):26"/>
		</v:userDefs>
		<title>VBackground-1</title>
		<v:pageProperties width="11.6929" height="8.26772" v:drawingScale="0.0393701" v:pageScale="0.0393701" v:drawingUnits="24"
				v:shadowOffsetX="8.50394" v:shadowOffsetY="-8.50394"/>
		<g id="shape1-1" v:mID="1" v:groupContext="shape">
			<title>Solid</title>
			<v:userDefs>
				<v:ud v:nameU="Background" v:val="VT0(0):26"/>
				<v:ud v:nameU="visVersion" v:val="VT0(14):26"/>
				<v:ud v:nameU="msvShapeCategories" v:prompt="" v:val="VT4(DoNotContain)"/>
				<v:ud v:nameU="msvVisioCreated" v:prompt="" v:val="VT0(0):26"/>
			</v:userDefs>
			<rect x="0" y="0" width="841.89" height="595.276" class="st1"/>
		</g>
		<g id="shape13-3" v:mID="13" v:groupContext="shape" transform="translate(18,-18)">
			<title>None </title>
			<v:userDefs>
				<v:ud v:nameU="Background" v:val="VT0(3):26"/>
				<v:ud v:nameU="visVersion" v:val="VT0(14):26"/>
				<v:ud v:nameU="msvShapeCategories" v:prompt="" v:val="VT4(DoNotContain)"/>
				<v:ud v:nameU="msvVisioCreated" v:prompt="" v:val="VT0(0):26"/>
			</v:userDefs>
			<rect x="0" y="36" width="805.89" height="559.276" class="st2"/>
		</g>
	</g>
	<g v:mID="0" v:index="2" v:groupContext="foregroundPage">
		<v:custProps>
			<v:cp v:nameU="AskOnDrop" v:lbl="Ask On Drop" v:type="3" v:langID="1033" v:val="VT4(TRUE)"/>
		</v:custProps>
		<title>Page-1</title>
		<v:pageProperties v:drawingScale="0.0393701" v:pageScale="0.0393701" v:drawingUnits="24" v:shadowOffsetX="8.50394"
				v:shadowOffsetY="-8.50394"/>
		<v:layer v:name="Connector" v:index="0"/>
		<v:layer v:name="Annotations" v:index="1"/>
		<v:layer v:name="Flowchart" v:index="2"/>
		<v:layer v:name="Alarm and Access Control" v:index="3"/>
		<v:layer v:name="Security" v:index="4"/>
		<v:layer v:name="Electrical Fixture" v:index="5"/>
		<g id="shape7-5" v:mID="7" v:groupContext="shape" transform="translate(393.821,-507.402)">
			<title>Status bar item.7</title>
			<desc>Keystone</desc>
			<v:userDefs>
				<v:ud v:nameU="msvShapeCategories" v:prompt="" v:val="VT4(Status)"/>
				<v:ud v:nameU="ResizeWidth" v:prompt="" v:val="VT0(0.49695077139931):1"/>
				<v:ud v:nameU="UserWidth" v:prompt="" v:val="VT0(0.8125):1"/>
				<v:ud v:nameU="visVersion" v:prompt="" v:val="VT0(14):26"/>
			</v:userDefs>
			<v:textBlock v:margins="rect(2,2,2,2)" v:tabSpace="42.5197"/>
			<v:textRect cx="29.25" cy="586.772" width="58.5" height="17.0079"/>
			<rect x="0" y="578.268" width="58.5" height="17.0079" class="st3"/>
			<rect x="0" y="578.268" width="58.5" height="17.0079" class="st4"/>
			<text x="14.27" y="589.17" class="st5" v:langID="1036"><v:paragraph v:horizAlign="1"/><v:tabList/>Keystone</text>		</g>
		<g id="shape19-11" v:mID="19" v:groupContext="shape" transform="translate(691.654,-275.846)">
			<title>Status bar item.19</title>
			<desc>Endpoint</desc>
			<v:userDefs>
				<v:ud v:nameU="msvShapeCategories" v:prompt="" v:val="VT4(Status)"/>
				<v:ud v:nameU="ResizeWidth" v:prompt="" v:val="VT0(0.48979058463173):1"/>
				<v:ud v:nameU="UserWidth" v:prompt="" v:val="VT0(0.8125):1"/>
				<v:ud v:nameU="visVersion" v:prompt="" v:val="VT0(14):26"/>
			</v:userDefs>
			<v:textBlock v:margins="rect(2,2,2,2)" v:tabSpace="42.5197"/>
			<v:textRect cx="29.25" cy="586.772" width="58.5" height="17.0079"/>
			<rect x="0" y="578.268" width="58.5" height="17.0079" class="st3"/>
			<rect x="0" y="578.268" width="58.5" height="17.0079" class="st4"/>
			<text x="14.52" y="589.17" class="st5" v:langID="1036"><v:paragraph v:horizAlign="1"/><v:tabList/>Endpoint</text>		</g>
		<g id="shape46-16" v:mID="46" v:groupContext="shape" transform="translate(394.53,-110.551)">
			<title>Status bar item.46</title>
			<desc>Service</desc>
			<v:userDefs>
				<v:ud v:nameU="msvShapeCategories" v:prompt="" v:val="VT4(Status)"/>
				<v:ud v:nameU="ResizeWidth" v:prompt="" v:val="VT0(0.40374627310829):1"/>
				<v:ud v:nameU="UserWidth" v:prompt="" v:val="VT0(0.8125):1"/>
				<v:ud v:nameU="visVersion" v:prompt="" v:val="VT0(14):26"/>
			</v:userDefs>
			<v:textBlock v:margins="rect(2,2,2,2)" v:tabSpace="42.5197"/>
			<v:textRect cx="29.25" cy="586.772" width="58.5" height="17.0079"/>
			<rect x="0" y="578.268" width="58.5" height="17.0079" class="st3"/>
			<rect x="0" y="578.268" width="58.5" height="17.0079" class="st4"/>
			<text x="17.62" y="589.17" class="st5" v:langID="1036"><v:paragraph v:horizAlign="1"/><v:tabList/>Service</text>		</g>
		<g id="shape5-21" v:mID="5" v:groupContext="shape" transform="translate(49.9252,-507.402)">
			<title>Status bar item</title>
			<desc>User/ API</desc>
			<v:userDefs>
				<v:ud v:nameU="msvShapeCategories" v:prompt="" v:val="VT4(Status)"/>
				<v:ud v:nameU="ResizeWidth" v:prompt="" v:val="VT0(0.50721230704384):1"/>
				<v:ud v:nameU="UserWidth" v:prompt="" v:val="VT0(0.8125):1"/>
				<v:ud v:nameU="visVersion" v:prompt="" v:val="VT0(14):26"/>
			</v:userDefs>
			<v:textBlock v:margins="rect(2,2,2,2)" v:tabSpace="42.5197"/>
			<v:textRect cx="29.25" cy="586.772" width="58.5" height="17.0079"/>
			<rect x="0" y="578.268" width="58.5" height="17.0079" class="st3"/>
			<rect x="0" y="578.268" width="58.5" height="17.0079" class="st4"/>
			<text x="13.9" y="589.17" class="st5" v:langID="1036"><v:paragraph v:horizAlign="1"/><v:tabList/>User/ API</text>		</g>
		<g id="shape89-26" v:mID="89" v:groupContext="shape" transform="translate(50.5984,-275.846)">
			<title>Status bar item.89</title>
			<desc>Service</desc>
			<v:userDefs>
				<v:ud v:nameU="msvShapeCategories" v:prompt="" v:val="VT4(Status)"/>
				<v:ud v:nameU="ResizeWidth" v:prompt="" v:val="VT0(0.40374627310829):1"/>
				<v:ud v:nameU="UserWidth" v:prompt="" v:val="VT0(0.8125):1"/>
				<v:ud v:nameU="visVersion" v:prompt="" v:val="VT0(14):26"/>
			</v:userDefs>
			<v:textBlock v:margins="rect(2,2,2,2)" v:tabSpace="42.5197"/>
			<v:textRect cx="29.25" cy="586.772" width="58.5" height="17.0079"/>
			<rect x="0" y="578.268" width="58.5" height="17.0079" class="st3"/>
			<rect x="0" y="578.268" width="58.5" height="17.0079" class="st4"/>
			<text x="17.62" y="589.17" class="st5" v:langID="1036"><v:paragraph v:horizAlign="1"/><v:tabList/>Service</text>		</g>
		<g id="shape22-31" v:mID="22" v:groupContext="shape" transform="translate(691.654,-110.551)">
			<title>Status bar item.22</title>
			<desc>User/ API</desc>
			<v:userDefs>
				<v:ud v:nameU="msvShapeCategories" v:prompt="" v:val="VT4(Status)"/>
				<v:ud v:nameU="ResizeWidth" v:prompt="" v:val="VT0(0.50721230704384):1"/>
				<v:ud v:nameU="UserWidth" v:prompt="" v:val="VT0(0.8125):1"/>
				<v:ud v:nameU="visVersion" v:prompt="" v:val="VT0(14):26"/>
			</v:userDefs>
			<v:textBlock v:margins="rect(2,2,2,2)" v:tabSpace="42.5197"/>
			<v:textRect cx="29.25" cy="586.772" width="58.5" height="17.0079"/>
			<rect x="0" y="578.268" width="58.5" height="17.0079" class="st3"/>
			<rect x="0" y="578.268" width="58.5" height="17.0079" class="st4"/>
			<text x="13.9" y="589.17" class="st5" v:langID="1036"><v:paragraph v:horizAlign="1"/><v:tabList/>User/ API</text>		</g>
		<g id="shape104-36" v:mID="104" v:groupContext="shape" transform="translate(691.654,-507.402)">
			<title>Status bar item.104</title>
			<desc>User/ API</desc>
			<v:userDefs>
				<v:ud v:nameU="msvShapeCategories" v:prompt="" v:val="VT4(Status)"/>
				<v:ud v:nameU="ResizeWidth" v:prompt="" v:val="VT0(0.50721230704384):1"/>
				<v:ud v:nameU="UserWidth" v:prompt="" v:val="VT0(0.8125):1"/>
				<v:ud v:nameU="visVersion" v:prompt="" v:val="VT0(14):26"/>
			</v:userDefs>
			<v:textBlock v:margins="rect(2,2,2,2)" v:tabSpace="42.5197"/>
			<v:textRect cx="29.25" cy="586.772" width="58.5" height="17.0079"/>
			<rect x="0" y="578.268" width="58.5" height="17.0079" class="st3"/>
			<rect x="0" y="578.268" width="58.5" height="17.0079" class="st4"/>
			<text x="13.9" y="589.17" class="st5" v:langID="1036"><v:paragraph v:horizAlign="1"/><v:tabList/>User/ API</text>		</g>
		<g id="shape13-41" v:mID="13" v:groupContext="shape" transform="translate(394.016,-275.669)">
			<title>Status bar item.13</title>
			<desc>Keystone</desc>
			<v:userDefs>
				<v:ud v:nameU="msvShapeCategories" v:prompt="" v:val="VT4(Status)"/>
				<v:ud v:nameU="ResizeWidth" v:prompt="" v:val="VT0(0.49695077139931):1"/>
				<v:ud v:nameU="UserWidth" v:prompt="" v:val="VT0(0.8125):1"/>
				<v:ud v:nameU="visVersion" v:prompt="" v:val="VT0(14):26"/>
			</v:userDefs>
			<v:textBlock v:margins="rect(2,2,2,2)" v:tabSpace="42.5197"/>
			<v:textRect cx="29.25" cy="586.772" width="58.5" height="17.0079"/>
			<rect x="0" y="578.268" width="58.5" height="17.0079" class="st3"/>
			<rect x="0" y="578.268" width="58.5" height="17.0079" class="st4"/>
			<text x="14.27" y="589.17" class="st5" v:langID="1036"><v:paragraph v:horizAlign="1"/><v:tabList/>Keystone</text>		</g>
		<g id="shape91-46" v:mID="91" v:groupContext="shape" transform="translate(443.751,-56.6929)">
			<title>Sheet.91</title>
			<path d="M0 595.28 L238.68 595.28" class="st6"/>
		</g>
		<g id="shape26-52" v:mID="26" v:groupContext="shape" transform="translate(459.213,-362.835)">
			<title>Sheet.26</title>
			<path d="M0 595.28 L130.39 595.28 L221.94 543.64" class="st6"/>
		</g>
		<g id="shape116-57" v:mID="116" v:groupContext="shape" transform="translate(83.0529,788.505) scale(1,-1)">
			<title>Sheet.116</title>
			<path d="M0 595.28 L66.9 556.28 L284.45 556.28" class="st6"/>
		</g>
		<g id="group54-62" transform="translate(161.71,-356.737)" v:mID="54" v:groupContext="group">
			<title>Sheet.54</title>
			<g id="shape57-63" v:mID="57" v:groupContext="shape">
				<title>Sheet.57</title>
				<desc>The Temporary Token is provided along the request</desc>
				<v:textBlock v:margins="rect(4,4,4,4)" v:tabSpace="42.5197"/>
				<v:textRect cx="88.5249" cy="589.354" width="177.05" height="11.8425"/>
				<rect x="0" y="583.433" width="177.05" height="11.8425" class="st8"/>
				<text x="4" y="591.75" class="st9" v:langID="1036"><v:paragraph/><v:tabList/>The Temporary Token is provided along the request</text>			</g>
			<g id="group58-66" transform="translate(172.644,-3.69223)" v:mID="58" v:groupContext="group">
				<v:custProps>
					<v:cp v:nameU="ShapeClass" v:lbl="ShapeClass" v:type="0" v:invis="true" v:ask="false" v:langID="1033"
							v:val="VT4(Security)"/>
					<v:cp v:nameU="ShapeType" v:lbl="ShapeType" v:type="0" v:invis="true" v:ask="false" v:langID="1033"
							v:val="VT4(Conceptual)"/>
					<v:cp v:nameU="SubShapeType" v:lbl="SubShapeType" v:type="0" v:invis="true" v:ask="false" v:langID="1033"
							v:val="VT4(Key)"/>
				</v:custProps>
				<v:userDefs>
					<v:ud v:nameU="HasText" v:val="VT0(0):5"/>
					<v:ud v:nameU="ShapeClass" v:val="VT0(8):26"/>
					<v:ud v:nameU="ShapeType" v:val="VT0(7):26"/>
					<v:ud v:nameU="SubShapeType" v:val="VT0(36):26"/>
					<v:ud v:nameU="visLegendShape" v:val="VT0(2):26"/>
					<v:ud v:nameU="SolSH" v:val="VT14({BF0433D9-CD73-4EB5-8390-8653BE590246}):41"/>
					<v:ud v:nameU="visVersion" v:prompt="" v:val="VT0(14):26"/>
				</v:userDefs>
				<title>Key</title>
				<g id="shape70-67" v:mID="70" v:groupContext="shape">
					<title>Sheet.70</title>
					<path d="M2.32 595.09 L2.35 595.1 a0.0297876 0.0293596 90 0 1 -0.0297064 -0.0177974 ZM2.35 595.1 A1.28122 1.2999
								 -180 0 0 3.73 595.03 A4.47192 4.53711 -180 0 0 4.85 593.97 A11.3412 11.5066 -180 0 0 6.07 590.82
								 L8.97 589.14 L10.05 586.87 L13.32 584.96 L14.17 583.23 L14.17 581.7 L13.13 581.1 L5.83 585.41 A1.636
								 1.65985 -180 0 0 5.6 584.98 A1.40699 1.4275 -180 0 0 4.97 584.41 A1.40699 1.4275 -180 0 0 3.93 584.36
								 A1.37726 1.35747 90 0 1 4.97 584.4 L4.42 584.06 A1.79068 1.76495 -90 0 0 2.7 583.85 A5.08375 5.01071
								 -90 0 0 1.02 586.1 A12.4348 12.2561 -90 0 0 0 590.76 A6.66072 6.56502 -90 0 0 1.04 594.35 L2.34
								 595.11 L2.35 595.1 ZM1.04 591.35 A12.5985 12.4175 90 0 1 1.8 587.3 A13.9024 14.105 -180 0 0 1.04
								 591.35 A6.599 6.6952 -180 0 0 1.46 593.72 A5.2261 5.15101 90 0 1 1.04 591.35 Z" class="st10"/>
					<path d="M2.32 595.09 L2.35 595.1 a0.0297876 0.0293596 90 0 1 -0.0297064 -0.0177974M2.35 595.1 A1.28122 1.2999
								 -180 0 0 3.73 595.03 A4.47192 4.53711 -180 0 0 4.85 593.97 A11.3412 11.5066 -180 0 0 6.07 590.82
								 L8.97 589.14 L10.05 586.87 L13.32 584.96 L14.17 583.23 L14.17 581.7 L13.13 581.1 L5.83 585.41 A1.636
								 1.65985 -180 0 0 5.6 584.98 A1.40699 1.4275 -180 0 0 4.97 584.41 A1.40699 1.4275 -180 0 0 3.93 584.36
								 A1.37726 1.35747 90 0 1 4.97 584.4 L4.42 584.06 A1.79068 1.76495 -90 0 0 2.7 583.85 A5.08375 5.01071
								 -90 0 0 1.02 586.1 A12.4348 12.2561 -90 0 0 0 590.76 A6.66072 6.56502 -90 0 0 1.04 594.35 L2.34
								 595.11M1.04 591.35 A12.5985 12.4175 90 0 1 1.8 587.3 A13.9024 14.105 -180 0 0 1.04 591.35 A6.599
								 6.6952 -180 0 0 1.46 593.72 A5.2261 5.15101 90 0 1 1.04 591.35" class="st11"/>
				</g>
				<g id="shape71-70" v:mID="71" v:groupContext="shape" transform="translate(1.04314,0)">
					<title>Sheet.71</title>
					<path d="M13.13 581.7 L13.13 583.23 L12.28 584.96 L9 586.87 L7.93 589.14 L5.02 590.82 A11.3412 11.5066 0 0 1
								 3.8 593.97 A4.47192 4.53711 0 0 1 2.69 595.03 A1.28122 1.2999 0 0 1 0.81 594.58 A6.599 6.6952 0
								 0 1 0 591.35 A13.9024 14.105 0 0 1 0.8 587.19 A5.88781 5.97364 0 0 1 2.69 584.45 A1.40699 1.4275
								 0 0 1 4.56 584.98 A3.74301 3.79758 0 0 1 5.15 586.38 L13.13 581.7 Z" class="st12"/>
				</g>
				<g id="shape72-76" v:mID="72" v:groupContext="shape" transform="translate(105.047,5.45962) rotate(10)">
					<title>Sheet.72</title>
					<ellipse cx="0.790454" cy="593.718" rx="0.790454" ry="1.55804" class="st13"/>
					<ellipse cx="0.790454" cy="593.718" rx="0.790454" ry="1.55804" class="st14"/>
				</g>
				<g id="shape73-80" v:mID="73" v:groupContext="shape" transform="translate(5.83241,-8.89318)">
					<title>Sheet.73</title>
					<path d="M0 594.31 L0.36 595.28 L8.34 590.59 L7.3 590 L0 594.31 Z" class="st12"/>
				</g>
				<g id="shape74-83" v:mID="74" v:groupContext="shape" transform="translate(0,-0.162045)">
					<title>Sheet.74</title>
					<path d="M2.34 595.28 A5.15101 5.2261 0 0 1 1.04 591.51 A12.4175 12.5985 0 0 1 1.85 587.35 A6.59861 6.6948 0
								 0 1 3.74 584.62 A1.35747 1.37726 0 0 1 4.97 584.57 L4.42 584.22 A1.76495 1.79068 -180 0 0 2.7 584.01
								 A5.01071 5.08375 -180 0 0 1.02 586.26 A12.2561 12.4348 -180 0 0 -0 590.92 A6.56502 6.66072 -180
								 0 0 1.04 594.51 L2.34 595.28 Z" class="st12"/>
				</g>
				<g id="shape75-86" v:mID="75" v:groupContext="shape" transform="translate(2.05835,-3.44709)">
					<title>Sheet.75</title>
					<path d="M0.61 593.05 A2.84025 2.88165 0 0 1 0 594.9 a0.505371 0.512738 -180 0 0 0.762967 0.29427 A1.49432 1.51611
								 -180 0 0 1.31 594.39 A2.93625 2.97905 -180 0 0 1.44 592.83 a0.715957 0.726394 -180 0 0 -0.518729
								 -0.629082 a0.754058 0.76505 -180 0 0 -0.47993 0.196711 A2.64996 2.68859 0 0 1 0.61 593.05 Z"
							class="st12"/>
				</g>
			</g>
		</g>
		<g id="shape1-89" v:mID="1" v:groupContext="shape" transform="translate(381.969,-425.669)">
			<title>Contact</title>
			<v:userDefs>
				<v:ud v:nameU="msvShapeCategories" v:prompt="" v:val="VT4(Icon)"/>
				<v:ud v:nameU="visVersion" v:prompt="" v:val="VT0(14):26"/>
			</v:userDefs>
			<path d="M30.6 563.01 L29.16 563.78 L25.38 570.91 L21.61 563.78 L20.17 563.01 A13.9194 13.3626 -180 0 0 12.18 575.98
						 A10.5472 10.1253 -180 0 0 25.38 583.58 A10.5472 10.1253 -180 0 0 38.59 575.98 A13.923 13.3661 -180 0 0 30.6
						 563.01 ZM33.31 555.7 A7.92195 7.60507 -180 1 0 17.46 555.7 A7.92195 7.60507 -180 1 0 33.31 555.7 ZM43.85
						 574.23 L65.77 574.23 L65.77 571.89 L43.85 571.89 L43.85 574.23 ZM43.85 564.87 L65.77 564.87 L65.77 562.54
						 L43.85 562.54 L43.85 564.87 ZM43.85 555.52 L65.77 555.52 L65.77 553.18 L43.85 553.18 L43.85 555.52 ZM0 536.81
						 L0 595.28 L77.95 595.28 L77.95 536.81 L0 536.81 ZM73.08 590.41 L4.87 590.41 L4.87 541.41 L73.08 541.41 L73.08
						 590.41 Z" class="st15"/>
		</g>
		<g id="shape10-91" v:mID="10" v:groupContext="shape" transform="translate(50.1732,-396.85)">
			<title>User.50</title>
			<v:userDefs>
				<v:ud v:nameU="msvShapeCategories" v:prompt="" v:val="VT4(Icon)"/>
				<v:ud v:nameU="visVersion" v:prompt="" v:val="VT0(14):26"/>
			</v:userDefs>
			<path d="M29.61 560.79 A15.037 14.8002 0 0 1 27.3 562.04 L21.24 573.78 L15.18 562.04 A14.8596 14.6256 0 0 1 12.86 560.79
						 A22.3471 21.9952 -180 0 0 0.05 582.12 A16.9272 16.6607 -180 0 0 21.24 594.64 A16.9272 16.6607 -180 0 0 42.43
						 582.12 A22.3471 21.9952 -180 0 0 29.61 560.79 ZM21.24 590.47 A14.8173 14.584 0 0 1 4.28 582.12 A18.6389
						 18.3454 0 0 1 12.43 565.93 L21.24 582.99 L30.04 565.93 A18.6357 18.3422 0 0 1 38.19 582.12 A14.8173 14.584
						 0 0 1 21.24 590.47 ZM21.24 536.24 A12.7159 12.5157 -180 0 0 8.52 548.75 A12.7159 12.5157 -180 0 0 21.24
						 561.27 A12.7159 12.5157 -180 0 0 33.95 548.75 A12.7159 12.5157 -180 0 0 21.24 536.24 ZM21.24 557.1 A8.48454
						 8.35092 0 0 1 12.76 548.75 A8.48454 8.35092 0 0 1 21.24 540.41 A8.48454 8.35092 0 0 1 29.71 548.75 A8.48454
						 8.35092 0 0 1 21.24 557.1 Z" class="st15"/>
		</g>
		<g id="group8-93" transform="translate(155.764,-440.976)" v:mID="8" v:groupContext="group" v:layerMember="2">
			<v:userDefs>
				<v:ud v:nameU="msvThemeColors" v:val="VT0(2):26"/>
				<v:ud v:nameU="visVersion" v:val="VT0(14):26"/>
				<v:ud v:nameU="visKeywords" v:val="VT4(SharePoint;Workflow;MOSS;SharePoint;Foundation)"/>
				<v:ud v:nameU="SolSH" v:val="VT4({21c62d3a-0c14-434d-b64e-fc6e5bbfa482})"/>
				<v:ud v:nameU="ShapeClass" v:val="VT0(3):26"/>
				<v:ud v:nameU="ShapeType" v:val="VT0(28):26"/>
				<v:ud v:nameU="msvAtomicShape" v:val="VT0(1):26"/>
				<v:ud v:nameU="msvShapeCategories" v:val="VT4()"/>
			</v:userDefs>
			<title>Add list item permissions</title>
		</g>
		<g id="shape14-94" v:mID="14" v:groupContext="shape" transform="translate(691.654,-189.39)">
			<title>Network</title>
			<v:userDefs>
				<v:ud v:nameU="msvShapeCategories" v:prompt="" v:val="VT4(Icon)"/>
				<v:ud v:nameU="visVersion" v:prompt="" v:val="VT0(14):26"/>
			</v:userDefs>
			<path d="M11.12 546.04 L11.12 566.1 L40.76 566.1 L40.76 546.04 L11.12 546.04 ZM9.26 567.92 L9.26 544.22 L42.61 544.22
						 L42.61 567.92 L9.26 567.92 ZM48.17 589.81 L48.17 586.16 L35.2 586.16 L35.2 589.81 L48.17 589.81 ZM31.49
						 591.63 L31.49 584.33 L20.38 584.33 L20.38 591.63 L31.49 591.63 ZM27.79 575.22 L24.08 575.22 L24.08 580.69
						 L27.79 580.69 L27.79 575.22 ZM5.56 571.57 L46.32 571.57 L46.32 540.57 L5.56 540.57 L5.56 571.57 ZM16.67
						 589.81 L16.67 586.16 L3.71 586.16 L3.71 589.81 L16.67 589.81 ZM49.71 582.51 C50.91 582.51 51.87 583.46 51.87
						 584.64 L51.87 591.32 C51.87 592.5 50.91 593.45 49.71 593.45 L35.14 593.45 C34.98 594.48 34.12 595.28 33.04
						 595.28 L18.84 595.28 C17.75 595.28 16.89 594.48 16.74 593.45 L2.16 593.45 C0.97 593.45 0 592.5 0 591.32
						 L0 584.64 C0 583.46 0.97 582.51 2.16 582.51 L16.74 582.51 C16.89 581.49 17.75 580.69 18.84 580.69 L20.38
						 580.69 L20.38 575.22 L4.02 575.22 C2.82 575.22 1.85 574.27 1.85 573.09 L1.85 539.05 C1.85 537.88 2.82 536.92
						 4.02 536.92 L47.86 536.92 C49.05 536.92 50.02 537.88 50.02 539.05 L50.02 573.09 C50.02 574.27 49.05 575.22
						 47.86 575.22 L31.49 575.22 L31.49 580.69 L33.04 580.69 C34.12 580.69 34.98 581.48 35.14 582.51 L49.71 582.51
						 Z" class="st15"/>
		</g>
		<g id="shape67-96" v:mID="67" v:groupContext="shape" transform="translate(384.094,738.014) rotate(180)">
			<title>Sheet.67</title>
			<path d="M0 595.28 L260.77 595.28" class="st6"/>
		</g>
		<g id="shape3-101" v:mID="3" v:groupContext="shape" transform="translate(15.5454,-507.402)">
			<title>Sheet.3</title>
			<path d="M0 595.28 L810.75 595.28" class="st16"/>
		</g>
		<g id="shape38-104" v:mID="38" v:groupContext="shape" transform="translate(1315.05,167.244) rotate(90)">
			<title>Sheet.38</title>
			<path d="M0 595.28 L114.08 595.28" class="st6"/>
		</g>
		<g id="shape17-109" v:mID="17" v:groupContext="shape" transform="translate(459.567,-503.15)">
			<title>Sheet.17</title>
			<desc>3- Keystone provides Alice her list of Services</desc>
			<v:textBlock v:margins="rect(4,0,4,0)" v:tabSpace="42.5197"/>
			<v:textRect cx="113.031" cy="588.189" width="226.07" height="14.1732"/>
			<rect x="0" y="581.102" width="226.063" height="14.1732" class="st1"/>
			<text x="0.29" y="595.39" class="st17" v:langID="1036"><v:paragraph v:horizAlign="1"/><v:tabList><v:tabStop
							v:pos="77.95"/></v:tabList>3<tspan class="st18">-</tspan><tspan class="st18"> </tspan><tspan
						class="st18">Keystone provides Alice her list of Services</tspan></text>		</g>
		<g id="shape79-115" v:mID="79" v:groupContext="shape" transform="translate(695.643,958.58) rotate(180)">
			<title>Sheet.79</title>
			<path d="M0 595.28 L219.65 595.28" class="st6"/>
		</g>
		<g id="shape86-120" v:mID="86" v:groupContext="shape" transform="translate(15.5454,-275.846)">
			<title>Sheet.86</title>
			<path d="M0 595.28 L810.75 595.28" class="st16"/>
		</g>
		<g id="shape49-123" v:mID="49" v:groupContext="shape" transform="translate(467.717,-274.961)">
			<title>Sheet.49</title>
			<desc>4- The service verifies Alice’s token</desc>
			<v:textBlock v:margins="rect(4,4,4,4)" v:tabSpace="42.5197"/>
			<v:textRect cx="98.1496" cy="588.189" width="196.3" height="14.1732"/>
			<rect x="0" y="581.102" width="196.299" height="14.1732" class="st1"/>
			<text x="10.02" y="595.39" class="st17" v:langID="1036"><v:paragraph v:horizAlign="1"/><v:tabList/>4<tspan class="st18">-</tspan><tspan
						class="st18"> </tspan><tspan class="st18">The service verifies Alice</tspan><tspan class="st18">’</tspan><tspan
						class="st18">s token</tspan></text>		</g>
		<g id="shape80-131" v:mID="80" v:groupContext="shape" transform="translate(53.7165,-191.984)">
			<title>Network.80</title>
			<v:userDefs>
				<v:ud v:nameU="msvShapeCategories" v:prompt="" v:val="VT4(Icon)"/>
				<v:ud v:nameU="visVersion" v:prompt="" v:val="VT0(14):26"/>
			</v:userDefs>
			<path d="M11.12 546.04 L11.12 566.1 L40.76 566.1 L40.76 546.04 L11.12 546.04 ZM9.26 567.92 L9.26 544.22 L42.61 544.22
						 L42.61 567.92 L9.26 567.92 ZM48.17 589.81 L48.17 586.16 L35.2 586.16 L35.2 589.81 L48.17 589.81 ZM31.49
						 591.63 L31.49 584.33 L20.38 584.33 L20.38 591.63 L31.49 591.63 ZM27.79 575.22 L24.08 575.22 L24.08 580.69
						 L27.79 580.69 L27.79 575.22 ZM5.56 571.57 L46.32 571.57 L46.32 540.57 L5.56 540.57 L5.56 571.57 ZM16.67
						 589.81 L16.67 586.16 L3.71 586.16 L3.71 589.81 L16.67 589.81 ZM49.71 582.51 C50.91 582.51 51.87 583.46 51.87
						 584.64 L51.87 591.32 C51.87 592.5 50.91 593.45 49.71 593.45 L35.14 593.45 C34.98 594.48 34.12 595.28 33.04
						 595.28 L18.84 595.28 C17.75 595.28 16.89 594.48 16.74 593.45 L2.16 593.45 C0.97 593.45 0 592.5 0 591.32
						 L0 584.64 C0 583.46 0.97 582.51 2.16 582.51 L16.74 582.51 C16.89 581.49 17.75 580.69 18.84 580.69 L20.38
						 580.69 L20.38 575.22 L4.02 575.22 C2.82 575.22 1.85 574.27 1.85 573.09 L1.85 539.05 C1.85 537.88 2.82 536.92
						 4.02 536.92 L47.86 536.92 C49.05 536.92 50.02 537.88 50.02 539.05 L50.02 573.09 C50.02 574.27 49.05 575.22
						 47.86 575.22 L31.49 575.22 L31.49 580.69 L33.04 580.69 C34.12 580.69 34.98 581.48 35.14 582.51 L49.71 582.51
						 Z" class="st15"/>
		</g>
		<g id="shape53-133" v:mID="53" v:groupContext="shape" transform="translate(14.1732,-110.551)">
			<title>Sheet.53</title>
			<path d="M0 595.28 L810.75 595.28" class="st16"/>
		</g>
		<g id="shape59-136" v:mID="59" v:groupContext="shape" transform="translate(252.283,-559.843)">
			<title>Sheet.59</title>
			<desc>The Keystone Identity Manager</desc>
			<v:textBlock v:margins="rect(4,4,4,4)" v:tabSpace="42.5197"/>
			<v:textRect cx="175.748" cy="588.189" width="351.5" height="14.1732"/>
			<rect x="0" y="581.102" width="351.496" height="14.1732" class="st1"/>
			<text x="22.84" y="595.39" class="st17" v:langID="1036"><v:paragraph v:horizAlign="1"/><v:tabList/>The Keystone Identity Manager</text>		</g>
		<g id="shape51-139" v:mID="51" v:groupContext="shape" transform="translate(121.89,-274.961)">
			<title>Sheet.51</title>
			<desc>5- Keystone provides extra infos along the token</desc>
			<v:textBlock v:margins="rect(4,4,4,4)" v:tabSpace="42.5197"/>
			<v:textRect cx="126.85" cy="588.189" width="253.71" height="14.1732"/>
			<rect x="0" y="581.102" width="253.701" height="14.1732" class="st1"/>
			<text x="5.97" y="595.39" class="st17" v:langID="1036"><v:paragraph v:horizAlign="1"/><v:tabList/>5<tspan class="st18">-</tspan><tspan
						class="st18"> </tspan><tspan class="st18">Keystone provides extra infos along the token</tspan></text>		</g>
		<g id="shape16-145" v:mID="16" v:groupContext="shape" transform="translate(394.53,-28.3465)">
			<title>Configure</title>
			<v:userDefs>
				<v:ud v:nameU="msvShapeCategories" v:prompt="" v:val="VT4(Icon)"/>
				<v:ud v:nameU="visVersion" v:prompt="" v:val="VT0(14):26"/>
			</v:userDefs>
			<path d="M52 574.16 C50.9 573.7 47.39 572.21 47.39 572.21 L47.61 569.28 L47.8 566.83 L47.49 562.14 L49.8 560.8 C49.8
						 560.8 50.98 560.32 52.07 559.87 C51.28 557.95 50.96 557.16 50.17 555.24 C49.06 555.69 45.43 557.19 45.43
						 557.19 L43.63 554.94 C42.76 553.85 41.69 552.82 40.34 551.77 L38.21 550.12 L39.07 547.51 C39.07 547.51 39.57
						 546.28 40.06 545.11 C38.14 544.32 37.35 544 35.43 543.21 C34.93 544.43 33.41 548.13 33.41 548.13 L30.59
						 547.86 C29.15 547.71 27.66 547.74 26.17 547.94 L23.48 548.3 L22.23 545.84 C22.23 545.84 21.68 544.53 21.15
						 543.27 C19.24 544.07 18.45 544.41 16.54 545.21 C17.11 546.56 18.71 550.36 18.71 550.36 L16.53 552.17 C15.5
						 553.02 14.54 554.04 13.59 555.27 L11.96 557.4 L9.34 556.56 C9.34 556.56 7.92 555.99 6.51 555.43 C5.74 557.35
						 5.42 558.15 4.65 560.08 C6.08 560.65 9.87 562.17 9.87 562.17 C9.87 562.17 9.64 566.48 9.62 566.82 C9.64
						 567.13 9.7 568.09 9.7 568.11 C9.7 568.11 9.92 570.39 9.92 570.39 L8.56 571.63 C8.14 572.05 7.99 572.16 4.59
						 573.5 C5.34 575.43 5.65 576.23 6.4 578.17 C7.82 577.62 11.79 576.07 11.79 576.07 L13.85 578.87 C14.47 579.65
						 15.35 580.54 16.43 581.45 L18.44 583.14 L17.55 585.67 C17.55 585.67 16.94 587.08 16.33 588.48 C18.24 589.31
						 19.02 589.65 20.92 590.47 C21.48 589.17 23.13 585.36 23.13 585.36 L26.01 585.75 C27.37 585.95 28.84 585.98
						 30.36 585.85 L32.98 585.62 L34.15 588.04 C34.15 588.04 34.69 589.37 35.2 590.67 C37.13 589.9 37.92 589.58
						 39.85 588.81 C39.37 587.61 37.84 583.8 37.84 583.8 L40.72 581.72 C41.54 581.06 42.47 580.12 43.44 578.94
						 L45.12 576.9 L47.69 577.78 C47.69 577.78 48.9 578.29 50.06 578.78 C50.86 576.86 51.2 576.07 52 574.16 ZM51.13
						 569.74 C51.13 569.74 51.12 569.84 51.1 569.93 C51.59 570.14 56.64 572.27 56.64 572.27 L51.94 583.42 C51.94
						 583.42 46.78 581.24 46.3 581.04 C46.24 581.11 46.18 581.19 46.18 581.19 C45.06 582.55 43.95 583.67 42.79
						 584.6 C42.79 584.6 42.42 584.87 42.16 585.05 C42.36 585.57 44.45 590.78 44.45 590.78 L33.23 595.28 C33.23
						 595.28 31.06 589.85 30.86 589.36 C30.77 589.37 30.67 589.38 30.67 589.38 C28.87 589.53 27.13 589.49 25.51
						 589.26 C25.51 589.26 25.41 589.25 25.32 589.23 C25.1 589.73 22.77 595.13 22.77 595.13 L11.68 590.33 C11.68
						 590.33 14.08 584.77 14.29 584.28 C14.22 584.22 14.14 584.15 14.14 584.15 C12.88 583.09 11.85 582.05 10.98
						 580.96 C10.98 580.96 10.72 580.6 10.54 580.36 C10.03 580.56 4.39 582.76 4.39 582.76 L0 571.49 C0 571.49
						 6.05 569.13 6.05 569.12 C6.05 569.12 6.15 569.09 6.23 569.06 C6.2 568.76 6.17 568.35 6.17 568.35 L6.07 566.84
						 C6.07 566.84 6.17 564.96 6.19 564.51 C5.72 564.32 0.05 562.05 0.05 562.05 L4.54 550.82 C4.54 550.82 10.16
						 553.07 10.66 553.27 C10.72 553.19 10.78 553.11 10.78 553.11 C11.89 551.67 13.03 550.47 14.27 549.44 C14.27
						 549.44 14.35 549.37 14.42 549.31 C14.22 548.83 11.9 543.33 11.9 543.33 L23.04 538.62 C23.04 538.62 25.29
						 543.96 25.5 544.45 C25.59 544.44 25.69 544.43 25.69 544.43 C27.47 544.19 29.23 544.16 30.94 544.33 C30.94
						 544.33 31.04 544.34 31.13 544.35 C31.33 543.86 33.49 538.58 33.49 538.58 L44.67 543.18 C44.67 543.18 42.55
						 548.36 42.35 548.85 C42.42 548.91 42.51 548.97 42.51 548.97 C44.08 550.19 45.35 551.41 46.38 552.71 C46.38
						 552.71 46.46 552.81 46.54 552.9 C47.02 552.7 52.1 550.61 52.1 550.61 L56.69 561.8 C56.69 561.8 51.64 563.88
						 51.15 564.08 C51.16 564.18 51.17 564.28 51.17 564.28 C51.29 565.26 51.34 566.07 51.34 566.83 C51.34 567.7
						 51.27 568.62 51.13 569.74 ZM33.46 572.81 C36.74 570.18 37.27 565.39 34.65 562.1 C32.02 558.82 27.23 558.29
						 23.95 560.91 C20.67 563.54 20.14 568.33 22.76 571.62 C25.38 574.91 30.17 575.44 33.46 572.81 ZM29.93 555.77
						 C32.9 556.1 35.55 557.56 37.42 559.89 C41.25 564.7 40.47 571.73 35.67 575.58 C33.34 577.44 30.43 578.28
						 27.47 577.95 C24.51 577.62 21.85 576.16 19.99 573.83 C18.35 571.78 17.56 569.32 17.56 566.87 C17.56 563.59
						 18.99 560.35 21.74 558.15 C24.06 556.29 26.97 555.44 29.93 555.77 Z" class="st15"/>
		</g>
		<g id="shape95-147" v:mID="95" v:groupContext="shape" transform="translate(700.878,-24.5856)">
			<title>User.95</title>
			<v:userDefs>
				<v:ud v:nameU="msvShapeCategories" v:prompt="" v:val="VT4(Icon)"/>
				<v:ud v:nameU="visVersion" v:prompt="" v:val="VT0(14):26"/>
			</v:userDefs>
			<path d="M29.61 560.79 A15.037 14.8002 0 0 1 27.3 562.04 L21.24 573.78 L15.18 562.04 A14.8596 14.6256 0 0 1 12.86 560.79
						 A22.3471 21.9952 -180 0 0 0.05 582.12 A16.9272 16.6607 -180 0 0 21.24 594.64 A16.9272 16.6607 -180 0 0 42.43
						 582.12 A22.3471 21.9952 -180 0 0 29.61 560.79 ZM21.24 590.47 A14.8173 14.584 0 0 1 4.28 582.12 A18.6389
						 18.3454 0 0 1 12.43 565.93 L21.24 582.99 L30.04 565.93 A18.6357 18.3422 0 0 1 38.19 582.12 A14.8173 14.584
						 0 0 1 21.24 590.47 ZM21.24 536.24 A12.7159 12.5157 -180 0 0 8.52 548.75 A12.7159 12.5157 -180 0 0 21.24
						 561.27 A12.7159 12.5157 -180 0 0 33.95 548.75 A12.7159 12.5157 -180 0 0 21.24 536.24 ZM21.24 557.1 A8.48454
						 8.35092 0 0 1 12.76 548.75 A8.48454 8.35092 0 0 1 21.24 540.41 A8.48454 8.35092 0 0 1 29.71 548.75 A8.48454
						 8.35092 0 0 1 21.24 557.1 Z" class="st15"/>
		</g>
		<g id="group11-149" transform="translate(173.114,-442.493)" v:mID="11" v:groupContext="group">
			<title>Sheet.11</title>
			<g id="group68-150" v:mID="68" v:groupContext="group">
				<title>Sheet.68</title>
				<g id="shape69-151" v:mID="69" v:groupContext="shape" transform="translate(18.153,-2.83465)">
					<title>Sheet.69</title>
					<desc>A Temporary Token is created</desc>
					<v:textBlock v:margins="rect(4,4,4,4)" v:tabSpace="42.5197"/>
					<v:textRect cx="55.3114" cy="589.354" width="110.63" height="11.8425"/>
					<rect x="0" y="583.433" width="110.623" height="11.8425" class="st8"/>
					<text x="4" y="591.75" class="st9" v:langID="1036"><v:paragraph/><v:tabList/>A Temporary Token is created</text>				</g>
			</g>
			<g id="group60-154" transform="translate(120.981,-3.65857)" v:mID="60" v:groupContext="group">
				<v:custProps>
					<v:cp v:nameU="ShapeClass" v:lbl="ShapeClass" v:type="0" v:invis="true" v:ask="false" v:langID="1033"
							v:val="VT4(Security)"/>
					<v:cp v:nameU="ShapeType" v:lbl="ShapeType" v:type="0" v:invis="true" v:ask="false" v:langID="1033"
							v:val="VT4(Conceptual)"/>
					<v:cp v:nameU="SubShapeType" v:lbl="SubShapeType" v:type="0" v:invis="true" v:ask="false" v:langID="1033"
							v:val="VT4(Key)"/>
				</v:custProps>
				<v:userDefs>
					<v:ud v:nameU="HasText" v:val="VT0(0):5"/>
					<v:ud v:nameU="ShapeClass" v:val="VT0(8):26"/>
					<v:ud v:nameU="ShapeType" v:val="VT0(7):26"/>
					<v:ud v:nameU="SubShapeType" v:val="VT0(36):26"/>
					<v:ud v:nameU="visLegendShape" v:val="VT0(2):26"/>
					<v:ud v:nameU="SolSH" v:val="VT14({BF0433D9-CD73-4EB5-8390-8653BE590246}):41"/>
					<v:ud v:nameU="visVersion" v:prompt="" v:val="VT0(14):26"/>
				</v:userDefs>
				<title>Key</title>
				<g id="shape61-155" v:mID="61" v:groupContext="shape">
					<title>Sheet.61</title>
					<path d="M2.32 595.09 L2.35 595.1 a0.0297876 0.0293596 90 0 1 -0.0297064 -0.0177974 ZM2.35 595.1 A1.28122 1.2999
								 -180 0 0 3.73 595.03 A4.47192 4.53711 -180 0 0 4.85 593.97 A11.3412 11.5066 -180 0 0 6.07 590.82
								 L8.97 589.14 L10.05 586.87 L13.32 584.96 L14.17 583.23 L14.17 581.7 L13.13 581.1 L5.83 585.41 A1.636
								 1.65985 -180 0 0 5.6 584.98 A1.40699 1.4275 -180 0 0 4.97 584.41 A1.40699 1.4275 -180 0 0 3.93 584.36
								 A1.37726 1.35747 90 0 1 4.97 584.4 L4.42 584.06 A1.79068 1.76495 -90 0 0 2.7 583.85 A5.08375 5.01071
								 -90 0 0 1.02 586.1 A12.4348 12.2561 -90 0 0 0 590.76 A6.66072 6.56502 -90 0 0 1.04 594.35 L2.34
								 595.11 L2.35 595.1 ZM1.04 591.35 A12.5985 12.4175 90 0 1 1.8 587.3 A13.9024 14.105 -180 0 0 1.04
								 591.35 A6.599 6.6952 -180 0 0 1.46 593.72 A5.2261 5.15101 90 0 1 1.04 591.35 Z" class="st10"/>
					<path d="M2.32 595.09 L2.35 595.1 a0.0297876 0.0293596 90 0 1 -0.0297064 -0.0177974M2.35 595.1 A1.28122 1.2999
								 -180 0 0 3.73 595.03 A4.47192 4.53711 -180 0 0 4.85 593.97 A11.3412 11.5066 -180 0 0 6.07 590.82
								 L8.97 589.14 L10.05 586.87 L13.32 584.96 L14.17 583.23 L14.17 581.7 L13.13 581.1 L5.83 585.41 A1.636
								 1.65985 -180 0 0 5.6 584.98 A1.40699 1.4275 -180 0 0 4.97 584.41 A1.40699 1.4275 -180 0 0 3.93 584.36
								 A1.37726 1.35747 90 0 1 4.97 584.4 L4.42 584.06 A1.79068 1.76495 -90 0 0 2.7 583.85 A5.08375 5.01071
								 -90 0 0 1.02 586.1 A12.4348 12.2561 -90 0 0 0 590.76 A6.66072 6.56502 -90 0 0 1.04 594.35 L2.34
								 595.11M1.04 591.35 A12.5985 12.4175 90 0 1 1.8 587.3 A13.9024 14.105 -180 0 0 1.04 591.35 A6.599
								 6.6952 -180 0 0 1.46 593.72 A5.2261 5.15101 90 0 1 1.04 591.35" class="st11"/>
				</g>
				<g id="shape62-158" v:mID="62" v:groupContext="shape" transform="translate(1.04314,0)">
					<title>Sheet.62</title>
					<path d="M13.13 581.7 L13.13 583.23 L12.28 584.96 L9 586.87 L7.93 589.14 L5.02 590.82 A11.3412 11.5066 0 0 1
								 3.8 593.97 A4.47192 4.53711 0 0 1 2.69 595.03 A1.28122 1.2999 0 0 1 0.81 594.58 A6.599 6.6952 0
								 0 1 0 591.35 A13.9024 14.105 0 0 1 0.8 587.19 A5.88781 5.97364 0 0 1 2.69 584.45 A1.40699 1.4275
								 0 0 1 4.56 584.98 A3.74301 3.79758 0 0 1 5.15 586.38 L13.13 581.7 Z" class="st12"/>
				</g>
				<g id="shape63-161" v:mID="63" v:groupContext="shape" transform="translate(105.047,5.45962) rotate(10)">
					<title>Sheet.63</title>
					<ellipse cx="0.790454" cy="593.718" rx="0.790454" ry="1.55804" class="st13"/>
					<ellipse cx="0.790454" cy="593.718" rx="0.790454" ry="1.55804" class="st14"/>
				</g>
				<g id="shape64-165" v:mID="64" v:groupContext="shape" transform="translate(5.83241,-8.89318)">
					<title>Sheet.64</title>
					<path d="M0 594.31 L0.36 595.28 L8.34 590.59 L7.3 590 L0 594.31 Z" class="st12"/>
				</g>
				<g id="shape65-168" v:mID="65" v:groupContext="shape" transform="translate(0,-0.162045)">
					<title>Sheet.65</title>
					<path d="M2.34 595.28 A5.15101 5.2261 0 0 1 1.04 591.51 A12.4175 12.5985 0 0 1 1.85 587.35 A6.59861 6.6948 0
								 0 1 3.74 584.62 A1.35747 1.37726 0 0 1 4.97 584.57 L4.42 584.22 A1.76495 1.79068 -180 0 0 2.7 584.01
								 A5.01071 5.08375 -180 0 0 1.02 586.26 A12.2561 12.4348 -180 0 0 -0 590.92 A6.56502 6.66072 -180
								 0 0 1.04 594.51 L2.34 595.28 Z" class="st12"/>
				</g>
				<g id="shape66-171" v:mID="66" v:groupContext="shape" transform="translate(2.05835,-3.44709)">
					<title>Sheet.66</title>
					<path d="M0.61 593.05 A2.84025 2.88165 0 0 1 0 594.9 a0.505371 0.512738 -180 0 0 0.762967 0.29427 A1.49432 1.51611
								 -180 0 0 1.31 594.39 A2.93625 2.97905 -180 0 0 1.44 592.83 a0.715957 0.726394 -180 0 0 -0.518729
								 -0.629082 a0.754058 0.76505 -180 0 0 -0.47993 0.196711 A2.64996 2.68859 0 0 1 0.61 593.05 Z"
							class="st12"/>
				</g>
			</g>
		</g>
		<g id="shape50-174" v:mID="50" v:groupContext="shape" transform="translate(154.488,-377.008)">
			<title>Sheet.50</title>
			<desc>2- Alice requests all the tenants she has</desc>
			<v:textBlock v:margins="rect(4,4,4,4)" v:tabSpace="42.5197"/>
			<v:textRect cx="114.803" cy="588.189" width="229.61" height="14.1732"/>
			<rect x="0" y="581.102" width="229.606" height="14.1732" class="st1"/>
			<text x="15.41" y="595.39" class="st17" v:langID="1036"><v:paragraph v:horizAlign="1"/><v:tabList/>2<tspan class="st18">-</tspan><tspan
						class="st18"> </tspan><tspan class="st18">Alice requests all the tenants she has</tspan></text>		</g>
		<g id="shape102-180" v:mID="102" v:groupContext="shape" transform="translate(381.827,-338.386)">
			<title>Contact.102</title>
			<v:userDefs>
				<v:ud v:nameU="msvShapeCategories" v:prompt="" v:val="VT4(Icon)"/>
				<v:ud v:nameU="visVersion" v:prompt="" v:val="VT0(14):26"/>
			</v:userDefs>
			<path d="M30.6 563.01 L29.16 563.78 L25.38 570.91 L21.61 563.78 L20.17 563.01 A13.9194 13.3626 -180 0 0 12.18 575.98
						 A10.5472 10.1253 -180 0 0 25.38 583.58 A10.5472 10.1253 -180 0 0 38.59 575.98 A13.923 13.3661 -180 0 0 30.6
						 563.01 ZM33.31 555.7 A7.92195 7.60507 -180 1 0 17.46 555.7 A7.92195 7.60507 -180 1 0 33.31 555.7 ZM43.85
						 574.23 L65.77 574.23 L65.77 571.89 L43.85 571.89 L43.85 574.23 ZM43.85 564.87 L65.77 564.87 L65.77 562.54
						 L43.85 562.54 L43.85 564.87 ZM43.85 555.52 L65.77 555.52 L65.77 553.18 L43.85 553.18 L43.85 555.52 ZM0 536.81
						 L0 595.28 L77.95 595.28 L77.95 536.81 L0 536.81 ZM73.08 590.41 L4.87 590.41 L4.87 541.41 L73.08 541.41 L73.08
						 590.41 Z" class="st15"/>
		</g>
		<g id="shape105-182" v:mID="105" v:groupContext="shape" transform="translate(696.342,-425.197)">
			<title>User.105</title>
			<v:userDefs>
				<v:ud v:nameU="msvShapeCategories" v:prompt="" v:val="VT4(Icon)"/>
				<v:ud v:nameU="visVersion" v:prompt="" v:val="VT0(14):26"/>
			</v:userDefs>
			<path d="M29.61 560.79 A15.037 14.8002 0 0 1 27.3 562.04 L21.24 573.78 L15.18 562.04 A14.8596 14.6256 0 0 1 12.86 560.79
						 A22.3471 21.9952 -180 0 0 0.05 582.12 A16.9272 16.6607 -180 0 0 21.24 594.64 A16.9272 16.6607 -180 0 0 42.43
						 582.12 A22.3471 21.9952 -180 0 0 29.61 560.79 ZM21.24 590.47 A14.8173 14.584 0 0 1 4.28 582.12 A18.6389
						 18.3454 0 0 1 12.43 565.93 L21.24 582.99 L30.04 565.93 A18.6357 18.3422 0 0 1 38.19 582.12 A14.8173 14.584
						 0 0 1 21.24 590.47 ZM21.24 536.24 A12.7159 12.5157 -180 0 0 8.52 548.75 A12.7159 12.5157 -180 0 0 21.24
						 561.27 A12.7159 12.5157 -180 0 0 33.95 548.75 A12.7159 12.5157 -180 0 0 21.24 536.24 ZM21.24 557.1 A8.48454
						 8.35092 0 0 1 12.76 548.75 A8.48454 8.35092 0 0 1 21.24 540.41 A8.48454 8.35092 0 0 1 29.71 548.75 A8.48454
						 8.35092 0 0 1 21.24 557.1 Z" class="st15"/>
		</g>
		<g id="shape6-184" v:mID="6" v:groupContext="shape" transform="translate(83.3342,-439.034)">
			<title>Sheet.6</title>
			<path d="M0 595.28 L66.9 556.28 L284.45 556.28" class="st6"/>
		</g>
		<g id="shape43-189" v:mID="43" v:groupContext="shape" transform="translate(272.126,-473.489)">
			<title>Sheet.43</title>
			<desc>Credentials are sent</desc>
			<v:textBlock v:margins="rect(4,4,4,4)" v:tabSpace="42.5197"/>
			<v:textRect cx="36.8504" cy="589.354" width="73.71" height="11.8425"/>
			<rect x="0" y="583.433" width="73.7008" height="11.8425" class="st8"/>
			<text x="4" y="591.75" class="st9" v:langID="1036"><v:paragraph/><v:tabList/>Credentials are sent</text>		</g>
		<g id="shape94-192" v:mID="94" v:groupContext="shape" transform="translate(357.165,-431.859) scale(-1,1)">
			<title>Sheet.94</title>
			<path d="M0 574.6 L36.85 595.28 L233.42 595.28" class="st6"/>
		</g>
		<g id="shape2-197" v:mID="2" v:groupContext="shape" transform="translate(141.024,-503.15)">
			<title>Sheet.2</title>
			<desc>1- Alice wants to launch a server</desc>
			<v:textBlock v:margins="rect(4,4,4,4)" v:tabSpace="42.5197"/>
			<v:textRect cx="99.5669" cy="588.189" width="199.14" height="14.1732"/>
			<rect x="0" y="581.102" width="199.134" height="14.1732" class="st1"/>
			<text x="17.59" y="595.39" class="st17" v:langID="1036"><v:paragraph v:horizAlign="1"/><v:tabList/>1<tspan class="st18">-</tspan><tspan
						class="st18"> </tspan><tspan class="st18">Alice wants to launch a server</tspan></text>		</g>
		<g id="shape106-203" v:mID="106" v:groupContext="shape" transform="translate(381.827,-189.035)">
			<title>Contact.106</title>
			<v:userDefs>
				<v:ud v:nameU="msvShapeCategories" v:prompt="" v:val="VT4(Icon)"/>
				<v:ud v:nameU="visVersion" v:prompt="" v:val="VT0(14):26"/>
			</v:userDefs>
			<path d="M30.6 563.01 L29.16 563.78 L25.38 570.91 L21.61 563.78 L20.17 563.01 A13.9194 13.3626 -180 0 0 12.18 575.98
						 A10.5472 10.1253 -180 0 0 25.38 583.58 A10.5472 10.1253 -180 0 0 38.59 575.98 A13.923 13.3661 -180 0 0 30.6
						 563.01 ZM33.31 555.7 A7.92195 7.60507 -180 1 0 17.46 555.7 A7.92195 7.60507 -180 1 0 33.31 555.7 ZM43.85
						 574.23 L65.77 574.23 L65.77 571.89 L43.85 571.89 L43.85 574.23 ZM43.85 564.87 L65.77 564.87 L65.77 562.54
						 L43.85 562.54 L43.85 564.87 ZM43.85 555.52 L65.77 555.52 L65.77 553.18 L43.85 553.18 L43.85 555.52 ZM0 536.81
						 L0 595.28 L77.95 595.28 L77.95 536.81 L0 536.81 ZM73.08 590.41 L4.87 590.41 L4.87 541.41 L73.08 541.41 L73.08
						 590.41 Z" class="st15"/>
		</g>
		<g id="shape109-205" v:mID="109" v:groupContext="shape" transform="translate(685.984,-207.726) scale(-1,1)">
			<title>Sheet.109</title>
			<path d="M0 571.03 L19.84 594.86 L210.74 595.25" class="st6"/>
		</g>
		<g id="group32-210" transform="translate(509.153,-225.152)" v:mID="32" v:groupContext="group">
			<title>Sheet.32</title>
			<g id="shape41-211" v:mID="41" v:groupContext="shape" transform="translate(38.2677,0)">
				<title>Sheet.41</title>
				<desc>Is the Token correct ?</desc>
				<v:textBlock v:margins="rect(4,4,4,4)" v:tabSpace="42.5197"/>
				<v:textRect cx="39.5178" cy="589.354" width="79.04" height="11.8425"/>
				<rect x="0" y="583.433" width="79.0356" height="11.8425" class="st8"/>
				<text x="4" y="591.75" class="st9" v:langID="1036"><v:paragraph/><v:tabList/>Is the Token correct ?</text>			</g>
			<g id="group25-214" transform="translate(109.417,-0.269695)" v:mID="25" v:groupContext="group">
				<title>Sheet.25</title>
				<g id="shape42-215" v:mID="42" v:groupContext="shape">
					<title>Search.33</title>
					<v:userDefs>
						<v:ud v:nameU="msvShapeCategories" v:prompt="" v:val="VT4(Icon)"/>
						<v:ud v:nameU="visVersion" v:prompt="" v:val="VT0(14):26"/>
					</v:userDefs>
					<path d="M10.35 579.75 A5.42174 5.33636 -180 0 0 4.93 585.09 A5.39302 5.30809 -180 0 0 6.09 588.38 A1.37235 1.35074
								 -180 0 0 5.65 588.62 L0.34 593.06 a0.919541 0.90506 -180 0 0 -0.0818178 1.32776 L0.84 594.99 a0.86559
								 0.851959 -180 0 0 1.315 -0.0310474 L6.75 589.71 A1.35253 1.33123 -180 0 0 7 589.28 A5.3935 5.30856
								 -180 0 0 10.35 590.42 A5.42174 5.33636 -180 0 0 15.77 585.09 A5.42174 5.33636 -180 0 0 10.35 579.75
								 ZM10.35 589.45 A4.44132 4.37138 0 0 1 5.91 585.09 A4.44132 4.37138 0 0 1 10.35 580.72 A4.44132 4.37138
								 0 0 1 14.79 585.09 A4.44132 4.37138 0 0 1 10.35 589.45 Z" class="st15"/>
				</g>
				<g id="shape31-217" v:mID="31" v:groupContext="shape" transform="translate(5.7699,-5.60234)">
					<title>Sheet.31</title>
					<ellipse cx="4.64173" cy="590.555" rx="4.64173" ry="4.72041" class="st19"/>
				</g>
			</g>
		</g>
		<g id="shape76-219" v:mID="76" v:groupContext="shape" transform="translate(381.827,950.489) rotate(180)">
			<title>Sheet.76</title>
			<path d="M0 595.28 L254.61 595.28" class="st6"/>
		</g>
		<g id="group35-224" transform="translate(493.228,-201.583)" v:mID="35" v:groupContext="group">
			<title>Sheet.35</title>
			<g id="shape24-225" v:mID="24" v:groupContext="shape">
				<title>Sheet.24</title>
				<desc>Does it allow that service usage ?</desc>
				<v:textBlock v:margins="rect(4,4,4,4)" v:tabSpace="42.5197"/>
				<v:textRect cx="64.2047" cy="589.354" width="128.41" height="11.8425"/>
				<rect x="0" y="583.433" width="128.409" height="11.8425" class="st8"/>
				<text x="4" y="591.75" class="st9" v:langID="1036"><v:paragraph/><v:tabList/>Does it allow that service usage ?</text>			</g>
			<g id="group23-228" transform="translate(121.89,0.322876)" v:mID="23" v:groupContext="group">
				<title>Sheet.23</title>
				<g id="shape28-229" v:mID="28" v:groupContext="shape">
					<title>Search.33</title>
					<v:userDefs>
						<v:ud v:nameU="msvShapeCategories" v:prompt="" v:val="VT4(Icon)"/>
						<v:ud v:nameU="visVersion" v:prompt="" v:val="VT0(14):26"/>
					</v:userDefs>
					<path d="M10.35 579.75 A5.42174 5.33636 -180 0 0 4.93 585.09 A5.39302 5.30809 -180 0 0 6.09 588.38 A1.37235 1.35074
								 -180 0 0 5.65 588.62 L0.34 593.06 a0.919541 0.90506 -180 0 0 -0.0818178 1.32776 L0.84 594.99 a0.86559
								 0.851959 -180 0 0 1.315 -0.0310474 L6.75 589.71 A1.35253 1.33123 -180 0 0 7 589.28 A5.3935 5.30856
								 -180 0 0 10.35 590.42 A5.42174 5.33636 -180 0 0 15.77 585.09 A5.42174 5.33636 -180 0 0 10.35 579.75
								 ZM10.35 589.45 A4.44132 4.37138 0 0 1 5.91 585.09 A4.44132 4.37138 0 0 1 10.35 580.72 A4.44132 4.37138
								 0 0 1 14.79 585.09 A4.44132 4.37138 0 0 1 10.35 589.45 Z" class="st15"/>
				</g>
				<g id="shape33-231" v:mID="33" v:groupContext="shape" transform="translate(5.7699,-5.60234)">
					<title>Sheet.33</title>
					<ellipse cx="4.64173" cy="590.555" rx="4.64173" ry="4.72041" class="st19"/>
				</g>
			</g>
		</g>
		<g id="shape20-233" v:mID="20" v:groupContext="shape" transform="translate(158.74,-109.417)">
			<title>Sheet.20</title>
			<desc>6- The service executes the request</desc>
			<v:textBlock v:margins="rect(4,4,4,4)" v:tabSpace="42.5197"/>
			<v:textRect cx="96.7323" cy="588.189" width="193.47" height="14.1732"/>
			<rect x="0" y="581.102" width="193.465" height="14.1732" class="st1"/>
			<text x="7.46" y="595.39" class="st17" v:langID="1036"><v:paragraph v:horizAlign="1"/><v:tabList/>6<tspan class="st18">-</tspan><tspan
						class="st18"> </tspan><tspan class="st18">The service executes the request</tspan></text>		</g>
		<g id="shape29-239" v:mID="29" v:groupContext="shape" transform="translate(453.543,-109.134)">
			<title>Sheet.29</title>
			<desc>7- The server reports the status back to Alice</desc>
			<v:textBlock v:margins="rect(4,4,4,4)" v:tabSpace="42.5197"/>
			<v:textRect cx="116.929" cy="588.189" width="233.86" height="14.1732"/>
			<rect x="0" y="581.102" width="233.858" height="14.1732" class="st1"/>
			<text x="4.94" y="595.39" class="st17" v:langID="1036"><v:paragraph v:horizAlign="1"/><v:tabList/>7<tspan class="st18">-</tspan><tspan
						class="st18"> </tspan><tspan class="st18">The server reports the status back to Alice</tspan></text>		</g>
		<g id="shape30-245" v:mID="30" v:groupContext="shape" transform="translate(463.075,-38.2563)">
			<title>Sheet.30</title>
			<path d="M0 576.87 L46.94 595.28 L219.35 595.28" class="st6"/>
		</g>
		<g id="shape44-250" v:mID="44" v:groupContext="shape" transform="translate(549.827,-32.3465)">
			<title>Sheet.44</title>
			<desc>The server is reacheable here</desc>
			<v:textBlock v:margins="rect(4,4,4,4)" v:tabSpace="42.5197"/>
			<v:textRect cx="54.6142" cy="589.354" width="109.23" height="11.8425"/>
			<rect x="0" y="583.433" width="109.228" height="11.8425" class="st8"/>
			<text x="4" y="591.75" class="st9" v:langID="1036"><v:paragraph/><v:tabList/>The server is reacheable here</text>		</g>
		<g id="shape112-253" v:mID="112" v:groupContext="shape" transform="translate(138.898,183.083) rotate(-90) scale(-1,1)">
			<title>Sheet.112</title>
			<path d="M0 580.95 L9.82 595.03 L98.24 595.25" class="st6"/>
		</g>
		<g id="group12-258" transform="translate(600.103,-346.332)" v:mID="12" v:groupContext="group">
			<title>Sheet.12</title>
			<g id="shape55-259" v:mID="55" v:groupContext="shape" transform="translate(-6.39488E-014,-0.59969)">
				<title>Sheet.55</title>
				<desc>Alice determines the correct endpoint to launch a server</desc>
				<v:textBlock v:margins="rect(4,4,4,4)" v:tabSpace="42.5197"/>
				<v:textRect cx="96.0625" cy="589.354" width="192.13" height="11.8425"/>
				<rect x="0" y="583.433" width="192.125" height="11.8425" class="st8"/>
				<text x="4" y="591.75" class="st9" v:langID="1036"><v:paragraph/><v:tabList><v:tabStop v:pos="67.09"/></v:tabList>Alice determines the correct endpoint to launch a server</text>			</g>
			<g id="shape15-262" v:mID="15" v:groupContext="shape" transform="translate(602.5,159.441) rotate(45)">
				<title>Link</title>
				<v:userDefs>
					<v:ud v:nameU="msvShapeCategories" v:prompt="" v:val="VT4(Icon)"/>
					<v:ud v:nameU="visVersion" v:prompt="" v:val="VT0(14):26"/>
				</v:userDefs>
				<path d="M14.37 591.36 a0.917695 0.886859 0 0 1 -0.917361 0.886536 L6.12 592.25 a0.917695 0.886859 0 0 1 -0.917361
							 -0.886536 a0.917695 0.886859 0 0 1 0.917361 -0.886536 L13.45 590.47 a0.917695 0.886859 0 0 1 0.917361
							 0.886536 ZM12.4 592.91 A1.21916 1.1782 -180 0 0 13.45 593.5 L16.51 593.5 A1.22438 1.18324 -180 0 0 17.74
							 592.32 L17.74 590.55 A1.22399 1.18286 -180 0 0 16.51 589.37 L13.45 589.37 A1.21916 1.1782 -180 0 0 12.4
							 589.96 L10.46 589.96 A3.05876 2.95598 0 0 1 13.45 587.59 L16.51 587.59 A3.05781 2.95506 0 0 1 19.57
							 590.55 L19.57 592.32 A3.05781 2.95506 0 0 1 16.51 595.28 L13.45 595.28 A3.05825 2.95549 0 0 1 10.46
							 592.91 L12.4 592.91 ZM7.17 592.91 A1.21916 1.1782 0 0 1 6.12 593.5 L3.06 593.5 A1.22438 1.18324 0 0
							 1 1.83 592.32 L1.83 590.55 A1.22399 1.18286 0 0 1 3.06 589.37 L6.12 589.37 A1.21916 1.1782 0 0 1 7.17
							 589.96 L9.11 589.96 A3.05943 2.95662 -180 0 0 6.12 587.59 L3.06 587.59 A3.05781 2.95506 -180 0 0 0 590.55
							 L0 592.32 A3.05781 2.95506 -180 0 0 3.06 595.28 L6.12 595.28 A3.05825 2.95549 -180 0 0 9.11 592.91 L7.17
							 592.91 Z" class="st15"/>
			</g>
		</g>
		<g id="shape118-264" v:mID="118" v:groupContext="shape" transform="translate(356.031,-221.942) scale(-1,1)">
			<title>Sheet.118</title>
			<path d="M0 577.16 L17.86 594.72 L227.75 595.25" class="st6"/>
		</g>
		<g id="shape120-269" v:mID="120" v:groupContext="shape" transform="translate(174.685,-232.791)">
			<title>Sheet.120</title>
			<desc>Alice’s tenant is authorized to access the service</desc>
			<v:textBlock v:margins="rect(4,4,4,4)" v:tabSpace="42.5197"/>
			<v:textRect cx="82.7362" cy="589.354" width="165.48" height="11.8425"/>
			<rect x="0" y="583.433" width="165.472" height="11.8425" class="st8"/>
			<text x="4" y="591.75" class="st9" v:langID="1036"><v:paragraph/><v:tabList/>Alice’s tenant is authorized to access the service</text>		</g>
		<g id="shape117-272" v:mID="117" v:groupContext="shape" transform="translate(155.906,-216.854)">
			<title>Sheet.117</title>
			<desc>The token matches with the request</desc>
			<v:textBlock v:margins="rect(4,4,4,4)" v:tabSpace="42.5197"/>
			<v:textRect cx="65.7283" cy="589.354" width="131.46" height="11.8425"/>
			<rect x="0" y="583.433" width="131.457" height="11.8425" class="st8"/>
			<text x="4" y="591.75" class="st9" v:langID="1036"><v:paragraph/><v:tabList/>The token matches with the request</text>		</g>
		<g id="group81-275" transform="translate(146.303,-424.773)" v:mID="81" v:groupContext="group">
			<title>Sheet.81</title>
			<g id="shape99-276" v:mID="99" v:groupContext="shape">
				<title>Sheet.99</title>
				<desc>A generic catalog is sent</desc>
				<v:textBlock v:margins="rect(4,4,4,4)" v:tabSpace="42.5197"/>
				<v:textRect cx="55.3114" cy="589.354" width="110.63" height="11.8425"/>
				<rect x="0" y="583.433" width="110.623" height="11.8425" class="st8"/>
				<text x="16.16" y="591.75" class="st9" v:langID="1036"><v:paragraph v:horizAlign="1"/><v:tabList/>A generic catalog is sent</text>			</g>
			<g id="group78-279" transform="translate(102.012,-3.01779)" v:mID="78" v:groupContext="group">
				<title>Sheet.78</title>
				<g id="shape52-280" v:mID="52" v:groupContext="shape" transform="translate(0.460236,-0.657919)">
					<title>Sheet.52</title>
					<rect x="0" y="585.638" width="10.2047" height="9.6378" class="st1"/>
				</g>
				<g id="shape108-282" v:mID="108" v:groupContext="shape">
					<title>Document</title>
					<v:userDefs>
						<v:ud v:nameU="msvShapeCategories" v:prompt="" v:val="VT4(Icon)"/>
						<v:ud v:nameU="visVersion" v:prompt="" v:val="VT0(14):26"/>
					</v:userDefs>
					<path d="M2.15 592.31 L2.15 591.88 L9.04 591.88 L9.04 592.31 L2.15 592.31 ZM2.15 590.61 L2.15 590.19 L9.04 590.19
								 L9.04 590.61 L2.15 590.61 ZM2.15 588.92 L2.15 588.49 L9.04 588.49 L9.04 588.92 L2.15 588.92 ZM2.15
								 587.22 L2.15 586.8 L9.04 586.8 L9.04 587.22 L2.15 587.22 ZM2.15 585.53 L2.15 585.1 L6.48 585.1 L6.48
								 585.53 L2.15 585.53 ZM10.34 594.43 L10.34 585.1 L7.75 585.1 L7.75 582.56 L0.86 582.56 L0.86 594.43
								 L10.34 594.43 ZM10.23 584.68 L8.18 582.67 L8.18 584.68 L10.23 584.68 ZM8.51 581.71 L11.2 584.36
								 L11.2 595.28 L0 595.28 L0 581.71 L8.51 581.71 Z" class="st15"/>
				</g>
			</g>
		</g>
		<g id="group37-284" transform="translate(337.323,-477.354)" v:mID="37" v:groupContext="group">
			<title>Sheet.37</title>
			<g id="shape82-285" v:mID="82" v:groupContext="shape" transform="translate(0.623622,-8.55608)">
				<title>Sheet.82</title>
				<rect x="0" y="588.416" width="9.92126" height="6.85984" class="st1"/>
			</g>
			<g id="shape9-287" v:mID="9" v:groupContext="shape" transform="translate(5.10236,-3.51041)">
				<title>Sheet.9</title>
				<path d="M0 595.28 L9.64 595.1 L9.92 588.76 L0 588.76 L0 595.28 Z" class="st1"/>
			</g>
			<g id="shape45-289" v:mID="45" v:groupContext="shape">
				<title>Discussion.45</title>
				<v:userDefs>
					<v:ud v:nameU="msvShapeCategories" v:prompt="" v:val="VT4(Icon)"/>
					<v:ud v:nameU="visVersion" v:prompt="" v:val="VT0(14):26"/>
				</v:userDefs>
				<path d="M13.89 584.53 L11.61 584.53 L11.61 585.34 L11.59 585.54 L13.89 585.54 a0.993335 1.00923 0 0 1 0.992622 1.0085
							 L14.88 590.58 a0.993335 1.00923 0 0 1 -0.992622 1.0085 L11.83 591.59 L9.38 593.28 L9.83 591.59 L6.74
							 591.59 a0.993335 1.00923 0 0 1 -0.992622 -1.0085 L5.75 589.36 A509.473 517.624 -180 0 0 4.76 588.67
							 L4.76 590.58 A1.98455 2.0163 -180 0 0 6.74 592.6 L8.53 592.6 L7.89 595.01 L8.25 595.28 L12.14 592.6
							 L13.89 592.6 A1.98455 2.0163 -180 0 0 15.87 590.58 L15.87 586.55 A1.98487 2.01663 -180 0 0 13.89 584.53
							 ZM9.13 579.29 L1.98 579.29 A1.98455 2.0163 -180 0 0 -0 581.31 L0 585.34 A1.98455 2.0163 -180 0 0 1.98
							 587.36 L3.74 587.36 L7.62 590.04 L7.98 589.77 L7.34 587.36 L9.13 587.36 A1.98455 2.0163 -180 0 0 11.11
							 585.34 L11.11 581.31 A1.98529 2.01706 -180 0 0 9.13 579.29 ZM10.12 585.34 a0.993335 1.00923 0 0 1 -0.992622
							 1.0085 L6.05 586.35 L6.5 588.04 L4.04 586.35 L1.98 586.35 a0.993654 1.00955 0 0 1 -0.992622 -1.0085
							 L0.99 581.31 a0.993335 1.00923 0 0 1 0.992622 -1.0085 L9.13 580.3 a0.993335 1.00923 0 0 1 0.992622 1.0085
							 L10.12 585.34 Z" class="st15"/>
			</g>
		</g>
		<g id="group27-291" transform="translate(680.315,-327.961)" v:mID="27" v:groupContext="group">
			<title>Sheet.27</title>
			<g id="shape56-292" v:mID="56" v:groupContext="shape">
				<title>Sheet.56</title>
				<desc>The token is provided along the request</desc>
				<v:textBlock v:margins="rect(4,4,4,4)" v:tabSpace="42.5197"/>
				<v:textRect cx="72.1158" cy="589.354" width="144.24" height="11.8425"/>
				<rect x="0" y="583.433" width="144.232" height="11.8425" class="st8"/>
				<text x="4" y="591.75" class="st9" v:langID="1036"><v:paragraph/><v:tabList/>The token is provided along the request</text>			</g>
			<g id="group48-295" transform="translate(140.017,-4.38587)" v:mID="48" v:groupContext="group">
				<title>Sheet.48</title>
				<g id="shape83-296" v:mID="83" v:groupContext="shape" transform="translate(0.663306,-0.712452)">
					<title>Sheet.83</title>
					<rect x="0" y="588.321" width="8.87172" height="6.95463" class="st1"/>
				</g>
				<g id="shape84-298" v:mID="84" v:groupContext="shape">
					<title>Lock</title>
					<v:userDefs>
						<v:ud v:nameU="msvShapeCategories" v:prompt="" v:val="VT4(Icon)"/>
						<v:ud v:nameU="visVersion" v:prompt="" v:val="VT0(14):26"/>
					</v:userDefs>
					<path d="M5.84 590.12 C5.84 590.5 5.63 590.83 5.32 590.98 L5.55 592.96 L4.4 592.96 L4.63 590.98 C4.32 590.83
								 4.11 590.5 4.11 590.12 C4.11 589.59 4.5 589.17 4.97 589.17 C5.45 589.17 5.84 589.59 5.84 590.12
								 ZM9.18 594.01 L9.18 588.11 C9.18 587.88 9.01 587.69 8.8 587.69 L1.15 587.69 C0.94 587.69 0.77 587.88
								 0.77 588.11 L0.77 594.01 C0.77 594.24 0.94 594.43 1.15 594.43 L8.8 594.43 C9.01 594.43 9.18 594.24
								 9.18 594.01 ZM6.12 585.31 C6.09 584.77 5.58 584.32 4.97 584.32 C4.36 584.32 3.86 584.79 3.83 585.39
								 L3.83 585.39 L3.83 586.85 L6.12 586.85 L6.12 585.31 ZM2.3 585.26 C2.3 585.26 2.3 586.02 2.3 586.85
								 L3.06 586.85 C3.06 586.02 3.06 585.26 3.06 585.26 L3.07 585.35 C3.11 584.3 3.95 583.48 4.97 583.48
								 C6 583.48 6.84 584.29 6.89 585.26 C6.89 585.26 6.89 586.02 6.89 586.85 L7.65 586.85 C7.65 586.01
								 7.65 585.26 7.65 585.26 C7.58 583.81 6.41 582.64 4.97 582.64 C3.54 582.64 2.37 583.81 2.3 585.31
								 L2.3 585.26 ZM8.8 586.85 C9.44 586.85 9.95 587.42 9.95 588.11 L9.95 594.01 C9.95 594.71 9.44 595.28
								 8.8 595.28 L1.15 595.28 C0.51 595.28 0 594.71 0 594.01 L0 588.11 C0 587.42 0.51 586.85 1.15 586.85
								 L1.53 586.85 L1.53 585.26 L1.54 585.26 C1.63 583.33 3.13 581.8 4.97 581.8 C6.82 581.8 8.32 583.33
								 8.41 585.26 L8.42 585.26 L8.42 586.85 L8.8 586.85 Z" class="st15"/>
				</g>
			</g>
		</g>
		<g id="group40-300" transform="translate(501.638,-51.937)" v:mID="40" v:groupContext="group">
			<title>Sheet.40</title>
			<g id="shape34-301" v:mID="34" v:groupContext="shape">
				<title>Sheet.34</title>
				<desc>The server has been created</desc>
				<v:textBlock v:margins="rect(4,4,4,4)" v:tabSpace="42.5197"/>
				<v:textRect cx="51.0709" cy="589.354" width="102.15" height="11.8425"/>
				<rect x="0" y="583.433" width="102.142" height="11.8425" class="st8"/>
				<text x="4" y="591.75" class="st9" v:langID="1036"><v:paragraph/><v:tabList/>The server has been created</text>			</g>
			<g id="group39-304" transform="translate(93.6378,-4.33071)" v:mID="39" v:groupContext="group">
				<title>Sheet.39</title>
				<g id="shape85-305" v:mID="85" v:groupContext="shape" transform="translate(1.55906,-1.70079)">
					<title>Sheet.85</title>
					<path d="M6.24 595.28 L7.37 592.44 L10.49 593.57 L9.35 590.46 L12.19 589.32 L9.64 587.91 L10.77 585.07 L7.37
								 585.92 L6.24 583.09 L5.1 585.92 L1.98 585.07 L3.12 587.91 L0 589.04 L3.42 590.1 L1.42 593.86 L5.1
								 592.44 L6.24 595.28 Z" class="st1"/>
				</g>
				<g id="shape114-307" v:mID="114" v:groupContext="shape">
					<title>New</title>
					<v:userDefs>
						<v:ud v:nameU="msvShapeCategories" v:prompt="" v:val="VT4(Icon)"/>
						<v:ud v:nameU="visVersion" v:prompt="" v:val="VT0(14):26"/>
					</v:userDefs>
					<path d="M15.59 587.48 L11.6 585.91 L13.31 581.97 L9.37 583.68 L7.8 579.69 L6.22 583.68 L2.28 581.97 L3.99 585.91
								 L0 587.48 L3.99 589.05 L2.28 592.99 L6.22 591.28 L7.8 595.28 L9.37 591.28 L13.31 592.99 L11.6 589.06
								 L15.59 587.48 ZM8.83 589.99 C8.83 589.99 8.12 591.79 7.8 592.62 C7.47 591.79 6.76 589.99 6.76 589.99
								 C6.76 589.99 4.98 590.76 4.16 591.11 C4.52 590.3 5.29 588.52 5.29 588.52 C5.29 588.52 3.48 587.81
								 2.66 587.48 C3.48 587.15 5.29 586.44 5.29 586.44 C5.29 586.44 4.52 584.66 4.16 583.85 C4.98 584.2
								 6.76 584.97 6.76 584.97 C6.76 584.97 7.47 583.17 7.8 582.34 C8.12 583.17 8.83 584.97 8.83 584.97
								 C8.83 584.97 10.61 584.2 11.43 583.85 C11.07 584.66 10.3 586.44 10.3 586.44 C10.3 586.44 12.11 587.15
								 12.93 587.48 C12.11 587.81 10.3 588.52 10.3 588.52 C10.3 588.52 11.07 590.3 11.43 591.11 C10.61
								 590.76 8.83 589.99 8.83 589.99 Z" class="st15"/>
				</g>
			</g>
		</g>
		<g id="shape87-309" v:mID="87" v:groupContext="shape" transform="translate(374.173,-206.045) scale(-1,1)">
			<title>Sheet.87</title>
			<path d="M0 561.26 L32.31 595.28 L245.89 594.72" class="st6"/>
		</g>
		<g id="shape88-314" v:mID="88" v:groupContext="shape" transform="translate(137.835,-200.406)">
			<title>Sheet.88</title>
			<desc>That token belong to the user Alice</desc>
			<v:textBlock v:margins="rect(4,4,4,4)" v:tabSpace="42.5197"/>
			<v:textRect cx="65.7283" cy="589.354" width="131.46" height="11.8425"/>
			<rect x="0" y="583.433" width="131.457" height="11.8425" class="st8"/>
			<text x="4" y="591.75" class="st9" v:langID="1036"><v:paragraph/><v:tabList/>That token belong to the user Alice</text>		</g>
		<g id="shape100-317" v:mID="100" v:groupContext="shape" transform="translate(671.811,403.292) rotate(90)">
			<title>Sheet.100</title>
			<path d="M0 595.28 L49.18 595.28" class="st6"/>
		</g>
		<g id="shape96-322" v:mID="96" v:groupContext="shape" transform="translate(50.1732,-110.551)">
			<title>Status bar item.96</title>
			<desc>Service</desc>
			<v:userDefs>
				<v:ud v:nameU="msvShapeCategories" v:prompt="" v:val="VT4(Status)"/>
				<v:ud v:nameU="ResizeWidth" v:prompt="" v:val="VT0(0.40374627310829):1"/>
				<v:ud v:nameU="UserWidth" v:prompt="" v:val="VT0(0.8125):1"/>
				<v:ud v:nameU="visVersion" v:prompt="" v:val="VT0(14):26"/>
			</v:userDefs>
			<v:textBlock v:margins="rect(2,2,2,2)" v:tabSpace="42.5197"/>
			<v:textRect cx="29.25" cy="586.772" width="58.5" height="17.0079"/>
			<rect x="0" y="578.268" width="58.5" height="17.0079" class="st3"/>
			<rect x="0" y="578.268" width="58.5" height="17.0079" class="st4"/>
			<text x="17.62" y="589.17" class="st5" v:langID="1036"><v:paragraph v:horizAlign="1"/><v:tabList/>Service</text>		</g>
		<g id="shape98-327" v:mID="98" v:groupContext="shape" transform="translate(6.02362,-158.236)">
			<title>Sheet.98</title>
			<desc>The service validates the request against its own policy</desc>
			<v:textBlock v:margins="rect(4,4,4,4)" v:tabSpace="42.5197"/>
			<v:textRect cx="93.189" cy="589.354" width="186.38" height="11.8425"/>
			<rect x="0" y="583.433" width="186.378" height="11.8425" class="st8"/>
			<text x="4" y="591.75" class="st9" v:langID="1036"><v:paragraph/><v:tabList/>The service validates the request against its own policy</text>		</g>
		<g id="shape101-330" v:mID="101" v:groupContext="shape" transform="translate(887.048,731.993) rotate(-30) scale(1,-1)">
			<title>Sheet.101</title>
			<path d="M0 581.2 L9.82 595.28 L97.54 594.41" class="st6"/>
		</g>
		<g id="group110-335" transform="translate(503.15,-402.803)" v:mID="110" v:groupContext="group">
			<title>Sheet.110</title>
			<g id="shape111-336" v:mID="111" v:groupContext="shape">
				<title>Sheet.111</title>
				<desc>Keystone sends the Services the tenant has</desc>
				<v:textBlock v:margins="rect(4,4,4,4)" v:tabSpace="42.5197"/>
				<v:textRect cx="75.3855" cy="589.354" width="150.78" height="11.8425"/>
				<rect x="0" y="583.433" width="150.771" height="11.8425" class="st8"/>
				<text x="4" y="591.75" class="st9" v:langID="1036"><v:paragraph/><v:tabList><v:tabStop v:pos="67.09"/></v:tabList>Keystone sends the Services the tenant has</text>			</g>
			<g id="group128-339" transform="translate(145.128,-5.66929)" v:mID="128" v:groupContext="group">
				<title>Sheet.128</title>
				<g id="shape124-340" v:mID="124" v:groupContext="shape" transform="translate(0.566929,-0.141732)">
					<title>Sheet.124</title>
					<rect x="0" y="586.488" width="8.50394" height="8.7874" class="st1"/>
				</g>
				<g id="shape127-342" v:mID="127" v:groupContext="shape">
					<title>Document</title>
					<v:userDefs>
						<v:ud v:nameU="msvShapeCategories" v:prompt="" v:val="VT4(Icon)"/>
						<v:ud v:nameU="visVersion" v:prompt="" v:val="VT0(14):26"/>
					</v:userDefs>
					<path d="M1.8 592.8 L1.8 592.44 L7.56 592.44 L7.56 592.8 L1.8 592.8 ZM1.8 591.38 L1.8 591.02 L7.56 591.02 L7.56
								 591.38 L1.8 591.38 ZM1.8 589.96 L1.8 589.61 L7.56 589.61 L7.56 589.96 L1.8 589.96 ZM1.8 588.54 L1.8
								 588.19 L7.56 588.19 L7.56 588.54 L1.8 588.54 ZM1.8 587.13 L1.8 586.77 L5.41 586.77 L5.41 587.13
								 L1.8 587.13 ZM8.64 594.57 L8.64 586.77 L6.48 586.77 L6.48 584.65 L0.72 584.65 L0.72 594.57 L8.64
								 594.57 ZM8.55 586.42 L6.84 584.73 L6.84 586.42 L8.55 586.42 ZM7.11 583.94 L9.36 586.15 L9.36 595.28
								 L0 595.28 L0 583.94 L7.11 583.94 Z" class="st15"/>
				</g>
			</g>
		</g>
		<g id="group90-344" transform="translate(587.772,-382.677)" v:mID="90" v:groupContext="group">
			<title>Sheet.90</title>
			<g id="shape92-345" v:mID="92" v:groupContext="shape">
				<title>Sheet.92</title>
				<desc>The tenant token is provided</desc>
				<v:textBlock v:margins="rect(4,4,4,4)" v:tabSpace="42.5197"/>
				<v:textRect cx="54.1257" cy="589.354" width="108.26" height="11.8425"/>
				<rect x="0" y="583.433" width="108.251" height="11.8425" class="st8"/>
				<text x="4" y="591.75" class="st9" v:langID="1036"><v:paragraph/><v:tabList><v:tabStop v:pos="67.09"/></v:tabList>The tenant token is provided</text>			</g>
			<g id="group122-348" transform="translate(100.913,-6.97688)" v:mID="122" v:groupContext="group">
				<title>Sheet.122</title>
				<g id="shape121-349" v:mID="121" v:groupContext="shape" transform="translate(0.660345,-0.634197)">
					<title>Sheet.121</title>
					<rect x="0" y="589.085" width="8.83212" height="6.19074" class="st1"/>
				</g>
				<g id="shape115-351" v:mID="115" v:groupContext="shape">
					<title>Lock</title>
					<v:userDefs>
						<v:ud v:nameU="msvShapeCategories" v:prompt="" v:val="VT4(Icon)"/>
						<v:ud v:nameU="visVersion" v:prompt="" v:val="VT0(14):26"/>
					</v:userDefs>
					<path d="M5.81 590.68 C5.81 591.03 5.6 591.32 5.3 591.45 L5.52 593.21 L4.38 593.21 L4.6 591.45 C4.3 591.32 4.1
								 591.03 4.1 590.68 C4.1 590.22 4.48 589.84 4.95 589.84 C5.43 589.84 5.81 590.22 5.81 590.68 ZM9.14
								 594.15 L9.14 588.9 C9.14 588.69 8.97 588.53 8.76 588.53 L1.14 588.53 C0.93 588.53 0.76 588.69 0.76
								 588.9 L0.76 594.15 C0.76 594.36 0.93 594.53 1.14 594.53 L8.76 594.53 C8.97 594.53 9.14 594.36 9.14
								 594.15 ZM6.1 586.4 C6.06 585.92 5.55 585.53 4.95 585.53 C4.34 585.53 3.84 585.94 3.82 586.48 L3.81
								 586.48 L3.81 587.78 L6.1 587.78 L6.1 586.4 ZM2.29 586.36 C2.29 586.36 2.29 587.03 2.29 587.78 L3.05
								 587.78 C3.05 587.04 3.05 586.36 3.05 586.36 L3.05 586.44 C3.1 585.51 3.93 584.78 4.95 584.78 C5.97
								 584.78 6.81 585.49 6.86 586.36 C6.86 586.36 6.86 587.04 6.86 587.78 L7.62 587.78 C7.62 587.03 7.62
								 586.36 7.62 586.36 C7.55 585.07 6.38 584.03 4.95 584.03 C3.53 584.03 2.36 585.07 2.29 586.4 L2.29
								 586.36 ZM8.76 587.78 C9.39 587.78 9.91 588.28 9.91 588.9 L9.91 594.15 C9.91 594.77 9.39 595.28 8.76
								 595.28 L1.14 595.28 C0.51 595.28 0 594.77 0 594.15 L0 588.9 C0 588.28 0.51 587.78 1.14 587.78 L1.52
								 587.78 L1.52 586.36 L1.53 586.36 C1.62 584.65 3.11 583.28 4.95 583.28 C6.79 583.28 8.29 584.65 8.37
								 586.36 L8.38 586.36 L8.38 587.78 L8.76 587.78 Z" class="st15"/>
				</g>
			</g>
		</g>
		<g id="shape123-353" v:mID="123" v:groupContext="shape" transform="translate(54.4252,-26.6884)">
			<title>Network.123</title>
			<v:userDefs>
				<v:ud v:nameU="msvShapeCategories" v:prompt="" v:val="VT4(Icon)"/>
				<v:ud v:nameU="visVersion" v:prompt="" v:val="VT0(14):26"/>
			</v:userDefs>
			<path d="M11.12 546.04 L11.12 566.1 L40.76 566.1 L40.76 546.04 L11.12 546.04 ZM9.26 567.92 L9.26 544.22 L42.61 544.22
						 L42.61 567.92 L9.26 567.92 ZM48.17 589.81 L48.17 586.16 L35.2 586.16 L35.2 589.81 L48.17 589.81 ZM31.49
						 591.63 L31.49 584.33 L20.38 584.33 L20.38 591.63 L31.49 591.63 ZM27.79 575.22 L24.08 575.22 L24.08 580.69
						 L27.79 580.69 L27.79 575.22 ZM5.56 571.57 L46.32 571.57 L46.32 540.57 L5.56 540.57 L5.56 571.57 ZM16.67
						 589.81 L16.67 586.16 L3.71 586.16 L3.71 589.81 L16.67 589.81 ZM49.71 582.51 C50.91 582.51 51.87 583.46 51.87
						 584.64 L51.87 591.32 C51.87 592.5 50.91 593.45 49.71 593.45 L35.14 593.45 C34.98 594.48 34.12 595.28 33.04
						 595.28 L18.84 595.28 C17.75 595.28 16.89 594.48 16.74 593.45 L2.16 593.45 C0.97 593.45 0 592.5 0 591.32
						 L0 584.64 C0 583.46 0.97 582.51 2.16 582.51 L16.74 582.51 C16.89 581.49 17.75 580.69 18.84 580.69 L20.38
						 580.69 L20.38 575.22 L4.02 575.22 C2.82 575.22 1.85 574.27 1.85 573.09 L1.85 539.05 C1.85 537.88 2.82 536.92
						 4.02 536.92 L47.86 536.92 C49.05 536.92 50.02 537.88 50.02 539.05 L50.02 573.09 C50.02 574.27 49.05 575.22
						 47.86 575.22 L31.49 575.22 L31.49 580.69 L33.04 580.69 C34.12 580.69 34.98 581.48 35.14 582.51 L49.71 582.51
						 Z" class="st15"/>
		</g>
		<g id="shape4-355" v:mID="4" v:groupContext="shape" transform="translate(104.447,-56.6929)">
			<title>Sheet.4</title>
			<path d="M0 595.28 L261.92 595.28" class="st6"/>
		</g>
		<g id="shape93-360" v:mID="93" v:groupContext="shape" transform="translate(177.165,-49.9426)">
			<title>Sheet.93</title>
			<desc>The service creates a new server</desc>
			<v:textBlock v:margins="rect(4,4,4,4)" v:tabSpace="42.5197"/>
			<v:textRect cx="57.7559" cy="589.354" width="115.52" height="11.8425"/>
			<rect x="0" y="583.433" width="115.512" height="11.8425" class="st8"/>
			<text x="4" y="591.75" class="st9" v:langID="1036"><v:paragraph/><v:tabList/>The service creates a new server</text>		</g>
	</g>
</svg>
