<svg xmlns="http://www.w3.org/2000/svg" xmlns:xlink="http://www.w3.org/1999/xlink" width="960" height="320"><g transform="translate(-2.716049382716051 -2.716049382716051)"><path d="M22.72 22.72h160v120h-160z" stroke="#000" stroke-width="2" fill="#fff"/><use xlink:href="#a" transform="matrix(1,0,0,1,27.71604938271605,27.71604938271605) translate(3.997395833333343 61.896701388888886)"/><use xlink:href="#b" transform="matrix(1,0,0,1,27.71604938271605,27.71604938271605) translate(61.7404513888889 61.896701388888886)"/><path d="M522.72 102.72h160v120h-160z" stroke="#000" stroke-width="2" fill="#fff"/><use xlink:href="#c" transform="matrix(1,0,0,1,527.716049382716,107.71604938271605) translate(18.046875 49.7265625)"/><use xlink:href="#d" transform="matrix(1,0,0,1,527.716049382716,107.71604938271605) translate(75.3603515625 49.7265625)"/><use xlink:href="#e" transform="matrix(1,0,0,1,527.716049382716,107.71604938271605) translate(7.30224609375 74.2392578125)"/><use xlink:href="#f" transform="matrix(1,0,0,1,527.716049382716,107.71604938271605) translate(61.49560546875 74.2392578125)"/><use xlink:href="#g" transform="matrix(1,0,0,1,527.716049382716,107.71604938271605) translate(72.78076171875 74.2392578125)"/><path d="M782.72 102.72h160v120h-160z" stroke="#000" stroke-width="2" fill="#fff"/><use xlink:href="#h" transform="matrix(1,0,0,1,787.716049382716,107.71604938271605) translate(46.14990234375 49.7265625)"/><use xlink:href="#i" transform="matrix(1,0,0,1,787.716049382716,107.71604938271605) translate(23.32470703125 74.2392578125)"/><path d="M42.72 102.72h160v120h-160z" stroke="#000" stroke-width="2" fill="#fff"/><use xlink:href="#a" transform="matrix(1,0,0,1,47.71604938271605,107.71604938271605) translate(3.997395833333343 61.896701388888886)"/><use xlink:href="#b" transform="matrix(1,0,0,1,47.71604938271605,107.71604938271605) translate(61.7404513888889 61.896701388888886)"/><path d="M62.72 182.72h160v120h-160z" stroke="#000" stroke-width="2" fill="#fff"/><use xlink:href="#a" transform="matrix(1,0,0,1,67.71604938271605,187.71604938271605) translate(3.997395833333343 61.896701388888886)"/><use xlink:href="#b" transform="matrix(1,0,0,1,67.71604938271605,187.71604938271605) translate(61.7404513888889 61.896701388888886)"/><path d="M372.72 102.72l80 60-80 60-80-60z" fill="#fff"/><path d="M399.38 122.72l26.67 20m13.33 10l13.34 10-13.34 10m-13.33 10l-26.67 20m-13.33 10l-13.33 10-13.34-10m-13.33-10l-26.67-20m-13.33-10l-13.33-10 13.33-10m13.33-10l26.67-20m13.33-10l13.34-10 13.33 10" stroke="#000" stroke-width="2" fill="none"/><use xlink:href="#j" transform="matrix(1,0,0,1,297.71604938271605,107.71604938271605) translate(20.2265625 49.7265625)"/><use xlink:href="#k" transform="matrix(1,0,0,1,297.71604938271605,107.71604938271605) translate(75.984375 49.7265625)"/><use xlink:href="#l" transform="matrix(1,0,0,1,297.71604938271605,107.71604938271605) translate(33.4541015625 74.2392578125)"/><path d="M182.72 82.72h190v20" stroke="#000" stroke-width="2" fill="none"/><path d="M372.72 102.72l-4.64-14.27h9.27z"/><path d="M373.56 103.35l-.84-.63-.85.63-5.17-15.9h12.03zm-4.1-13.9l3.26 10.03 3.25-10.03z"/><path d="M202.72 162.72h90" stroke="#000" stroke-width="2" fill="none"/><path d="M292.72 162.72l-14.27 4.63v-9.27z"/><path d="M293.7 161.98l-.98.74.97.73-16.25 5.28V156.7zm-14.25 4l10.03-3.26-10.03-3.26z"/><path d="M222.72 242.72h150v-20" stroke="#000" stroke-width="2" fill="none"/><path d="M377.35 236.98h-9.27l4.64-14.26z"/><path d="M378.73 237.98H366.7l5.17-15.9.85.64.84-.64zm-9.27-2h6.5l-3.24-10.03z"/><path d="M452.72 162.72h69" stroke="#000" stroke-width="2" fill="none"/><path d="M452.72 163.72h-1.34l1.34-1-1.34-1h1.34zM521.72 162.72l-14.27 4.63v-9.27z"/><path d="M522.72 162v1.44l-16.27 5.3V156.7zm-14.27 3.97l10.03-3.25-10.03-3.26z"/><path d="M682.72 162.72h99" stroke="#000" stroke-width="2" fill="none"/><path d="M781.72 162.72l-14.27 4.63v-9.27z"/><path d="M782.72 162v1.44l-16.27 5.3V156.7zm-14.27 3.97l10.03-3.25-10.03-3.26z"/><defs><path d="M584-1331c-162 0-287 69-287 219 0 118 43 164 123 214 44 28 112 56 203 89 153 55 259 113 317 176s86 144 86 244c-1 276-228 409-520 409-173 0-307-22-400-67v-164c109 46 257 81 406 82 199 1 342-68 342-244 0-120-47-164-132-214-47-28-121-58-218-93-136-49-234-106-292-173s-87-154-87-261c-1-239 209-369 463-369 145 0 279 27 401 80l-53 148c-121-51-238-76-352-76" id="m"/><path d="M995-51C878-2 799 19 639 20c-329 2-524-221-524-559 0-326 172-577 481-577 278 0 451 210 446 493v105H287c4 242 121 392 358 393 118 0 235-25 350-74v148zM864-653c2-195-85-324-270-324-190 0-288 139-303 324h573" id="n"/><path d="M340-893c80-153 237-262 467-211l-23 154c-45-10-85-15-120-15-184-3-322 182-322 377V0H176v-1096h137l19 203h8" id="o"/><path d="M516-150c94-315 146-423 332-946h178L610 0H416L0-1096h178c98 281 253 670 330 946h8" id="p"/><g id="a"><use transform="matrix(0.008680555555555556,0,0,0.008680555555555556,0,0)" xlink:href="#m"/><use transform="matrix(0.008680555555555556,0,0,0.008680555555555556,9.756944444444445,0)" xlink:href="#n"/><use transform="matrix(0.008680555555555556,0,0,0.008680555555555556,19.73090277777778,0)" xlink:href="#o"/><use transform="matrix(0.008680555555555556,0,0,0.008680555555555556,26.987847222222218,0)" xlink:href="#p"/><use transform="matrix(0.008680555555555556,0,0,0.008680555555555556,35.89409722222222,0)" xlink:href="#n"/><use transform="matrix(0.008680555555555556,0,0,0.008680555555555556,45.86805555555556,0)" xlink:href="#o"/></g><path d="M383 324C201 116 82-188 82-561c0-378 120-688 301-901h162c-172 227-289 529-289 899 0 361 122 665 287 887H383" id="q"/><path d="M201 0v-1462h170v1308h645V0H201" id="r"/><path d="M621-1116c316 0 501 239 501 567 0 339-180 575-508 569S119-212 115-549c-4-339 178-567 506-567zm-5 141c-239 0-329 168-329 426 0 255 93 430 331 430s332-174 332-430-95-426-334-426" id="s"/><path d="M125-741c0-247 161-377 414-375 57 0 109 7 155 20h379v105l-203 24c37 48 72 129 72 219 0 255-227 390-504 345-71 37-106 84-106 141 0 78 66 88 164 88h194c219-1 369 87 369 293 0 121-49 213-146 277s-239 96-426 96c-250 0-448-83-448-306C39 36 147-58 283-86c-52-23-102-79-99-152 4-104 57-143 133-192-107-42-192-164-192-311zM438-25c-143-1-242 70-239 209s131 181 290 181c139 0 242-21 309-63s101-98 101-169c0-147-88-158-262-158H438zm94-970c-158 0-243 88-243 250 0 153 93 233 246 233 162 0 243-79 243-236 0-165-82-247-246-247" id="t"/><path d="M502-977c-130 0-238 32-238 139 0 75 39 101 95 134 33 19 97 46 192 81 130 48 217 95 263 143s69 108 69 181C883-73 695 20 449 20 304 20 190-3 109-49v-154c91 47 216 86 344 86 149 0 270-36 270-168 0-43-21-76-55-109-56-55-367-158-434-208-74-55-128-109-128-225 0-327 490-342 754-217l-59 135c-110-45-210-68-299-68" id="u"/><path d="M354-322c-2 123 60 204 176 205 51 1 114-10 150-20v127C647 7 557 20 506 20 294 20 188-92 188-315v-652H31v-80l157-69 70-234h96v254h318v129H354v645" id="v"/><path d="M588-1114c260 0 384 106 385 366V0H850l-33-156h-8C708-34 639 17 442 20 231 23 94-94 94-303c0-221 177-337 531-348l186-6c11-203-40-320-233-320-91 0-195 28-310 84l-51-127c97-53 229-94 371-94zM268-301c-1 123 81 184 207 184 203 0 334-120 332-323v-99c-257 14-539-7-539 238" id="w"/><path d="M690-1114c271 2 402 123 402 399V0H926v-709c-1-177-76-266-252-266-251 0-332 135-332 402V0H176v-1556h166c-4 200 8 426-8 612h10c61-100 187-171 346-170" id="x"/><path d="M223-1462c182 213 301 524 301 901 0 373-119 679-301 885H63c166-222 287-526 287-887 0-369-117-672-289-899h162" id="y"/><g id="b"><use transform="matrix(0.008680555555555556,0,0,0.008680555555555556,0,0)" xlink:href="#q"/><use transform="matrix(0.008680555555555556,0,0,0.008680555555555556,5.260416666666667,0)" xlink:href="#r"/><use transform="matrix(0.008680555555555556,0,0,0.008680555555555556,14.487847222222221,0)" xlink:href="#s"/><use transform="matrix(0.008680555555555556,0,0,0.008680555555555556,25.225694444444443,0)" xlink:href="#t"/><use transform="matrix(0.008680555555555556,0,0,0.008680555555555556,34.96527777777778,0)" xlink:href="#u"/><use transform="matrix(0.008680555555555556,0,0,0.008680555555555556,43.44618055555556,0)" xlink:href="#v"/><use transform="matrix(0.008680555555555556,0,0,0.008680555555555556,49.72222222222222,0)" xlink:href="#w"/><use transform="matrix(0.008680555555555556,0,0,0.008680555555555556,59.609375,0)" xlink:href="#u"/><use transform="matrix(0.008680555555555556,0,0,0.008680555555555556,68.09027777777777,0)" xlink:href="#x"/><use transform="matrix(0.008680555555555556,0,0,0.008680555555555556,79.0017361111111,0)" xlink:href="#y"/></g><path d="M1016 0H201v-1462h815v151H371v471h606v150H371v538h645V0" id="z"/><path d="M342 0H176v-1556h166V0" id="A"/><path d="M342 0H176v-1096h166V0zm-82-1282c-61 0-98-43-98-111 0-69 36-110 98-110 59 0 98 43 98 110s-39 111-98 111" id="B"/><path d="M287-543c-1 247 91 418 323 418 91 0 185-20 281-59v147C818 1 725 20 614 20c-329 0-499-221-499-561 0-349 172-575 510-575 96 0 221 26 282 57l-51 141c-61-25-157-50-235-51-223 0-334 142-334 426" id="C"/><g id="c"><use transform="matrix(0.0087890625,0,0,0.0087890625,0,0)" xlink:href="#z"/><use transform="matrix(0.0087890625,0,0,0.0087890625,10.0107421875,0)" xlink:href="#A"/><use transform="matrix(0.0087890625,0,0,0.0087890625,14.5634765625,0)" xlink:href="#w"/><use transform="matrix(0.0087890625,0,0,0.0087890625,24.57421875,0)" xlink:href="#u"/><use transform="matrix(0.0087890625,0,0,0.0087890625,33.1611328125,0)" xlink:href="#v"/><use transform="matrix(0.0087890625,0,0,0.0087890625,39.515625,0)" xlink:href="#B"/><use transform="matrix(0.0087890625,0,0,0.0087890625,44.068359375,0)" xlink:href="#C"/></g><g id="d"><use transform="matrix(0.0087890625,0,0,0.0087890625,0,0)" xlink:href="#m"/><use transform="matrix(0.0087890625,0,0,0.0087890625,9.87890625,0)" xlink:href="#n"/><use transform="matrix(0.0087890625,0,0,0.0087890625,19.9775390625,0)" xlink:href="#w"/><use transform="matrix(0.0087890625,0,0,0.0087890625,29.98828125,0)" xlink:href="#o"/><use transform="matrix(0.0087890625,0,0,0.0087890625,36.9755859375,0)" xlink:href="#C"/><use transform="matrix(0.0087890625,0,0,0.0087890625,45.544921875,0)" xlink:href="#x"/></g><g id="e"><use transform="matrix(0.0087890625,0,0,0.0087890625,0,0)" xlink:href="#q"/><use transform="matrix(0.0087890625,0,0,0.0087890625,5.326171875,0)" xlink:href="#m"/><use transform="matrix(0.0087890625,0,0,0.0087890625,15.205078125,0)" xlink:href="#v"/><use transform="matrix(0.0087890625,0,0,0.0087890625,21.5595703125,0)" xlink:href="#s"/><use transform="matrix(0.0087890625,0,0,0.0087890625,32.431640625,0)" xlink:href="#o"/><use transform="matrix(0.0087890625,0,0,0.0087890625,39.4189453125,0)" xlink:href="#n"/></g><path d="M731-1462L186 0H20l545-1462h166" id="D"/><use transform="matrix(0.0087890625,0,0,0.0087890625,0,0)" xlink:href="#D" id="f"/><path d="M1120 0L938-465H352L172 0H0l578-1468h143L1296 0h-176zM885-618c-81-228-168-420-238-664-57 230-159 449-235 664h473" id="E"/><path d="M694-1116c270 0 399 125 398 401V0H926v-709c-1-177-76-266-252-266-250 0-332 133-332 400V0H176v-1096h135l27 150h8c62-101 190-170 348-170" id="F"/><path d="M526-162c88-293 120-356 326-934h178L559 152c-47 123-102 209-163 262-93 80-237 94-380 61V342c184 39 305-9 367-180L444 6 2-1096h178c103 283 263 645 338 934h8" id="G"/><path d="M877 0H82v-113l598-854H119v-129h743v129L272-129h605V0" id="H"/><g id="g"><use transform="matrix(0.0087890625,0,0,0.0087890625,0,0)" xlink:href="#E"/><use transform="matrix(0.0087890625,0,0,0.0087890625,11.390625,0)" xlink:href="#F"/><use transform="matrix(0.0087890625,0,0,0.0087890625,22.4384765625,0)" xlink:href="#w"/><use transform="matrix(0.0087890625,0,0,0.0087890625,32.44921875,0)" xlink:href="#A"/><use transform="matrix(0.0087890625,0,0,0.0087890625,37.001953125,0)" xlink:href="#G"/><use transform="matrix(0.0087890625,0,0,0.0087890625,46.072265625,0)" xlink:href="#H"/><use transform="matrix(0.0087890625,0,0,0.0087890625,54.4921875,0)" xlink:href="#n"/><use transform="matrix(0.0087890625,0,0,0.0087890625,64.5908203125,0)" xlink:href="#y"/></g><path d="M1257 0h-200L524-709 371-573V0H201v-1462h170v725l663-725h201L647-827" id="I"/><path d="M686 20c-159 0-273-61-344-161h-12L295 0H176v-1556h166c-2 198 6 423-8 606h8c77-109 192-164 344-164 310 0 455 234 455 565 0 329-147 569-455 569zm283-571c0-257-72-424-307-424-256 0-320 146-320 426s68 430 324 430c228 0 303-184 303-432" id="J"/><g id="h"><use transform="matrix(0.0087890625,0,0,0.0087890625,0,0)" xlink:href="#I"/><use transform="matrix(0.0087890625,0,0,0.0087890625,11.0478515625,0)" xlink:href="#B"/><use transform="matrix(0.0087890625,0,0,0.0087890625,15.6005859375,0)" xlink:href="#J"/><use transform="matrix(0.0087890625,0,0,0.0087890625,26.630859375,0)" xlink:href="#w"/><use transform="matrix(0.0087890625,0,0,0.0087890625,36.6416015625,0)" xlink:href="#F"/><use transform="matrix(0.0087890625,0,0,0.0087890625,47.689453125,0)" xlink:href="#w"/></g><path d="M649-1462c450-4 719 268 719 717 0 484-276 748-762 745H201v-1462h448zM578-147c400 1 610-197 610-592 1-379-192-576-570-576H371v1168h207" id="K"/><path d="M115-545c0-330 146-571 454-571 149 0 263 54 342 162h13c-20-185-8-401-11-602h166V0H944l-22-147h-9C836-36 722 20 569 20c-309 0-454-234-454-565zm172 2c0 249 78 424 303 424 257 0 327-150 323-426-4-282-68-432-325-432-220 0-301 191-301 434" id="L"/><g id="i"><use transform="matrix(0.0087890625,0,0,0.0087890625,0,0)" xlink:href="#q"/><use transform="matrix(0.0087890625,0,0,0.0087890625,5.326171875,0)" xlink:href="#K"/><use transform="matrix(0.0087890625,0,0,0.0087890625,18.4482421875,0)" xlink:href="#w"/><use transform="matrix(0.0087890625,0,0,0.0087890625,28.458984375,0)" xlink:href="#u"/><use transform="matrix(0.0087890625,0,0,0.0087890625,37.0458984375,0)" xlink:href="#x"/><use transform="matrix(0.0087890625,0,0,0.0087890625,48.09375,0)" xlink:href="#J"/><use transform="matrix(0.0087890625,0,0,0.0087890625,59.1240234375,0)" xlink:href="#s"/><use transform="matrix(0.0087890625,0,0,0.0087890625,69.99609375,0)" xlink:href="#w"/><use transform="matrix(0.0087890625,0,0,0.0087890625,80.0068359375,0)" xlink:href="#o"/><use transform="matrix(0.0087890625,0,0,0.0087890625,86.994140625,0)" xlink:href="#L"/><use transform="matrix(0.0087890625,0,0,0.0087890625,98.0244140625,0)" xlink:href="#y"/></g><path d="M125-733c6-459 248-750 704-750 153 0 287 28 402 84l-72 146c-111-52-221-78-332-78-334-1-520 251-520 600 0 361 171 600 518 600 102 0 218-18 349-55v149C1073 1 948 20 799 20c-445 1-680-294-674-753" id="M"/><g id="j"><use transform="matrix(0.0087890625,0,0,0.0087890625,0,0)" xlink:href="#M"/><use transform="matrix(0.0087890625,0,0,0.0087890625,11.35546875,0)" xlink:href="#w"/><use transform="matrix(0.0087890625,0,0,0.0087890625,21.3662109375,0)" xlink:href="#C"/><use transform="matrix(0.0087890625,0,0,0.0087890625,29.935546875,0)" xlink:href="#x"/><use transform="matrix(0.0087890625,0,0,0.0087890625,40.9833984375,0)" xlink:href="#n"/></g><g id="k"><use transform="matrix(0.0087890625,0,0,0.0087890625,0,0)" xlink:href="#m"/><use transform="matrix(0.0087890625,0,0,0.0087890625,9.87890625,0)" xlink:href="#n"/><use transform="matrix(0.0087890625,0,0,0.0087890625,19.9775390625,0)" xlink:href="#o"/><use transform="matrix(0.0087890625,0,0,0.0087890625,27.3251953125,0)" xlink:href="#p"/><use transform="matrix(0.0087890625,0,0,0.0087890625,36.3427734375,0)" xlink:href="#n"/><use transform="matrix(0.0087890625,0,0,0.0087890625,46.44140625,0)" xlink:href="#o"/></g><path d="M801-1485c433 0 669 306 669 752S1232 20 799 20c-445 0-674-297-674-755 0-456 232-750 676-750zm0 152c-345 0-496 236-496 600 0 367 148 604 494 604 348 0 491-235 491-604 0-366-143-600-489-600" id="N"/><path d="M1141-549c0 329-147 569-455 569-159 0-273-61-344-161h-12c23 199 7 418 12 633H176v-1588h135l23 150h8c77-108 175-170 344-170 311 0 455 237 455 567zm-172-2c0-242-88-424-307-424-256 0-323 154-320 426 3 280 68 430 324 430 213 0 303-196 303-432" id="O"/><g id="l"><use transform="matrix(0.0087890625,0,0,0.0087890625,0,0)" xlink:href="#q"/><use transform="matrix(0.0087890625,0,0,0.0087890625,5.326171875,0)" xlink:href="#N"/><use transform="matrix(0.0087890625,0,0,0.0087890625,19.3447265625,0)" xlink:href="#O"/><use transform="matrix(0.0087890625,0,0,0.0087890625,30.375,0)" xlink:href="#v"/><use transform="matrix(0.0087890625,0,0,0.0087890625,36.7294921875,0)" xlink:href="#B"/><use transform="matrix(0.0087890625,0,0,0.0087890625,41.2822265625,0)" xlink:href="#s"/><use transform="matrix(0.0087890625,0,0,0.0087890625,52.154296875,0)" xlink:href="#F"/><use transform="matrix(0.0087890625,0,0,0.0087890625,63.2021484375,0)" xlink:href="#w"/><use transform="matrix(0.0087890625,0,0,0.0087890625,73.212890625,0)" xlink:href="#A"/><use transform="matrix(0.0087890625,0,0,0.0087890625,77.765625,0)" xlink:href="#y"/></g></defs></g></svg>