<?xml version="1.0" encoding="UTF-8" standalone="no"?>
<!DOCTYPE svg PUBLIC "-//W3C//DTD SVG 1.1//EN" "http://www.w3.org/Graphics/SVG/1.1/DTD/svg11.dtd">
<!-- Generated by Microsoft Visio, SVG Export bgp-with-floating-ips.svg Page-14 -->
<svg xmlns="http://www.w3.org/2000/svg" xmlns:xlink="http://www.w3.org/1999/xlink" xmlns:ev="http://www.w3.org/2001/xml-events"
		xmlns:v="http://schemas.microsoft.com/visio/2003/SVGExtensions/" width="11in" height="16.5in" viewBox="0 0 792 1188"
		xml:space="preserve" color-interpolation-filters="sRGB" class="st29">
	<v:documentProperties v:langID="1033" v:viewMarkup="false">
		<v:userDefs>
			<v:ud v:nameU="msvNoAutoConnect" v:val="VT0(0):26"/>
			<v:ud v:nameU="msvConvertTheme"/>
		</v:userDefs>
	</v:documentProperties>

	<style type="text/css">
	<![CDATA[
		.st1 {stroke:#595959;stroke-linecap:round;stroke-linejoin:round;stroke-width:1.5}
		.st2 {stroke:#7e649e;stroke-linecap:round;stroke-linejoin:round;stroke-width:1.5}
		.st3 {stroke:#d9958f;stroke-linecap:round;stroke-linejoin:round;stroke-width:1.5}
		.st4 {stroke:#00b0f0;stroke-linecap:round;stroke-linejoin:round;stroke-width:1.5}
		.st5 {fill:#ffffff;stroke:#000000;stroke-linecap:round;stroke-linejoin:round;stroke-width:0.75}
		.st6 {fill:#000000;font-family:Calibri;font-size:1.00001em;font-weight:bold}
		.st7 {font-size:1em}
		.st8 {stroke:#000000;stroke-dasharray:5.25,3.75;stroke-linecap:round;stroke-linejoin:round;stroke-width:0.75}
		.st9 {fill:#ffffff;stroke:none;stroke-linecap:butt;stroke-width:7.2}
		.st10 {fill:#000000;font-family:Calibri;font-size:0.833336em;font-weight:bold}
		.st11 {fill:none;stroke:none;stroke-linecap:round;stroke-linejoin:round;stroke-width:0.75}
		.st12 {fill:#000000;font-family:Calibri;font-size:0.833336em}
		.st13 {font-size:1em;text-decoration:underline}
		.st14 {fill:#ffffff;fill-opacity:0.8;stroke:none;stroke-linecap:round;stroke-linejoin:round;stroke-width:0.75}
		.st15 {fill:#00b0f0;font-family:Calibri;font-size:1.00001em;font-weight:bold}
		.st16 {fill:#d9958f;font-family:Calibri;font-size:1.00001em;font-weight:bold}
		.st17 {fill:#ff00ff;fill-opacity:0;stroke:#000000;stroke-linecap:round;stroke-linejoin:round;stroke-opacity:0;stroke-width:0.72}
		.st18 {fill:url(#grad0-55);stroke:#ffffff;stroke-linecap:round;stroke-linejoin:round;stroke-width:0.72}
		.st19 {fill:#ff0000;stroke:#000000;stroke-linecap:round;stroke-linejoin:round;stroke-width:0.24}
		.st20 {fill:#eaeff5;stroke:#000000;stroke-linecap:round;stroke-linejoin:round;stroke-width:0.72}
		.st21 {stroke:#000000;stroke-linecap:round;stroke-linejoin:round;stroke-width:1.5}
		.st22 {fill:#7e649e;font-family:Calibri;font-size:1.00001em;font-weight:bold}
		.st23 {fill:#ffffff}
		.st24 {stroke:#000000;stroke-linecap:round;stroke-linejoin:round;stroke-width:0.24}
		.st25 {marker-start:url(#mrkr4-143);stroke:#595959;stroke-dasharray:5.25,3.75,0,3.75;stroke-linecap:round;stroke-linejoin:round;stroke-width:0.75}
		.st26 {fill:#595959;fill-opacity:1;stroke:#595959;stroke-opacity:1;stroke-width:0.22935779816514}
		.st27 {fill:#ffffff;stroke:#595959;stroke-linecap:round;stroke-linejoin:round;stroke-width:0.75}
		.st28 {fill:#000000;font-family:Calibri;font-size:0.666664em}
		.st29 {fill:none;fill-rule:evenodd;font-size:12px;overflow:visible;stroke-linecap:square;stroke-miterlimit:3}
	]]>
	</style>

	<defs id="Patterns_And_Gradients">
		<linearGradient id="grad0-55" x1="0" y1="0" x2="1" y2="0" gradientTransform="rotate(270 0.5 0.5)">
			<stop offset="0" stop-color="#eaeff5" stop-opacity="1"/>
			<stop offset="1" stop-color="#dfdfdf" stop-opacity="1"/>
		</linearGradient>
	</defs>
	<defs id="Markers">
		<g id="lend4">
			<path d="M 2 1 L 0 0 L 2 -1 L 2 1 " style="stroke:none"/>
		</g>
		<marker id="mrkr4-143" class="st26" v:arrowType="4" v:arrowSize="2" v:setback="8.24" refX="8.24" orient="auto"
				markerUnits="strokeWidth" overflow="visible">
			<use xlink:href="#lend4" transform="scale(4.36) "/>
		</marker>
	</defs>
	<g v:mID="17" v:index="14" v:groupContext="foregroundPage">
		<title>Page-14</title>
		<v:pageProperties v:drawingScale="1" v:pageScale="1" v:drawingUnits="0" v:shadowOffsetX="9" v:shadowOffsetY="-9"/>
		<v:layer v:name="Connector" v:index="0"/>
		<g id="shape233-1" v:mID="233" v:groupContext="shape" transform="translate(-799.172,346.488) rotate(-90.3901)">
			<title>Sheet.233</title>
			<path d="M0 1188 L126.23 1188" class="st1"/>
		</g>
		<g id="shape213-4" v:mID="213" v:groupContext="shape" transform="translate(532.8,-561.6)">
			<title>Sheet.213</title>
			<path d="M0 1188 L86.4 1188" class="st2"/>
		</g>
		<g id="shape210-7" v:mID="210" v:groupContext="shape" transform="translate(1404,568.8) rotate(90)">
			<title>Sheet.210</title>
			<path d="M0 1188 L57.6 1188" class="st3"/>
		</g>
		<g id="shape135-10" v:mID="135" v:groupContext="shape" transform="translate(1764,468) rotate(90)">
			<title>Sheet.135</title>
			<path d="M0 1188 L81.22 1188" class="st4"/>
		</g>
		<g id="shape132-13" v:mID="132" v:groupContext="shape" transform="translate(388.8,-720)">
			<title>Sheet.132</title>
			<path d="M0 1065.6 L0 1188 L187.2 1188" class="st4"/>
		</g>
		<g id="shape108-16" v:mID="108" v:groupContext="shape" transform="translate(1.44,-828)">
			<title>Sheet.108</title>
			<desc>Neutron BGP Dynamic Routing Agent</desc>
			<v:textBlock v:margins="rect(4,4,4,4)"/>
			<v:textRect cx="59.76" cy="1166.4" width="119.52" height="43.2"/>
			<rect x="0" y="1144.8" width="119.52" height="43.2" class="st5"/>
			<text x="4.15" y="1162.8" class="st6" v:langID="1033"><v:paragraph v:horizAlign="1"/><v:tabList/>Neutron BGP Dynamic <tspan
						x="24.16" dy="1.2em" class="st7">Routing Agent</tspan></text>		</g>
		<g id="shape119-20" v:mID="119" v:groupContext="shape" transform="translate(120.96,-849.6)">
			<title>Sheet.119</title>
			<desc>BGP Peering Session</desc>
			<v:textBlock v:margins="rect(4,4,4,4)"/>
			<v:textRect cx="133.92" cy="1188" width="267.85" height="0"/>
			<path d="M0 1188 L267.84 1188" class="st8"/>
			<rect v:rectContext="textBkgnd" x="91.7864" y="1182" width="84.2673" height="12.0001" class="st9"/>
			<text x="91.79" y="1191" class="st10" v:langID="1033"><v:paragraph v:horizAlign="1"/><v:tabList/>BGP Peering Session</text>		</g>
		<g id="shape121-25" v:mID="121" v:groupContext="shape" transform="translate(172.8,-861.542)">
			<title>Sheet.121</title>
			<desc>BGP Announcements Destination Next Hop 172.24.4.21/32 172.24....</desc>
			<v:textBlock v:margins="rect(4,4,4,4)"/>
			<v:textRect cx="64.8" cy="1150.77" width="129.6" height="74.4578"/>
			<rect x="0" y="1113.54" width="129.6" height="74.4578" class="st11"/>
			<text x="21.83" y="1129.77" class="st12" v:langID="1033"><v:paragraph v:horizAlign="1"/><v:tabList/>BGP Announcements<v:newlineChar/><v:newlineChar/><tspan
						x="9.73" dy="2.4em" class="st13">Destination<v:tabChar/></tspan><tspan dx="2.51em" class="st13">Next Hop<v:newlineChar/></tspan><tspan
						x="7.27" dy="1.2em" class="st7">172</tspan>.24.4.21/32<v:tabChar/><tspan dx="0.988em" class="st7">172</tspan>.24.4.3<v:newlineChar/><tspan
						x="7.27" dy="1.2em" class="st7">172</tspan>.24.4.43/32<v:tabChar/><tspan dx="0.988em" class="st7">172</tspan>.24.4.4</text>		</g>
		<g id="shape133-34" v:mID="133" v:groupContext="shape" transform="translate(388.8,1656) rotate(180)">
			<title>Sheet.133</title>
			<path d="M0 1188 L172.8 1188" class="st4"/>
		</g>
		<g id="shape134-37" v:mID="134" v:groupContext="shape" transform="translate(1403.99,471.576) rotate(90.1725)">
			<title>Sheet.134</title>
			<path d="M0 1188 L82.68 1188" class="st4"/>
		</g>
		<g id="shape136-40" v:mID="136" v:groupContext="shape" transform="translate(345.6,-712.8)">
			<title>Sheet.136</title>
			<desc>172.24.4.0/24</desc>
			<v:textBlock v:margins="rect(4,4,4,4)"/>
			<v:textRect cx="43.2" cy="1180.8" width="86.4" height="14.4"/>
			<rect x="0" y="1173.6" width="86.4" height="14.4" class="st14"/>
			<text x="8.45" y="1184.4" class="st15" v:langID="1033"><v:paragraph v:horizAlign="1"/><v:tabList/>172.24.4.0/24</text>		</g>
		<g id="shape179-43" v:mID="179" v:groupContext="shape" transform="translate(162.72,-532.8)">
			<title>Sheet.179</title>
			<desc>15.21.64.0/21</desc>
			<v:textBlock v:margins="rect(4,4,4,4)"/>
			<v:textRect cx="53.28" cy="1173.6" width="106.56" height="28.8"/>
			<rect x="0" y="1159.2" width="106.56" height="28.8" class="st11"/>
			<text x="18.53" y="1177.2" class="st16" v:langID="1033"><v:paragraph v:horizAlign="1"/><v:tabList/>15.21.64.0/21</text>		</g>
		<g id="shape212-46" v:mID="212" v:groupContext="shape" transform="translate(1764,590.824) rotate(90)">
			<title>Sheet.212</title>
			<path d="M0 1188 L35.58 1188" class="st2"/>
		</g>
		<g id="group180-49" transform="translate(547.2,-590.4)" v:mID="180" v:groupContext="group">
			<v:custProps>
				<v:cp v:nameU="ShapeClass" v:lbl="ShapeClass" v:type="0" v:invis="true" v:ask="false" v:langID="1033"
						v:val="VT4(Equipment)"/>
				<v:cp v:nameU="ShapeType" v:lbl="ShapeType" v:type="0" v:invis="true" v:ask="false" v:langID="1033"
						v:val="VT4(Device)"/>
				<v:cp v:nameU="SubShapeType" v:lbl="SubShapeType" v:type="0" v:invis="true" v:ask="false" v:langID="1033"
						v:val="VT4(Switch)"/>
				<v:cp v:nameU="Manufacturer" v:lbl="Manufacturer" v:type="0" v:sortKey="Equipment" v:invis="false" v:ask="false"
						v:langID="1033"/>
				<v:cp v:nameU="ProductNumber" v:lbl="Product Number" v:type="0" v:sortKey="Equipment" v:invis="false" v:ask="false"
						v:langID="1033"/>
				<v:cp v:nameU="PartNumber" v:lbl="Part Number" v:type="0" v:sortKey="Equipment" v:invis="false" v:ask="false"
						v:langID="1033"/>
				<v:cp v:nameU="ProductDescription" v:lbl="Product Description" v:type="0" v:sortKey="Equipment" v:invis="false"
						v:ask="false" v:langID="1033"/>
				<v:cp v:nameU="AssetNumber" v:lbl="Asset Number" v:type="0" v:sortKey="Asset" v:invis="false" v:ask="false"
						v:langID="1033"/>
				<v:cp v:nameU="SerialNumber" v:lbl="Serial Number" v:type="0" v:sortKey="Asset" v:invis="false" v:ask="false"
						v:langID="1033"/>
				<v:cp v:nameU="Location" v:lbl="Location" v:type="0" v:sortKey="Asset" v:invis="false" v:ask="false"
						v:langID="1033"/>
				<v:cp v:nameU="Building" v:lbl="Building" v:type="0" v:sortKey="Asset" v:invis="false" v:ask="false"
						v:langID="1033"/>
				<v:cp v:nameU="Room" v:lbl="Room" v:type="0" v:sortKey="Asset" v:invis="false" v:ask="false" v:langID="1033"/>
				<v:cp v:nameU="NetworkName" v:lbl="Network Name" v:type="0" v:sortKey="Network" v:invis="false" v:ask="false"
						v:langID="1033"/>
				<v:cp v:nameU="IPAddress" v:lbl="IP Address" v:type="0" v:sortKey="Network" v:invis="false" v:ask="false"
						v:langID="1033"/>
				<v:cp v:nameU="SubnetMask" v:lbl="Subnet Mask" v:type="0" v:sortKey="Network" v:invis="false" v:ask="false"
						v:langID="1033"/>
				<v:cp v:nameU="AdminInterface" v:lbl="Administrative Interface" v:type="0" v:sortKey="Network" v:invis="false"
						v:ask="false" v:langID="1033"/>
				<v:cp v:nameU="NumberOfPorts" v:lbl="Number of Ports" v:type="0" v:sortKey="Network" v:invis="false" v:ask="false"
						v:langID="1033"/>
				<v:cp v:nameU="MACAddress" v:lbl="MAC Address" v:type="0" v:sortKey="Network" v:invis="false" v:ask="false"
						v:langID="1033"/>
				<v:cp v:nameU="CommunityString" v:lbl="Community String" v:type="0" v:sortKey="Network" v:invis="false"
						v:ask="false" v:langID="1033"/>
				<v:cp v:nameU="NetworkDescription" v:lbl="Network Description" v:type="0" v:sortKey="Network" v:invis="false"
						v:ask="false" v:langID="1033"/>
			</v:custProps>
			<v:userDefs>
				<v:ud v:nameU="HasText" v:val="VT0(0):5"/>
				<v:ud v:nameU="ShapeClass" v:val="VT0(5):26"/>
				<v:ud v:nameU="ShapeType" v:val="VT0(8):26"/>
				<v:ud v:nameU="SubShapeType" v:val="VT0(66):26"/>
				<v:ud v:nameU="visLegendShape" v:val="VT0(2):26"/>
				<v:ud v:nameU="SolSH" v:val="VT15({BF0433D9-CD73-4EB5-8390-8653BE590246}):41"/>
				<v:ud v:nameU="visVersion" v:prompt="" v:val="VT0(15):26"/>
			</v:userDefs>
			<title>Router.180</title>
			<g id="shape181-50" v:mID="181" v:groupContext="shape">
				<title>Sheet.181</title>
				<path d="M57.6 1147.68 A28.8 17.28 -180 1 0 0 1147.68 L0 1170.72 A28.8 17.28 -180 1 0 57.6 1170.72 L57.6 1147.68 Z"
						class="st17"/>
			</g>
			<g id="shape182-52" v:mID="182" v:groupContext="shape" transform="translate(0,-23.04)">
				<title>Sheet.182</title>
				<ellipse cx="28.8" cy="1170.72" rx="28.8" ry="17.28" class="st18"/>
			</g>
			<g id="shape183-56" v:mID="183" v:groupContext="shape" transform="translate(48.5038,-40.32) scale(-1,1)">
				<title>Sheet.183</title>
				<path d="M0 1184.69 L0 1176.62 L13.97 1176.62 L8.23 1179.94 L19.7 1186.56 L17.21 1188 L5.74 1181.38 L0 1184.69 Z"
						class="st19"/>
			</g>
			<g id="shape184-58" v:mID="184" v:groupContext="shape" transform="translate(7.84911,-40.32)">
				<title>Sheet.184</title>
				<path d="M20.95 1179.94 L19.7 1187.28 L6.98 1188 L12.72 1184.69 L0 1177.34 L2.49 1175.9 L15.21 1183.25 L20.95 1179.94
							 Z" class="st19"/>
			</g>
			<g id="shape185-60" v:mID="185" v:groupContext="shape" transform="translate(28.8,-28.224)">
				<title>Sheet.185</title>
				<path d="M0 1183.97 L1.25 1176.62 L13.97 1175.9 L8.23 1179.22 L20.95 1186.56 L18.46 1188 L5.74 1180.66 L0 1183.97
							 Z" class="st19"/>
			</g>
			<g id="shape186-62" v:mID="186" v:groupContext="shape" transform="translate(9.09619,2335.68) scale(1,-1)">
				<title>Sheet.186</title>
				<path d="M0 1184.69 L0 1176.62 L13.97 1176.62 L8.23 1179.94 L19.7 1186.56 L17.21 1188 L5.74 1181.38 L0 1184.69 Z"
						class="st19"/>
			</g>
			<g id="shape187-64" v:mID="187" v:groupContext="shape">
				<title>Sheet.187</title>
				<path d="M0 1147.68 L0 1170.72 A28.8 17.28 -180 1 0 57.6 1170.72 L57.6 1147.68 A28.8 17.28 0 1 1 0 1147.68 Z"
						class="st20"/>
			</g>
			<g id="shape188-66" v:mID="188" v:groupContext="shape">
				<title>Sheet.188</title>
				<path d="M57.6 1147.68 A28.8 17.28 -180 1 0 0 1147.68 L0 1170.72 A28.8 17.28 -180 1 0 57.6 1170.72 L57.6 1147.68"
						class="st21"/>
			</g>
		</g>
		<g id="group189-69" transform="translate(187.2,-590.4)" v:mID="189" v:groupContext="group">
			<v:custProps>
				<v:cp v:nameU="ShapeClass" v:lbl="ShapeClass" v:type="0" v:invis="true" v:ask="false" v:langID="1033"
						v:val="VT4(Equipment)"/>
				<v:cp v:nameU="ShapeType" v:lbl="ShapeType" v:type="0" v:invis="true" v:ask="false" v:langID="1033"
						v:val="VT4(Device)"/>
				<v:cp v:nameU="SubShapeType" v:lbl="SubShapeType" v:type="0" v:invis="true" v:ask="false" v:langID="1033"
						v:val="VT4(Switch)"/>
				<v:cp v:nameU="Manufacturer" v:lbl="Manufacturer" v:type="0" v:sortKey="Equipment" v:invis="false" v:ask="false"
						v:langID="1033"/>
				<v:cp v:nameU="ProductNumber" v:lbl="Product Number" v:type="0" v:sortKey="Equipment" v:invis="false" v:ask="false"
						v:langID="1033"/>
				<v:cp v:nameU="PartNumber" v:lbl="Part Number" v:type="0" v:sortKey="Equipment" v:invis="false" v:ask="false"
						v:langID="1033"/>
				<v:cp v:nameU="ProductDescription" v:lbl="Product Description" v:type="0" v:sortKey="Equipment" v:invis="false"
						v:ask="false" v:langID="1033"/>
				<v:cp v:nameU="AssetNumber" v:lbl="Asset Number" v:type="0" v:sortKey="Asset" v:invis="false" v:ask="false"
						v:langID="1033"/>
				<v:cp v:nameU="SerialNumber" v:lbl="Serial Number" v:type="0" v:sortKey="Asset" v:invis="false" v:ask="false"
						v:langID="1033"/>
				<v:cp v:nameU="Location" v:lbl="Location" v:type="0" v:sortKey="Asset" v:invis="false" v:ask="false"
						v:langID="1033"/>
				<v:cp v:nameU="Building" v:lbl="Building" v:type="0" v:sortKey="Asset" v:invis="false" v:ask="false"
						v:langID="1033"/>
				<v:cp v:nameU="Room" v:lbl="Room" v:type="0" v:sortKey="Asset" v:invis="false" v:ask="false" v:langID="1033"/>
				<v:cp v:nameU="NetworkName" v:lbl="Network Name" v:type="0" v:sortKey="Network" v:invis="false" v:ask="false"
						v:langID="1033"/>
				<v:cp v:nameU="IPAddress" v:lbl="IP Address" v:type="0" v:sortKey="Network" v:invis="false" v:ask="false"
						v:langID="1033"/>
				<v:cp v:nameU="SubnetMask" v:lbl="Subnet Mask" v:type="0" v:sortKey="Network" v:invis="false" v:ask="false"
						v:langID="1033"/>
				<v:cp v:nameU="AdminInterface" v:lbl="Administrative Interface" v:type="0" v:sortKey="Network" v:invis="false"
						v:ask="false" v:langID="1033"/>
				<v:cp v:nameU="NumberOfPorts" v:lbl="Number of Ports" v:type="0" v:sortKey="Network" v:invis="false" v:ask="false"
						v:langID="1033"/>
				<v:cp v:nameU="MACAddress" v:lbl="MAC Address" v:type="0" v:sortKey="Network" v:invis="false" v:ask="false"
						v:langID="1033"/>
				<v:cp v:nameU="CommunityString" v:lbl="Community String" v:type="0" v:sortKey="Network" v:invis="false"
						v:ask="false" v:langID="1033"/>
				<v:cp v:nameU="NetworkDescription" v:lbl="Network Description" v:type="0" v:sortKey="Network" v:invis="false"
						v:ask="false" v:langID="1033"/>
			</v:custProps>
			<v:userDefs>
				<v:ud v:nameU="HasText" v:val="VT0(0):5"/>
				<v:ud v:nameU="ShapeClass" v:val="VT0(5):26"/>
				<v:ud v:nameU="ShapeType" v:val="VT0(8):26"/>
				<v:ud v:nameU="SubShapeType" v:val="VT0(66):26"/>
				<v:ud v:nameU="visLegendShape" v:val="VT0(2):26"/>
				<v:ud v:nameU="SolSH" v:val="VT15({BF0433D9-CD73-4EB5-8390-8653BE590246}):41"/>
				<v:ud v:nameU="visVersion" v:prompt="" v:val="VT0(15):26"/>
			</v:userDefs>
			<title>Router.189</title>
			<g id="shape190-70" v:mID="190" v:groupContext="shape">
				<title>Sheet.190</title>
				<path d="M57.6 1147.68 A28.8 17.28 -180 1 0 0 1147.68 L0 1170.72 A28.8 17.28 -180 1 0 57.6 1170.72 L57.6 1147.68 Z"
						class="st17"/>
			</g>
			<g id="shape191-72" v:mID="191" v:groupContext="shape" transform="translate(0,-23.04)">
				<title>Sheet.191</title>
				<ellipse cx="28.8" cy="1170.72" rx="28.8" ry="17.28" class="st18"/>
			</g>
			<g id="shape192-75" v:mID="192" v:groupContext="shape" transform="translate(48.5038,-40.32) scale(-1,1)">
				<title>Sheet.192</title>
				<path d="M0 1184.69 L0 1176.62 L13.97 1176.62 L8.23 1179.94 L19.7 1186.56 L17.21 1188 L5.74 1181.38 L0 1184.69 Z"
						class="st19"/>
			</g>
			<g id="shape193-77" v:mID="193" v:groupContext="shape" transform="translate(7.84911,-40.32)">
				<title>Sheet.193</title>
				<path d="M20.95 1179.94 L19.7 1187.28 L6.98 1188 L12.72 1184.69 L0 1177.34 L2.49 1175.9 L15.21 1183.25 L20.95 1179.94
							 Z" class="st19"/>
			</g>
			<g id="shape194-79" v:mID="194" v:groupContext="shape" transform="translate(28.8,-28.224)">
				<title>Sheet.194</title>
				<path d="M0 1183.97 L1.25 1176.62 L13.97 1175.9 L8.23 1179.22 L20.95 1186.56 L18.46 1188 L5.74 1180.66 L0 1183.97
							 Z" class="st19"/>
			</g>
			<g id="shape195-81" v:mID="195" v:groupContext="shape" transform="translate(9.09619,2335.68) scale(1,-1)">
				<title>Sheet.195</title>
				<path d="M0 1184.69 L0 1176.62 L13.97 1176.62 L8.23 1179.94 L19.7 1186.56 L17.21 1188 L5.74 1181.38 L0 1184.69 Z"
						class="st19"/>
			</g>
			<g id="shape196-83" v:mID="196" v:groupContext="shape">
				<title>Sheet.196</title>
				<path d="M0 1147.68 L0 1170.72 A28.8 17.28 -180 1 0 57.6 1170.72 L57.6 1147.68 A28.8 17.28 0 1 1 0 1147.68 Z"
						class="st20"/>
			</g>
			<g id="shape197-85" v:mID="197" v:groupContext="shape">
				<title>Sheet.197</title>
				<path d="M57.6 1147.68 A28.8 17.28 -180 1 0 0 1147.68 L0 1170.72 A28.8 17.28 -180 1 0 57.6 1170.72 L57.6 1147.68"
						class="st21"/>
			</g>
		</g>
		<g id="shape211-88" v:mID="211" v:groupContext="shape" transform="translate(172.8,-561.6)">
			<title>Sheet.211</title>
			<path d="M0 1188 L86.4 1188" class="st3"/>
		</g>
		<g id="shape214-91" v:mID="214" v:groupContext="shape" transform="translate(522.72,-532.8)">
			<title>Sheet.214</title>
			<desc>16.93.64.0/24</desc>
			<v:textBlock v:margins="rect(4,4,4,4)"/>
			<v:textRect cx="53.28" cy="1173.6" width="106.56" height="28.8"/>
			<rect x="0" y="1159.2" width="106.56" height="28.8" class="st11"/>
			<text x="18.53" y="1177.2" class="st22" v:langID="1033"><v:paragraph v:horizAlign="1"/><v:tabList/>16.93.64.0/24</text>		</g>
		<g id="group218-94" transform="translate(360,-820.8)" v:mID="218" v:groupContext="group">
			<v:custProps>
				<v:cp v:nameU="ShapeClass" v:lbl="ShapeClass" v:type="0" v:invis="true" v:ask="false" v:langID="1033"
						v:val="VT4(Equipment)"/>
				<v:cp v:nameU="ShapeType" v:lbl="ShapeType" v:type="0" v:invis="true" v:ask="false" v:langID="1033"
						v:val="VT4(Device)"/>
				<v:cp v:nameU="SubShapeType" v:lbl="SubShapeType" v:type="0" v:invis="true" v:ask="false" v:langID="1033"
						v:val="VT4(Switch)"/>
				<v:cp v:nameU="Manufacturer" v:lbl="Manufacturer" v:type="0" v:sortKey="Equipment" v:invis="false" v:ask="false"
						v:langID="1033"/>
				<v:cp v:nameU="ProductNumber" v:lbl="Product Number" v:type="0" v:sortKey="Equipment" v:invis="false" v:ask="false"
						v:langID="1033"/>
				<v:cp v:nameU="PartNumber" v:lbl="Part Number" v:type="0" v:sortKey="Equipment" v:invis="false" v:ask="false"
						v:langID="1033"/>
				<v:cp v:nameU="ProductDescription" v:lbl="Product Description" v:type="0" v:sortKey="Equipment" v:invis="false"
						v:ask="false" v:langID="1033"/>
				<v:cp v:nameU="AssetNumber" v:lbl="Asset Number" v:type="0" v:sortKey="Asset" v:invis="false" v:ask="false"
						v:langID="1033"/>
				<v:cp v:nameU="SerialNumber" v:lbl="Serial Number" v:type="0" v:sortKey="Asset" v:invis="false" v:ask="false"
						v:langID="1033"/>
				<v:cp v:nameU="Location" v:lbl="Location" v:type="0" v:sortKey="Asset" v:invis="false" v:ask="false"
						v:langID="1033"/>
				<v:cp v:nameU="Building" v:lbl="Building" v:type="0" v:sortKey="Asset" v:invis="false" v:ask="false"
						v:langID="1033"/>
				<v:cp v:nameU="Room" v:lbl="Room" v:type="0" v:sortKey="Asset" v:invis="false" v:ask="false" v:langID="1033"/>
				<v:cp v:nameU="NetworkName" v:lbl="Network Name" v:type="0" v:sortKey="Network" v:invis="false" v:ask="false"
						v:langID="1033"/>
				<v:cp v:nameU="IPAddress" v:lbl="IP Address" v:type="0" v:sortKey="Network" v:invis="false" v:ask="false"
						v:langID="1033"/>
				<v:cp v:nameU="SubnetMask" v:lbl="Subnet Mask" v:type="0" v:sortKey="Network" v:invis="false" v:ask="false"
						v:langID="1033"/>
				<v:cp v:nameU="AdminInterface" v:lbl="Administrative Interface" v:type="0" v:sortKey="Network" v:invis="false"
						v:ask="false" v:langID="1033"/>
				<v:cp v:nameU="NumberOfPorts" v:lbl="Number of Ports" v:type="0" v:sortKey="Network" v:invis="false" v:ask="false"
						v:langID="1033"/>
				<v:cp v:nameU="MACAddress" v:lbl="MAC Address" v:type="0" v:sortKey="Network" v:invis="false" v:ask="false"
						v:langID="1033"/>
				<v:cp v:nameU="CommunityString" v:lbl="Community String" v:type="0" v:sortKey="Network" v:invis="false"
						v:ask="false" v:langID="1033"/>
				<v:cp v:nameU="NetworkDescription" v:lbl="Network Description" v:type="0" v:sortKey="Network" v:invis="false"
						v:ask="false" v:langID="1033"/>
			</v:custProps>
			<v:userDefs>
				<v:ud v:nameU="HasText" v:val="VT0(0):5"/>
				<v:ud v:nameU="ShapeClass" v:val="VT0(5):26"/>
				<v:ud v:nameU="ShapeType" v:val="VT0(8):26"/>
				<v:ud v:nameU="SubShapeType" v:val="VT0(66):26"/>
				<v:ud v:nameU="visLegendShape" v:val="VT0(2):26"/>
				<v:ud v:nameU="SolSH" v:val="VT15({BF0433D9-CD73-4EB5-8390-8653BE590246}):41"/>
				<v:ud v:nameU="visVersion" v:prompt="" v:val="VT0(15):26"/>
			</v:userDefs>
			<title>Router.218</title>
			<g id="shape219-95" v:mID="219" v:groupContext="shape">
				<title>Sheet.219</title>
				<path d="M57.6 1147.68 A28.8 17.28 -180 1 0 0 1147.68 L0 1170.72 A28.8 17.28 -180 1 0 57.6 1170.72 L57.6 1147.68 Z"
						class="st17"/>
			</g>
			<g id="shape220-97" v:mID="220" v:groupContext="shape" transform="translate(0,-23.04)">
				<title>Sheet.220</title>
				<ellipse cx="28.8" cy="1170.72" rx="28.8" ry="17.28" class="st18"/>
			</g>
			<g id="shape221-100" v:mID="221" v:groupContext="shape" transform="translate(48.5038,-40.32) scale(-1,1)">
				<title>Sheet.221</title>
				<path d="M0 1184.69 L0 1176.62 L13.97 1176.62 L8.23 1179.94 L19.7 1186.56 L17.21 1188 L5.74 1181.38 L0 1184.69 Z"
						class="st19"/>
			</g>
			<g id="shape222-102" v:mID="222" v:groupContext="shape" transform="translate(7.84911,-40.32)">
				<title>Sheet.222</title>
				<path d="M20.95 1179.94 L19.7 1187.28 L6.98 1188 L12.72 1184.69 L0 1177.34 L2.49 1175.9 L15.21 1183.25 L20.95 1179.94
							 Z" class="st19"/>
			</g>
			<g id="shape223-104" v:mID="223" v:groupContext="shape" transform="translate(28.8,-28.224)">
				<title>Sheet.223</title>
				<path d="M0 1183.97 L1.25 1176.62 L13.97 1175.9 L8.23 1179.22 L20.95 1186.56 L18.46 1188 L5.74 1180.66 L0 1183.97
							 Z" class="st19"/>
			</g>
			<g id="shape224-106" v:mID="224" v:groupContext="shape" transform="translate(9.09619,2335.68) scale(1,-1)">
				<title>Sheet.224</title>
				<path d="M0 1184.69 L0 1176.62 L13.97 1176.62 L8.23 1179.94 L19.7 1186.56 L17.21 1188 L5.74 1181.38 L0 1184.69 Z"
						class="st19"/>
			</g>
			<g id="shape225-108" v:mID="225" v:groupContext="shape">
				<title>Sheet.225</title>
				<path d="M0 1147.68 L0 1170.72 A28.8 17.28 -180 1 0 57.6 1170.72 L57.6 1147.68 A28.8 17.28 0 1 1 0 1147.68 Z"
						class="st20"/>
			</g>
			<g id="shape226-110" v:mID="226" v:groupContext="shape">
				<title>Sheet.226</title>
				<path d="M57.6 1147.68 A28.8 17.28 -180 1 0 0 1147.68 L0 1170.72 A28.8 17.28 -180 1 0 57.6 1170.72 L57.6 1147.68"
						class="st21"/>
			</g>
		</g>
		<g id="shape227-113" v:mID="227" v:groupContext="shape" transform="translate(172.8,-655.2)">
			<title>Sheet.227</title>
			<desc>172.24.4.3</desc>
			<v:textBlock v:margins="rect(4,4,4,4)"/>
			<v:textRect cx="43.2" cy="1180.8" width="86.4" height="14.4"/>
			<rect x="0" y="1173.6" width="86.4" height="14.4" class="st14"/>
			<text x="17.11" y="1184.4" class="st15" v:langID="1033"><v:paragraph v:horizAlign="1"/><v:tabList/>172.24.4.3</text>		</g>
		<g id="shape228-116" v:mID="228" v:groupContext="shape" transform="translate(532.8,-655.2)">
			<title>Sheet.228</title>
			<desc>172.24.4.4</desc>
			<v:textBlock v:margins="rect(4,4,4,4)"/>
			<v:textRect cx="43.2" cy="1180.8" width="86.4" height="14.4"/>
			<rect x="0" y="1173.6" width="86.4" height="14.4" class="st14"/>
			<text x="17.11" y="1184.4" class="st15" v:langID="1033"><v:paragraph v:horizAlign="1"/><v:tabList/>172.24.4.4</text>		</g>
		<g id="shape230-119" v:mID="230" v:groupContext="shape" transform="translate(345.6,-799.2)">
			<title>Sheet.230</title>
			<desc>172.24.4.1</desc>
			<v:textBlock v:margins="rect(4,4,4,4)"/>
			<v:textRect cx="43.2" cy="1180.8" width="86.4" height="14.4"/>
			<rect x="0" y="1173.6" width="86.4" height="14.4" class="st14"/>
			<text x="17.11" y="1184.4" class="st15" v:langID="1033"><v:paragraph v:horizAlign="1"/><v:tabList/>172.24.4.1</text>		</g>
		<g id="shape232-122" v:mID="232" v:groupContext="shape" transform="translate(259.2,-974.4)">
			<title>Cloud.11</title>
			<desc>Operator Network</desc>
			<v:userDefs>
				<v:ud v:nameU="visVersion" v:prompt="" v:val="VT0(15):26"/>
			</v:userDefs>
			<v:textBlock v:margins="rect(4,4,4,4)"/>
			<v:textRect cx="115.2" cy="1111.2" width="230.4" height="153.6"/>
			<path d="M11.34 1125.13 A18.195 20.4079 0 0 1 20.07 1085.93 A36.8974 41.3848 0 0 1 73.61 1052.85 A42.3685 47.5212 0 0
						 1 119.49 1045.49 A26.5688 29.8 0 0 1 158.81 1043.03 A30.2491 33.9279 0 0 1 206.9 1055.29 A21.629 24.2586
						 0 0 1 224.36 1089.6 A26.7902 30.0474 0 0 1 202.52 1138.62 A33.798 37.9072 0 0 1 154.46 1163.12 A39.8508
						 44.6958 0 0 1 88.91 1172.93 A50.516 56.6577 0 0 1 32.09 1163.12 A19.9296 22.3534 0 0 1 11.34 1125.13 Z"
					class="st23"/>
			<path d="M11.34 1125.13 A18.195 20.4079 0 0 1 20.07 1085.93 A36.8974 41.3848 0 0 1 73.61 1052.85 A42.3685 47.5212 0 0
						 1 119.49 1045.49 A26.5688 29.8 0 0 1 158.81 1043.03 A30.2491 33.9279 0 0 1 206.9 1055.29 A21.629 24.2586
						 0 0 1 224.36 1089.6 A26.7902 30.0474 0 0 1 202.52 1138.62 A33.798 37.9072 0 0 1 154.46 1163.12 A39.8508
						 44.6958 0 0 1 88.91 1172.93 A50.516 56.6577 0 0 1 32.09 1163.12 A19.9296 22.3534 0 0 1 11.34 1125.13"
					class="st24"/>
			<path d="M23.34 1126.36 A18.1447 20.3515 0 0 1 11.34 1125.13" class="st24"/>
			<path d="M85.62 1166.8 A18.2237 20.44 -180 0 0 88.91 1172.93" class="st24"/>
			<path d="M156.1 1155.77 A14.711 16.5001 0 0 1 154.46 1163.12" class="st24"/>
			<path d="M189.41 1119 A15.4366 17.3139 0 0 1 202.52 1138.62" class="st24"/>
			<path d="M217.82 1096.96 A14.0929 15.8068 -180 0 0 224.36 1089.6" class="st24"/>
			<path d="M80.16 1057.75 A21.7326 24.3748 -180 0 0 73.61 1052.85" class="st24"/>
			<text x="76.91" y="1114.2" class="st10" v:langID="1033"><v:paragraph v:horizAlign="1"/><v:tabList/>Operator Network</text>		</g>
		<g id="shape234-132" v:mID="234" v:groupContext="shape" transform="translate(411.84,-835.2)">
			<title>Sheet.234</title>
			<desc>Operator Router</desc>
			<v:textBlock v:margins="rect(4,4,4,4)"/>
			<v:textRect cx="53.28" cy="1173.6" width="106.56" height="28.8"/>
			<rect x="0" y="1159.2" width="106.56" height="28.8" class="st11"/>
			<text x="12.04" y="1177.2" class="st6" v:langID="1033"><v:paragraph v:horizAlign="1"/><v:tabList/>Operator Router</text>		</g>
		<g id="shape235-135" v:mID="235" v:groupContext="shape" transform="translate(47.52,-756.424)">
			<title>Sheet.235</title>
			<desc>Tenant Routers</desc>
			<v:textBlock v:margins="rect(4,4,4,4)"/>
			<v:textRect cx="53.28" cy="1173.6" width="106.56" height="28.8"/>
			<rect x="0" y="1159.2" width="106.56" height="28.8" class="st11"/>
			<text x="15" y="1177.2" class="st6" v:langID="1033"><v:paragraph v:horizAlign="1"/><v:tabList/>Tenant Routers</text>		</g>
		<g id="shape236-138" v:mID="236" v:groupContext="shape" transform="translate(-782.938,1230.57) rotate(-125.754)">
			<title>Sheet.236</title>
			<path d="M6.18 1188 L6.54 1188 L137.54 1188" class="st25"/>
		</g>
		<g id="shape237-144" v:mID="237" v:groupContext="shape" transform="translate(204.436,1694.02) rotate(-163.534)">
			<title>Sheet.237</title>
			<path d="M6.18 1188 L6.54 1188 L458.45 1188" class="st25"/>
		</g>
		<g id="shape238-149" v:mID="238" v:groupContext="shape" transform="translate(192.96,-504)">
			<title>Sheet.238</title>
			<desc>Instance</desc>
			<v:textBlock v:margins="rect(4,4,4,4)"/>
			<v:textRect cx="23.04" cy="1171.8" width="46.09" height="32.4"/>
			<rect x="0" y="1155.6" width="46.08" height="32.4" class="st27"/>
			<text x="9.33" y="1174.2" class="st28" v:langID="1033"><v:paragraph v:horizAlign="1"/><v:tabList/>Instance</text>		</g>
		<g id="shape240-152" v:mID="240" v:groupContext="shape" transform="translate(154.08,-473.4)">
			<title>Sheet.240</title>
			<desc>Fixed IP 15.21.64.10 Floating IP 172.24.4.21</desc>
			<v:textBlock v:margins="rect(4,4,4,4)"/>
			<v:textRect cx="59.76" cy="1171.8" width="119.52" height="32.4"/>
			<rect x="0" y="1155.6" width="119.52" height="32.4" class="st11"/>
			<text x="18.87" y="1168.8" class="st12" v:langID="1033"><v:paragraph v:horizAlign="1"/><v:tabList/>Fixed IP 15.21.64.10<v:newlineChar/><tspan
						x="13.32" dy="1.2em" class="st7">Floating IP </tspan>172.24.4.21</text>		</g>
		<g id="shape242-156" v:mID="242" v:groupContext="shape" transform="translate(518.4,-473.4)">
			<title>Sheet.242</title>
			<desc>Fixed IP 16.93.64.32 Floating IP 172.24.4.43</desc>
			<v:textBlock v:margins="rect(4,4,4,4)"/>
			<v:textRect cx="59.76" cy="1171.8" width="119.52" height="32.4"/>
			<rect x="0" y="1155.6" width="119.52" height="32.4" class="st11"/>
			<text x="18.87" y="1168.8" class="st12" v:langID="1033"><v:paragraph v:horizAlign="1"/><v:tabList/>Fixed IP 16.93.64.32<v:newlineChar/><tspan
						x="13.32" dy="1.2em" class="st7">Floating IP </tspan>172.24.4.43</text>		</g>
		<g id="shape243-160" v:mID="243" v:groupContext="shape" transform="translate(552.96,-504)">
			<title>Sheet.243</title>
			<desc>Instance</desc>
			<v:textBlock v:margins="rect(4,4,4,4)"/>
			<v:textRect cx="23.04" cy="1171.8" width="46.09" height="32.4"/>
			<rect x="0" y="1155.6" width="46.08" height="32.4" class="st27"/>
			<text x="9.33" y="1174.2" class="st28" v:langID="1033"><v:paragraph v:horizAlign="1"/><v:tabList/>Instance</text>		</g>
	</g>
</svg>
