<?xml version="1.0" encoding="UTF-8" standalone="no"?>
<!DOCTYPE svg PUBLIC "-//W3C//DTD SVG 1.1//EN" "http://www.w3.org/Graphics/SVG/1.1/DTD/svg11.dtd">
<!-- Generated by Microsoft Visio, SVG Export bgp-basic-routing-example.svg Page-15 -->
<svg xmlns="http://www.w3.org/2000/svg" xmlns:xlink="http://www.w3.org/1999/xlink" xmlns:ev="http://www.w3.org/2001/xml-events"
		xmlns:v="http://schemas.microsoft.com/visio/2003/SVGExtensions/" width="11in" height="16.5in" viewBox="0 0 792 1188"
		xml:space="preserve" color-interpolation-filters="sRGB" class="st27">
	<v:documentProperties v:langID="1033" v:viewMarkup="false">
		<v:userDefs>
			<v:ud v:nameU="msvNoAutoConnect" v:val="VT0(0):26"/>
			<v:ud v:nameU="msvConvertTheme"/>
		</v:userDefs>
	</v:documentProperties>

	<style type="text/css">
	<![CDATA[
		.st1 {stroke:#595959;stroke-linecap:round;stroke-linejoin:round;stroke-width:1.5}
		.st2 {fill:#d8d8d8;stroke:none;stroke-linecap:round;stroke-linejoin:round;stroke-width:0.75}
		.st3 {stroke:#7e649e;stroke-linecap:round;stroke-linejoin:round;stroke-width:1.5}
		.st4 {stroke:#00b0f0;stroke-linecap:round;stroke-linejoin:round;stroke-width:1.5}
		.st5 {fill:#ffffff;stroke:#000000;stroke-linecap:round;stroke-linejoin:round;stroke-width:0.75}
		.st6 {fill:#000000;font-family:Calibri;font-size:1.00001em;font-weight:bold}
		.st7 {font-size:1em}
		.st8 {stroke:#000000;stroke-dasharray:5.25,3.75;stroke-linecap:round;stroke-linejoin:round;stroke-width:0.75}
		.st9 {fill:#ffffff;stroke:none;stroke-linecap:butt;stroke-width:7.2}
		.st10 {fill:#000000;font-family:Calibri;font-size:0.833336em;font-weight:bold}
		.st11 {fill:none;stroke:none;stroke-linecap:round;stroke-linejoin:round;stroke-width:0.75}
		.st12 {fill:#000000;font-family:Calibri;font-size:0.833336em}
		.st13 {font-size:1em;text-decoration:underline}
		.st14 {fill:#d8d8d8;fill-opacity:0.8;stroke:none;stroke-linecap:round;stroke-linejoin:round;stroke-width:0.75}
		.st15 {fill:#00b0f0;font-family:Calibri;font-size:1.00001em;font-weight:bold}
		.st16 {fill:#ff00ff;fill-opacity:0;stroke:#000000;stroke-linecap:round;stroke-linejoin:round;stroke-opacity:0;stroke-width:0.72}
		.st17 {fill:url(#grad0-41);stroke:#ffffff;stroke-linecap:round;stroke-linejoin:round;stroke-width:0.72}
		.st18 {fill:#ff0000;stroke:#000000;stroke-linecap:round;stroke-linejoin:round;stroke-width:0.24}
		.st19 {fill:#eaeff5;stroke:#000000;stroke-linecap:round;stroke-linejoin:round;stroke-width:0.72}
		.st20 {stroke:#000000;stroke-linecap:round;stroke-linejoin:round;stroke-width:1.5}
		.st21 {fill:#7e649e;font-family:Calibri;font-size:1.00001em;font-weight:bold}
		.st22 {fill:#7f7f7f;font-family:Calibri;font-size:1.00001em;font-weight:bold}
		.st23 {fill:#ffffff}
		.st24 {stroke:#000000;stroke-linecap:round;stroke-linejoin:round;stroke-width:0.24}
		.st25 {marker-start:url(#mrkr4-108);stroke:#595959;stroke-dasharray:5.25,3.75,0,3.75;stroke-linecap:round;stroke-linejoin:round;stroke-width:0.75}
		.st26 {fill:#595959;fill-opacity:1;stroke:#595959;stroke-opacity:1;stroke-width:0.22935779816514}
		.st27 {fill:none;fill-rule:evenodd;font-size:12px;overflow:visible;stroke-linecap:square;stroke-miterlimit:3}
	]]>
	</style>

	<defs id="Patterns_And_Gradients">
		<linearGradient id="grad0-41" x1="0" y1="0" x2="1" y2="0" gradientTransform="rotate(270 0.5 0.5)">
			<stop offset="0" stop-color="#eaeff5" stop-opacity="1"/>
			<stop offset="1" stop-color="#dfdfdf" stop-opacity="1"/>
		</linearGradient>
	</defs>
	<defs id="Markers">
		<g id="lend4">
			<path d="M 2 1 L 0 0 L 2 -1 L 2 1 " style="stroke:none"/>
		</g>
		<marker id="mrkr4-108" class="st26" v:arrowType="4" v:arrowSize="2" v:setback="8.24" refX="8.24" orient="auto"
				markerUnits="strokeWidth" overflow="visible">
			<use xlink:href="#lend4" transform="scale(4.36) "/>
		</marker>
	</defs>
	<g v:mID="18" v:index="13" v:groupContext="foregroundPage">
		<title>BGP Docs Example</title>
		<v:pageProperties v:drawingScale="1" v:pageScale="1" v:drawingUnits="0" v:shadowOffsetX="9" v:shadowOffsetY="-9"/>
		<v:layer v:name="Connector" v:index="0"/>
		<g id="shape233-1" v:mID="233" v:groupContext="shape" transform="translate(-799.172,346.488) rotate(-90.3901)">
			<title>Sheet.233</title>
			<path d="M0 1188 L126.23 1188" class="st1"/>
		</g>
		<g id="shape208-4" v:mID="208" v:groupContext="shape" transform="translate(212.4,-547.2)">
			<title>Sheet.208</title>
			<rect x="0" y="914.4" width="334.8" height="273.6" class="st2"/>
		</g>
		<g id="shape213-6" v:mID="213" v:groupContext="shape" transform="translate(345.6,-619.2)">
			<title>Sheet.213</title>
			<path d="M0 1188 L86.4 1188" class="st3"/>
		</g>
		<g id="shape135-9" v:mID="135" v:groupContext="shape" transform="translate(1576.8,338.4) rotate(90)">
			<title>Sheet.135</title>
			<path d="M0 1188 L174.82 1188" class="st4"/>
		</g>
		<g id="shape108-12" v:mID="108" v:groupContext="shape" transform="translate(1.44,-828)">
			<title>Sheet.108</title>
			<desc>Neutron BGP Dynamic Routing Agent</desc>
			<v:textBlock v:margins="rect(4,4,4,4)"/>
			<v:textRect cx="59.76" cy="1166.4" width="119.52" height="43.2"/>
			<rect x="0" y="1144.8" width="119.52" height="43.2" class="st5"/>
			<text x="4.15" y="1162.8" class="st6" v:langID="1033"><v:paragraph v:horizAlign="1"/><v:tabList/>Neutron BGP Dynamic <tspan
						x="24.16" dy="1.2em" class="st7">Routing Agent</tspan></text>		</g>
		<g id="shape119-16" v:mID="119" v:groupContext="shape" transform="translate(120.96,-849.6)">
			<title>Sheet.119</title>
			<desc>BGP Peering Session</desc>
			<v:textBlock v:margins="rect(4,4,4,4)"/>
			<v:textRect cx="133.92" cy="1188" width="267.85" height="0"/>
			<path d="M0 1188 L267.84 1188" class="st8"/>
			<rect v:rectContext="textBkgnd" x="91.7864" y="1182" width="84.2673" height="12.0001" class="st9"/>
			<text x="91.79" y="1191" class="st10" v:langID="1033"><v:paragraph v:horizAlign="1"/><v:tabList/>BGP Peering Session</text>		</g>
		<g id="shape121-21" v:mID="121" v:groupContext="shape" transform="translate(172.8,-861.542)">
			<title>Sheet.121</title>
			<desc>BGP Announcements Destination Next Hop 10.0.0.0/24 172.24.4.3</desc>
			<v:textBlock v:margins="rect(4,4,4,4)"/>
			<v:textRect cx="64.8" cy="1150.77" width="129.6" height="74.4578"/>
			<rect x="0" y="1113.54" width="129.6" height="74.4578" class="st11"/>
			<text x="21.83" y="1135.77" class="st12" v:langID="1033"><v:paragraph v:horizAlign="1"/><v:tabList/>BGP Announcements<v:newlineChar/><v:newlineChar/><tspan
						x="9.73" dy="2.4em" class="st13">Destination<v:tabChar/></tspan><tspan dx="2.51em" class="st13">Next Hop<v:newlineChar/></tspan><tspan
						x="7.27" dy="1.2em" class="st7">10</tspan>.0.0.0/24<v:tabChar/><tspan dx="2.509em" class="st7">172</tspan>.24.4.3</text>		</g>
		<g id="shape136-28" v:mID="136" v:groupContext="shape" transform="translate(335.52,-748.8)">
			<title>Sheet.136</title>
			<desc>External Network 172.24.4.0/24</desc>
			<v:textBlock v:margins="rect(4,4,4,4)"/>
			<v:textRect cx="53.28" cy="1173.6" width="106.56" height="28.8"/>
			<rect x="0" y="1159.2" width="106.56" height="28.8" class="st14"/>
			<text x="9.59" y="1170" class="st15" v:langID="1033"><v:paragraph v:horizAlign="1"/><v:tabList/>External Network<v:newlineChar/><tspan
						x="18.53" dy="1.2em" class="st7">172</tspan>.24.4.0/24</text>		</g>
		<g id="shape212-32" v:mID="212" v:groupContext="shape" transform="translate(1576.8,533.224) rotate(90)">
			<title>Sheet.212</title>
			<path d="M0 1188 L35.58 1188" class="st3"/>
		</g>
		<g id="group180-35" transform="translate(360,-648)" v:mID="180" v:groupContext="group">
			<v:custProps>
				<v:cp v:nameU="ShapeClass" v:lbl="ShapeClass" v:type="0" v:invis="true" v:ask="false" v:langID="1033"
						v:val="VT4(Equipment)"/>
				<v:cp v:nameU="ShapeType" v:lbl="ShapeType" v:type="0" v:invis="true" v:ask="false" v:langID="1033"
						v:val="VT4(Device)"/>
				<v:cp v:nameU="SubShapeType" v:lbl="SubShapeType" v:type="0" v:invis="true" v:ask="false" v:langID="1033"
						v:val="VT4(Switch)"/>
				<v:cp v:nameU="Manufacturer" v:lbl="Manufacturer" v:type="0" v:sortKey="Equipment" v:invis="false" v:ask="false"
						v:langID="1033"/>
				<v:cp v:nameU="ProductNumber" v:lbl="Product Number" v:type="0" v:sortKey="Equipment" v:invis="false" v:ask="false"
						v:langID="1033"/>
				<v:cp v:nameU="PartNumber" v:lbl="Part Number" v:type="0" v:sortKey="Equipment" v:invis="false" v:ask="false"
						v:langID="1033"/>
				<v:cp v:nameU="ProductDescription" v:lbl="Product Description" v:type="0" v:sortKey="Equipment" v:invis="false"
						v:ask="false" v:langID="1033"/>
				<v:cp v:nameU="AssetNumber" v:lbl="Asset Number" v:type="0" v:sortKey="Asset" v:invis="false" v:ask="false"
						v:langID="1033"/>
				<v:cp v:nameU="SerialNumber" v:lbl="Serial Number" v:type="0" v:sortKey="Asset" v:invis="false" v:ask="false"
						v:langID="1033"/>
				<v:cp v:nameU="Location" v:lbl="Location" v:type="0" v:sortKey="Asset" v:invis="false" v:ask="false"
						v:langID="1033"/>
				<v:cp v:nameU="Building" v:lbl="Building" v:type="0" v:sortKey="Asset" v:invis="false" v:ask="false"
						v:langID="1033"/>
				<v:cp v:nameU="Room" v:lbl="Room" v:type="0" v:sortKey="Asset" v:invis="false" v:ask="false" v:langID="1033"/>
				<v:cp v:nameU="NetworkName" v:lbl="Network Name" v:type="0" v:sortKey="Network" v:invis="false" v:ask="false"
						v:langID="1033"/>
				<v:cp v:nameU="IPAddress" v:lbl="IP Address" v:type="0" v:sortKey="Network" v:invis="false" v:ask="false"
						v:langID="1033"/>
				<v:cp v:nameU="SubnetMask" v:lbl="Subnet Mask" v:type="0" v:sortKey="Network" v:invis="false" v:ask="false"
						v:langID="1033"/>
				<v:cp v:nameU="AdminInterface" v:lbl="Administrative Interface" v:type="0" v:sortKey="Network" v:invis="false"
						v:ask="false" v:langID="1033"/>
				<v:cp v:nameU="NumberOfPorts" v:lbl="Number of Ports" v:type="0" v:sortKey="Network" v:invis="false" v:ask="false"
						v:langID="1033"/>
				<v:cp v:nameU="MACAddress" v:lbl="MAC Address" v:type="0" v:sortKey="Network" v:invis="false" v:ask="false"
						v:langID="1033"/>
				<v:cp v:nameU="CommunityString" v:lbl="Community String" v:type="0" v:sortKey="Network" v:invis="false"
						v:ask="false" v:langID="1033"/>
				<v:cp v:nameU="NetworkDescription" v:lbl="Network Description" v:type="0" v:sortKey="Network" v:invis="false"
						v:ask="false" v:langID="1033"/>
			</v:custProps>
			<v:userDefs>
				<v:ud v:nameU="HasText" v:val="VT0(0):5"/>
				<v:ud v:nameU="ShapeClass" v:val="VT0(5):26"/>
				<v:ud v:nameU="ShapeType" v:val="VT0(8):26"/>
				<v:ud v:nameU="SubShapeType" v:val="VT0(66):26"/>
				<v:ud v:nameU="visLegendShape" v:val="VT0(2):26"/>
				<v:ud v:nameU="SolSH" v:val="VT15({BF0433D9-CD73-4EB5-8390-8653BE590246}):41"/>
				<v:ud v:nameU="visVersion" v:prompt="" v:val="VT0(15):26"/>
			</v:userDefs>
			<title>Router.180</title>
			<g id="shape181-36" v:mID="181" v:groupContext="shape">
				<title>Sheet.181</title>
				<path d="M57.6 1147.68 A28.8 17.28 -180 1 0 0 1147.68 L0 1170.72 A28.8 17.28 -180 1 0 57.6 1170.72 L57.6 1147.68 Z"
						class="st16"/>
			</g>
			<g id="shape182-38" v:mID="182" v:groupContext="shape" transform="translate(0,-23.04)">
				<title>Sheet.182</title>
				<ellipse cx="28.8" cy="1170.72" rx="28.8" ry="17.28" class="st17"/>
			</g>
			<g id="shape183-42" v:mID="183" v:groupContext="shape" transform="translate(48.5038,-40.32) scale(-1,1)">
				<title>Sheet.183</title>
				<path d="M0 1184.69 L0 1176.62 L13.97 1176.62 L8.23 1179.94 L19.7 1186.56 L17.21 1188 L5.74 1181.38 L0 1184.69 Z"
						class="st18"/>
			</g>
			<g id="shape184-44" v:mID="184" v:groupContext="shape" transform="translate(7.84911,-40.32)">
				<title>Sheet.184</title>
				<path d="M20.95 1179.94 L19.7 1187.28 L6.98 1188 L12.72 1184.69 L0 1177.34 L2.49 1175.9 L15.21 1183.25 L20.95 1179.94
							 Z" class="st18"/>
			</g>
			<g id="shape185-46" v:mID="185" v:groupContext="shape" transform="translate(28.8,-28.224)">
				<title>Sheet.185</title>
				<path d="M0 1183.97 L1.25 1176.62 L13.97 1175.9 L8.23 1179.22 L20.95 1186.56 L18.46 1188 L5.74 1180.66 L0 1183.97
							 Z" class="st18"/>
			</g>
			<g id="shape186-48" v:mID="186" v:groupContext="shape" transform="translate(9.09619,2335.68) scale(1,-1)">
				<title>Sheet.186</title>
				<path d="M0 1184.69 L0 1176.62 L13.97 1176.62 L8.23 1179.94 L19.7 1186.56 L17.21 1188 L5.74 1181.38 L0 1184.69 Z"
						class="st18"/>
			</g>
			<g id="shape187-50" v:mID="187" v:groupContext="shape">
				<title>Sheet.187</title>
				<path d="M0 1147.68 L0 1170.72 A28.8 17.28 -180 1 0 57.6 1170.72 L57.6 1147.68 A28.8 17.28 0 1 1 0 1147.68 Z"
						class="st19"/>
			</g>
			<g id="shape188-52" v:mID="188" v:groupContext="shape">
				<title>Sheet.188</title>
				<path d="M57.6 1147.68 A28.8 17.28 -180 1 0 0 1147.68 L0 1170.72 A28.8 17.28 -180 1 0 57.6 1170.72 L57.6 1147.68"
						class="st20"/>
			</g>
		</g>
		<g id="shape214-55" v:mID="214" v:groupContext="shape" transform="translate(335.52,-590.4)">
			<title>Sheet.214</title>
			<desc>Tenant Network 10.0.0.0/24</desc>
			<v:textBlock v:margins="rect(4,4,4,4)"/>
			<v:textRect cx="53.28" cy="1173.6" width="106.56" height="28.8"/>
			<rect x="0" y="1159.2" width="106.56" height="28.8" class="st11"/>
			<text x="12.69" y="1170" class="st21" v:langID="1033"><v:paragraph v:horizAlign="1"/><v:tabList/>Tenant Network<v:newlineChar/><tspan
						x="24.61" dy="1.2em" class="st7">10</tspan>.0.0.0/24</text>		</g>
		<g id="group218-59" transform="translate(360,-820.8)" v:mID="218" v:groupContext="group">
			<v:custProps>
				<v:cp v:nameU="ShapeClass" v:lbl="ShapeClass" v:type="0" v:invis="true" v:ask="false" v:langID="1033"
						v:val="VT4(Equipment)"/>
				<v:cp v:nameU="ShapeType" v:lbl="ShapeType" v:type="0" v:invis="true" v:ask="false" v:langID="1033"
						v:val="VT4(Device)"/>
				<v:cp v:nameU="SubShapeType" v:lbl="SubShapeType" v:type="0" v:invis="true" v:ask="false" v:langID="1033"
						v:val="VT4(Switch)"/>
				<v:cp v:nameU="Manufacturer" v:lbl="Manufacturer" v:type="0" v:sortKey="Equipment" v:invis="false" v:ask="false"
						v:langID="1033"/>
				<v:cp v:nameU="ProductNumber" v:lbl="Product Number" v:type="0" v:sortKey="Equipment" v:invis="false" v:ask="false"
						v:langID="1033"/>
				<v:cp v:nameU="PartNumber" v:lbl="Part Number" v:type="0" v:sortKey="Equipment" v:invis="false" v:ask="false"
						v:langID="1033"/>
				<v:cp v:nameU="ProductDescription" v:lbl="Product Description" v:type="0" v:sortKey="Equipment" v:invis="false"
						v:ask="false" v:langID="1033"/>
				<v:cp v:nameU="AssetNumber" v:lbl="Asset Number" v:type="0" v:sortKey="Asset" v:invis="false" v:ask="false"
						v:langID="1033"/>
				<v:cp v:nameU="SerialNumber" v:lbl="Serial Number" v:type="0" v:sortKey="Asset" v:invis="false" v:ask="false"
						v:langID="1033"/>
				<v:cp v:nameU="Location" v:lbl="Location" v:type="0" v:sortKey="Asset" v:invis="false" v:ask="false"
						v:langID="1033"/>
				<v:cp v:nameU="Building" v:lbl="Building" v:type="0" v:sortKey="Asset" v:invis="false" v:ask="false"
						v:langID="1033"/>
				<v:cp v:nameU="Room" v:lbl="Room" v:type="0" v:sortKey="Asset" v:invis="false" v:ask="false" v:langID="1033"/>
				<v:cp v:nameU="NetworkName" v:lbl="Network Name" v:type="0" v:sortKey="Network" v:invis="false" v:ask="false"
						v:langID="1033"/>
				<v:cp v:nameU="IPAddress" v:lbl="IP Address" v:type="0" v:sortKey="Network" v:invis="false" v:ask="false"
						v:langID="1033"/>
				<v:cp v:nameU="SubnetMask" v:lbl="Subnet Mask" v:type="0" v:sortKey="Network" v:invis="false" v:ask="false"
						v:langID="1033"/>
				<v:cp v:nameU="AdminInterface" v:lbl="Administrative Interface" v:type="0" v:sortKey="Network" v:invis="false"
						v:ask="false" v:langID="1033"/>
				<v:cp v:nameU="NumberOfPorts" v:lbl="Number of Ports" v:type="0" v:sortKey="Network" v:invis="false" v:ask="false"
						v:langID="1033"/>
				<v:cp v:nameU="MACAddress" v:lbl="MAC Address" v:type="0" v:sortKey="Network" v:invis="false" v:ask="false"
						v:langID="1033"/>
				<v:cp v:nameU="CommunityString" v:lbl="Community String" v:type="0" v:sortKey="Network" v:invis="false"
						v:ask="false" v:langID="1033"/>
				<v:cp v:nameU="NetworkDescription" v:lbl="Network Description" v:type="0" v:sortKey="Network" v:invis="false"
						v:ask="false" v:langID="1033"/>
			</v:custProps>
			<v:userDefs>
				<v:ud v:nameU="HasText" v:val="VT0(0):5"/>
				<v:ud v:nameU="ShapeClass" v:val="VT0(5):26"/>
				<v:ud v:nameU="ShapeType" v:val="VT0(8):26"/>
				<v:ud v:nameU="SubShapeType" v:val="VT0(66):26"/>
				<v:ud v:nameU="visLegendShape" v:val="VT0(2):26"/>
				<v:ud v:nameU="SolSH" v:val="VT15({BF0433D9-CD73-4EB5-8390-8653BE590246}):41"/>
				<v:ud v:nameU="visVersion" v:prompt="" v:val="VT0(15):26"/>
			</v:userDefs>
			<title>Router.218</title>
			<g id="shape219-60" v:mID="219" v:groupContext="shape">
				<title>Sheet.219</title>
				<path d="M57.6 1147.68 A28.8 17.28 -180 1 0 0 1147.68 L0 1170.72 A28.8 17.28 -180 1 0 57.6 1170.72 L57.6 1147.68 Z"
						class="st16"/>
			</g>
			<g id="shape220-62" v:mID="220" v:groupContext="shape" transform="translate(0,-23.04)">
				<title>Sheet.220</title>
				<ellipse cx="28.8" cy="1170.72" rx="28.8" ry="17.28" class="st17"/>
			</g>
			<g id="shape221-65" v:mID="221" v:groupContext="shape" transform="translate(48.5038,-40.32) scale(-1,1)">
				<title>Sheet.221</title>
				<path d="M0 1184.69 L0 1176.62 L13.97 1176.62 L8.23 1179.94 L19.7 1186.56 L17.21 1188 L5.74 1181.38 L0 1184.69 Z"
						class="st18"/>
			</g>
			<g id="shape222-67" v:mID="222" v:groupContext="shape" transform="translate(7.84911,-40.32)">
				<title>Sheet.222</title>
				<path d="M20.95 1179.94 L19.7 1187.28 L6.98 1188 L12.72 1184.69 L0 1177.34 L2.49 1175.9 L15.21 1183.25 L20.95 1179.94
							 Z" class="st18"/>
			</g>
			<g id="shape223-69" v:mID="223" v:groupContext="shape" transform="translate(28.8,-28.224)">
				<title>Sheet.223</title>
				<path d="M0 1183.97 L1.25 1176.62 L13.97 1175.9 L8.23 1179.22 L20.95 1186.56 L18.46 1188 L5.74 1180.66 L0 1183.97
							 Z" class="st18"/>
			</g>
			<g id="shape224-71" v:mID="224" v:groupContext="shape" transform="translate(9.09619,2335.68) scale(1,-1)">
				<title>Sheet.224</title>
				<path d="M0 1184.69 L0 1176.62 L13.97 1176.62 L8.23 1179.94 L19.7 1186.56 L17.21 1188 L5.74 1181.38 L0 1184.69 Z"
						class="st18"/>
			</g>
			<g id="shape225-73" v:mID="225" v:groupContext="shape">
				<title>Sheet.225</title>
				<path d="M0 1147.68 L0 1170.72 A28.8 17.28 -180 1 0 57.6 1170.72 L57.6 1147.68 A28.8 17.28 0 1 1 0 1147.68 Z"
						class="st19"/>
			</g>
			<g id="shape226-75" v:mID="226" v:groupContext="shape">
				<title>Sheet.226</title>
				<path d="M57.6 1147.68 A28.8 17.28 -180 1 0 0 1147.68 L0 1170.72 A28.8 17.28 -180 1 0 57.6 1170.72 L57.6 1147.68"
						class="st20"/>
			</g>
		</g>
		<g id="shape228-78" v:mID="228" v:groupContext="shape" transform="translate(345.6,-705.6)">
			<title>Sheet.228</title>
			<desc>172.24.4.3</desc>
			<v:textBlock v:margins="rect(4,4,4,4)"/>
			<v:textRect cx="43.2" cy="1180.8" width="86.4" height="14.4"/>
			<rect x="0" y="1173.6" width="86.4" height="14.4" class="st14"/>
			<text x="17.11" y="1184.4" class="st15" v:langID="1033"><v:paragraph v:horizAlign="1"/><v:tabList/>172.24.4.3</text>		</g>
		<g id="shape230-81" v:mID="230" v:groupContext="shape" transform="translate(345.6,-806.4)">
			<title>Sheet.230</title>
			<desc>172.24.4.1</desc>
			<v:textBlock v:margins="rect(4,4,4,4)"/>
			<v:textRect cx="43.2" cy="1180.8" width="86.4" height="14.4"/>
			<rect x="0" y="1173.6" width="86.4" height="14.4" class="st14"/>
			<text x="17.11" y="1184.4" class="st15" v:langID="1033"><v:paragraph v:horizAlign="1"/><v:tabList/>172.24.4.1</text>		</g>
		<g id="shape231-84" v:mID="231" v:groupContext="shape" transform="translate(345.6,-547.2)">
			<title>Sheet.231</title>
			<desc>Address Scope</desc>
			<v:textBlock v:margins="rect(4,4,4,4)"/>
			<v:textRect cx="45.5337" cy="1173.6" width="91.07" height="28.8"/>
			<rect x="0" y="1159.2" width="91.0673" height="28.8" class="st11"/>
			<text x="9.35" y="1177.2" class="st22" v:langID="1033"><v:paragraph v:horizAlign="1"/><v:tabList/>Address Scope</text>		</g>
		<g id="shape232-87" v:mID="232" v:groupContext="shape" transform="translate(259.2,-974.4)">
			<title>Cloud.11</title>
			<desc>Operator Network</desc>
			<v:userDefs>
				<v:ud v:nameU="visVersion" v:prompt="" v:val="VT0(15):26"/>
			</v:userDefs>
			<v:textBlock v:margins="rect(4,4,4,4)"/>
			<v:textRect cx="115.2" cy="1111.2" width="230.4" height="153.6"/>
			<path d="M11.34 1125.13 A18.195 20.4079 0 0 1 20.07 1085.93 A36.8974 41.3848 0 0 1 73.61 1052.85 A42.3685 47.5212 0 0
						 1 119.49 1045.49 A26.5688 29.8 0 0 1 158.81 1043.03 A30.2491 33.9279 0 0 1 206.9 1055.29 A21.629 24.2586
						 0 0 1 224.36 1089.6 A26.7902 30.0474 0 0 1 202.52 1138.62 A33.798 37.9072 0 0 1 154.46 1163.12 A39.8508
						 44.6958 0 0 1 88.91 1172.93 A50.516 56.6577 0 0 1 32.09 1163.12 A19.9296 22.3534 0 0 1 11.34 1125.13 Z"
					class="st23"/>
			<path d="M11.34 1125.13 A18.195 20.4079 0 0 1 20.07 1085.93 A36.8974 41.3848 0 0 1 73.61 1052.85 A42.3685 47.5212 0 0
						 1 119.49 1045.49 A26.5688 29.8 0 0 1 158.81 1043.03 A30.2491 33.9279 0 0 1 206.9 1055.29 A21.629 24.2586
						 0 0 1 224.36 1089.6 A26.7902 30.0474 0 0 1 202.52 1138.62 A33.798 37.9072 0 0 1 154.46 1163.12 A39.8508
						 44.6958 0 0 1 88.91 1172.93 A50.516 56.6577 0 0 1 32.09 1163.12 A19.9296 22.3534 0 0 1 11.34 1125.13"
					class="st24"/>
			<path d="M23.34 1126.36 A18.1447 20.3515 0 0 1 11.34 1125.13" class="st24"/>
			<path d="M85.62 1166.8 A18.2237 20.44 -180 0 0 88.91 1172.93" class="st24"/>
			<path d="M156.1 1155.77 A14.711 16.5001 0 0 1 154.46 1163.12" class="st24"/>
			<path d="M189.41 1119 A15.4366 17.3139 0 0 1 202.52 1138.62" class="st24"/>
			<path d="M217.82 1096.96 A14.0929 15.8068 -180 0 0 224.36 1089.6" class="st24"/>
			<path d="M80.16 1057.75 A21.7326 24.3748 -180 0 0 73.61 1052.85" class="st24"/>
			<text x="76.91" y="1114.2" class="st10" v:langID="1033"><v:paragraph v:horizAlign="1"/><v:tabList/>Operator Network</text>		</g>
		<g id="shape234-97" v:mID="234" v:groupContext="shape" transform="translate(411.84,-835.2)">
			<title>Sheet.234</title>
			<desc>Operator Router</desc>
			<v:textBlock v:margins="rect(4,4,4,4)"/>
			<v:textRect cx="53.28" cy="1173.6" width="106.56" height="28.8"/>
			<rect x="0" y="1159.2" width="106.56" height="28.8" class="st11"/>
			<text x="12.04" y="1177.2" class="st6" v:langID="1033"><v:paragraph v:horizAlign="1"/><v:tabList/>Operator Router</text>		</g>
		<g id="shape235-100" v:mID="235" v:groupContext="shape" transform="translate(47.52,-770.824)">
			<title>Sheet.235</title>
			<desc>Tenant Router</desc>
			<v:textBlock v:margins="rect(4,4,4,4)"/>
			<v:textRect cx="53.28" cy="1173.6" width="106.56" height="28.8"/>
			<rect x="0" y="1159.2" width="106.56" height="28.8" class="st11"/>
			<text x="17.39" y="1177.2" class="st6" v:langID="1033"><v:paragraph v:horizAlign="1"/><v:tabList/>Tenant Router</text>		</g>
		<g id="shape238-103" v:mID="238" v:groupContext="shape" transform="translate(-43.7095,1619.2) rotate(-160.871)">
			<title>Sheet.238</title>
			<path d="M6.18 1188 L6.54 1188 L257.59 1188" class="st25"/>
		</g>
	</g>
</svg>
