<?xml version="1.0" encoding="utf-8"?>
<!-- Generator: Adobe Illustrator 15.0.2, SVG Export Plug-In . SVG Version: 6.00 Build 0)  -->
<!DOCTYPE svg PUBLIC "-//W3C//DTD SVG 1.1//EN" "http://www.w3.org/Graphics/SVG/1.1/DTD/svg11.dtd">
<svg version="1.1" id="logo" xmlns="http://www.w3.org/2000/svg" xmlns:xlink="http://www.w3.org/1999/xlink" x="0px" y="0px"
	 width="612px" height="792px" viewBox="0 0 612 792" enable-background="new 0 0 612 792" xml:space="preserve">
<g id="logo_1_">
	<g id="white">
		<path fill="#FFFFFF" d="M238.501,435.013c-2.433-0.558-5.012-0.91-7.621-0.91c-4.463,0-8.524,0.772-11.519,2.021
			c-0.33,0.163-0.565,0.509-0.565,0.9c0,0.145,0.036,0.289,0.09,0.412c0.354,1.025-0.227,2.137-3.126,2.775
			c-4.298,0.944-7.011,5.38-8.563,6.852c-1.823,1.732-6.973,2.794-6.198,1.762c0.607-0.805,2.923-3.322,4.333-6.042
			c1.261-2.432,2.383-3.123,3.93-5.443c0.453-0.679,2.212-3.069,2.724-4.961c0.574-1.844,0.38-4.162,0.601-5.114
			c0.316-1.377,1.614-4.36,1.712-6.045c0.057-0.954-3.979,1.36-5.894,1.36s-3.779-1.148-5.49-1.23
			c-2.117-0.098-3.478,1.635-5.394,1.331c-1.093-0.175-2.015-1.14-3.926-1.21c-2.722-0.1-6.047,1.514-12.294,1.312
			c-6.144-0.201-11.82-7.767-12.594-8.97c-0.908-1.41-2.017-1.41-3.224-0.3c-1.21,1.107-2.7,0.236-3.125-0.508
			c-0.806-1.408-2.96-5.529-6.298-6.395c-4.615-1.196-6.952,2.555-6.648,5.54c0.308,3.03,2.266,3.88,3.174,5.49
			c0.906,1.612,1.37,2.649,3.077,3.362c1.209,0.507,1.659,1.251,1.299,2.245c-0.316,0.864-1.575,1.062-2.401,1.103
			c-1.758,0.084-2.991-0.394-3.89-0.967c-1.045-0.669-1.896-1.594-2.808-3.164c-1.056-1.734-2.719-2.49-4.656-2.49
			c-0.923,0-1.787,0.243-2.555,0.639c-3.036,1.582-6.649,2.516-10.54,2.516l-4.388,0.004c8.414,24.955,32.01,42.925,59.805,42.925
			C207.731,463.813,227.255,452.349,238.501,435.013z"/>
	</g>
	<g id="black">
		<g>
			<path d="M247.988,431.645h0.569l0.859,1.41h0.553l-0.93-1.437c0.482-0.058,0.847-0.311,0.847-0.891
				c0-0.647-0.381-0.927-1.149-0.927h-1.24v3.254h0.491V431.645z M247.988,431.227v-1.011h0.672c0.342,0,0.71,0.076,0.71,0.479
				c0,0.499-0.37,0.532-0.791,0.532H247.988z"/>
			<path d="M251.762,431.432c0,1.757-1.429,3.187-3.189,3.187s-3.19-1.43-3.19-3.187c0-1.761,1.43-3.19,3.19-3.19
				S251.762,429.671,251.762,431.432z M248.572,428.806c-1.45,0-2.626,1.176-2.626,2.628c0,1.446,1.176,2.616,2.626,2.616
				c1.447,0,2.622-1.17,2.622-2.616C251.194,429.981,250.02,428.806,248.572,428.806z"/>
		</g>
		<g>
			<path d="M238.501,435.017c-2.433-0.562-5.012-0.91-7.621-0.91c-4.463,0-8.524,0.774-11.519,2.018
				c-0.33,0.166-0.565,0.51-0.565,0.903c0,0.142,0.036,0.29,0.09,0.409c0.354,1.027-0.227,2.141-3.126,2.777
				c-4.298,0.944-7.011,5.378-8.563,6.853c-1.823,1.729-6.973,2.795-6.198,1.763c0.607-0.807,2.923-3.324,4.333-6.045
				c1.261-2.429,2.383-3.122,3.93-5.44c0.453-0.682,2.212-3.072,2.724-4.962c0.574-1.847,0.38-4.161,0.601-5.116
				c0.316-1.374,1.614-4.359,1.712-6.043c0.057-0.952-3.979,1.357-5.894,1.357s-3.779-1.144-5.49-1.227
				c-2.117-0.102-3.478,1.632-5.394,1.329c-1.093-0.175-2.015-1.137-3.926-1.209c-2.722-0.101-6.047,1.512-12.294,1.311
				c-6.144-0.197-11.82-7.763-12.594-8.966c-0.908-1.413-2.017-1.413-3.224-0.302c-1.21,1.104-2.7,0.235-3.125-0.507
				c-0.806-1.41-2.96-5.533-6.298-6.396c-4.615-1.198-6.952,2.555-6.648,5.539c0.308,3.029,2.266,3.879,3.174,5.489
				c0.906,1.612,1.37,2.655,3.077,3.368c1.209,0.501,1.659,1.249,1.299,2.242c-0.316,0.864-1.575,1.062-2.401,1.103
				c-1.758,0.083-2.991-0.394-3.89-0.97c-1.045-0.664-1.896-1.59-2.808-3.162c-1.056-1.734-2.719-2.489-4.656-2.489
				c-0.923,0-1.787,0.245-2.555,0.639c-3.036,1.579-6.649,2.517-10.54,2.517h-4.388c-2.136-6.332-3.293-13.116-3.293-20.17
				c0-34.849,28.25-63.097,63.098-63.097s63.096,28.248,63.096,63.097C248.626,413.365,244.906,425.14,238.501,435.017z"/>
		</g>
		<path d="M280.79,404.699c0-5.787-0.12-10.043-0.354-13.893h9.465l0.405,8.211h0.31c2.127-6.086,7.168-9.188,11.834-9.188
			c1.067,0,1.689,0.04,2.563,0.236v10.296c-1.022-0.201-1.979-0.311-3.293-0.311c-5.208,0-8.822,3.313-9.798,8.268
			c-0.185,0.964-0.283,2.12-0.283,3.298v22.418h-10.938L280.79,404.699z"/>
		<path d="M318.208,415.362c0.289,7.833,6.352,11.26,13.352,11.26c5.026,0,8.624-0.787,11.929-2.001l1.617,7.52
			c-3.697,1.57-8.832,2.741-15.105,2.741c-14.037,0-22.26-8.668-22.26-21.913c0-11.931,7.237-23.221,21.142-23.221
			c14.056,0,18.631,11.561,18.631,21.023c0,2.031-0.181,3.662-0.389,4.67L318.208,415.362z M337.218,407.748
			c0.05-4.006-1.693-10.533-9.014-10.533c-6.73,0-9.527,6.104-10.018,10.533H337.218z"/>
		<path d="M383.68,415.291c0,1.146-0.081,2.213-0.331,3.188c-1.101,4.73-4.969,7.779-9.439,7.779c-6.882,0-10.82-5.802-10.82-13.744
			c0-8.021,3.903-14.228,10.944-14.228c4.915,0,8.434,3.465,9.4,7.675c0.187,0.886,0.246,1.978,0.246,2.852V415.291z
			 M394.604,374.16l-10.925-3.082v24.382h-0.18c-1.934-3.193-6.196-5.631-12.113-5.631c-10.396,0-19.446,8.602-19.381,23.085
			c0,13.287,8.176,22.091,18.499,22.091c6.238,0,11.453-2.973,14.036-7.815h0.194l0.49,6.845h9.739
			c-0.201-2.938-0.36-7.699-0.36-12.124V374.16z"/>
		<path d="M423.507,389.78c-3.292,0-6.241,0.949-8.719,2.479c-2.572,1.507-4.665,3.832-5.91,6.24h-0.173v-20.231l-4.28-1.264v57.031
			h4.28v-26.457c0-1.758,0.134-2.977,0.582-4.262c1.849-5.382,6.92-9.798,13.049-9.798c8.856,0,11.923,7.103,11.923,14.893v25.624
			h4.276v-26.096C438.535,391.826,427.607,389.78,423.507,389.78z"/>
		<path d="M476.934,423.759c0,3.421,0.138,6.963,0.631,10.276h-3.941l-0.628-6.199h-0.204c-2.096,3.334-6.916,7.184-13.793,7.184
			c-8.705,0-12.756-6.122-12.756-11.891c0-9.986,8.814-16.002,26.414-15.816v-1.156c0-4.28-0.832-12.816-11.065-12.749
			c-3.786,0-7.73,1.013-10.86,3.224l-1.362-3.112c3.952-2.679,8.779-3.738,12.692-3.738c12.484,0,14.873,9.372,14.873,17.103
			V423.759z M472.656,410.912c-9.421-0.271-21.859,1.156-21.859,11.543c0,6.217,4.104,9.012,8.61,9.012
			c7.209,0,11.309-4.464,12.802-8.675c0.311-0.923,0.447-1.851,0.447-2.592V410.912z"/>
		<path d="M493.973,381.236v9.534h12.332v3.471h-12.332v28.119c0,5.501,1.708,8.948,6.355,8.948c2.229,0,3.807-0.293,4.915-0.678
			l0.519,3.313c-1.397,0.586-3.359,1.04-5.971,1.04c-3.157,0-5.775-0.994-7.466-3.068c-1.959-2.272-2.629-5.903-2.629-10.317V394.24
			h-7.301v-3.471h7.301v-7.955L493.973,381.236z"/>
		<g>
			<path d="M511.711,431.731h0.568l0.857,1.408h0.554l-0.928-1.437c0.483-0.059,0.847-0.311,0.847-0.891
				c0-0.647-0.385-0.927-1.15-0.927h-1.242v3.254h0.494V431.731z M511.711,431.312v-1.01h0.67c0.339,0,0.71,0.076,0.71,0.477
				c0,0.501-0.371,0.533-0.791,0.533H511.711z"/>
			<path d="M515.483,431.516c0,1.758-1.43,3.187-3.19,3.187c-1.757,0-3.189-1.429-3.189-3.187c0-1.761,1.433-3.189,3.189-3.189
				C514.054,428.326,515.483,429.755,515.483,431.516z M512.293,428.891c-1.453,0-2.625,1.175-2.625,2.627
				c0,1.447,1.172,2.616,2.625,2.616c1.447,0,2.622-1.169,2.622-2.616C514.915,430.065,513.74,428.891,512.293,428.891z"/>
		</g>
		<path d="M199.427,429.229c0.324,0.315,0.883,1.383,0.199,2.732c-0.383,0.717-0.796,1.22-1.534,1.809
			c-0.887,0.713-2.623,1.533-5.002,0.025c-1.278-0.812-1.356-1.085-3.123-0.856c-1.262,0.166-1.764-1.107-1.311-2.168
			c0.455-1.055,2.319-1.911,4.636-0.552c1.043,0.611,2.668,1.907,4.092,0.76c0.589-0.473,0.942-0.787,1.761-1.736
			c0.038-0.038,0.09-0.062,0.147-0.062C199.343,429.182,199.391,429.201,199.427,429.229z"/>
	</g>
	<path id="red" fill="#E22434" d="M180.619,367.667c-7.288,0.527-8.044,1.314-9.41,2.768c-1.925,2.05-4.461-2.66-4.461-2.66
		c-1.521-0.32-3.366-2.774-2.372-5.065c0.981-2.266,2.792-1.586,3.359-0.881c0.69,0.859,2.164,2.265,4.077,2.214
		c1.913-0.05,4.12-0.452,7.198-0.452c3.119,0,5.217,1.165,5.334,2.166C184.446,366.61,184.092,367.415,180.619,367.667z
		 M188.276,355.624c-0.011,0-0.022,0.002-0.033,0.002c-0.113,0-0.204-0.087-0.204-0.191c0-0.077,0.047-0.143,0.115-0.174
		c1.414-0.745,3.521-1.34,5.934-1.586c0.724-0.074,1.432-0.112,2.113-0.117c0.12,0,0.239,0,0.36,0.001
		c4.044,0.092,7.281,1.699,7.234,3.589c-0.048,1.893-3.364,3.352-7.409,3.262c-1.309-0.031-2.538-0.221-3.596-0.526
		c-0.125-0.033-0.215-0.139-0.215-0.265s0.091-0.235,0.218-0.267c2.523-0.584,4.226-1.538,4.106-2.439
		c-0.159-1.195-3.458-1.846-7.372-1.453C189.098,355.505,188.681,355.56,188.276,355.624z M221.136,383.931
		c-0.625,2.097-1.51,4.777-5.456,6.802c-0.575,0.295-0.794-0.188-0.529-0.642c1.491-2.536,1.756-3.17,2.189-4.17
		c0.606-1.463,0.924-3.544-0.282-7.883c-2.373-8.54-7.323-19.954-10.922-23.657c-3.472-3.574-9.764-4.578-15.451-3.12
		c-2.095,0.537-6.192,2.668-13.791,0.957c-13.152-2.962-15.101,3.623-15.854,6.491c-0.756,2.87-2.568,11.023-2.568,11.023
		c-0.604,3.322-1.395,9.096,19.026,12.986c9.514,1.811,9.997,4.27,10.417,6.038c0.756,3.169,1.962,4.983,3.322,5.89
		c1.359,0.908,0,1.658-1.508,1.812c-4.052,0.421-19.026-3.874-27.885-8.908c-7.249-4.429-7.369-8.418-5.71-11.801
		c-10.948-1.184-19.166,1.026-20.654,6.209c-2.557,8.895,19.555,24.089,44.735,31.714c26.425,8,53.603,2.414,56.625-14.195
		C238.21,391.931,231.854,386.349,221.136,383.931z"/>
</g>
</svg>
